G04 #@! TF.GenerationSoftware,KiCad,Pcbnew,(5.0.1-3-g963ef8bb5)*
G04 #@! TF.CreationDate,2020-01-16T13:34:53+00:00*
G04 #@! TF.ProjectId,SystemKeyboard,53797374656D4B6579626F6172642E6B,rev?*
G04 #@! TF.SameCoordinates,Original*
G04 #@! TF.FileFunction,Copper,L1,Top,Signal*
G04 #@! TF.FilePolarity,Positive*
%FSLAX46Y46*%
G04 Gerber Fmt 4.6, Leading zero omitted, Abs format (unit mm)*
G04 Created by KiCad (PCBNEW (5.0.1-3-g963ef8bb5)) date Thursday, 16 January 2020 at 13:34:53*
%MOMM*%
%LPD*%
G01*
G04 APERTURE LIST*
G04 #@! TA.AperFunction,ComponentPad*
%ADD10C,1.600000*%
G04 #@! TD*
G04 #@! TA.AperFunction,ComponentPad*
%ADD11R,1.600000X1.600000*%
G04 #@! TD*
G04 #@! TA.AperFunction,ComponentPad*
%ADD12C,3.050000*%
G04 #@! TD*
G04 #@! TA.AperFunction,ComponentPad*
%ADD13R,1.520000X1.520000*%
G04 #@! TD*
G04 #@! TA.AperFunction,ComponentPad*
%ADD14C,1.520000*%
G04 #@! TD*
G04 #@! TA.AperFunction,ComponentPad*
%ADD15R,1.700000X1.700000*%
G04 #@! TD*
G04 #@! TA.AperFunction,ComponentPad*
%ADD16O,1.700000X1.700000*%
G04 #@! TD*
G04 #@! TA.AperFunction,ComponentPad*
%ADD17R,2.200000X2.200000*%
G04 #@! TD*
G04 #@! TA.AperFunction,ComponentPad*
%ADD18O,2.200000X2.200000*%
G04 #@! TD*
G04 #@! TA.AperFunction,ViaPad*
%ADD19C,0.800000*%
G04 #@! TD*
G04 #@! TA.AperFunction,Conductor*
%ADD20C,0.250000*%
G04 #@! TD*
G04 #@! TA.AperFunction,Conductor*
%ADD21C,0.500000*%
G04 #@! TD*
G04 #@! TA.AperFunction,Conductor*
%ADD22C,0.254000*%
G04 #@! TD*
G04 APERTURE END LIST*
D10*
G04 #@! TO.P,U1,52*
G04 #@! TO.N,Net-(U1-Pad52)*
X99060000Y-97865001D03*
G04 #@! TO.P,U1,51*
G04 #@! TO.N,Net-(U1-Pad51)*
X101600000Y-97865001D03*
G04 #@! TO.P,U1,50*
G04 #@! TO.N,Net-(U1-Pad50)*
X101600000Y-95325001D03*
G04 #@! TO.P,U1,49*
G04 #@! TO.N,Net-(U1-Pad49)*
X101600000Y-92785001D03*
G04 #@! TO.P,U1,48*
G04 #@! TO.N,Net-(U1-Pad48)*
X101600000Y-90245001D03*
G04 #@! TO.P,U1,47*
G04 #@! TO.N,Net-(U1-Pad47)*
X104140000Y-97865001D03*
G04 #@! TO.P,U1,46*
G04 #@! TO.N,Net-(U1-Pad46)*
X104140000Y-95325001D03*
G04 #@! TO.P,U1,45*
G04 #@! TO.N,Net-(U1-Pad45)*
X104140000Y-92785001D03*
G04 #@! TO.P,U1,44*
G04 #@! TO.N,Net-(U1-Pad44)*
X104140000Y-90245001D03*
G04 #@! TO.P,U1,43*
G04 #@! TO.N,Net-(U1-Pad43)*
X109220000Y-57225001D03*
G04 #@! TO.P,U1,42*
G04 #@! TO.N,/DATA6*
X109220000Y-59765001D03*
G04 #@! TO.P,U1,41*
G04 #@! TO.N,/DATA5*
X109220000Y-62305001D03*
G04 #@! TO.P,U1,40*
G04 #@! TO.N,/DATA4*
X109220000Y-64845001D03*
G04 #@! TO.P,U1,39*
G04 #@! TO.N,/DATA3*
X109220000Y-67385001D03*
G04 #@! TO.P,U1,38*
G04 #@! TO.N,/DATA2*
X109220000Y-69925001D03*
G04 #@! TO.P,U1,37*
G04 #@! TO.N,/DATA1*
X109220000Y-72465001D03*
G04 #@! TO.P,U1,36*
G04 #@! TO.N,/DATA0*
X109220000Y-75005001D03*
G04 #@! TO.P,U1,35*
G04 #@! TO.N,/USRINT1*
X109220000Y-77545001D03*
G04 #@! TO.P,U1,34*
G04 #@! TO.N,/USRINT2*
X109220000Y-80085001D03*
G04 #@! TO.P,U1,33*
G04 #@! TO.N,/GND*
X109220000Y-82625001D03*
G04 #@! TO.P,U1,32*
G04 #@! TO.N,Net-(U1-Pad32)*
X109220000Y-85165001D03*
G04 #@! TO.P,U1,31*
G04 #@! TO.N,Net-(U1-Pad31)*
X109220000Y-87705001D03*
G04 #@! TO.P,U1,30*
G04 #@! TO.N,Net-(U1-Pad30)*
X109220000Y-90245001D03*
G04 #@! TO.P,U1,29*
G04 #@! TO.N,Net-(U1-Pad29)*
X109220000Y-92785001D03*
G04 #@! TO.P,U1,28*
G04 #@! TO.N,Net-(U1-Pad28)*
X109220000Y-95325001D03*
G04 #@! TO.P,U1,27*
G04 #@! TO.N,Net-(U1-Pad27)*
X109220000Y-97865001D03*
G04 #@! TO.P,U1,26*
G04 #@! TO.N,Net-(U1-Pad26)*
X109220000Y-100405001D03*
G04 #@! TO.P,U1,25*
G04 #@! TO.N,Net-(U1-Pad25)*
X109220000Y-102945001D03*
G04 #@! TO.P,U1,24*
G04 #@! TO.N,Net-(U1-Pad24)*
X109220000Y-105485001D03*
G04 #@! TO.P,U1,23*
G04 #@! TO.N,Net-(U1-Pad23)*
X104140000Y-105485001D03*
G04 #@! TO.P,U1,22*
G04 #@! TO.N,/GND*
X101600000Y-105485001D03*
G04 #@! TO.P,U1,21*
G04 #@! TO.N,Net-(D1-Pad2)*
X99060000Y-105485001D03*
G04 #@! TO.P,U1,20*
G04 #@! TO.N,/USR7*
X93980000Y-105485001D03*
G04 #@! TO.P,U1,19*
G04 #@! TO.N,/USR6*
X93980000Y-102945001D03*
G04 #@! TO.P,U1,18*
G04 #@! TO.N,/USR5*
X93980000Y-100405001D03*
G04 #@! TO.P,U1,17*
G04 #@! TO.N,/USR4*
X93980000Y-97865001D03*
G04 #@! TO.P,U1,16*
G04 #@! TO.N,/USR3*
X93980000Y-95325001D03*
G04 #@! TO.P,U1,15*
G04 #@! TO.N,/USR2*
X93980000Y-92785001D03*
G04 #@! TO.P,U1,14*
G04 #@! TO.N,/USR1*
X93980000Y-90245001D03*
G04 #@! TO.P,U1,13*
G04 #@! TO.N,/USR0*
X93980000Y-87705001D03*
G04 #@! TO.P,U1,12*
G04 #@! TO.N,Net-(U1-Pad12)*
X93980000Y-85165001D03*
D11*
G04 #@! TO.P,U1,1*
G04 #@! TO.N,/GND*
X93980000Y-57225001D03*
D10*
G04 #@! TO.P,U1,2*
G04 #@! TO.N,Net-(U1-Pad2)*
X93980000Y-59765001D03*
G04 #@! TO.P,U1,3*
G04 #@! TO.N,/BLANK*
X93980000Y-62305001D03*
G04 #@! TO.P,U1,4*
G04 #@! TO.N,/NRST*
X93980000Y-64845001D03*
G04 #@! TO.P,U1,5*
G04 #@! TO.N,/NSTROBE*
X93980000Y-67385001D03*
G04 #@! TO.P,U1,6*
G04 #@! TO.N,/USRINT0*
X93980000Y-69925001D03*
G04 #@! TO.P,U1,7*
G04 #@! TO.N,Net-(U1-Pad7)*
X93980000Y-72465001D03*
G04 #@! TO.P,U1,8*
G04 #@! TO.N,Net-(U1-Pad8)*
X93980000Y-75005001D03*
G04 #@! TO.P,U1,11*
G04 #@! TO.N,Net-(U1-Pad11)*
X93980000Y-82625001D03*
G04 #@! TO.P,U1,10*
G04 #@! TO.N,Net-(U1-Pad10)*
X93980000Y-80085001D03*
G04 #@! TO.P,U1,9*
G04 #@! TO.N,Net-(U1-Pad9)*
X93980000Y-77545001D03*
G04 #@! TD*
D12*
G04 #@! TO.P,J2,*
G04 #@! TO.N,*
X159510000Y-64260000D03*
X124970000Y-64260000D03*
D13*
G04 #@! TO.P,J2,1*
G04 #@! TO.N,/BLANK*
X130810000Y-66040000D03*
D14*
G04 #@! TO.P,J2,2*
G04 #@! TO.N,Net-(J2-Pad2)*
X130810000Y-63500000D03*
G04 #@! TO.P,J2,3*
G04 #@! TO.N,Net-(J2-Pad3)*
X133350000Y-66040000D03*
G04 #@! TO.P,J2,4*
G04 #@! TO.N,Net-(J2-Pad4)*
X133350000Y-63500000D03*
G04 #@! TO.P,J2,5*
G04 #@! TO.N,Net-(J2-Pad5)*
X135890000Y-66040000D03*
G04 #@! TO.P,J2,6*
G04 #@! TO.N,Net-(J2-Pad6)*
X135890000Y-63500000D03*
G04 #@! TO.P,J2,7*
G04 #@! TO.N,Net-(J2-Pad7)*
X138430000Y-66040000D03*
G04 #@! TO.P,J2,8*
G04 #@! TO.N,Net-(J2-Pad8)*
X138430000Y-63500000D03*
G04 #@! TO.P,J2,9*
G04 #@! TO.N,Net-(J2-Pad9)*
X140970000Y-66040000D03*
G04 #@! TO.P,J2,10*
G04 #@! TO.N,/DATA0*
X140970000Y-63500000D03*
G04 #@! TO.P,J2,11*
G04 #@! TO.N,/GND*
X143510000Y-66040000D03*
G04 #@! TO.P,J2,12*
G04 #@! TO.N,/DATA1*
X143510000Y-63500000D03*
G04 #@! TO.P,J2,13*
G04 #@! TO.N,/VCC*
X146050000Y-66040000D03*
G04 #@! TO.P,J2,14*
G04 #@! TO.N,/DATA2*
X146050000Y-63500000D03*
G04 #@! TO.P,J2,15*
G04 #@! TO.N,/NRST*
X148590000Y-66040000D03*
G04 #@! TO.P,J2,16*
G04 #@! TO.N,/DATA3*
X148590000Y-63500000D03*
G04 #@! TO.P,J2,17*
G04 #@! TO.N,/NSTROBE*
X151130000Y-66040000D03*
G04 #@! TO.P,J2,18*
G04 #@! TO.N,/DATA4*
X151130000Y-63500000D03*
G04 #@! TO.P,J2,19*
G04 #@! TO.N,/DATA6*
X153670000Y-66040000D03*
G04 #@! TO.P,J2,20*
G04 #@! TO.N,/DATA5*
X153670000Y-63500000D03*
G04 #@! TD*
D15*
G04 #@! TO.P,J1,1*
G04 #@! TO.N,/GND*
X166370000Y-96520000D03*
D16*
G04 #@! TO.P,J1,2*
G04 #@! TO.N,Net-(J1-Pad2)*
X163830000Y-96520000D03*
G04 #@! TO.P,J1,3*
G04 #@! TO.N,Net-(J1-Pad3)*
X161290000Y-96520000D03*
G04 #@! TO.P,J1,4*
G04 #@! TO.N,Net-(J1-Pad4)*
X158750000Y-96520000D03*
G04 #@! TO.P,J1,5*
G04 #@! TO.N,/BLANK*
X156210000Y-96520000D03*
G04 #@! TO.P,J1,6*
G04 #@! TO.N,Net-(J1-Pad6)*
X153670000Y-96520000D03*
G04 #@! TO.P,J1,7*
G04 #@! TO.N,Net-(J1-Pad7)*
X151130000Y-96520000D03*
G04 #@! TO.P,J1,8*
G04 #@! TO.N,Net-(J1-Pad8)*
X148590000Y-96520000D03*
G04 #@! TO.P,J1,9*
G04 #@! TO.N,Net-(J1-Pad9)*
X146050000Y-96520000D03*
G04 #@! TO.P,J1,10*
G04 #@! TO.N,Net-(J1-Pad10)*
X143510000Y-96520000D03*
G04 #@! TO.P,J1,11*
G04 #@! TO.N,/DATA0*
X140970000Y-96520000D03*
G04 #@! TO.P,J1,12*
G04 #@! TO.N,/DATA1*
X138430000Y-96520000D03*
G04 #@! TO.P,J1,13*
G04 #@! TO.N,/DATA2*
X135890000Y-96520000D03*
G04 #@! TO.P,J1,14*
G04 #@! TO.N,/DATA3*
X133350000Y-96520000D03*
G04 #@! TO.P,J1,15*
G04 #@! TO.N,/DATA4*
X130810000Y-96520000D03*
G04 #@! TO.P,J1,16*
G04 #@! TO.N,/DATA5*
X128270000Y-96520000D03*
G04 #@! TO.P,J1,17*
G04 #@! TO.N,/DATA6*
X125730000Y-96520000D03*
G04 #@! TO.P,J1,18*
G04 #@! TO.N,/NSTROBE*
X123190000Y-96520000D03*
G04 #@! TO.P,J1,19*
G04 #@! TO.N,/NRST*
X120650000Y-96520000D03*
G04 #@! TO.P,J1,20*
G04 #@! TO.N,/VCC*
X118110000Y-96520000D03*
G04 #@! TD*
D17*
G04 #@! TO.P,D1,1*
G04 #@! TO.N,/VCC*
X106680000Y-109220000D03*
D18*
G04 #@! TO.P,D1,2*
G04 #@! TO.N,Net-(D1-Pad2)*
X96520000Y-109220000D03*
G04 #@! TD*
D15*
G04 #@! TO.P,J3,1*
G04 #@! TO.N,/USRINT0*
X90170000Y-72390000D03*
G04 #@! TD*
G04 #@! TO.P,J4,1*
G04 #@! TO.N,/USRINT1*
X90170000Y-76200000D03*
G04 #@! TD*
G04 #@! TO.P,J5,1*
G04 #@! TO.N,/USRINT2*
X90170000Y-80010000D03*
G04 #@! TD*
G04 #@! TO.P,J6,1*
G04 #@! TO.N,/USR0*
X90170000Y-87630000D03*
D16*
G04 #@! TO.P,J6,2*
G04 #@! TO.N,/USR1*
X90170000Y-90170000D03*
G04 #@! TO.P,J6,3*
G04 #@! TO.N,/USR2*
X90170000Y-92710000D03*
G04 #@! TO.P,J6,4*
G04 #@! TO.N,/USR3*
X90170000Y-95250000D03*
G04 #@! TO.P,J6,5*
G04 #@! TO.N,/USR4*
X90170000Y-97790000D03*
G04 #@! TO.P,J6,6*
G04 #@! TO.N,/USR5*
X90170000Y-100330000D03*
G04 #@! TO.P,J6,7*
G04 #@! TO.N,/USR6*
X90170000Y-102870000D03*
G04 #@! TO.P,J6,8*
G04 #@! TO.N,/USR7*
X90170000Y-105410000D03*
G04 #@! TD*
D19*
G04 #@! TO.N,/DATA0*
X140970000Y-88900000D03*
G04 #@! TO.N,/DATA1*
X138430000Y-86360000D03*
G04 #@! TO.N,/DATA2*
X135890000Y-83820000D03*
G04 #@! TO.N,/DATA3*
X133350000Y-81280000D03*
G04 #@! TO.N,/DATA4*
X130810000Y-78740000D03*
G04 #@! TO.N,/DATA5*
X128270000Y-76200000D03*
G04 #@! TO.N,/DATA6*
X125730000Y-73660000D03*
G04 #@! TO.N,/NSTROBE*
X123190000Y-91440000D03*
G04 #@! TO.N,/NRST*
X128270000Y-60960000D03*
G04 #@! TO.N,/USRINT1*
X105410000Y-76200000D03*
G04 #@! TD*
D20*
G04 #@! TO.N,/GND*
X143510000Y-68580000D02*
X143510000Y-66040000D01*
D21*
X144780000Y-71120000D02*
X143510000Y-69850000D01*
X143510000Y-69850000D02*
X143510000Y-66040000D01*
X143510000Y-69850000D02*
X146050000Y-72390000D01*
X163830000Y-72390000D02*
X166370000Y-74930000D01*
X146050000Y-72390000D02*
X163830000Y-72390000D01*
X166370000Y-96520000D02*
X166370000Y-74930000D01*
D20*
G04 #@! TO.N,/BLANK*
X96444999Y-62305001D02*
X93980000Y-62305001D01*
X100330000Y-58420000D02*
X96444999Y-62305001D01*
X111760000Y-58420000D02*
X100330000Y-58420000D01*
X156210000Y-80010000D02*
X156210000Y-96520000D01*
X153670000Y-77470000D02*
X156210000Y-80010000D01*
X137160000Y-77470000D02*
X153670000Y-77470000D01*
X119380000Y-66040000D02*
X121920000Y-68580000D01*
X132080000Y-72390000D02*
X137160000Y-77470000D01*
X128270000Y-68580000D02*
X132080000Y-72390000D01*
X130810000Y-71120000D02*
X132080000Y-72390000D01*
X120650000Y-67310000D02*
X119380000Y-66040000D01*
X119380000Y-66040000D02*
X111760000Y-58420000D01*
X128270000Y-68580000D02*
X130810000Y-66040000D01*
X121920000Y-68580000D02*
X128270000Y-68580000D01*
G04 #@! TO.N,/DATA0*
X114300000Y-88900000D02*
X140970000Y-88900000D01*
X109220000Y-75005001D02*
X110565001Y-75005001D01*
X110565001Y-75005001D02*
X113030000Y-77470000D01*
X113030000Y-77470000D02*
X113030000Y-87630000D01*
X113030000Y-87630000D02*
X114300000Y-88900000D01*
G04 #@! TO.N,/DATA1*
X115570000Y-86360000D02*
X138430000Y-86360000D01*
X114300000Y-85090000D02*
X115570000Y-86360000D01*
X114300000Y-76200000D02*
X114300000Y-85090000D01*
X110565001Y-72465001D02*
X114300000Y-76200000D01*
X109220000Y-72465001D02*
X110565001Y-72465001D01*
G04 #@! TO.N,/DATA2*
X109220000Y-69925001D02*
X110565001Y-69925001D01*
X110565001Y-69925001D02*
X115570000Y-74930000D01*
X115570000Y-74930000D02*
X115570000Y-82550000D01*
X115570000Y-82550000D02*
X116840000Y-83820000D01*
X116840000Y-83820000D02*
X135890000Y-83820000D01*
G04 #@! TO.N,/DATA3*
X109220000Y-67385001D02*
X110565001Y-67385001D01*
X110565001Y-67385001D02*
X116840000Y-73660000D01*
X116840000Y-73660000D02*
X116840000Y-80010000D01*
X116840000Y-80010000D02*
X118110000Y-81280000D01*
X118110000Y-81280000D02*
X133350000Y-81280000D01*
G04 #@! TO.N,/DATA4*
X109220000Y-64845001D02*
X110565001Y-64845001D01*
X110565001Y-64845001D02*
X118110000Y-72390000D01*
X118110000Y-72390000D02*
X118110000Y-77470000D01*
X119380000Y-78740000D02*
X130810000Y-78740000D01*
X118110000Y-77470000D02*
X119380000Y-78740000D01*
G04 #@! TO.N,/DATA5*
X109220000Y-62305001D02*
X110565001Y-62305001D01*
X110565001Y-62305001D02*
X119380000Y-71120000D01*
X119380000Y-71120000D02*
X119380000Y-74930000D01*
X119380000Y-74930000D02*
X120650000Y-76200000D01*
X120650000Y-76200000D02*
X128270000Y-76200000D01*
G04 #@! TO.N,/DATA6*
X109220000Y-59765001D02*
X110565001Y-59765001D01*
X110565001Y-59765001D02*
X120650000Y-69850000D01*
X120650000Y-69850000D02*
X120650000Y-72390000D01*
X121920000Y-73660000D02*
X125730000Y-73660000D01*
X120650000Y-72390000D02*
X121920000Y-73660000D01*
G04 #@! TO.N,/NSTROBE*
X99135001Y-62230000D02*
X93980000Y-67385001D01*
X105410000Y-62230000D02*
X99135001Y-62230000D01*
X106680000Y-63500000D02*
X105410000Y-62230000D01*
X106680000Y-77470000D02*
X106680000Y-63500000D01*
X111760000Y-90170000D02*
X111760000Y-80959999D01*
X107880002Y-78670002D02*
X106680000Y-77470000D01*
X123190000Y-91440000D02*
X113030000Y-91440000D01*
X109470003Y-78670002D02*
X107880002Y-78670002D01*
X111760000Y-80959999D02*
X109470003Y-78670002D01*
X113030000Y-91440000D02*
X111760000Y-90170000D01*
G04 #@! TO.N,/NRST*
X149860000Y-64770000D02*
X148590000Y-66040000D01*
X149860000Y-62230000D02*
X149860000Y-64770000D01*
X148590000Y-60960000D02*
X149860000Y-62230000D01*
X128270000Y-60960000D02*
X148590000Y-60960000D01*
G04 #@! TO.N,/VCC*
X111760000Y-109220000D02*
X118110000Y-109220000D01*
D21*
X113030000Y-109220000D02*
X114300000Y-107950000D01*
X114300000Y-107950000D02*
X114300000Y-97790000D01*
X115570000Y-96520000D02*
X118110000Y-96520000D01*
X115570000Y-96520000D02*
X114300000Y-97790000D01*
X146050000Y-68580000D02*
X146050000Y-66040000D01*
X166370000Y-109220000D02*
X168910000Y-106680000D01*
X168910000Y-106680000D02*
X168910000Y-72390000D01*
X113030000Y-109220000D02*
X166370000Y-109220000D01*
X146050000Y-68580000D02*
X147320000Y-69850000D01*
X147320000Y-69850000D02*
X166370000Y-69850000D01*
X168910000Y-72390000D02*
X166370000Y-69850000D01*
X110490000Y-109220000D02*
X113030000Y-109220000D01*
X106680000Y-109220000D02*
X111760000Y-109220000D01*
X113030000Y-109220000D02*
X106680000Y-109220000D01*
G04 #@! TO.N,Net-(D1-Pad2)*
X96520000Y-106680000D02*
X96520000Y-109220000D01*
X97714999Y-105485001D02*
X96520000Y-106680000D01*
X97714999Y-105485001D02*
X99060000Y-105485001D01*
D20*
G04 #@! TO.N,/USRINT0*
X91515001Y-72390000D02*
X93980000Y-69925001D01*
X90170000Y-72390000D02*
X91515001Y-72390000D01*
G04 #@! TO.N,/USR0*
X93904999Y-87630000D02*
X93980000Y-87705001D01*
X90170000Y-87630000D02*
X93904999Y-87630000D01*
G04 #@! TO.N,/USR1*
X93904999Y-90170000D02*
X93980000Y-90245001D01*
X90170000Y-90170000D02*
X93904999Y-90170000D01*
G04 #@! TO.N,/USR2*
X93904999Y-92710000D02*
X93980000Y-92785001D01*
X90170000Y-92710000D02*
X93904999Y-92710000D01*
G04 #@! TO.N,/USR3*
X93904999Y-95250000D02*
X93980000Y-95325001D01*
X90170000Y-95250000D02*
X93904999Y-95250000D01*
G04 #@! TO.N,/USR4*
X93904999Y-97790000D02*
X93980000Y-97865001D01*
X90170000Y-97790000D02*
X93904999Y-97790000D01*
G04 #@! TO.N,/USR5*
X93904999Y-100330000D02*
X93980000Y-100405001D01*
X90170000Y-100330000D02*
X93904999Y-100330000D01*
G04 #@! TO.N,/USR6*
X93904999Y-102870000D02*
X93980000Y-102945001D01*
X90170000Y-102870000D02*
X93904999Y-102870000D01*
G04 #@! TO.N,/USR7*
X93904999Y-105410000D02*
X93980000Y-105485001D01*
X90170000Y-105410000D02*
X93904999Y-105410000D01*
G04 #@! TO.N,/USRINT1*
X90170000Y-76200000D02*
X105410000Y-76200000D01*
G04 #@! TO.N,/USRINT2*
X95645002Y-80085001D02*
X109220000Y-80085001D01*
X94520001Y-78960000D02*
X95645002Y-80085001D01*
X92320000Y-78960000D02*
X94520001Y-78960000D01*
X91270000Y-80010000D02*
X92320000Y-78960000D01*
X90170000Y-80010000D02*
X91270000Y-80010000D01*
G04 #@! TD*
D22*
G04 #@! TO.N,/GND*
G36*
X169190000Y-55435270D02*
X168663232Y-55877281D01*
X168319409Y-56472800D01*
X168200000Y-57150000D01*
X168319409Y-57827200D01*
X168663232Y-58422719D01*
X169190000Y-58864730D01*
X169836177Y-59099919D01*
X170523823Y-59099919D01*
X171170000Y-58864730D01*
X171696768Y-58422719D01*
X172010000Y-57880185D01*
X172010001Y-108450424D01*
X171712089Y-107934425D01*
X171180000Y-107487949D01*
X170527296Y-107250384D01*
X169832704Y-107250384D01*
X169452990Y-107388589D01*
X169474156Y-107367423D01*
X169548049Y-107318049D01*
X169743652Y-107025310D01*
X169795000Y-106767165D01*
X169795000Y-106767161D01*
X169812337Y-106680001D01*
X169795000Y-106592841D01*
X169795000Y-72477159D01*
X169812337Y-72389999D01*
X169795000Y-72302839D01*
X169795000Y-72302835D01*
X169743652Y-72044690D01*
X169658380Y-71917072D01*
X169597424Y-71825845D01*
X169597423Y-71825844D01*
X169548049Y-71751951D01*
X169474156Y-71702577D01*
X167057425Y-69285847D01*
X167008049Y-69211951D01*
X166715310Y-69016348D01*
X166457165Y-68965000D01*
X166457161Y-68965000D01*
X166370000Y-68947663D01*
X166282839Y-68965000D01*
X147686579Y-68965000D01*
X146935000Y-68213422D01*
X146935000Y-67127828D01*
X147232624Y-66830204D01*
X147320000Y-66619260D01*
X147407376Y-66830204D01*
X147799796Y-67222624D01*
X148312517Y-67435000D01*
X148867483Y-67435000D01*
X149380204Y-67222624D01*
X149772624Y-66830204D01*
X149860000Y-66619260D01*
X149947376Y-66830204D01*
X150339796Y-67222624D01*
X150852517Y-67435000D01*
X151407483Y-67435000D01*
X151920204Y-67222624D01*
X152312624Y-66830204D01*
X152400000Y-66619260D01*
X152487376Y-66830204D01*
X152879796Y-67222624D01*
X153392517Y-67435000D01*
X153947483Y-67435000D01*
X154460204Y-67222624D01*
X154852624Y-66830204D01*
X155065000Y-66317483D01*
X155065000Y-65762517D01*
X154852624Y-65249796D01*
X154460204Y-64857376D01*
X154249260Y-64770000D01*
X154460204Y-64682624D01*
X154852624Y-64290204D01*
X155043102Y-63830349D01*
X157350000Y-63830349D01*
X157350000Y-64689651D01*
X157678840Y-65483542D01*
X158286458Y-66091160D01*
X159080349Y-66420000D01*
X159939651Y-66420000D01*
X160733542Y-66091160D01*
X161341160Y-65483542D01*
X161670000Y-64689651D01*
X161670000Y-63830349D01*
X161341160Y-63036458D01*
X160733542Y-62428840D01*
X159939651Y-62100000D01*
X159080349Y-62100000D01*
X158286458Y-62428840D01*
X157678840Y-63036458D01*
X157350000Y-63830349D01*
X155043102Y-63830349D01*
X155065000Y-63777483D01*
X155065000Y-63222517D01*
X154852624Y-62709796D01*
X154460204Y-62317376D01*
X153947483Y-62105000D01*
X153392517Y-62105000D01*
X152879796Y-62317376D01*
X152487376Y-62709796D01*
X152400000Y-62920740D01*
X152312624Y-62709796D01*
X151920204Y-62317376D01*
X151407483Y-62105000D01*
X150852517Y-62105000D01*
X150628483Y-62197798D01*
X150620000Y-62155152D01*
X150620000Y-62155148D01*
X150575904Y-61933463D01*
X150407929Y-61682071D01*
X150344473Y-61639671D01*
X149180331Y-60475530D01*
X149137929Y-60412071D01*
X148886537Y-60244096D01*
X148664852Y-60200000D01*
X148664847Y-60200000D01*
X148590000Y-60185112D01*
X148515153Y-60200000D01*
X128973711Y-60200000D01*
X128856280Y-60082569D01*
X128475874Y-59925000D01*
X128064126Y-59925000D01*
X127683720Y-60082569D01*
X127392569Y-60373720D01*
X127235000Y-60754126D01*
X127235000Y-61165874D01*
X127392569Y-61546280D01*
X127683720Y-61837431D01*
X128064126Y-61995000D01*
X128475874Y-61995000D01*
X128856280Y-61837431D01*
X128973711Y-61720000D01*
X148275199Y-61720000D01*
X148660199Y-62105000D01*
X148312517Y-62105000D01*
X147799796Y-62317376D01*
X147407376Y-62709796D01*
X147320000Y-62920740D01*
X147232624Y-62709796D01*
X146840204Y-62317376D01*
X146327483Y-62105000D01*
X145772517Y-62105000D01*
X145259796Y-62317376D01*
X144867376Y-62709796D01*
X144780000Y-62920740D01*
X144692624Y-62709796D01*
X144300204Y-62317376D01*
X143787483Y-62105000D01*
X143232517Y-62105000D01*
X142719796Y-62317376D01*
X142327376Y-62709796D01*
X142240000Y-62920740D01*
X142152624Y-62709796D01*
X141760204Y-62317376D01*
X141247483Y-62105000D01*
X140692517Y-62105000D01*
X140179796Y-62317376D01*
X139787376Y-62709796D01*
X139700000Y-62920740D01*
X139612624Y-62709796D01*
X139220204Y-62317376D01*
X138707483Y-62105000D01*
X138152517Y-62105000D01*
X137639796Y-62317376D01*
X137247376Y-62709796D01*
X137160000Y-62920740D01*
X137072624Y-62709796D01*
X136680204Y-62317376D01*
X136167483Y-62105000D01*
X135612517Y-62105000D01*
X135099796Y-62317376D01*
X134707376Y-62709796D01*
X134620000Y-62920740D01*
X134532624Y-62709796D01*
X134140204Y-62317376D01*
X133627483Y-62105000D01*
X133072517Y-62105000D01*
X132559796Y-62317376D01*
X132167376Y-62709796D01*
X132080000Y-62920740D01*
X131992624Y-62709796D01*
X131600204Y-62317376D01*
X131087483Y-62105000D01*
X130532517Y-62105000D01*
X130019796Y-62317376D01*
X129627376Y-62709796D01*
X129415000Y-63222517D01*
X129415000Y-63777483D01*
X129627376Y-64290204D01*
X129983049Y-64645877D01*
X129802235Y-64681843D01*
X129592191Y-64822191D01*
X129451843Y-65032235D01*
X129402560Y-65280000D01*
X129402560Y-66372638D01*
X127955199Y-67820000D01*
X122234803Y-67820000D01*
X119970333Y-65555532D01*
X119970329Y-65555526D01*
X118245152Y-63830349D01*
X122810000Y-63830349D01*
X122810000Y-64689651D01*
X123138840Y-65483542D01*
X123746458Y-66091160D01*
X124540349Y-66420000D01*
X125399651Y-66420000D01*
X126193542Y-66091160D01*
X126801160Y-65483542D01*
X127130000Y-64689651D01*
X127130000Y-63830349D01*
X126801160Y-63036458D01*
X126193542Y-62428840D01*
X125399651Y-62100000D01*
X124540349Y-62100000D01*
X123746458Y-62428840D01*
X123138840Y-63036458D01*
X122810000Y-63830349D01*
X118245152Y-63830349D01*
X112350331Y-57935530D01*
X112307929Y-57872071D01*
X112056537Y-57704096D01*
X111834852Y-57660000D01*
X111834847Y-57660000D01*
X111760000Y-57645112D01*
X111685153Y-57660000D01*
X110593050Y-57660000D01*
X110655000Y-57510440D01*
X110655000Y-56939562D01*
X110436534Y-56412139D01*
X110032862Y-56008467D01*
X109505439Y-55790001D01*
X108934561Y-55790001D01*
X108407138Y-56008467D01*
X108003466Y-56412139D01*
X107785000Y-56939562D01*
X107785000Y-57510440D01*
X107846950Y-57660000D01*
X100404846Y-57660000D01*
X100329999Y-57645112D01*
X100255152Y-57660000D01*
X100255148Y-57660000D01*
X100033463Y-57704096D01*
X99782071Y-57872071D01*
X99739671Y-57935527D01*
X96130198Y-61545001D01*
X95218430Y-61545001D01*
X95196534Y-61492139D01*
X94792862Y-61088467D01*
X94663784Y-61035001D01*
X94792862Y-60981535D01*
X95196534Y-60577863D01*
X95415000Y-60050440D01*
X95415000Y-59479562D01*
X95196534Y-58952139D01*
X94904396Y-58660001D01*
X94906310Y-58660001D01*
X95139699Y-58563328D01*
X95318327Y-58384699D01*
X95415000Y-58151310D01*
X95415000Y-57510751D01*
X95256250Y-57352001D01*
X94107000Y-57352001D01*
X94107000Y-57372001D01*
X93853000Y-57372001D01*
X93853000Y-57352001D01*
X92703750Y-57352001D01*
X92545000Y-57510751D01*
X92545000Y-58151310D01*
X92641673Y-58384699D01*
X92820301Y-58563328D01*
X93053690Y-58660001D01*
X93055604Y-58660001D01*
X92763466Y-58952139D01*
X92545000Y-59479562D01*
X92545000Y-60050440D01*
X92763466Y-60577863D01*
X93167138Y-60981535D01*
X93296216Y-61035001D01*
X93167138Y-61088467D01*
X92763466Y-61492139D01*
X92545000Y-62019562D01*
X92545000Y-62590440D01*
X92763466Y-63117863D01*
X93167138Y-63521535D01*
X93296216Y-63575001D01*
X93167138Y-63628467D01*
X92763466Y-64032139D01*
X92545000Y-64559562D01*
X92545000Y-65130440D01*
X92763466Y-65657863D01*
X93167138Y-66061535D01*
X93296216Y-66115001D01*
X93167138Y-66168467D01*
X92763466Y-66572139D01*
X92545000Y-67099562D01*
X92545000Y-67670440D01*
X92763466Y-68197863D01*
X93167138Y-68601535D01*
X93296216Y-68655001D01*
X93167138Y-68708467D01*
X92763466Y-69112139D01*
X92545000Y-69639562D01*
X92545000Y-70210440D01*
X92566897Y-70263303D01*
X91586036Y-71244163D01*
X91477809Y-71082191D01*
X91267765Y-70941843D01*
X91020000Y-70892560D01*
X89320000Y-70892560D01*
X89072235Y-70941843D01*
X88862191Y-71082191D01*
X88721843Y-71292235D01*
X88672560Y-71540000D01*
X88672560Y-73240000D01*
X88721843Y-73487765D01*
X88862191Y-73697809D01*
X89072235Y-73838157D01*
X89320000Y-73887440D01*
X91020000Y-73887440D01*
X91267765Y-73838157D01*
X91477809Y-73697809D01*
X91618157Y-73487765D01*
X91667440Y-73240000D01*
X91667440Y-73134567D01*
X91811538Y-73105904D01*
X92062930Y-72937929D01*
X92105332Y-72874470D01*
X92545000Y-72434802D01*
X92545000Y-72750440D01*
X92763466Y-73277863D01*
X93167138Y-73681535D01*
X93296216Y-73735001D01*
X93167138Y-73788467D01*
X92763466Y-74192139D01*
X92545000Y-74719562D01*
X92545000Y-75290440D01*
X92606950Y-75440000D01*
X91667440Y-75440000D01*
X91667440Y-75350000D01*
X91618157Y-75102235D01*
X91477809Y-74892191D01*
X91267765Y-74751843D01*
X91020000Y-74702560D01*
X89320000Y-74702560D01*
X89072235Y-74751843D01*
X88862191Y-74892191D01*
X88721843Y-75102235D01*
X88672560Y-75350000D01*
X88672560Y-77050000D01*
X88721843Y-77297765D01*
X88862191Y-77507809D01*
X89072235Y-77648157D01*
X89320000Y-77697440D01*
X91020000Y-77697440D01*
X91267765Y-77648157D01*
X91477809Y-77507809D01*
X91618157Y-77297765D01*
X91667440Y-77050000D01*
X91667440Y-76960000D01*
X92669083Y-76960000D01*
X92545000Y-77259562D01*
X92545000Y-77830440D01*
X92698077Y-78200000D01*
X92394846Y-78200000D01*
X92319999Y-78185112D01*
X92245152Y-78200000D01*
X92245148Y-78200000D01*
X92023463Y-78244096D01*
X91772071Y-78412071D01*
X91729671Y-78475527D01*
X91487902Y-78717296D01*
X91477809Y-78702191D01*
X91267765Y-78561843D01*
X91020000Y-78512560D01*
X89320000Y-78512560D01*
X89072235Y-78561843D01*
X88862191Y-78702191D01*
X88721843Y-78912235D01*
X88672560Y-79160000D01*
X88672560Y-80860000D01*
X88721843Y-81107765D01*
X88862191Y-81317809D01*
X89072235Y-81458157D01*
X89320000Y-81507440D01*
X91020000Y-81507440D01*
X91267765Y-81458157D01*
X91477809Y-81317809D01*
X91618157Y-81107765D01*
X91667440Y-80860000D01*
X91667440Y-80658483D01*
X91817929Y-80557929D01*
X91860331Y-80494470D01*
X92545000Y-79809802D01*
X92545000Y-80370440D01*
X92763466Y-80897863D01*
X93167138Y-81301535D01*
X93296216Y-81355001D01*
X93167138Y-81408467D01*
X92763466Y-81812139D01*
X92545000Y-82339562D01*
X92545000Y-82910440D01*
X92763466Y-83437863D01*
X93167138Y-83841535D01*
X93296216Y-83895001D01*
X93167138Y-83948467D01*
X92763466Y-84352139D01*
X92545000Y-84879562D01*
X92545000Y-85450440D01*
X92763466Y-85977863D01*
X93167138Y-86381535D01*
X93296216Y-86435001D01*
X93167138Y-86488467D01*
X92785605Y-86870000D01*
X91667440Y-86870000D01*
X91667440Y-86780000D01*
X91618157Y-86532235D01*
X91477809Y-86322191D01*
X91267765Y-86181843D01*
X91020000Y-86132560D01*
X89320000Y-86132560D01*
X89072235Y-86181843D01*
X88862191Y-86322191D01*
X88721843Y-86532235D01*
X88672560Y-86780000D01*
X88672560Y-88480000D01*
X88721843Y-88727765D01*
X88862191Y-88937809D01*
X89072235Y-89078157D01*
X89117619Y-89087184D01*
X89099375Y-89099375D01*
X88771161Y-89590582D01*
X88655908Y-90170000D01*
X88771161Y-90749418D01*
X89099375Y-91240625D01*
X89397761Y-91440000D01*
X89099375Y-91639375D01*
X88771161Y-92130582D01*
X88655908Y-92710000D01*
X88771161Y-93289418D01*
X89099375Y-93780625D01*
X89397761Y-93980000D01*
X89099375Y-94179375D01*
X88771161Y-94670582D01*
X88655908Y-95250000D01*
X88771161Y-95829418D01*
X89099375Y-96320625D01*
X89397761Y-96520000D01*
X89099375Y-96719375D01*
X88771161Y-97210582D01*
X88655908Y-97790000D01*
X88771161Y-98369418D01*
X89099375Y-98860625D01*
X89397761Y-99060000D01*
X89099375Y-99259375D01*
X88771161Y-99750582D01*
X88655908Y-100330000D01*
X88771161Y-100909418D01*
X89099375Y-101400625D01*
X89397761Y-101600000D01*
X89099375Y-101799375D01*
X88771161Y-102290582D01*
X88655908Y-102870000D01*
X88771161Y-103449418D01*
X89099375Y-103940625D01*
X89397761Y-104140000D01*
X89099375Y-104339375D01*
X88771161Y-104830582D01*
X88655908Y-105410000D01*
X88771161Y-105989418D01*
X89099375Y-106480625D01*
X89590582Y-106808839D01*
X90023744Y-106895000D01*
X90316256Y-106895000D01*
X90749418Y-106808839D01*
X91240625Y-106480625D01*
X91448178Y-106170000D01*
X92710503Y-106170000D01*
X92763466Y-106297863D01*
X93167138Y-106701535D01*
X93694561Y-106920001D01*
X94265439Y-106920001D01*
X94792862Y-106701535D01*
X95196534Y-106297863D01*
X95415000Y-105770440D01*
X95415000Y-105199562D01*
X95196534Y-104672139D01*
X94792862Y-104268467D01*
X94663784Y-104215001D01*
X94792862Y-104161535D01*
X95196534Y-103757863D01*
X95415000Y-103230440D01*
X95415000Y-102659562D01*
X95196534Y-102132139D01*
X94792862Y-101728467D01*
X94663784Y-101675001D01*
X94792862Y-101621535D01*
X95196534Y-101217863D01*
X95415000Y-100690440D01*
X95415000Y-100119562D01*
X95196534Y-99592139D01*
X94792862Y-99188467D01*
X94663784Y-99135001D01*
X94792862Y-99081535D01*
X95196534Y-98677863D01*
X95415000Y-98150440D01*
X95415000Y-97579562D01*
X97625000Y-97579562D01*
X97625000Y-98150440D01*
X97843466Y-98677863D01*
X98247138Y-99081535D01*
X98774561Y-99300001D01*
X99345439Y-99300001D01*
X99872862Y-99081535D01*
X100276534Y-98677863D01*
X100330000Y-98548785D01*
X100383466Y-98677863D01*
X100787138Y-99081535D01*
X101314561Y-99300001D01*
X101885439Y-99300001D01*
X102412862Y-99081535D01*
X102816534Y-98677863D01*
X102870000Y-98548785D01*
X102923466Y-98677863D01*
X103327138Y-99081535D01*
X103854561Y-99300001D01*
X104425439Y-99300001D01*
X104952862Y-99081535D01*
X105356534Y-98677863D01*
X105575000Y-98150440D01*
X105575000Y-97579562D01*
X105356534Y-97052139D01*
X104952862Y-96648467D01*
X104823784Y-96595001D01*
X104952862Y-96541535D01*
X105356534Y-96137863D01*
X105575000Y-95610440D01*
X105575000Y-95039562D01*
X105356534Y-94512139D01*
X104952862Y-94108467D01*
X104823784Y-94055001D01*
X104952862Y-94001535D01*
X105356534Y-93597863D01*
X105575000Y-93070440D01*
X105575000Y-92499562D01*
X105356534Y-91972139D01*
X104952862Y-91568467D01*
X104823784Y-91515001D01*
X104952862Y-91461535D01*
X105356534Y-91057863D01*
X105575000Y-90530440D01*
X105575000Y-89959562D01*
X105356534Y-89432139D01*
X104952862Y-89028467D01*
X104425439Y-88810001D01*
X103854561Y-88810001D01*
X103327138Y-89028467D01*
X102923466Y-89432139D01*
X102870000Y-89561217D01*
X102816534Y-89432139D01*
X102412862Y-89028467D01*
X101885439Y-88810001D01*
X101314561Y-88810001D01*
X100787138Y-89028467D01*
X100383466Y-89432139D01*
X100165000Y-89959562D01*
X100165000Y-90530440D01*
X100383466Y-91057863D01*
X100787138Y-91461535D01*
X100916216Y-91515001D01*
X100787138Y-91568467D01*
X100383466Y-91972139D01*
X100165000Y-92499562D01*
X100165000Y-93070440D01*
X100383466Y-93597863D01*
X100787138Y-94001535D01*
X100916216Y-94055001D01*
X100787138Y-94108467D01*
X100383466Y-94512139D01*
X100165000Y-95039562D01*
X100165000Y-95610440D01*
X100383466Y-96137863D01*
X100787138Y-96541535D01*
X100916216Y-96595001D01*
X100787138Y-96648467D01*
X100383466Y-97052139D01*
X100330000Y-97181217D01*
X100276534Y-97052139D01*
X99872862Y-96648467D01*
X99345439Y-96430001D01*
X98774561Y-96430001D01*
X98247138Y-96648467D01*
X97843466Y-97052139D01*
X97625000Y-97579562D01*
X95415000Y-97579562D01*
X95196534Y-97052139D01*
X94792862Y-96648467D01*
X94663784Y-96595001D01*
X94792862Y-96541535D01*
X95196534Y-96137863D01*
X95415000Y-95610440D01*
X95415000Y-95039562D01*
X95196534Y-94512139D01*
X94792862Y-94108467D01*
X94663784Y-94055001D01*
X94792862Y-94001535D01*
X95196534Y-93597863D01*
X95415000Y-93070440D01*
X95415000Y-92499562D01*
X95196534Y-91972139D01*
X94792862Y-91568467D01*
X94663784Y-91515001D01*
X94792862Y-91461535D01*
X95196534Y-91057863D01*
X95415000Y-90530440D01*
X95415000Y-89959562D01*
X95196534Y-89432139D01*
X94792862Y-89028467D01*
X94663784Y-88975001D01*
X94792862Y-88921535D01*
X95196534Y-88517863D01*
X95415000Y-87990440D01*
X95415000Y-87419562D01*
X95196534Y-86892139D01*
X94792862Y-86488467D01*
X94663784Y-86435001D01*
X94792862Y-86381535D01*
X95196534Y-85977863D01*
X95415000Y-85450440D01*
X95415000Y-84879562D01*
X107785000Y-84879562D01*
X107785000Y-85450440D01*
X108003466Y-85977863D01*
X108407138Y-86381535D01*
X108536216Y-86435001D01*
X108407138Y-86488467D01*
X108003466Y-86892139D01*
X107785000Y-87419562D01*
X107785000Y-87990440D01*
X108003466Y-88517863D01*
X108407138Y-88921535D01*
X108536216Y-88975001D01*
X108407138Y-89028467D01*
X108003466Y-89432139D01*
X107785000Y-89959562D01*
X107785000Y-90530440D01*
X108003466Y-91057863D01*
X108407138Y-91461535D01*
X108536216Y-91515001D01*
X108407138Y-91568467D01*
X108003466Y-91972139D01*
X107785000Y-92499562D01*
X107785000Y-93070440D01*
X108003466Y-93597863D01*
X108407138Y-94001535D01*
X108536216Y-94055001D01*
X108407138Y-94108467D01*
X108003466Y-94512139D01*
X107785000Y-95039562D01*
X107785000Y-95610440D01*
X108003466Y-96137863D01*
X108407138Y-96541535D01*
X108536216Y-96595001D01*
X108407138Y-96648467D01*
X108003466Y-97052139D01*
X107785000Y-97579562D01*
X107785000Y-98150440D01*
X108003466Y-98677863D01*
X108407138Y-99081535D01*
X108536216Y-99135001D01*
X108407138Y-99188467D01*
X108003466Y-99592139D01*
X107785000Y-100119562D01*
X107785000Y-100690440D01*
X108003466Y-101217863D01*
X108407138Y-101621535D01*
X108536216Y-101675001D01*
X108407138Y-101728467D01*
X108003466Y-102132139D01*
X107785000Y-102659562D01*
X107785000Y-103230440D01*
X108003466Y-103757863D01*
X108407138Y-104161535D01*
X108536216Y-104215001D01*
X108407138Y-104268467D01*
X108003466Y-104672139D01*
X107785000Y-105199562D01*
X107785000Y-105770440D01*
X108003466Y-106297863D01*
X108407138Y-106701535D01*
X108934561Y-106920001D01*
X109505439Y-106920001D01*
X110032862Y-106701535D01*
X110436534Y-106297863D01*
X110655000Y-105770440D01*
X110655000Y-105199562D01*
X110436534Y-104672139D01*
X110032862Y-104268467D01*
X109903784Y-104215001D01*
X110032862Y-104161535D01*
X110436534Y-103757863D01*
X110655000Y-103230440D01*
X110655000Y-102659562D01*
X110436534Y-102132139D01*
X110032862Y-101728467D01*
X109903784Y-101675001D01*
X110032862Y-101621535D01*
X110436534Y-101217863D01*
X110655000Y-100690440D01*
X110655000Y-100119562D01*
X110436534Y-99592139D01*
X110032862Y-99188467D01*
X109903784Y-99135001D01*
X110032862Y-99081535D01*
X110436534Y-98677863D01*
X110655000Y-98150440D01*
X110655000Y-97579562D01*
X110436534Y-97052139D01*
X110032862Y-96648467D01*
X109903784Y-96595001D01*
X110032862Y-96541535D01*
X110436534Y-96137863D01*
X110655000Y-95610440D01*
X110655000Y-95039562D01*
X110436534Y-94512139D01*
X110032862Y-94108467D01*
X109903784Y-94055001D01*
X110032862Y-94001535D01*
X110436534Y-93597863D01*
X110655000Y-93070440D01*
X110655000Y-92499562D01*
X110436534Y-91972139D01*
X110032862Y-91568467D01*
X109903784Y-91515001D01*
X110032862Y-91461535D01*
X110436534Y-91057863D01*
X110655000Y-90530440D01*
X110655000Y-89959562D01*
X110436534Y-89432139D01*
X110032862Y-89028467D01*
X109903784Y-88975001D01*
X110032862Y-88921535D01*
X110436534Y-88517863D01*
X110655000Y-87990440D01*
X110655000Y-87419562D01*
X110436534Y-86892139D01*
X110032862Y-86488467D01*
X109903784Y-86435001D01*
X110032862Y-86381535D01*
X110436534Y-85977863D01*
X110655000Y-85450440D01*
X110655000Y-84879562D01*
X110436534Y-84352139D01*
X110032862Y-83948467D01*
X109919417Y-83901476D01*
X109974005Y-83878865D01*
X110048139Y-83632746D01*
X109220000Y-82804606D01*
X108391861Y-83632746D01*
X108465995Y-83878865D01*
X108524448Y-83899875D01*
X108407138Y-83948467D01*
X108003466Y-84352139D01*
X107785000Y-84879562D01*
X95415000Y-84879562D01*
X95196534Y-84352139D01*
X94792862Y-83948467D01*
X94663784Y-83895001D01*
X94792862Y-83841535D01*
X95196534Y-83437863D01*
X95415000Y-82910440D01*
X95415000Y-82408224D01*
X107773035Y-82408224D01*
X107800222Y-82978455D01*
X107966136Y-83379006D01*
X108212255Y-83453140D01*
X109040395Y-82625001D01*
X109399605Y-82625001D01*
X110227745Y-83453140D01*
X110473864Y-83379006D01*
X110666965Y-82841778D01*
X110639778Y-82271547D01*
X110473864Y-81870996D01*
X110227745Y-81796862D01*
X109399605Y-82625001D01*
X109040395Y-82625001D01*
X108212255Y-81796862D01*
X107966136Y-81870996D01*
X107773035Y-82408224D01*
X95415000Y-82408224D01*
X95415000Y-82339562D01*
X95196534Y-81812139D01*
X94792862Y-81408467D01*
X94663784Y-81355001D01*
X94792862Y-81301535D01*
X95196534Y-80897863D01*
X95260924Y-80742412D01*
X95348464Y-80800905D01*
X95396607Y-80810481D01*
X95570150Y-80845001D01*
X95570154Y-80845001D01*
X95645002Y-80859889D01*
X95719850Y-80845001D01*
X107981570Y-80845001D01*
X108003466Y-80897863D01*
X108407138Y-81301535D01*
X108520583Y-81348526D01*
X108465995Y-81371137D01*
X108391861Y-81617256D01*
X109220000Y-82445396D01*
X110048139Y-81617256D01*
X109974005Y-81371137D01*
X109915552Y-81350127D01*
X110032862Y-81301535D01*
X110436534Y-80897863D01*
X110491167Y-80765968D01*
X111000001Y-81274802D01*
X111000000Y-90095153D01*
X110985112Y-90170000D01*
X111000000Y-90244847D01*
X111000000Y-90244851D01*
X111044096Y-90466536D01*
X111212071Y-90717929D01*
X111275530Y-90760331D01*
X112439671Y-91924473D01*
X112482071Y-91987929D01*
X112733463Y-92155904D01*
X112955148Y-92200000D01*
X112955152Y-92200000D01*
X113029999Y-92214888D01*
X113104846Y-92200000D01*
X122486289Y-92200000D01*
X122603720Y-92317431D01*
X122984126Y-92475000D01*
X123395874Y-92475000D01*
X123776280Y-92317431D01*
X124067431Y-92026280D01*
X124225000Y-91645874D01*
X124225000Y-91234126D01*
X124067431Y-90853720D01*
X123776280Y-90562569D01*
X123395874Y-90405000D01*
X122984126Y-90405000D01*
X122603720Y-90562569D01*
X122486289Y-90680000D01*
X113344802Y-90680000D01*
X112520000Y-89855199D01*
X112520000Y-88203272D01*
X112545528Y-88220329D01*
X113709671Y-89384473D01*
X113752071Y-89447929D01*
X114003463Y-89615904D01*
X114225148Y-89660000D01*
X114225152Y-89660000D01*
X114299999Y-89674888D01*
X114374846Y-89660000D01*
X140266289Y-89660000D01*
X140383720Y-89777431D01*
X140764126Y-89935000D01*
X141175874Y-89935000D01*
X141556280Y-89777431D01*
X141847431Y-89486280D01*
X142005000Y-89105874D01*
X142005000Y-88694126D01*
X141847431Y-88313720D01*
X141556280Y-88022569D01*
X141175874Y-87865000D01*
X140764126Y-87865000D01*
X140383720Y-88022569D01*
X140266289Y-88140000D01*
X114614802Y-88140000D01*
X113790000Y-87315199D01*
X113790000Y-85663272D01*
X113815528Y-85680329D01*
X114979671Y-86844473D01*
X115022071Y-86907929D01*
X115273463Y-87075904D01*
X115495148Y-87120000D01*
X115495152Y-87120000D01*
X115569999Y-87134888D01*
X115644846Y-87120000D01*
X137726289Y-87120000D01*
X137843720Y-87237431D01*
X138224126Y-87395000D01*
X138635874Y-87395000D01*
X139016280Y-87237431D01*
X139307431Y-86946280D01*
X139465000Y-86565874D01*
X139465000Y-86154126D01*
X139307431Y-85773720D01*
X139016280Y-85482569D01*
X138635874Y-85325000D01*
X138224126Y-85325000D01*
X137843720Y-85482569D01*
X137726289Y-85600000D01*
X115884802Y-85600000D01*
X115060000Y-84775199D01*
X115060000Y-83123272D01*
X115085528Y-83140329D01*
X116249671Y-84304473D01*
X116292071Y-84367929D01*
X116543463Y-84535904D01*
X116765148Y-84580000D01*
X116765152Y-84580000D01*
X116839999Y-84594888D01*
X116914846Y-84580000D01*
X135186289Y-84580000D01*
X135303720Y-84697431D01*
X135684126Y-84855000D01*
X136095874Y-84855000D01*
X136476280Y-84697431D01*
X136767431Y-84406280D01*
X136925000Y-84025874D01*
X136925000Y-83614126D01*
X136767431Y-83233720D01*
X136476280Y-82942569D01*
X136095874Y-82785000D01*
X135684126Y-82785000D01*
X135303720Y-82942569D01*
X135186289Y-83060000D01*
X117154802Y-83060000D01*
X116330000Y-82235199D01*
X116330000Y-80583272D01*
X116355528Y-80600329D01*
X117519671Y-81764473D01*
X117562071Y-81827929D01*
X117813463Y-81995904D01*
X118035148Y-82040000D01*
X118035152Y-82040000D01*
X118109999Y-82054888D01*
X118184846Y-82040000D01*
X132646289Y-82040000D01*
X132763720Y-82157431D01*
X133144126Y-82315000D01*
X133555874Y-82315000D01*
X133936280Y-82157431D01*
X134227431Y-81866280D01*
X134385000Y-81485874D01*
X134385000Y-81074126D01*
X134227431Y-80693720D01*
X133936280Y-80402569D01*
X133555874Y-80245000D01*
X133144126Y-80245000D01*
X132763720Y-80402569D01*
X132646289Y-80520000D01*
X118424802Y-80520000D01*
X117600000Y-79695199D01*
X117600000Y-78043272D01*
X117625528Y-78060329D01*
X118789671Y-79224473D01*
X118832071Y-79287929D01*
X119083463Y-79455904D01*
X119305148Y-79500000D01*
X119305152Y-79500000D01*
X119379999Y-79514888D01*
X119454846Y-79500000D01*
X130106289Y-79500000D01*
X130223720Y-79617431D01*
X130604126Y-79775000D01*
X131015874Y-79775000D01*
X131396280Y-79617431D01*
X131687431Y-79326280D01*
X131845000Y-78945874D01*
X131845000Y-78534126D01*
X131687431Y-78153720D01*
X131396280Y-77862569D01*
X131015874Y-77705000D01*
X130604126Y-77705000D01*
X130223720Y-77862569D01*
X130106289Y-77980000D01*
X119694802Y-77980000D01*
X118870000Y-77155199D01*
X118870000Y-75503272D01*
X118895528Y-75520329D01*
X120059671Y-76684473D01*
X120102071Y-76747929D01*
X120353463Y-76915904D01*
X120575148Y-76960000D01*
X120575152Y-76960000D01*
X120649999Y-76974888D01*
X120724846Y-76960000D01*
X127566289Y-76960000D01*
X127683720Y-77077431D01*
X128064126Y-77235000D01*
X128475874Y-77235000D01*
X128856280Y-77077431D01*
X129147431Y-76786280D01*
X129305000Y-76405874D01*
X129305000Y-75994126D01*
X129147431Y-75613720D01*
X128856280Y-75322569D01*
X128475874Y-75165000D01*
X128064126Y-75165000D01*
X127683720Y-75322569D01*
X127566289Y-75440000D01*
X120964802Y-75440000D01*
X120140000Y-74615199D01*
X120140000Y-72963272D01*
X120165528Y-72980329D01*
X121329671Y-74144473D01*
X121372071Y-74207929D01*
X121623463Y-74375904D01*
X121845148Y-74420000D01*
X121845152Y-74420000D01*
X121919999Y-74434888D01*
X121994846Y-74420000D01*
X125026289Y-74420000D01*
X125143720Y-74537431D01*
X125524126Y-74695000D01*
X125935874Y-74695000D01*
X126316280Y-74537431D01*
X126607431Y-74246280D01*
X126765000Y-73865874D01*
X126765000Y-73454126D01*
X126607431Y-73073720D01*
X126316280Y-72782569D01*
X125935874Y-72625000D01*
X125524126Y-72625000D01*
X125143720Y-72782569D01*
X125026289Y-72900000D01*
X122234802Y-72900000D01*
X121410000Y-72075199D01*
X121410000Y-69924846D01*
X121424888Y-69849999D01*
X121410000Y-69775152D01*
X121410000Y-69775148D01*
X121365904Y-69553463D01*
X121318380Y-69482338D01*
X121240329Y-69365526D01*
X121240327Y-69365524D01*
X121197929Y-69302071D01*
X121134476Y-69259673D01*
X111155332Y-59280531D01*
X111112930Y-59217072D01*
X111057448Y-59180000D01*
X111445199Y-59180000D01*
X118895526Y-66630329D01*
X118895532Y-66630333D01*
X121329673Y-69064476D01*
X121372071Y-69127929D01*
X121435524Y-69170327D01*
X121435526Y-69170329D01*
X121560902Y-69254102D01*
X121623463Y-69295904D01*
X121845148Y-69340000D01*
X121845152Y-69340000D01*
X121919999Y-69354888D01*
X121994846Y-69340000D01*
X127955199Y-69340000D01*
X131595527Y-72980329D01*
X131595530Y-72980331D01*
X136569670Y-77954472D01*
X136612071Y-78017929D01*
X136863463Y-78185904D01*
X137085148Y-78230000D01*
X137085153Y-78230000D01*
X137160000Y-78244888D01*
X137234847Y-78230000D01*
X153355199Y-78230000D01*
X155450000Y-80324803D01*
X155450001Y-95241821D01*
X155139375Y-95449375D01*
X154940000Y-95747761D01*
X154740625Y-95449375D01*
X154249418Y-95121161D01*
X153816256Y-95035000D01*
X153523744Y-95035000D01*
X153090582Y-95121161D01*
X152599375Y-95449375D01*
X152400000Y-95747761D01*
X152200625Y-95449375D01*
X151709418Y-95121161D01*
X151276256Y-95035000D01*
X150983744Y-95035000D01*
X150550582Y-95121161D01*
X150059375Y-95449375D01*
X149860000Y-95747761D01*
X149660625Y-95449375D01*
X149169418Y-95121161D01*
X148736256Y-95035000D01*
X148443744Y-95035000D01*
X148010582Y-95121161D01*
X147519375Y-95449375D01*
X147320000Y-95747761D01*
X147120625Y-95449375D01*
X146629418Y-95121161D01*
X146196256Y-95035000D01*
X145903744Y-95035000D01*
X145470582Y-95121161D01*
X144979375Y-95449375D01*
X144780000Y-95747761D01*
X144580625Y-95449375D01*
X144089418Y-95121161D01*
X143656256Y-95035000D01*
X143363744Y-95035000D01*
X142930582Y-95121161D01*
X142439375Y-95449375D01*
X142240000Y-95747761D01*
X142040625Y-95449375D01*
X141549418Y-95121161D01*
X141116256Y-95035000D01*
X140823744Y-95035000D01*
X140390582Y-95121161D01*
X139899375Y-95449375D01*
X139700000Y-95747761D01*
X139500625Y-95449375D01*
X139009418Y-95121161D01*
X138576256Y-95035000D01*
X138283744Y-95035000D01*
X137850582Y-95121161D01*
X137359375Y-95449375D01*
X137160000Y-95747761D01*
X136960625Y-95449375D01*
X136469418Y-95121161D01*
X136036256Y-95035000D01*
X135743744Y-95035000D01*
X135310582Y-95121161D01*
X134819375Y-95449375D01*
X134620000Y-95747761D01*
X134420625Y-95449375D01*
X133929418Y-95121161D01*
X133496256Y-95035000D01*
X133203744Y-95035000D01*
X132770582Y-95121161D01*
X132279375Y-95449375D01*
X132080000Y-95747761D01*
X131880625Y-95449375D01*
X131389418Y-95121161D01*
X130956256Y-95035000D01*
X130663744Y-95035000D01*
X130230582Y-95121161D01*
X129739375Y-95449375D01*
X129540000Y-95747761D01*
X129340625Y-95449375D01*
X128849418Y-95121161D01*
X128416256Y-95035000D01*
X128123744Y-95035000D01*
X127690582Y-95121161D01*
X127199375Y-95449375D01*
X127000000Y-95747761D01*
X126800625Y-95449375D01*
X126309418Y-95121161D01*
X125876256Y-95035000D01*
X125583744Y-95035000D01*
X125150582Y-95121161D01*
X124659375Y-95449375D01*
X124460000Y-95747761D01*
X124260625Y-95449375D01*
X123769418Y-95121161D01*
X123336256Y-95035000D01*
X123043744Y-95035000D01*
X122610582Y-95121161D01*
X122119375Y-95449375D01*
X121920000Y-95747761D01*
X121720625Y-95449375D01*
X121229418Y-95121161D01*
X120796256Y-95035000D01*
X120503744Y-95035000D01*
X120070582Y-95121161D01*
X119579375Y-95449375D01*
X119380000Y-95747761D01*
X119180625Y-95449375D01*
X118689418Y-95121161D01*
X118256256Y-95035000D01*
X117963744Y-95035000D01*
X117530582Y-95121161D01*
X117039375Y-95449375D01*
X116915344Y-95635000D01*
X115657159Y-95635000D01*
X115569999Y-95617663D01*
X115482839Y-95635000D01*
X115482835Y-95635000D01*
X115224690Y-95686348D01*
X115224688Y-95686349D01*
X115224689Y-95686349D01*
X115005845Y-95832576D01*
X115005844Y-95832577D01*
X114931951Y-95881951D01*
X114882577Y-95955844D01*
X113735845Y-97102577D01*
X113661952Y-97151951D01*
X113612578Y-97225844D01*
X113612576Y-97225846D01*
X113466348Y-97444691D01*
X113397663Y-97790000D01*
X113415001Y-97877165D01*
X113415000Y-107583421D01*
X112663422Y-108335000D01*
X108427440Y-108335000D01*
X108427440Y-108120000D01*
X108378157Y-107872235D01*
X108237809Y-107662191D01*
X108027765Y-107521843D01*
X107780000Y-107472560D01*
X105580000Y-107472560D01*
X105332235Y-107521843D01*
X105122191Y-107662191D01*
X104981843Y-107872235D01*
X104932560Y-108120000D01*
X104932560Y-110320000D01*
X104981843Y-110567765D01*
X105122191Y-110777809D01*
X105332235Y-110918157D01*
X105580000Y-110967440D01*
X107780000Y-110967440D01*
X108027765Y-110918157D01*
X108237809Y-110777809D01*
X108378157Y-110567765D01*
X108427440Y-110320000D01*
X108427440Y-110105000D01*
X112942839Y-110105000D01*
X113030000Y-110122337D01*
X113117161Y-110105000D01*
X166282839Y-110105000D01*
X166370000Y-110122337D01*
X166457161Y-110105000D01*
X166457165Y-110105000D01*
X166715310Y-110053652D01*
X167008049Y-109858049D01*
X167057425Y-109784153D01*
X168299544Y-108542035D01*
X168180000Y-109220000D01*
X168300615Y-109904040D01*
X168647911Y-110505575D01*
X169180000Y-110952051D01*
X169449112Y-111050000D01*
X90900888Y-111050000D01*
X91170000Y-110952051D01*
X91702089Y-110505575D01*
X92049385Y-109904040D01*
X92170000Y-109220000D01*
X94751010Y-109220000D01*
X94885666Y-109896963D01*
X95269135Y-110470865D01*
X95843037Y-110854334D01*
X96349120Y-110955000D01*
X96690880Y-110955000D01*
X97196963Y-110854334D01*
X97770865Y-110470865D01*
X98154334Y-109896963D01*
X98288990Y-109220000D01*
X98154334Y-108543037D01*
X97770865Y-107969135D01*
X97405000Y-107724672D01*
X97405000Y-107046578D01*
X97998591Y-106452988D01*
X98247138Y-106701535D01*
X98774561Y-106920001D01*
X99345439Y-106920001D01*
X99872862Y-106701535D01*
X100081651Y-106492746D01*
X100771861Y-106492746D01*
X100845995Y-106738865D01*
X101383223Y-106931966D01*
X101953454Y-106904779D01*
X102354005Y-106738865D01*
X102428139Y-106492746D01*
X101600000Y-105664606D01*
X100771861Y-106492746D01*
X100081651Y-106492746D01*
X100276534Y-106297863D01*
X100323525Y-106184418D01*
X100346136Y-106239006D01*
X100592255Y-106313140D01*
X101420395Y-105485001D01*
X101779605Y-105485001D01*
X102607745Y-106313140D01*
X102853864Y-106239006D01*
X102874874Y-106180553D01*
X102923466Y-106297863D01*
X103327138Y-106701535D01*
X103854561Y-106920001D01*
X104425439Y-106920001D01*
X104952862Y-106701535D01*
X105356534Y-106297863D01*
X105575000Y-105770440D01*
X105575000Y-105199562D01*
X105356534Y-104672139D01*
X104952862Y-104268467D01*
X104425439Y-104050001D01*
X103854561Y-104050001D01*
X103327138Y-104268467D01*
X102923466Y-104672139D01*
X102876475Y-104785584D01*
X102853864Y-104730996D01*
X102607745Y-104656862D01*
X101779605Y-105485001D01*
X101420395Y-105485001D01*
X100592255Y-104656862D01*
X100346136Y-104730996D01*
X100325126Y-104789449D01*
X100276534Y-104672139D01*
X100081651Y-104477256D01*
X100771861Y-104477256D01*
X101600000Y-105305396D01*
X102428139Y-104477256D01*
X102354005Y-104231137D01*
X101816777Y-104038036D01*
X101246546Y-104065223D01*
X100845995Y-104231137D01*
X100771861Y-104477256D01*
X100081651Y-104477256D01*
X99872862Y-104268467D01*
X99345439Y-104050001D01*
X98774561Y-104050001D01*
X98247138Y-104268467D01*
X97915604Y-104600001D01*
X97802160Y-104600001D01*
X97714999Y-104582664D01*
X97627838Y-104600001D01*
X97627834Y-104600001D01*
X97376471Y-104650000D01*
X97369689Y-104651349D01*
X97150844Y-104797577D01*
X97150843Y-104797578D01*
X97076950Y-104846952D01*
X97027576Y-104920845D01*
X95955847Y-105992575D01*
X95881951Y-106041951D01*
X95686348Y-106334691D01*
X95635000Y-106592836D01*
X95635000Y-106592839D01*
X95617663Y-106680000D01*
X95635000Y-106767161D01*
X95635000Y-107724672D01*
X95269135Y-107969135D01*
X94885666Y-108543037D01*
X94751010Y-109220000D01*
X92170000Y-109220000D01*
X92049385Y-108535960D01*
X91702089Y-107934425D01*
X91170000Y-107487949D01*
X90517296Y-107250384D01*
X89822704Y-107250384D01*
X89170000Y-107487949D01*
X88637911Y-107934425D01*
X88340000Y-108450423D01*
X88340000Y-57919577D01*
X88637911Y-58435575D01*
X89170000Y-58882051D01*
X89822704Y-59119616D01*
X90517296Y-59119616D01*
X91170000Y-58882051D01*
X91702089Y-58435575D01*
X92049385Y-57834040D01*
X92170000Y-57150000D01*
X92049385Y-56465960D01*
X91952813Y-56298692D01*
X92545000Y-56298692D01*
X92545000Y-56939251D01*
X92703750Y-57098001D01*
X93853000Y-57098001D01*
X93853000Y-55948751D01*
X94107000Y-55948751D01*
X94107000Y-57098001D01*
X95256250Y-57098001D01*
X95415000Y-56939251D01*
X95415000Y-56298692D01*
X95318327Y-56065303D01*
X95139699Y-55886674D01*
X94906310Y-55790001D01*
X94265750Y-55790001D01*
X94107000Y-55948751D01*
X93853000Y-55948751D01*
X93694250Y-55790001D01*
X93053690Y-55790001D01*
X92820301Y-55886674D01*
X92641673Y-56065303D01*
X92545000Y-56298692D01*
X91952813Y-56298692D01*
X91702089Y-55864425D01*
X91170000Y-55417949D01*
X90900888Y-55320000D01*
X169506702Y-55320000D01*
X169190000Y-55435270D01*
X169190000Y-55435270D01*
G37*
X169190000Y-55435270D02*
X168663232Y-55877281D01*
X168319409Y-56472800D01*
X168200000Y-57150000D01*
X168319409Y-57827200D01*
X168663232Y-58422719D01*
X169190000Y-58864730D01*
X169836177Y-59099919D01*
X170523823Y-59099919D01*
X171170000Y-58864730D01*
X171696768Y-58422719D01*
X172010000Y-57880185D01*
X172010001Y-108450424D01*
X171712089Y-107934425D01*
X171180000Y-107487949D01*
X170527296Y-107250384D01*
X169832704Y-107250384D01*
X169452990Y-107388589D01*
X169474156Y-107367423D01*
X169548049Y-107318049D01*
X169743652Y-107025310D01*
X169795000Y-106767165D01*
X169795000Y-106767161D01*
X169812337Y-106680001D01*
X169795000Y-106592841D01*
X169795000Y-72477159D01*
X169812337Y-72389999D01*
X169795000Y-72302839D01*
X169795000Y-72302835D01*
X169743652Y-72044690D01*
X169658380Y-71917072D01*
X169597424Y-71825845D01*
X169597423Y-71825844D01*
X169548049Y-71751951D01*
X169474156Y-71702577D01*
X167057425Y-69285847D01*
X167008049Y-69211951D01*
X166715310Y-69016348D01*
X166457165Y-68965000D01*
X166457161Y-68965000D01*
X166370000Y-68947663D01*
X166282839Y-68965000D01*
X147686579Y-68965000D01*
X146935000Y-68213422D01*
X146935000Y-67127828D01*
X147232624Y-66830204D01*
X147320000Y-66619260D01*
X147407376Y-66830204D01*
X147799796Y-67222624D01*
X148312517Y-67435000D01*
X148867483Y-67435000D01*
X149380204Y-67222624D01*
X149772624Y-66830204D01*
X149860000Y-66619260D01*
X149947376Y-66830204D01*
X150339796Y-67222624D01*
X150852517Y-67435000D01*
X151407483Y-67435000D01*
X151920204Y-67222624D01*
X152312624Y-66830204D01*
X152400000Y-66619260D01*
X152487376Y-66830204D01*
X152879796Y-67222624D01*
X153392517Y-67435000D01*
X153947483Y-67435000D01*
X154460204Y-67222624D01*
X154852624Y-66830204D01*
X155065000Y-66317483D01*
X155065000Y-65762517D01*
X154852624Y-65249796D01*
X154460204Y-64857376D01*
X154249260Y-64770000D01*
X154460204Y-64682624D01*
X154852624Y-64290204D01*
X155043102Y-63830349D01*
X157350000Y-63830349D01*
X157350000Y-64689651D01*
X157678840Y-65483542D01*
X158286458Y-66091160D01*
X159080349Y-66420000D01*
X159939651Y-66420000D01*
X160733542Y-66091160D01*
X161341160Y-65483542D01*
X161670000Y-64689651D01*
X161670000Y-63830349D01*
X161341160Y-63036458D01*
X160733542Y-62428840D01*
X159939651Y-62100000D01*
X159080349Y-62100000D01*
X158286458Y-62428840D01*
X157678840Y-63036458D01*
X157350000Y-63830349D01*
X155043102Y-63830349D01*
X155065000Y-63777483D01*
X155065000Y-63222517D01*
X154852624Y-62709796D01*
X154460204Y-62317376D01*
X153947483Y-62105000D01*
X153392517Y-62105000D01*
X152879796Y-62317376D01*
X152487376Y-62709796D01*
X152400000Y-62920740D01*
X152312624Y-62709796D01*
X151920204Y-62317376D01*
X151407483Y-62105000D01*
X150852517Y-62105000D01*
X150628483Y-62197798D01*
X150620000Y-62155152D01*
X150620000Y-62155148D01*
X150575904Y-61933463D01*
X150407929Y-61682071D01*
X150344473Y-61639671D01*
X149180331Y-60475530D01*
X149137929Y-60412071D01*
X148886537Y-60244096D01*
X148664852Y-60200000D01*
X148664847Y-60200000D01*
X148590000Y-60185112D01*
X148515153Y-60200000D01*
X128973711Y-60200000D01*
X128856280Y-60082569D01*
X128475874Y-59925000D01*
X128064126Y-59925000D01*
X127683720Y-60082569D01*
X127392569Y-60373720D01*
X127235000Y-60754126D01*
X127235000Y-61165874D01*
X127392569Y-61546280D01*
X127683720Y-61837431D01*
X128064126Y-61995000D01*
X128475874Y-61995000D01*
X128856280Y-61837431D01*
X128973711Y-61720000D01*
X148275199Y-61720000D01*
X148660199Y-62105000D01*
X148312517Y-62105000D01*
X147799796Y-62317376D01*
X147407376Y-62709796D01*
X147320000Y-62920740D01*
X147232624Y-62709796D01*
X146840204Y-62317376D01*
X146327483Y-62105000D01*
X145772517Y-62105000D01*
X145259796Y-62317376D01*
X144867376Y-62709796D01*
X144780000Y-62920740D01*
X144692624Y-62709796D01*
X144300204Y-62317376D01*
X143787483Y-62105000D01*
X143232517Y-62105000D01*
X142719796Y-62317376D01*
X142327376Y-62709796D01*
X142240000Y-62920740D01*
X142152624Y-62709796D01*
X141760204Y-62317376D01*
X141247483Y-62105000D01*
X140692517Y-62105000D01*
X140179796Y-62317376D01*
X139787376Y-62709796D01*
X139700000Y-62920740D01*
X139612624Y-62709796D01*
X139220204Y-62317376D01*
X138707483Y-62105000D01*
X138152517Y-62105000D01*
X137639796Y-62317376D01*
X137247376Y-62709796D01*
X137160000Y-62920740D01*
X137072624Y-62709796D01*
X136680204Y-62317376D01*
X136167483Y-62105000D01*
X135612517Y-62105000D01*
X135099796Y-62317376D01*
X134707376Y-62709796D01*
X134620000Y-62920740D01*
X134532624Y-62709796D01*
X134140204Y-62317376D01*
X133627483Y-62105000D01*
X133072517Y-62105000D01*
X132559796Y-62317376D01*
X132167376Y-62709796D01*
X132080000Y-62920740D01*
X131992624Y-62709796D01*
X131600204Y-62317376D01*
X131087483Y-62105000D01*
X130532517Y-62105000D01*
X130019796Y-62317376D01*
X129627376Y-62709796D01*
X129415000Y-63222517D01*
X129415000Y-63777483D01*
X129627376Y-64290204D01*
X129983049Y-64645877D01*
X129802235Y-64681843D01*
X129592191Y-64822191D01*
X129451843Y-65032235D01*
X129402560Y-65280000D01*
X129402560Y-66372638D01*
X127955199Y-67820000D01*
X122234803Y-67820000D01*
X119970333Y-65555532D01*
X119970329Y-65555526D01*
X118245152Y-63830349D01*
X122810000Y-63830349D01*
X122810000Y-64689651D01*
X123138840Y-65483542D01*
X123746458Y-66091160D01*
X124540349Y-66420000D01*
X125399651Y-66420000D01*
X126193542Y-66091160D01*
X126801160Y-65483542D01*
X127130000Y-64689651D01*
X127130000Y-63830349D01*
X126801160Y-63036458D01*
X126193542Y-62428840D01*
X125399651Y-62100000D01*
X124540349Y-62100000D01*
X123746458Y-62428840D01*
X123138840Y-63036458D01*
X122810000Y-63830349D01*
X118245152Y-63830349D01*
X112350331Y-57935530D01*
X112307929Y-57872071D01*
X112056537Y-57704096D01*
X111834852Y-57660000D01*
X111834847Y-57660000D01*
X111760000Y-57645112D01*
X111685153Y-57660000D01*
X110593050Y-57660000D01*
X110655000Y-57510440D01*
X110655000Y-56939562D01*
X110436534Y-56412139D01*
X110032862Y-56008467D01*
X109505439Y-55790001D01*
X108934561Y-55790001D01*
X108407138Y-56008467D01*
X108003466Y-56412139D01*
X107785000Y-56939562D01*
X107785000Y-57510440D01*
X107846950Y-57660000D01*
X100404846Y-57660000D01*
X100329999Y-57645112D01*
X100255152Y-57660000D01*
X100255148Y-57660000D01*
X100033463Y-57704096D01*
X99782071Y-57872071D01*
X99739671Y-57935527D01*
X96130198Y-61545001D01*
X95218430Y-61545001D01*
X95196534Y-61492139D01*
X94792862Y-61088467D01*
X94663784Y-61035001D01*
X94792862Y-60981535D01*
X95196534Y-60577863D01*
X95415000Y-60050440D01*
X95415000Y-59479562D01*
X95196534Y-58952139D01*
X94904396Y-58660001D01*
X94906310Y-58660001D01*
X95139699Y-58563328D01*
X95318327Y-58384699D01*
X95415000Y-58151310D01*
X95415000Y-57510751D01*
X95256250Y-57352001D01*
X94107000Y-57352001D01*
X94107000Y-57372001D01*
X93853000Y-57372001D01*
X93853000Y-57352001D01*
X92703750Y-57352001D01*
X92545000Y-57510751D01*
X92545000Y-58151310D01*
X92641673Y-58384699D01*
X92820301Y-58563328D01*
X93053690Y-58660001D01*
X93055604Y-58660001D01*
X92763466Y-58952139D01*
X92545000Y-59479562D01*
X92545000Y-60050440D01*
X92763466Y-60577863D01*
X93167138Y-60981535D01*
X93296216Y-61035001D01*
X93167138Y-61088467D01*
X92763466Y-61492139D01*
X92545000Y-62019562D01*
X92545000Y-62590440D01*
X92763466Y-63117863D01*
X93167138Y-63521535D01*
X93296216Y-63575001D01*
X93167138Y-63628467D01*
X92763466Y-64032139D01*
X92545000Y-64559562D01*
X92545000Y-65130440D01*
X92763466Y-65657863D01*
X93167138Y-66061535D01*
X93296216Y-66115001D01*
X93167138Y-66168467D01*
X92763466Y-66572139D01*
X92545000Y-67099562D01*
X92545000Y-67670440D01*
X92763466Y-68197863D01*
X93167138Y-68601535D01*
X93296216Y-68655001D01*
X93167138Y-68708467D01*
X92763466Y-69112139D01*
X92545000Y-69639562D01*
X92545000Y-70210440D01*
X92566897Y-70263303D01*
X91586036Y-71244163D01*
X91477809Y-71082191D01*
X91267765Y-70941843D01*
X91020000Y-70892560D01*
X89320000Y-70892560D01*
X89072235Y-70941843D01*
X88862191Y-71082191D01*
X88721843Y-71292235D01*
X88672560Y-71540000D01*
X88672560Y-73240000D01*
X88721843Y-73487765D01*
X88862191Y-73697809D01*
X89072235Y-73838157D01*
X89320000Y-73887440D01*
X91020000Y-73887440D01*
X91267765Y-73838157D01*
X91477809Y-73697809D01*
X91618157Y-73487765D01*
X91667440Y-73240000D01*
X91667440Y-73134567D01*
X91811538Y-73105904D01*
X92062930Y-72937929D01*
X92105332Y-72874470D01*
X92545000Y-72434802D01*
X92545000Y-72750440D01*
X92763466Y-73277863D01*
X93167138Y-73681535D01*
X93296216Y-73735001D01*
X93167138Y-73788467D01*
X92763466Y-74192139D01*
X92545000Y-74719562D01*
X92545000Y-75290440D01*
X92606950Y-75440000D01*
X91667440Y-75440000D01*
X91667440Y-75350000D01*
X91618157Y-75102235D01*
X91477809Y-74892191D01*
X91267765Y-74751843D01*
X91020000Y-74702560D01*
X89320000Y-74702560D01*
X89072235Y-74751843D01*
X88862191Y-74892191D01*
X88721843Y-75102235D01*
X88672560Y-75350000D01*
X88672560Y-77050000D01*
X88721843Y-77297765D01*
X88862191Y-77507809D01*
X89072235Y-77648157D01*
X89320000Y-77697440D01*
X91020000Y-77697440D01*
X91267765Y-77648157D01*
X91477809Y-77507809D01*
X91618157Y-77297765D01*
X91667440Y-77050000D01*
X91667440Y-76960000D01*
X92669083Y-76960000D01*
X92545000Y-77259562D01*
X92545000Y-77830440D01*
X92698077Y-78200000D01*
X92394846Y-78200000D01*
X92319999Y-78185112D01*
X92245152Y-78200000D01*
X92245148Y-78200000D01*
X92023463Y-78244096D01*
X91772071Y-78412071D01*
X91729671Y-78475527D01*
X91487902Y-78717296D01*
X91477809Y-78702191D01*
X91267765Y-78561843D01*
X91020000Y-78512560D01*
X89320000Y-78512560D01*
X89072235Y-78561843D01*
X88862191Y-78702191D01*
X88721843Y-78912235D01*
X88672560Y-79160000D01*
X88672560Y-80860000D01*
X88721843Y-81107765D01*
X88862191Y-81317809D01*
X89072235Y-81458157D01*
X89320000Y-81507440D01*
X91020000Y-81507440D01*
X91267765Y-81458157D01*
X91477809Y-81317809D01*
X91618157Y-81107765D01*
X91667440Y-80860000D01*
X91667440Y-80658483D01*
X91817929Y-80557929D01*
X91860331Y-80494470D01*
X92545000Y-79809802D01*
X92545000Y-80370440D01*
X92763466Y-80897863D01*
X93167138Y-81301535D01*
X93296216Y-81355001D01*
X93167138Y-81408467D01*
X92763466Y-81812139D01*
X92545000Y-82339562D01*
X92545000Y-82910440D01*
X92763466Y-83437863D01*
X93167138Y-83841535D01*
X93296216Y-83895001D01*
X93167138Y-83948467D01*
X92763466Y-84352139D01*
X92545000Y-84879562D01*
X92545000Y-85450440D01*
X92763466Y-85977863D01*
X93167138Y-86381535D01*
X93296216Y-86435001D01*
X93167138Y-86488467D01*
X92785605Y-86870000D01*
X91667440Y-86870000D01*
X91667440Y-86780000D01*
X91618157Y-86532235D01*
X91477809Y-86322191D01*
X91267765Y-86181843D01*
X91020000Y-86132560D01*
X89320000Y-86132560D01*
X89072235Y-86181843D01*
X88862191Y-86322191D01*
X88721843Y-86532235D01*
X88672560Y-86780000D01*
X88672560Y-88480000D01*
X88721843Y-88727765D01*
X88862191Y-88937809D01*
X89072235Y-89078157D01*
X89117619Y-89087184D01*
X89099375Y-89099375D01*
X88771161Y-89590582D01*
X88655908Y-90170000D01*
X88771161Y-90749418D01*
X89099375Y-91240625D01*
X89397761Y-91440000D01*
X89099375Y-91639375D01*
X88771161Y-92130582D01*
X88655908Y-92710000D01*
X88771161Y-93289418D01*
X89099375Y-93780625D01*
X89397761Y-93980000D01*
X89099375Y-94179375D01*
X88771161Y-94670582D01*
X88655908Y-95250000D01*
X88771161Y-95829418D01*
X89099375Y-96320625D01*
X89397761Y-96520000D01*
X89099375Y-96719375D01*
X88771161Y-97210582D01*
X88655908Y-97790000D01*
X88771161Y-98369418D01*
X89099375Y-98860625D01*
X89397761Y-99060000D01*
X89099375Y-99259375D01*
X88771161Y-99750582D01*
X88655908Y-100330000D01*
X88771161Y-100909418D01*
X89099375Y-101400625D01*
X89397761Y-101600000D01*
X89099375Y-101799375D01*
X88771161Y-102290582D01*
X88655908Y-102870000D01*
X88771161Y-103449418D01*
X89099375Y-103940625D01*
X89397761Y-104140000D01*
X89099375Y-104339375D01*
X88771161Y-104830582D01*
X88655908Y-105410000D01*
X88771161Y-105989418D01*
X89099375Y-106480625D01*
X89590582Y-106808839D01*
X90023744Y-106895000D01*
X90316256Y-106895000D01*
X90749418Y-106808839D01*
X91240625Y-106480625D01*
X91448178Y-106170000D01*
X92710503Y-106170000D01*
X92763466Y-106297863D01*
X93167138Y-106701535D01*
X93694561Y-106920001D01*
X94265439Y-106920001D01*
X94792862Y-106701535D01*
X95196534Y-106297863D01*
X95415000Y-105770440D01*
X95415000Y-105199562D01*
X95196534Y-104672139D01*
X94792862Y-104268467D01*
X94663784Y-104215001D01*
X94792862Y-104161535D01*
X95196534Y-103757863D01*
X95415000Y-103230440D01*
X95415000Y-102659562D01*
X95196534Y-102132139D01*
X94792862Y-101728467D01*
X94663784Y-101675001D01*
X94792862Y-101621535D01*
X95196534Y-101217863D01*
X95415000Y-100690440D01*
X95415000Y-100119562D01*
X95196534Y-99592139D01*
X94792862Y-99188467D01*
X94663784Y-99135001D01*
X94792862Y-99081535D01*
X95196534Y-98677863D01*
X95415000Y-98150440D01*
X95415000Y-97579562D01*
X97625000Y-97579562D01*
X97625000Y-98150440D01*
X97843466Y-98677863D01*
X98247138Y-99081535D01*
X98774561Y-99300001D01*
X99345439Y-99300001D01*
X99872862Y-99081535D01*
X100276534Y-98677863D01*
X100330000Y-98548785D01*
X100383466Y-98677863D01*
X100787138Y-99081535D01*
X101314561Y-99300001D01*
X101885439Y-99300001D01*
X102412862Y-99081535D01*
X102816534Y-98677863D01*
X102870000Y-98548785D01*
X102923466Y-98677863D01*
X103327138Y-99081535D01*
X103854561Y-99300001D01*
X104425439Y-99300001D01*
X104952862Y-99081535D01*
X105356534Y-98677863D01*
X105575000Y-98150440D01*
X105575000Y-97579562D01*
X105356534Y-97052139D01*
X104952862Y-96648467D01*
X104823784Y-96595001D01*
X104952862Y-96541535D01*
X105356534Y-96137863D01*
X105575000Y-95610440D01*
X105575000Y-95039562D01*
X105356534Y-94512139D01*
X104952862Y-94108467D01*
X104823784Y-94055001D01*
X104952862Y-94001535D01*
X105356534Y-93597863D01*
X105575000Y-93070440D01*
X105575000Y-92499562D01*
X105356534Y-91972139D01*
X104952862Y-91568467D01*
X104823784Y-91515001D01*
X104952862Y-91461535D01*
X105356534Y-91057863D01*
X105575000Y-90530440D01*
X105575000Y-89959562D01*
X105356534Y-89432139D01*
X104952862Y-89028467D01*
X104425439Y-88810001D01*
X103854561Y-88810001D01*
X103327138Y-89028467D01*
X102923466Y-89432139D01*
X102870000Y-89561217D01*
X102816534Y-89432139D01*
X102412862Y-89028467D01*
X101885439Y-88810001D01*
X101314561Y-88810001D01*
X100787138Y-89028467D01*
X100383466Y-89432139D01*
X100165000Y-89959562D01*
X100165000Y-90530440D01*
X100383466Y-91057863D01*
X100787138Y-91461535D01*
X100916216Y-91515001D01*
X100787138Y-91568467D01*
X100383466Y-91972139D01*
X100165000Y-92499562D01*
X100165000Y-93070440D01*
X100383466Y-93597863D01*
X100787138Y-94001535D01*
X100916216Y-94055001D01*
X100787138Y-94108467D01*
X100383466Y-94512139D01*
X100165000Y-95039562D01*
X100165000Y-95610440D01*
X100383466Y-96137863D01*
X100787138Y-96541535D01*
X100916216Y-96595001D01*
X100787138Y-96648467D01*
X100383466Y-97052139D01*
X100330000Y-97181217D01*
X100276534Y-97052139D01*
X99872862Y-96648467D01*
X99345439Y-96430001D01*
X98774561Y-96430001D01*
X98247138Y-96648467D01*
X97843466Y-97052139D01*
X97625000Y-97579562D01*
X95415000Y-97579562D01*
X95196534Y-97052139D01*
X94792862Y-96648467D01*
X94663784Y-96595001D01*
X94792862Y-96541535D01*
X95196534Y-96137863D01*
X95415000Y-95610440D01*
X95415000Y-95039562D01*
X95196534Y-94512139D01*
X94792862Y-94108467D01*
X94663784Y-94055001D01*
X94792862Y-94001535D01*
X95196534Y-93597863D01*
X95415000Y-93070440D01*
X95415000Y-92499562D01*
X95196534Y-91972139D01*
X94792862Y-91568467D01*
X94663784Y-91515001D01*
X94792862Y-91461535D01*
X95196534Y-91057863D01*
X95415000Y-90530440D01*
X95415000Y-89959562D01*
X95196534Y-89432139D01*
X94792862Y-89028467D01*
X94663784Y-88975001D01*
X94792862Y-88921535D01*
X95196534Y-88517863D01*
X95415000Y-87990440D01*
X95415000Y-87419562D01*
X95196534Y-86892139D01*
X94792862Y-86488467D01*
X94663784Y-86435001D01*
X94792862Y-86381535D01*
X95196534Y-85977863D01*
X95415000Y-85450440D01*
X95415000Y-84879562D01*
X107785000Y-84879562D01*
X107785000Y-85450440D01*
X108003466Y-85977863D01*
X108407138Y-86381535D01*
X108536216Y-86435001D01*
X108407138Y-86488467D01*
X108003466Y-86892139D01*
X107785000Y-87419562D01*
X107785000Y-87990440D01*
X108003466Y-88517863D01*
X108407138Y-88921535D01*
X108536216Y-88975001D01*
X108407138Y-89028467D01*
X108003466Y-89432139D01*
X107785000Y-89959562D01*
X107785000Y-90530440D01*
X108003466Y-91057863D01*
X108407138Y-91461535D01*
X108536216Y-91515001D01*
X108407138Y-91568467D01*
X108003466Y-91972139D01*
X107785000Y-92499562D01*
X107785000Y-93070440D01*
X108003466Y-93597863D01*
X108407138Y-94001535D01*
X108536216Y-94055001D01*
X108407138Y-94108467D01*
X108003466Y-94512139D01*
X107785000Y-95039562D01*
X107785000Y-95610440D01*
X108003466Y-96137863D01*
X108407138Y-96541535D01*
X108536216Y-96595001D01*
X108407138Y-96648467D01*
X108003466Y-97052139D01*
X107785000Y-97579562D01*
X107785000Y-98150440D01*
X108003466Y-98677863D01*
X108407138Y-99081535D01*
X108536216Y-99135001D01*
X108407138Y-99188467D01*
X108003466Y-99592139D01*
X107785000Y-100119562D01*
X107785000Y-100690440D01*
X108003466Y-101217863D01*
X108407138Y-101621535D01*
X108536216Y-101675001D01*
X108407138Y-101728467D01*
X108003466Y-102132139D01*
X107785000Y-102659562D01*
X107785000Y-103230440D01*
X108003466Y-103757863D01*
X108407138Y-104161535D01*
X108536216Y-104215001D01*
X108407138Y-104268467D01*
X108003466Y-104672139D01*
X107785000Y-105199562D01*
X107785000Y-105770440D01*
X108003466Y-106297863D01*
X108407138Y-106701535D01*
X108934561Y-106920001D01*
X109505439Y-106920001D01*
X110032862Y-106701535D01*
X110436534Y-106297863D01*
X110655000Y-105770440D01*
X110655000Y-105199562D01*
X110436534Y-104672139D01*
X110032862Y-104268467D01*
X109903784Y-104215001D01*
X110032862Y-104161535D01*
X110436534Y-103757863D01*
X110655000Y-103230440D01*
X110655000Y-102659562D01*
X110436534Y-102132139D01*
X110032862Y-101728467D01*
X109903784Y-101675001D01*
X110032862Y-101621535D01*
X110436534Y-101217863D01*
X110655000Y-100690440D01*
X110655000Y-100119562D01*
X110436534Y-99592139D01*
X110032862Y-99188467D01*
X109903784Y-99135001D01*
X110032862Y-99081535D01*
X110436534Y-98677863D01*
X110655000Y-98150440D01*
X110655000Y-97579562D01*
X110436534Y-97052139D01*
X110032862Y-96648467D01*
X109903784Y-96595001D01*
X110032862Y-96541535D01*
X110436534Y-96137863D01*
X110655000Y-95610440D01*
X110655000Y-95039562D01*
X110436534Y-94512139D01*
X110032862Y-94108467D01*
X109903784Y-94055001D01*
X110032862Y-94001535D01*
X110436534Y-93597863D01*
X110655000Y-93070440D01*
X110655000Y-92499562D01*
X110436534Y-91972139D01*
X110032862Y-91568467D01*
X109903784Y-91515001D01*
X110032862Y-91461535D01*
X110436534Y-91057863D01*
X110655000Y-90530440D01*
X110655000Y-89959562D01*
X110436534Y-89432139D01*
X110032862Y-89028467D01*
X109903784Y-88975001D01*
X110032862Y-88921535D01*
X110436534Y-88517863D01*
X110655000Y-87990440D01*
X110655000Y-87419562D01*
X110436534Y-86892139D01*
X110032862Y-86488467D01*
X109903784Y-86435001D01*
X110032862Y-86381535D01*
X110436534Y-85977863D01*
X110655000Y-85450440D01*
X110655000Y-84879562D01*
X110436534Y-84352139D01*
X110032862Y-83948467D01*
X109919417Y-83901476D01*
X109974005Y-83878865D01*
X110048139Y-83632746D01*
X109220000Y-82804606D01*
X108391861Y-83632746D01*
X108465995Y-83878865D01*
X108524448Y-83899875D01*
X108407138Y-83948467D01*
X108003466Y-84352139D01*
X107785000Y-84879562D01*
X95415000Y-84879562D01*
X95196534Y-84352139D01*
X94792862Y-83948467D01*
X94663784Y-83895001D01*
X94792862Y-83841535D01*
X95196534Y-83437863D01*
X95415000Y-82910440D01*
X95415000Y-82408224D01*
X107773035Y-82408224D01*
X107800222Y-82978455D01*
X107966136Y-83379006D01*
X108212255Y-83453140D01*
X109040395Y-82625001D01*
X109399605Y-82625001D01*
X110227745Y-83453140D01*
X110473864Y-83379006D01*
X110666965Y-82841778D01*
X110639778Y-82271547D01*
X110473864Y-81870996D01*
X110227745Y-81796862D01*
X109399605Y-82625001D01*
X109040395Y-82625001D01*
X108212255Y-81796862D01*
X107966136Y-81870996D01*
X107773035Y-82408224D01*
X95415000Y-82408224D01*
X95415000Y-82339562D01*
X95196534Y-81812139D01*
X94792862Y-81408467D01*
X94663784Y-81355001D01*
X94792862Y-81301535D01*
X95196534Y-80897863D01*
X95260924Y-80742412D01*
X95348464Y-80800905D01*
X95396607Y-80810481D01*
X95570150Y-80845001D01*
X95570154Y-80845001D01*
X95645002Y-80859889D01*
X95719850Y-80845001D01*
X107981570Y-80845001D01*
X108003466Y-80897863D01*
X108407138Y-81301535D01*
X108520583Y-81348526D01*
X108465995Y-81371137D01*
X108391861Y-81617256D01*
X109220000Y-82445396D01*
X110048139Y-81617256D01*
X109974005Y-81371137D01*
X109915552Y-81350127D01*
X110032862Y-81301535D01*
X110436534Y-80897863D01*
X110491167Y-80765968D01*
X111000001Y-81274802D01*
X111000000Y-90095153D01*
X110985112Y-90170000D01*
X111000000Y-90244847D01*
X111000000Y-90244851D01*
X111044096Y-90466536D01*
X111212071Y-90717929D01*
X111275530Y-90760331D01*
X112439671Y-91924473D01*
X112482071Y-91987929D01*
X112733463Y-92155904D01*
X112955148Y-92200000D01*
X112955152Y-92200000D01*
X113029999Y-92214888D01*
X113104846Y-92200000D01*
X122486289Y-92200000D01*
X122603720Y-92317431D01*
X122984126Y-92475000D01*
X123395874Y-92475000D01*
X123776280Y-92317431D01*
X124067431Y-92026280D01*
X124225000Y-91645874D01*
X124225000Y-91234126D01*
X124067431Y-90853720D01*
X123776280Y-90562569D01*
X123395874Y-90405000D01*
X122984126Y-90405000D01*
X122603720Y-90562569D01*
X122486289Y-90680000D01*
X113344802Y-90680000D01*
X112520000Y-89855199D01*
X112520000Y-88203272D01*
X112545528Y-88220329D01*
X113709671Y-89384473D01*
X113752071Y-89447929D01*
X114003463Y-89615904D01*
X114225148Y-89660000D01*
X114225152Y-89660000D01*
X114299999Y-89674888D01*
X114374846Y-89660000D01*
X140266289Y-89660000D01*
X140383720Y-89777431D01*
X140764126Y-89935000D01*
X141175874Y-89935000D01*
X141556280Y-89777431D01*
X141847431Y-89486280D01*
X142005000Y-89105874D01*
X142005000Y-88694126D01*
X141847431Y-88313720D01*
X141556280Y-88022569D01*
X141175874Y-87865000D01*
X140764126Y-87865000D01*
X140383720Y-88022569D01*
X140266289Y-88140000D01*
X114614802Y-88140000D01*
X113790000Y-87315199D01*
X113790000Y-85663272D01*
X113815528Y-85680329D01*
X114979671Y-86844473D01*
X115022071Y-86907929D01*
X115273463Y-87075904D01*
X115495148Y-87120000D01*
X115495152Y-87120000D01*
X115569999Y-87134888D01*
X115644846Y-87120000D01*
X137726289Y-87120000D01*
X137843720Y-87237431D01*
X138224126Y-87395000D01*
X138635874Y-87395000D01*
X139016280Y-87237431D01*
X139307431Y-86946280D01*
X139465000Y-86565874D01*
X139465000Y-86154126D01*
X139307431Y-85773720D01*
X139016280Y-85482569D01*
X138635874Y-85325000D01*
X138224126Y-85325000D01*
X137843720Y-85482569D01*
X137726289Y-85600000D01*
X115884802Y-85600000D01*
X115060000Y-84775199D01*
X115060000Y-83123272D01*
X115085528Y-83140329D01*
X116249671Y-84304473D01*
X116292071Y-84367929D01*
X116543463Y-84535904D01*
X116765148Y-84580000D01*
X116765152Y-84580000D01*
X116839999Y-84594888D01*
X116914846Y-84580000D01*
X135186289Y-84580000D01*
X135303720Y-84697431D01*
X135684126Y-84855000D01*
X136095874Y-84855000D01*
X136476280Y-84697431D01*
X136767431Y-84406280D01*
X136925000Y-84025874D01*
X136925000Y-83614126D01*
X136767431Y-83233720D01*
X136476280Y-82942569D01*
X136095874Y-82785000D01*
X135684126Y-82785000D01*
X135303720Y-82942569D01*
X135186289Y-83060000D01*
X117154802Y-83060000D01*
X116330000Y-82235199D01*
X116330000Y-80583272D01*
X116355528Y-80600329D01*
X117519671Y-81764473D01*
X117562071Y-81827929D01*
X117813463Y-81995904D01*
X118035148Y-82040000D01*
X118035152Y-82040000D01*
X118109999Y-82054888D01*
X118184846Y-82040000D01*
X132646289Y-82040000D01*
X132763720Y-82157431D01*
X133144126Y-82315000D01*
X133555874Y-82315000D01*
X133936280Y-82157431D01*
X134227431Y-81866280D01*
X134385000Y-81485874D01*
X134385000Y-81074126D01*
X134227431Y-80693720D01*
X133936280Y-80402569D01*
X133555874Y-80245000D01*
X133144126Y-80245000D01*
X132763720Y-80402569D01*
X132646289Y-80520000D01*
X118424802Y-80520000D01*
X117600000Y-79695199D01*
X117600000Y-78043272D01*
X117625528Y-78060329D01*
X118789671Y-79224473D01*
X118832071Y-79287929D01*
X119083463Y-79455904D01*
X119305148Y-79500000D01*
X119305152Y-79500000D01*
X119379999Y-79514888D01*
X119454846Y-79500000D01*
X130106289Y-79500000D01*
X130223720Y-79617431D01*
X130604126Y-79775000D01*
X131015874Y-79775000D01*
X131396280Y-79617431D01*
X131687431Y-79326280D01*
X131845000Y-78945874D01*
X131845000Y-78534126D01*
X131687431Y-78153720D01*
X131396280Y-77862569D01*
X131015874Y-77705000D01*
X130604126Y-77705000D01*
X130223720Y-77862569D01*
X130106289Y-77980000D01*
X119694802Y-77980000D01*
X118870000Y-77155199D01*
X118870000Y-75503272D01*
X118895528Y-75520329D01*
X120059671Y-76684473D01*
X120102071Y-76747929D01*
X120353463Y-76915904D01*
X120575148Y-76960000D01*
X120575152Y-76960000D01*
X120649999Y-76974888D01*
X120724846Y-76960000D01*
X127566289Y-76960000D01*
X127683720Y-77077431D01*
X128064126Y-77235000D01*
X128475874Y-77235000D01*
X128856280Y-77077431D01*
X129147431Y-76786280D01*
X129305000Y-76405874D01*
X129305000Y-75994126D01*
X129147431Y-75613720D01*
X128856280Y-75322569D01*
X128475874Y-75165000D01*
X128064126Y-75165000D01*
X127683720Y-75322569D01*
X127566289Y-75440000D01*
X120964802Y-75440000D01*
X120140000Y-74615199D01*
X120140000Y-72963272D01*
X120165528Y-72980329D01*
X121329671Y-74144473D01*
X121372071Y-74207929D01*
X121623463Y-74375904D01*
X121845148Y-74420000D01*
X121845152Y-74420000D01*
X121919999Y-74434888D01*
X121994846Y-74420000D01*
X125026289Y-74420000D01*
X125143720Y-74537431D01*
X125524126Y-74695000D01*
X125935874Y-74695000D01*
X126316280Y-74537431D01*
X126607431Y-74246280D01*
X126765000Y-73865874D01*
X126765000Y-73454126D01*
X126607431Y-73073720D01*
X126316280Y-72782569D01*
X125935874Y-72625000D01*
X125524126Y-72625000D01*
X125143720Y-72782569D01*
X125026289Y-72900000D01*
X122234802Y-72900000D01*
X121410000Y-72075199D01*
X121410000Y-69924846D01*
X121424888Y-69849999D01*
X121410000Y-69775152D01*
X121410000Y-69775148D01*
X121365904Y-69553463D01*
X121318380Y-69482338D01*
X121240329Y-69365526D01*
X121240327Y-69365524D01*
X121197929Y-69302071D01*
X121134476Y-69259673D01*
X111155332Y-59280531D01*
X111112930Y-59217072D01*
X111057448Y-59180000D01*
X111445199Y-59180000D01*
X118895526Y-66630329D01*
X118895532Y-66630333D01*
X121329673Y-69064476D01*
X121372071Y-69127929D01*
X121435524Y-69170327D01*
X121435526Y-69170329D01*
X121560902Y-69254102D01*
X121623463Y-69295904D01*
X121845148Y-69340000D01*
X121845152Y-69340000D01*
X121919999Y-69354888D01*
X121994846Y-69340000D01*
X127955199Y-69340000D01*
X131595527Y-72980329D01*
X131595530Y-72980331D01*
X136569670Y-77954472D01*
X136612071Y-78017929D01*
X136863463Y-78185904D01*
X137085148Y-78230000D01*
X137085153Y-78230000D01*
X137160000Y-78244888D01*
X137234847Y-78230000D01*
X153355199Y-78230000D01*
X155450000Y-80324803D01*
X155450001Y-95241821D01*
X155139375Y-95449375D01*
X154940000Y-95747761D01*
X154740625Y-95449375D01*
X154249418Y-95121161D01*
X153816256Y-95035000D01*
X153523744Y-95035000D01*
X153090582Y-95121161D01*
X152599375Y-95449375D01*
X152400000Y-95747761D01*
X152200625Y-95449375D01*
X151709418Y-95121161D01*
X151276256Y-95035000D01*
X150983744Y-95035000D01*
X150550582Y-95121161D01*
X150059375Y-95449375D01*
X149860000Y-95747761D01*
X149660625Y-95449375D01*
X149169418Y-95121161D01*
X148736256Y-95035000D01*
X148443744Y-95035000D01*
X148010582Y-95121161D01*
X147519375Y-95449375D01*
X147320000Y-95747761D01*
X147120625Y-95449375D01*
X146629418Y-95121161D01*
X146196256Y-95035000D01*
X145903744Y-95035000D01*
X145470582Y-95121161D01*
X144979375Y-95449375D01*
X144780000Y-95747761D01*
X144580625Y-95449375D01*
X144089418Y-95121161D01*
X143656256Y-95035000D01*
X143363744Y-95035000D01*
X142930582Y-95121161D01*
X142439375Y-95449375D01*
X142240000Y-95747761D01*
X142040625Y-95449375D01*
X141549418Y-95121161D01*
X141116256Y-95035000D01*
X140823744Y-95035000D01*
X140390582Y-95121161D01*
X139899375Y-95449375D01*
X139700000Y-95747761D01*
X139500625Y-95449375D01*
X139009418Y-95121161D01*
X138576256Y-95035000D01*
X138283744Y-95035000D01*
X137850582Y-95121161D01*
X137359375Y-95449375D01*
X137160000Y-95747761D01*
X136960625Y-95449375D01*
X136469418Y-95121161D01*
X136036256Y-95035000D01*
X135743744Y-95035000D01*
X135310582Y-95121161D01*
X134819375Y-95449375D01*
X134620000Y-95747761D01*
X134420625Y-95449375D01*
X133929418Y-95121161D01*
X133496256Y-95035000D01*
X133203744Y-95035000D01*
X132770582Y-95121161D01*
X132279375Y-95449375D01*
X132080000Y-95747761D01*
X131880625Y-95449375D01*
X131389418Y-95121161D01*
X130956256Y-95035000D01*
X130663744Y-95035000D01*
X130230582Y-95121161D01*
X129739375Y-95449375D01*
X129540000Y-95747761D01*
X129340625Y-95449375D01*
X128849418Y-95121161D01*
X128416256Y-95035000D01*
X128123744Y-95035000D01*
X127690582Y-95121161D01*
X127199375Y-95449375D01*
X127000000Y-95747761D01*
X126800625Y-95449375D01*
X126309418Y-95121161D01*
X125876256Y-95035000D01*
X125583744Y-95035000D01*
X125150582Y-95121161D01*
X124659375Y-95449375D01*
X124460000Y-95747761D01*
X124260625Y-95449375D01*
X123769418Y-95121161D01*
X123336256Y-95035000D01*
X123043744Y-95035000D01*
X122610582Y-95121161D01*
X122119375Y-95449375D01*
X121920000Y-95747761D01*
X121720625Y-95449375D01*
X121229418Y-95121161D01*
X120796256Y-95035000D01*
X120503744Y-95035000D01*
X120070582Y-95121161D01*
X119579375Y-95449375D01*
X119380000Y-95747761D01*
X119180625Y-95449375D01*
X118689418Y-95121161D01*
X118256256Y-95035000D01*
X117963744Y-95035000D01*
X117530582Y-95121161D01*
X117039375Y-95449375D01*
X116915344Y-95635000D01*
X115657159Y-95635000D01*
X115569999Y-95617663D01*
X115482839Y-95635000D01*
X115482835Y-95635000D01*
X115224690Y-95686348D01*
X115224688Y-95686349D01*
X115224689Y-95686349D01*
X115005845Y-95832576D01*
X115005844Y-95832577D01*
X114931951Y-95881951D01*
X114882577Y-95955844D01*
X113735845Y-97102577D01*
X113661952Y-97151951D01*
X113612578Y-97225844D01*
X113612576Y-97225846D01*
X113466348Y-97444691D01*
X113397663Y-97790000D01*
X113415001Y-97877165D01*
X113415000Y-107583421D01*
X112663422Y-108335000D01*
X108427440Y-108335000D01*
X108427440Y-108120000D01*
X108378157Y-107872235D01*
X108237809Y-107662191D01*
X108027765Y-107521843D01*
X107780000Y-107472560D01*
X105580000Y-107472560D01*
X105332235Y-107521843D01*
X105122191Y-107662191D01*
X104981843Y-107872235D01*
X104932560Y-108120000D01*
X104932560Y-110320000D01*
X104981843Y-110567765D01*
X105122191Y-110777809D01*
X105332235Y-110918157D01*
X105580000Y-110967440D01*
X107780000Y-110967440D01*
X108027765Y-110918157D01*
X108237809Y-110777809D01*
X108378157Y-110567765D01*
X108427440Y-110320000D01*
X108427440Y-110105000D01*
X112942839Y-110105000D01*
X113030000Y-110122337D01*
X113117161Y-110105000D01*
X166282839Y-110105000D01*
X166370000Y-110122337D01*
X166457161Y-110105000D01*
X166457165Y-110105000D01*
X166715310Y-110053652D01*
X167008049Y-109858049D01*
X167057425Y-109784153D01*
X168299544Y-108542035D01*
X168180000Y-109220000D01*
X168300615Y-109904040D01*
X168647911Y-110505575D01*
X169180000Y-110952051D01*
X169449112Y-111050000D01*
X90900888Y-111050000D01*
X91170000Y-110952051D01*
X91702089Y-110505575D01*
X92049385Y-109904040D01*
X92170000Y-109220000D01*
X94751010Y-109220000D01*
X94885666Y-109896963D01*
X95269135Y-110470865D01*
X95843037Y-110854334D01*
X96349120Y-110955000D01*
X96690880Y-110955000D01*
X97196963Y-110854334D01*
X97770865Y-110470865D01*
X98154334Y-109896963D01*
X98288990Y-109220000D01*
X98154334Y-108543037D01*
X97770865Y-107969135D01*
X97405000Y-107724672D01*
X97405000Y-107046578D01*
X97998591Y-106452988D01*
X98247138Y-106701535D01*
X98774561Y-106920001D01*
X99345439Y-106920001D01*
X99872862Y-106701535D01*
X100081651Y-106492746D01*
X100771861Y-106492746D01*
X100845995Y-106738865D01*
X101383223Y-106931966D01*
X101953454Y-106904779D01*
X102354005Y-106738865D01*
X102428139Y-106492746D01*
X101600000Y-105664606D01*
X100771861Y-106492746D01*
X100081651Y-106492746D01*
X100276534Y-106297863D01*
X100323525Y-106184418D01*
X100346136Y-106239006D01*
X100592255Y-106313140D01*
X101420395Y-105485001D01*
X101779605Y-105485001D01*
X102607745Y-106313140D01*
X102853864Y-106239006D01*
X102874874Y-106180553D01*
X102923466Y-106297863D01*
X103327138Y-106701535D01*
X103854561Y-106920001D01*
X104425439Y-106920001D01*
X104952862Y-106701535D01*
X105356534Y-106297863D01*
X105575000Y-105770440D01*
X105575000Y-105199562D01*
X105356534Y-104672139D01*
X104952862Y-104268467D01*
X104425439Y-104050001D01*
X103854561Y-104050001D01*
X103327138Y-104268467D01*
X102923466Y-104672139D01*
X102876475Y-104785584D01*
X102853864Y-104730996D01*
X102607745Y-104656862D01*
X101779605Y-105485001D01*
X101420395Y-105485001D01*
X100592255Y-104656862D01*
X100346136Y-104730996D01*
X100325126Y-104789449D01*
X100276534Y-104672139D01*
X100081651Y-104477256D01*
X100771861Y-104477256D01*
X101600000Y-105305396D01*
X102428139Y-104477256D01*
X102354005Y-104231137D01*
X101816777Y-104038036D01*
X101246546Y-104065223D01*
X100845995Y-104231137D01*
X100771861Y-104477256D01*
X100081651Y-104477256D01*
X99872862Y-104268467D01*
X99345439Y-104050001D01*
X98774561Y-104050001D01*
X98247138Y-104268467D01*
X97915604Y-104600001D01*
X97802160Y-104600001D01*
X97714999Y-104582664D01*
X97627838Y-104600001D01*
X97627834Y-104600001D01*
X97376471Y-104650000D01*
X97369689Y-104651349D01*
X97150844Y-104797577D01*
X97150843Y-104797578D01*
X97076950Y-104846952D01*
X97027576Y-104920845D01*
X95955847Y-105992575D01*
X95881951Y-106041951D01*
X95686348Y-106334691D01*
X95635000Y-106592836D01*
X95635000Y-106592839D01*
X95617663Y-106680000D01*
X95635000Y-106767161D01*
X95635000Y-107724672D01*
X95269135Y-107969135D01*
X94885666Y-108543037D01*
X94751010Y-109220000D01*
X92170000Y-109220000D01*
X92049385Y-108535960D01*
X91702089Y-107934425D01*
X91170000Y-107487949D01*
X90517296Y-107250384D01*
X89822704Y-107250384D01*
X89170000Y-107487949D01*
X88637911Y-107934425D01*
X88340000Y-108450423D01*
X88340000Y-57919577D01*
X88637911Y-58435575D01*
X89170000Y-58882051D01*
X89822704Y-59119616D01*
X90517296Y-59119616D01*
X91170000Y-58882051D01*
X91702089Y-58435575D01*
X92049385Y-57834040D01*
X92170000Y-57150000D01*
X92049385Y-56465960D01*
X91952813Y-56298692D01*
X92545000Y-56298692D01*
X92545000Y-56939251D01*
X92703750Y-57098001D01*
X93853000Y-57098001D01*
X93853000Y-55948751D01*
X94107000Y-55948751D01*
X94107000Y-57098001D01*
X95256250Y-57098001D01*
X95415000Y-56939251D01*
X95415000Y-56298692D01*
X95318327Y-56065303D01*
X95139699Y-55886674D01*
X94906310Y-55790001D01*
X94265750Y-55790001D01*
X94107000Y-55948751D01*
X93853000Y-55948751D01*
X93694250Y-55790001D01*
X93053690Y-55790001D01*
X92820301Y-55886674D01*
X92641673Y-56065303D01*
X92545000Y-56298692D01*
X91952813Y-56298692D01*
X91702089Y-55864425D01*
X91170000Y-55417949D01*
X90900888Y-55320000D01*
X169506702Y-55320000D01*
X169190000Y-55435270D01*
G36*
X144867376Y-64290204D02*
X145259796Y-64682624D01*
X145470740Y-64770000D01*
X145259796Y-64857376D01*
X144867376Y-65249796D01*
X144786578Y-65444859D01*
X144730742Y-65310059D01*
X144488764Y-65240841D01*
X143689605Y-66040000D01*
X144488764Y-66839159D01*
X144730742Y-66769941D01*
X144782406Y-66625069D01*
X144867376Y-66830204D01*
X145165001Y-67127829D01*
X145165000Y-68492839D01*
X145147663Y-68580000D01*
X145165000Y-68667161D01*
X145165000Y-68667164D01*
X145216348Y-68925309D01*
X145411951Y-69218049D01*
X145485847Y-69267425D01*
X146632577Y-70414156D01*
X146681951Y-70488049D01*
X146755844Y-70537423D01*
X146755845Y-70537424D01*
X146798467Y-70565903D01*
X146974690Y-70683652D01*
X147232835Y-70735000D01*
X147232839Y-70735000D01*
X147319999Y-70752337D01*
X147407159Y-70735000D01*
X166003422Y-70735000D01*
X168025001Y-72756580D01*
X168025000Y-106313421D01*
X166003422Y-108335000D01*
X115107132Y-108335000D01*
X115133652Y-108295310D01*
X115185000Y-108037165D01*
X115185000Y-108037161D01*
X115202337Y-107950001D01*
X115185000Y-107862841D01*
X115185000Y-98156578D01*
X115936579Y-97405000D01*
X116915344Y-97405000D01*
X117039375Y-97590625D01*
X117530582Y-97918839D01*
X117963744Y-98005000D01*
X118256256Y-98005000D01*
X118689418Y-97918839D01*
X119180625Y-97590625D01*
X119380000Y-97292239D01*
X119579375Y-97590625D01*
X120070582Y-97918839D01*
X120503744Y-98005000D01*
X120796256Y-98005000D01*
X121229418Y-97918839D01*
X121720625Y-97590625D01*
X121920000Y-97292239D01*
X122119375Y-97590625D01*
X122610582Y-97918839D01*
X123043744Y-98005000D01*
X123336256Y-98005000D01*
X123769418Y-97918839D01*
X124260625Y-97590625D01*
X124460000Y-97292239D01*
X124659375Y-97590625D01*
X125150582Y-97918839D01*
X125583744Y-98005000D01*
X125876256Y-98005000D01*
X126309418Y-97918839D01*
X126800625Y-97590625D01*
X127000000Y-97292239D01*
X127199375Y-97590625D01*
X127690582Y-97918839D01*
X128123744Y-98005000D01*
X128416256Y-98005000D01*
X128849418Y-97918839D01*
X129340625Y-97590625D01*
X129540000Y-97292239D01*
X129739375Y-97590625D01*
X130230582Y-97918839D01*
X130663744Y-98005000D01*
X130956256Y-98005000D01*
X131389418Y-97918839D01*
X131880625Y-97590625D01*
X132080000Y-97292239D01*
X132279375Y-97590625D01*
X132770582Y-97918839D01*
X133203744Y-98005000D01*
X133496256Y-98005000D01*
X133929418Y-97918839D01*
X134420625Y-97590625D01*
X134620000Y-97292239D01*
X134819375Y-97590625D01*
X135310582Y-97918839D01*
X135743744Y-98005000D01*
X136036256Y-98005000D01*
X136469418Y-97918839D01*
X136960625Y-97590625D01*
X137160000Y-97292239D01*
X137359375Y-97590625D01*
X137850582Y-97918839D01*
X138283744Y-98005000D01*
X138576256Y-98005000D01*
X139009418Y-97918839D01*
X139500625Y-97590625D01*
X139700000Y-97292239D01*
X139899375Y-97590625D01*
X140390582Y-97918839D01*
X140823744Y-98005000D01*
X141116256Y-98005000D01*
X141549418Y-97918839D01*
X142040625Y-97590625D01*
X142240000Y-97292239D01*
X142439375Y-97590625D01*
X142930582Y-97918839D01*
X143363744Y-98005000D01*
X143656256Y-98005000D01*
X144089418Y-97918839D01*
X144580625Y-97590625D01*
X144780000Y-97292239D01*
X144979375Y-97590625D01*
X145470582Y-97918839D01*
X145903744Y-98005000D01*
X146196256Y-98005000D01*
X146629418Y-97918839D01*
X147120625Y-97590625D01*
X147320000Y-97292239D01*
X147519375Y-97590625D01*
X148010582Y-97918839D01*
X148443744Y-98005000D01*
X148736256Y-98005000D01*
X149169418Y-97918839D01*
X149660625Y-97590625D01*
X149860000Y-97292239D01*
X150059375Y-97590625D01*
X150550582Y-97918839D01*
X150983744Y-98005000D01*
X151276256Y-98005000D01*
X151709418Y-97918839D01*
X152200625Y-97590625D01*
X152400000Y-97292239D01*
X152599375Y-97590625D01*
X153090582Y-97918839D01*
X153523744Y-98005000D01*
X153816256Y-98005000D01*
X154249418Y-97918839D01*
X154740625Y-97590625D01*
X154940000Y-97292239D01*
X155139375Y-97590625D01*
X155630582Y-97918839D01*
X156063744Y-98005000D01*
X156356256Y-98005000D01*
X156789418Y-97918839D01*
X157280625Y-97590625D01*
X157480000Y-97292239D01*
X157679375Y-97590625D01*
X158170582Y-97918839D01*
X158603744Y-98005000D01*
X158896256Y-98005000D01*
X159329418Y-97918839D01*
X159820625Y-97590625D01*
X160020000Y-97292239D01*
X160219375Y-97590625D01*
X160710582Y-97918839D01*
X161143744Y-98005000D01*
X161436256Y-98005000D01*
X161869418Y-97918839D01*
X162360625Y-97590625D01*
X162560000Y-97292239D01*
X162759375Y-97590625D01*
X163250582Y-97918839D01*
X163683744Y-98005000D01*
X163976256Y-98005000D01*
X164409418Y-97918839D01*
X164900625Y-97590625D01*
X164915096Y-97568967D01*
X164981673Y-97729698D01*
X165160301Y-97908327D01*
X165393690Y-98005000D01*
X166084250Y-98005000D01*
X166243000Y-97846250D01*
X166243000Y-96647000D01*
X166497000Y-96647000D01*
X166497000Y-97846250D01*
X166655750Y-98005000D01*
X167346310Y-98005000D01*
X167579699Y-97908327D01*
X167758327Y-97729698D01*
X167855000Y-97496309D01*
X167855000Y-96805750D01*
X167696250Y-96647000D01*
X166497000Y-96647000D01*
X166243000Y-96647000D01*
X166223000Y-96647000D01*
X166223000Y-96393000D01*
X166243000Y-96393000D01*
X166243000Y-95193750D01*
X166497000Y-95193750D01*
X166497000Y-96393000D01*
X167696250Y-96393000D01*
X167855000Y-96234250D01*
X167855000Y-95543691D01*
X167758327Y-95310302D01*
X167579699Y-95131673D01*
X167346310Y-95035000D01*
X166655750Y-95035000D01*
X166497000Y-95193750D01*
X166243000Y-95193750D01*
X166084250Y-95035000D01*
X165393690Y-95035000D01*
X165160301Y-95131673D01*
X164981673Y-95310302D01*
X164915096Y-95471033D01*
X164900625Y-95449375D01*
X164409418Y-95121161D01*
X163976256Y-95035000D01*
X163683744Y-95035000D01*
X163250582Y-95121161D01*
X162759375Y-95449375D01*
X162560000Y-95747761D01*
X162360625Y-95449375D01*
X161869418Y-95121161D01*
X161436256Y-95035000D01*
X161143744Y-95035000D01*
X160710582Y-95121161D01*
X160219375Y-95449375D01*
X160020000Y-95747761D01*
X159820625Y-95449375D01*
X159329418Y-95121161D01*
X158896256Y-95035000D01*
X158603744Y-95035000D01*
X158170582Y-95121161D01*
X157679375Y-95449375D01*
X157480000Y-95747761D01*
X157280625Y-95449375D01*
X156970000Y-95241822D01*
X156970000Y-80084846D01*
X156984888Y-80009999D01*
X156970000Y-79935152D01*
X156970000Y-79935148D01*
X156925904Y-79713463D01*
X156884102Y-79650902D01*
X156800329Y-79525526D01*
X156800327Y-79525524D01*
X156757929Y-79462071D01*
X156694476Y-79419673D01*
X154260331Y-76985530D01*
X154217929Y-76922071D01*
X153966537Y-76754096D01*
X153744852Y-76710000D01*
X153744847Y-76710000D01*
X153670000Y-76695112D01*
X153595153Y-76710000D01*
X137474802Y-76710000D01*
X132670331Y-71905530D01*
X132670329Y-71905527D01*
X129344801Y-68580000D01*
X130477362Y-67447440D01*
X131570000Y-67447440D01*
X131817765Y-67398157D01*
X132027809Y-67257809D01*
X132168157Y-67047765D01*
X132204123Y-66866951D01*
X132559796Y-67222624D01*
X133072517Y-67435000D01*
X133627483Y-67435000D01*
X134140204Y-67222624D01*
X134532624Y-66830204D01*
X134620000Y-66619260D01*
X134707376Y-66830204D01*
X135099796Y-67222624D01*
X135612517Y-67435000D01*
X136167483Y-67435000D01*
X136680204Y-67222624D01*
X137072624Y-66830204D01*
X137160000Y-66619260D01*
X137247376Y-66830204D01*
X137639796Y-67222624D01*
X138152517Y-67435000D01*
X138707483Y-67435000D01*
X139220204Y-67222624D01*
X139612624Y-66830204D01*
X139700000Y-66619260D01*
X139787376Y-66830204D01*
X140179796Y-67222624D01*
X140692517Y-67435000D01*
X141247483Y-67435000D01*
X141760204Y-67222624D01*
X141964064Y-67018764D01*
X142710841Y-67018764D01*
X142780059Y-67260742D01*
X143302780Y-67447155D01*
X143857049Y-67419341D01*
X144239941Y-67260742D01*
X144309159Y-67018764D01*
X143510000Y-66219605D01*
X142710841Y-67018764D01*
X141964064Y-67018764D01*
X142152624Y-66830204D01*
X142233422Y-66635141D01*
X142289258Y-66769941D01*
X142531236Y-66839159D01*
X143330395Y-66040000D01*
X142531236Y-65240841D01*
X142289258Y-65310059D01*
X142237594Y-65454931D01*
X142152624Y-65249796D01*
X141760204Y-64857376D01*
X141549260Y-64770000D01*
X141760204Y-64682624D01*
X142152624Y-64290204D01*
X142240000Y-64079260D01*
X142327376Y-64290204D01*
X142719796Y-64682624D01*
X142914859Y-64763422D01*
X142780059Y-64819258D01*
X142710841Y-65061236D01*
X143510000Y-65860395D01*
X144309159Y-65061236D01*
X144239941Y-64819258D01*
X144095069Y-64767594D01*
X144300204Y-64682624D01*
X144692624Y-64290204D01*
X144780000Y-64079260D01*
X144867376Y-64290204D01*
X144867376Y-64290204D01*
G37*
X144867376Y-64290204D02*
X145259796Y-64682624D01*
X145470740Y-64770000D01*
X145259796Y-64857376D01*
X144867376Y-65249796D01*
X144786578Y-65444859D01*
X144730742Y-65310059D01*
X144488764Y-65240841D01*
X143689605Y-66040000D01*
X144488764Y-66839159D01*
X144730742Y-66769941D01*
X144782406Y-66625069D01*
X144867376Y-66830204D01*
X145165001Y-67127829D01*
X145165000Y-68492839D01*
X145147663Y-68580000D01*
X145165000Y-68667161D01*
X145165000Y-68667164D01*
X145216348Y-68925309D01*
X145411951Y-69218049D01*
X145485847Y-69267425D01*
X146632577Y-70414156D01*
X146681951Y-70488049D01*
X146755844Y-70537423D01*
X146755845Y-70537424D01*
X146798467Y-70565903D01*
X146974690Y-70683652D01*
X147232835Y-70735000D01*
X147232839Y-70735000D01*
X147319999Y-70752337D01*
X147407159Y-70735000D01*
X166003422Y-70735000D01*
X168025001Y-72756580D01*
X168025000Y-106313421D01*
X166003422Y-108335000D01*
X115107132Y-108335000D01*
X115133652Y-108295310D01*
X115185000Y-108037165D01*
X115185000Y-108037161D01*
X115202337Y-107950001D01*
X115185000Y-107862841D01*
X115185000Y-98156578D01*
X115936579Y-97405000D01*
X116915344Y-97405000D01*
X117039375Y-97590625D01*
X117530582Y-97918839D01*
X117963744Y-98005000D01*
X118256256Y-98005000D01*
X118689418Y-97918839D01*
X119180625Y-97590625D01*
X119380000Y-97292239D01*
X119579375Y-97590625D01*
X120070582Y-97918839D01*
X120503744Y-98005000D01*
X120796256Y-98005000D01*
X121229418Y-97918839D01*
X121720625Y-97590625D01*
X121920000Y-97292239D01*
X122119375Y-97590625D01*
X122610582Y-97918839D01*
X123043744Y-98005000D01*
X123336256Y-98005000D01*
X123769418Y-97918839D01*
X124260625Y-97590625D01*
X124460000Y-97292239D01*
X124659375Y-97590625D01*
X125150582Y-97918839D01*
X125583744Y-98005000D01*
X125876256Y-98005000D01*
X126309418Y-97918839D01*
X126800625Y-97590625D01*
X127000000Y-97292239D01*
X127199375Y-97590625D01*
X127690582Y-97918839D01*
X128123744Y-98005000D01*
X128416256Y-98005000D01*
X128849418Y-97918839D01*
X129340625Y-97590625D01*
X129540000Y-97292239D01*
X129739375Y-97590625D01*
X130230582Y-97918839D01*
X130663744Y-98005000D01*
X130956256Y-98005000D01*
X131389418Y-97918839D01*
X131880625Y-97590625D01*
X132080000Y-97292239D01*
X132279375Y-97590625D01*
X132770582Y-97918839D01*
X133203744Y-98005000D01*
X133496256Y-98005000D01*
X133929418Y-97918839D01*
X134420625Y-97590625D01*
X134620000Y-97292239D01*
X134819375Y-97590625D01*
X135310582Y-97918839D01*
X135743744Y-98005000D01*
X136036256Y-98005000D01*
X136469418Y-97918839D01*
X136960625Y-97590625D01*
X137160000Y-97292239D01*
X137359375Y-97590625D01*
X137850582Y-97918839D01*
X138283744Y-98005000D01*
X138576256Y-98005000D01*
X139009418Y-97918839D01*
X139500625Y-97590625D01*
X139700000Y-97292239D01*
X139899375Y-97590625D01*
X140390582Y-97918839D01*
X140823744Y-98005000D01*
X141116256Y-98005000D01*
X141549418Y-97918839D01*
X142040625Y-97590625D01*
X142240000Y-97292239D01*
X142439375Y-97590625D01*
X142930582Y-97918839D01*
X143363744Y-98005000D01*
X143656256Y-98005000D01*
X144089418Y-97918839D01*
X144580625Y-97590625D01*
X144780000Y-97292239D01*
X144979375Y-97590625D01*
X145470582Y-97918839D01*
X145903744Y-98005000D01*
X146196256Y-98005000D01*
X146629418Y-97918839D01*
X147120625Y-97590625D01*
X147320000Y-97292239D01*
X147519375Y-97590625D01*
X148010582Y-97918839D01*
X148443744Y-98005000D01*
X148736256Y-98005000D01*
X149169418Y-97918839D01*
X149660625Y-97590625D01*
X149860000Y-97292239D01*
X150059375Y-97590625D01*
X150550582Y-97918839D01*
X150983744Y-98005000D01*
X151276256Y-98005000D01*
X151709418Y-97918839D01*
X152200625Y-97590625D01*
X152400000Y-97292239D01*
X152599375Y-97590625D01*
X153090582Y-97918839D01*
X153523744Y-98005000D01*
X153816256Y-98005000D01*
X154249418Y-97918839D01*
X154740625Y-97590625D01*
X154940000Y-97292239D01*
X155139375Y-97590625D01*
X155630582Y-97918839D01*
X156063744Y-98005000D01*
X156356256Y-98005000D01*
X156789418Y-97918839D01*
X157280625Y-97590625D01*
X157480000Y-97292239D01*
X157679375Y-97590625D01*
X158170582Y-97918839D01*
X158603744Y-98005000D01*
X158896256Y-98005000D01*
X159329418Y-97918839D01*
X159820625Y-97590625D01*
X160020000Y-97292239D01*
X160219375Y-97590625D01*
X160710582Y-97918839D01*
X161143744Y-98005000D01*
X161436256Y-98005000D01*
X161869418Y-97918839D01*
X162360625Y-97590625D01*
X162560000Y-97292239D01*
X162759375Y-97590625D01*
X163250582Y-97918839D01*
X163683744Y-98005000D01*
X163976256Y-98005000D01*
X164409418Y-97918839D01*
X164900625Y-97590625D01*
X164915096Y-97568967D01*
X164981673Y-97729698D01*
X165160301Y-97908327D01*
X165393690Y-98005000D01*
X166084250Y-98005000D01*
X166243000Y-97846250D01*
X166243000Y-96647000D01*
X166497000Y-96647000D01*
X166497000Y-97846250D01*
X166655750Y-98005000D01*
X167346310Y-98005000D01*
X167579699Y-97908327D01*
X167758327Y-97729698D01*
X167855000Y-97496309D01*
X167855000Y-96805750D01*
X167696250Y-96647000D01*
X166497000Y-96647000D01*
X166243000Y-96647000D01*
X166223000Y-96647000D01*
X166223000Y-96393000D01*
X166243000Y-96393000D01*
X166243000Y-95193750D01*
X166497000Y-95193750D01*
X166497000Y-96393000D01*
X167696250Y-96393000D01*
X167855000Y-96234250D01*
X167855000Y-95543691D01*
X167758327Y-95310302D01*
X167579699Y-95131673D01*
X167346310Y-95035000D01*
X166655750Y-95035000D01*
X166497000Y-95193750D01*
X166243000Y-95193750D01*
X166084250Y-95035000D01*
X165393690Y-95035000D01*
X165160301Y-95131673D01*
X164981673Y-95310302D01*
X164915096Y-95471033D01*
X164900625Y-95449375D01*
X164409418Y-95121161D01*
X163976256Y-95035000D01*
X163683744Y-95035000D01*
X163250582Y-95121161D01*
X162759375Y-95449375D01*
X162560000Y-95747761D01*
X162360625Y-95449375D01*
X161869418Y-95121161D01*
X161436256Y-95035000D01*
X161143744Y-95035000D01*
X160710582Y-95121161D01*
X160219375Y-95449375D01*
X160020000Y-95747761D01*
X159820625Y-95449375D01*
X159329418Y-95121161D01*
X158896256Y-95035000D01*
X158603744Y-95035000D01*
X158170582Y-95121161D01*
X157679375Y-95449375D01*
X157480000Y-95747761D01*
X157280625Y-95449375D01*
X156970000Y-95241822D01*
X156970000Y-80084846D01*
X156984888Y-80009999D01*
X156970000Y-79935152D01*
X156970000Y-79935148D01*
X156925904Y-79713463D01*
X156884102Y-79650902D01*
X156800329Y-79525526D01*
X156800327Y-79525524D01*
X156757929Y-79462071D01*
X156694476Y-79419673D01*
X154260331Y-76985530D01*
X154217929Y-76922071D01*
X153966537Y-76754096D01*
X153744852Y-76710000D01*
X153744847Y-76710000D01*
X153670000Y-76695112D01*
X153595153Y-76710000D01*
X137474802Y-76710000D01*
X132670331Y-71905530D01*
X132670329Y-71905527D01*
X129344801Y-68580000D01*
X130477362Y-67447440D01*
X131570000Y-67447440D01*
X131817765Y-67398157D01*
X132027809Y-67257809D01*
X132168157Y-67047765D01*
X132204123Y-66866951D01*
X132559796Y-67222624D01*
X133072517Y-67435000D01*
X133627483Y-67435000D01*
X134140204Y-67222624D01*
X134532624Y-66830204D01*
X134620000Y-66619260D01*
X134707376Y-66830204D01*
X135099796Y-67222624D01*
X135612517Y-67435000D01*
X136167483Y-67435000D01*
X136680204Y-67222624D01*
X137072624Y-66830204D01*
X137160000Y-66619260D01*
X137247376Y-66830204D01*
X137639796Y-67222624D01*
X138152517Y-67435000D01*
X138707483Y-67435000D01*
X139220204Y-67222624D01*
X139612624Y-66830204D01*
X139700000Y-66619260D01*
X139787376Y-66830204D01*
X140179796Y-67222624D01*
X140692517Y-67435000D01*
X141247483Y-67435000D01*
X141760204Y-67222624D01*
X141964064Y-67018764D01*
X142710841Y-67018764D01*
X142780059Y-67260742D01*
X143302780Y-67447155D01*
X143857049Y-67419341D01*
X144239941Y-67260742D01*
X144309159Y-67018764D01*
X143510000Y-66219605D01*
X142710841Y-67018764D01*
X141964064Y-67018764D01*
X142152624Y-66830204D01*
X142233422Y-66635141D01*
X142289258Y-66769941D01*
X142531236Y-66839159D01*
X143330395Y-66040000D01*
X142531236Y-65240841D01*
X142289258Y-65310059D01*
X142237594Y-65454931D01*
X142152624Y-65249796D01*
X141760204Y-64857376D01*
X141549260Y-64770000D01*
X141760204Y-64682624D01*
X142152624Y-64290204D01*
X142240000Y-64079260D01*
X142327376Y-64290204D01*
X142719796Y-64682624D01*
X142914859Y-64763422D01*
X142780059Y-64819258D01*
X142710841Y-65061236D01*
X143510000Y-65860395D01*
X144309159Y-65061236D01*
X144239941Y-64819258D01*
X144095069Y-64767594D01*
X144300204Y-64682624D01*
X144692624Y-64290204D01*
X144780000Y-64079260D01*
X144867376Y-64290204D01*
G04 #@! TD*
M02*
