G04 #@! TF.GenerationSoftware,KiCad,Pcbnew,(5.0.1-3-g963ef8bb5)*
G04 #@! TF.CreationDate,2020-01-16T13:34:53+00:00*
G04 #@! TF.ProjectId,SystemKeyboard,53797374656D4B6579626F6172642E6B,rev?*
G04 #@! TF.SameCoordinates,Original*
G04 #@! TF.FileFunction,Copper,L2,Bot,Signal*
G04 #@! TF.FilePolarity,Positive*
%FSLAX46Y46*%
G04 Gerber Fmt 4.6, Leading zero omitted, Abs format (unit mm)*
G04 Created by KiCad (PCBNEW (5.0.1-3-g963ef8bb5)) date Thursday, 16 January 2020 at 13:34:53*
%MOMM*%
%LPD*%
G01*
G04 APERTURE LIST*
G04 #@! TA.AperFunction,ComponentPad*
%ADD10C,1.600000*%
G04 #@! TD*
G04 #@! TA.AperFunction,ComponentPad*
%ADD11R,1.600000X1.600000*%
G04 #@! TD*
G04 #@! TA.AperFunction,ComponentPad*
%ADD12C,3.050000*%
G04 #@! TD*
G04 #@! TA.AperFunction,ComponentPad*
%ADD13R,1.520000X1.520000*%
G04 #@! TD*
G04 #@! TA.AperFunction,ComponentPad*
%ADD14C,1.520000*%
G04 #@! TD*
G04 #@! TA.AperFunction,ComponentPad*
%ADD15R,1.700000X1.700000*%
G04 #@! TD*
G04 #@! TA.AperFunction,ComponentPad*
%ADD16O,1.700000X1.700000*%
G04 #@! TD*
G04 #@! TA.AperFunction,ComponentPad*
%ADD17R,2.200000X2.200000*%
G04 #@! TD*
G04 #@! TA.AperFunction,ComponentPad*
%ADD18O,2.200000X2.200000*%
G04 #@! TD*
G04 #@! TA.AperFunction,ViaPad*
%ADD19C,0.800000*%
G04 #@! TD*
G04 #@! TA.AperFunction,Conductor*
%ADD20C,0.500000*%
G04 #@! TD*
G04 #@! TA.AperFunction,Conductor*
%ADD21C,0.250000*%
G04 #@! TD*
G04 #@! TA.AperFunction,Conductor*
%ADD22C,0.254000*%
G04 #@! TD*
G04 APERTURE END LIST*
D10*
G04 #@! TO.P,U1,52*
G04 #@! TO.N,Net-(U1-Pad52)*
X99060000Y-97865001D03*
G04 #@! TO.P,U1,51*
G04 #@! TO.N,Net-(U1-Pad51)*
X101600000Y-97865001D03*
G04 #@! TO.P,U1,50*
G04 #@! TO.N,Net-(U1-Pad50)*
X101600000Y-95325001D03*
G04 #@! TO.P,U1,49*
G04 #@! TO.N,Net-(U1-Pad49)*
X101600000Y-92785001D03*
G04 #@! TO.P,U1,48*
G04 #@! TO.N,Net-(U1-Pad48)*
X101600000Y-90245001D03*
G04 #@! TO.P,U1,47*
G04 #@! TO.N,Net-(U1-Pad47)*
X104140000Y-97865001D03*
G04 #@! TO.P,U1,46*
G04 #@! TO.N,Net-(U1-Pad46)*
X104140000Y-95325001D03*
G04 #@! TO.P,U1,45*
G04 #@! TO.N,Net-(U1-Pad45)*
X104140000Y-92785001D03*
G04 #@! TO.P,U1,44*
G04 #@! TO.N,Net-(U1-Pad44)*
X104140000Y-90245001D03*
G04 #@! TO.P,U1,43*
G04 #@! TO.N,Net-(U1-Pad43)*
X109220000Y-57225001D03*
G04 #@! TO.P,U1,42*
G04 #@! TO.N,/DATA6*
X109220000Y-59765001D03*
G04 #@! TO.P,U1,41*
G04 #@! TO.N,/DATA5*
X109220000Y-62305001D03*
G04 #@! TO.P,U1,40*
G04 #@! TO.N,/DATA4*
X109220000Y-64845001D03*
G04 #@! TO.P,U1,39*
G04 #@! TO.N,/DATA3*
X109220000Y-67385001D03*
G04 #@! TO.P,U1,38*
G04 #@! TO.N,/DATA2*
X109220000Y-69925001D03*
G04 #@! TO.P,U1,37*
G04 #@! TO.N,/DATA1*
X109220000Y-72465001D03*
G04 #@! TO.P,U1,36*
G04 #@! TO.N,/DATA0*
X109220000Y-75005001D03*
G04 #@! TO.P,U1,35*
G04 #@! TO.N,/USRINT1*
X109220000Y-77545001D03*
G04 #@! TO.P,U1,34*
G04 #@! TO.N,/USRINT2*
X109220000Y-80085001D03*
G04 #@! TO.P,U1,33*
G04 #@! TO.N,/GND*
X109220000Y-82625001D03*
G04 #@! TO.P,U1,32*
G04 #@! TO.N,Net-(U1-Pad32)*
X109220000Y-85165001D03*
G04 #@! TO.P,U1,31*
G04 #@! TO.N,Net-(U1-Pad31)*
X109220000Y-87705001D03*
G04 #@! TO.P,U1,30*
G04 #@! TO.N,Net-(U1-Pad30)*
X109220000Y-90245001D03*
G04 #@! TO.P,U1,29*
G04 #@! TO.N,Net-(U1-Pad29)*
X109220000Y-92785001D03*
G04 #@! TO.P,U1,28*
G04 #@! TO.N,Net-(U1-Pad28)*
X109220000Y-95325001D03*
G04 #@! TO.P,U1,27*
G04 #@! TO.N,Net-(U1-Pad27)*
X109220000Y-97865001D03*
G04 #@! TO.P,U1,26*
G04 #@! TO.N,Net-(U1-Pad26)*
X109220000Y-100405001D03*
G04 #@! TO.P,U1,25*
G04 #@! TO.N,Net-(U1-Pad25)*
X109220000Y-102945001D03*
G04 #@! TO.P,U1,24*
G04 #@! TO.N,Net-(U1-Pad24)*
X109220000Y-105485001D03*
G04 #@! TO.P,U1,23*
G04 #@! TO.N,Net-(U1-Pad23)*
X104140000Y-105485001D03*
G04 #@! TO.P,U1,22*
G04 #@! TO.N,/GND*
X101600000Y-105485001D03*
G04 #@! TO.P,U1,21*
G04 #@! TO.N,Net-(D1-Pad2)*
X99060000Y-105485001D03*
G04 #@! TO.P,U1,20*
G04 #@! TO.N,/USR7*
X93980000Y-105485001D03*
G04 #@! TO.P,U1,19*
G04 #@! TO.N,/USR6*
X93980000Y-102945001D03*
G04 #@! TO.P,U1,18*
G04 #@! TO.N,/USR5*
X93980000Y-100405001D03*
G04 #@! TO.P,U1,17*
G04 #@! TO.N,/USR4*
X93980000Y-97865001D03*
G04 #@! TO.P,U1,16*
G04 #@! TO.N,/USR3*
X93980000Y-95325001D03*
G04 #@! TO.P,U1,15*
G04 #@! TO.N,/USR2*
X93980000Y-92785001D03*
G04 #@! TO.P,U1,14*
G04 #@! TO.N,/USR1*
X93980000Y-90245001D03*
G04 #@! TO.P,U1,13*
G04 #@! TO.N,/USR0*
X93980000Y-87705001D03*
G04 #@! TO.P,U1,12*
G04 #@! TO.N,Net-(U1-Pad12)*
X93980000Y-85165001D03*
D11*
G04 #@! TO.P,U1,1*
G04 #@! TO.N,/GND*
X93980000Y-57225001D03*
D10*
G04 #@! TO.P,U1,2*
G04 #@! TO.N,Net-(U1-Pad2)*
X93980000Y-59765001D03*
G04 #@! TO.P,U1,3*
G04 #@! TO.N,/BLANK*
X93980000Y-62305001D03*
G04 #@! TO.P,U1,4*
G04 #@! TO.N,/NRST*
X93980000Y-64845001D03*
G04 #@! TO.P,U1,5*
G04 #@! TO.N,/NSTROBE*
X93980000Y-67385001D03*
G04 #@! TO.P,U1,6*
G04 #@! TO.N,/USRINT0*
X93980000Y-69925001D03*
G04 #@! TO.P,U1,7*
G04 #@! TO.N,Net-(U1-Pad7)*
X93980000Y-72465001D03*
G04 #@! TO.P,U1,8*
G04 #@! TO.N,Net-(U1-Pad8)*
X93980000Y-75005001D03*
G04 #@! TO.P,U1,11*
G04 #@! TO.N,Net-(U1-Pad11)*
X93980000Y-82625001D03*
G04 #@! TO.P,U1,10*
G04 #@! TO.N,Net-(U1-Pad10)*
X93980000Y-80085001D03*
G04 #@! TO.P,U1,9*
G04 #@! TO.N,Net-(U1-Pad9)*
X93980000Y-77545001D03*
G04 #@! TD*
D12*
G04 #@! TO.P,J2,*
G04 #@! TO.N,*
X159510000Y-64260000D03*
X124970000Y-64260000D03*
D13*
G04 #@! TO.P,J2,1*
G04 #@! TO.N,/BLANK*
X130810000Y-66040000D03*
D14*
G04 #@! TO.P,J2,2*
G04 #@! TO.N,Net-(J2-Pad2)*
X130810000Y-63500000D03*
G04 #@! TO.P,J2,3*
G04 #@! TO.N,Net-(J2-Pad3)*
X133350000Y-66040000D03*
G04 #@! TO.P,J2,4*
G04 #@! TO.N,Net-(J2-Pad4)*
X133350000Y-63500000D03*
G04 #@! TO.P,J2,5*
G04 #@! TO.N,Net-(J2-Pad5)*
X135890000Y-66040000D03*
G04 #@! TO.P,J2,6*
G04 #@! TO.N,Net-(J2-Pad6)*
X135890000Y-63500000D03*
G04 #@! TO.P,J2,7*
G04 #@! TO.N,Net-(J2-Pad7)*
X138430000Y-66040000D03*
G04 #@! TO.P,J2,8*
G04 #@! TO.N,Net-(J2-Pad8)*
X138430000Y-63500000D03*
G04 #@! TO.P,J2,9*
G04 #@! TO.N,Net-(J2-Pad9)*
X140970000Y-66040000D03*
G04 #@! TO.P,J2,10*
G04 #@! TO.N,/DATA0*
X140970000Y-63500000D03*
G04 #@! TO.P,J2,11*
G04 #@! TO.N,/GND*
X143510000Y-66040000D03*
G04 #@! TO.P,J2,12*
G04 #@! TO.N,/DATA1*
X143510000Y-63500000D03*
G04 #@! TO.P,J2,13*
G04 #@! TO.N,/VCC*
X146050000Y-66040000D03*
G04 #@! TO.P,J2,14*
G04 #@! TO.N,/DATA2*
X146050000Y-63500000D03*
G04 #@! TO.P,J2,15*
G04 #@! TO.N,/NRST*
X148590000Y-66040000D03*
G04 #@! TO.P,J2,16*
G04 #@! TO.N,/DATA3*
X148590000Y-63500000D03*
G04 #@! TO.P,J2,17*
G04 #@! TO.N,/NSTROBE*
X151130000Y-66040000D03*
G04 #@! TO.P,J2,18*
G04 #@! TO.N,/DATA4*
X151130000Y-63500000D03*
G04 #@! TO.P,J2,19*
G04 #@! TO.N,/DATA6*
X153670000Y-66040000D03*
G04 #@! TO.P,J2,20*
G04 #@! TO.N,/DATA5*
X153670000Y-63500000D03*
G04 #@! TD*
D15*
G04 #@! TO.P,J1,1*
G04 #@! TO.N,/GND*
X166370000Y-96520000D03*
D16*
G04 #@! TO.P,J1,2*
G04 #@! TO.N,Net-(J1-Pad2)*
X163830000Y-96520000D03*
G04 #@! TO.P,J1,3*
G04 #@! TO.N,Net-(J1-Pad3)*
X161290000Y-96520000D03*
G04 #@! TO.P,J1,4*
G04 #@! TO.N,Net-(J1-Pad4)*
X158750000Y-96520000D03*
G04 #@! TO.P,J1,5*
G04 #@! TO.N,/BLANK*
X156210000Y-96520000D03*
G04 #@! TO.P,J1,6*
G04 #@! TO.N,Net-(J1-Pad6)*
X153670000Y-96520000D03*
G04 #@! TO.P,J1,7*
G04 #@! TO.N,Net-(J1-Pad7)*
X151130000Y-96520000D03*
G04 #@! TO.P,J1,8*
G04 #@! TO.N,Net-(J1-Pad8)*
X148590000Y-96520000D03*
G04 #@! TO.P,J1,9*
G04 #@! TO.N,Net-(J1-Pad9)*
X146050000Y-96520000D03*
G04 #@! TO.P,J1,10*
G04 #@! TO.N,Net-(J1-Pad10)*
X143510000Y-96520000D03*
G04 #@! TO.P,J1,11*
G04 #@! TO.N,/DATA0*
X140970000Y-96520000D03*
G04 #@! TO.P,J1,12*
G04 #@! TO.N,/DATA1*
X138430000Y-96520000D03*
G04 #@! TO.P,J1,13*
G04 #@! TO.N,/DATA2*
X135890000Y-96520000D03*
G04 #@! TO.P,J1,14*
G04 #@! TO.N,/DATA3*
X133350000Y-96520000D03*
G04 #@! TO.P,J1,15*
G04 #@! TO.N,/DATA4*
X130810000Y-96520000D03*
G04 #@! TO.P,J1,16*
G04 #@! TO.N,/DATA5*
X128270000Y-96520000D03*
G04 #@! TO.P,J1,17*
G04 #@! TO.N,/DATA6*
X125730000Y-96520000D03*
G04 #@! TO.P,J1,18*
G04 #@! TO.N,/NSTROBE*
X123190000Y-96520000D03*
G04 #@! TO.P,J1,19*
G04 #@! TO.N,/NRST*
X120650000Y-96520000D03*
G04 #@! TO.P,J1,20*
G04 #@! TO.N,/VCC*
X118110000Y-96520000D03*
G04 #@! TD*
D17*
G04 #@! TO.P,D1,1*
G04 #@! TO.N,/VCC*
X106680000Y-109220000D03*
D18*
G04 #@! TO.P,D1,2*
G04 #@! TO.N,Net-(D1-Pad2)*
X96520000Y-109220000D03*
G04 #@! TD*
D15*
G04 #@! TO.P,J3,1*
G04 #@! TO.N,/USRINT0*
X90170000Y-72390000D03*
G04 #@! TD*
G04 #@! TO.P,J4,1*
G04 #@! TO.N,/USRINT1*
X90170000Y-76200000D03*
G04 #@! TD*
G04 #@! TO.P,J5,1*
G04 #@! TO.N,/USRINT2*
X90170000Y-80010000D03*
G04 #@! TD*
G04 #@! TO.P,J6,1*
G04 #@! TO.N,/USR0*
X90170000Y-87630000D03*
D16*
G04 #@! TO.P,J6,2*
G04 #@! TO.N,/USR1*
X90170000Y-90170000D03*
G04 #@! TO.P,J6,3*
G04 #@! TO.N,/USR2*
X90170000Y-92710000D03*
G04 #@! TO.P,J6,4*
G04 #@! TO.N,/USR3*
X90170000Y-95250000D03*
G04 #@! TO.P,J6,5*
G04 #@! TO.N,/USR4*
X90170000Y-97790000D03*
G04 #@! TO.P,J6,6*
G04 #@! TO.N,/USR5*
X90170000Y-100330000D03*
G04 #@! TO.P,J6,7*
G04 #@! TO.N,/USR6*
X90170000Y-102870000D03*
G04 #@! TO.P,J6,8*
G04 #@! TO.N,/USR7*
X90170000Y-105410000D03*
G04 #@! TD*
D19*
G04 #@! TO.N,/DATA0*
X140970000Y-88900000D03*
G04 #@! TO.N,/DATA1*
X138430000Y-86360000D03*
G04 #@! TO.N,/DATA2*
X135890000Y-83820000D03*
G04 #@! TO.N,/DATA3*
X133350000Y-81280000D03*
G04 #@! TO.N,/DATA4*
X130810000Y-78740000D03*
G04 #@! TO.N,/DATA5*
X128270000Y-76200000D03*
G04 #@! TO.N,/DATA6*
X125730000Y-73660000D03*
G04 #@! TO.N,/NSTROBE*
X123190000Y-91440000D03*
G04 #@! TO.N,/NRST*
X128270000Y-60960000D03*
G04 #@! TO.N,/USRINT1*
X105410000Y-76200000D03*
G04 #@! TD*
D20*
G04 #@! TO.N,/GND*
X166370000Y-96520000D02*
X166370000Y-106680000D01*
X163830000Y-107950000D02*
X165100000Y-107950000D01*
X165100000Y-107950000D02*
X166370000Y-106680000D01*
X109220000Y-107950000D02*
X165100000Y-107950000D01*
X101600000Y-105485001D02*
X101600000Y-104140000D01*
X109220000Y-82625001D02*
X106680000Y-85165001D01*
X106680000Y-85165001D02*
X106680000Y-105410000D01*
X105410000Y-104140000D02*
X107950000Y-106680000D01*
X107950000Y-106680000D02*
X109220000Y-107950000D01*
X106680000Y-105410000D02*
X107950000Y-106680000D01*
X101600000Y-104140000D02*
X105410000Y-104140000D01*
X94635003Y-104140000D02*
X101600000Y-104140000D01*
X94580001Y-104195002D02*
X94635003Y-104140000D01*
X92729999Y-58475002D02*
X92729999Y-103545002D01*
X93379999Y-104195002D02*
X94580001Y-104195002D01*
X92729999Y-103545002D02*
X93379999Y-104195002D01*
X93980000Y-57225001D02*
X92729999Y-58475002D01*
D21*
G04 #@! TO.N,/DATA0*
X140970000Y-60960000D02*
X140970000Y-63500000D01*
X144780000Y-57150000D02*
X140970000Y-60960000D01*
X161290000Y-57150000D02*
X144780000Y-57150000D01*
X166370000Y-62230000D02*
X161290000Y-57150000D01*
X140970000Y-78740000D02*
X143510000Y-76200000D01*
X166370000Y-68580000D02*
X166370000Y-62230000D01*
X158750000Y-76200000D02*
X166370000Y-68580000D01*
X143510000Y-76200000D02*
X158750000Y-76200000D01*
X140970000Y-96520000D02*
X140970000Y-88900000D01*
X140970000Y-88900000D02*
X140970000Y-78740000D01*
G04 #@! TO.N,/DATA1*
X143510000Y-62230000D02*
X143510000Y-63500000D01*
X147320000Y-58420000D02*
X146050000Y-58420000D01*
X146050000Y-58420000D02*
X143510000Y-60960000D01*
X143510000Y-60960000D02*
X143510000Y-63500000D01*
X160020000Y-58420000D02*
X146050000Y-58420000D01*
X163830000Y-62230000D02*
X160020000Y-58420000D01*
X163830000Y-68580000D02*
X163830000Y-62230000D01*
X157480000Y-74930000D02*
X163830000Y-68580000D01*
X138430000Y-77470000D02*
X140970000Y-74930000D01*
X140970000Y-74930000D02*
X157480000Y-74930000D01*
X138430000Y-96520000D02*
X138430000Y-86360000D01*
X138430000Y-86360000D02*
X138430000Y-77470000D01*
G04 #@! TO.N,/DATA2*
X156210000Y-73660000D02*
X162560000Y-67310000D01*
X162560000Y-67310000D02*
X162560000Y-63500000D01*
X138430000Y-73660000D02*
X156210000Y-73660000D01*
X135890000Y-76200000D02*
X138430000Y-73660000D01*
X135890000Y-96520000D02*
X135890000Y-83820000D01*
X160020000Y-60960000D02*
X158750000Y-59690000D01*
X158750000Y-59690000D02*
X147320000Y-59690000D01*
X162560000Y-63500000D02*
X158750000Y-59690000D01*
X146050000Y-60960000D02*
X146050000Y-63500000D01*
X147320000Y-59690000D02*
X146050000Y-60960000D01*
X135890000Y-83820000D02*
X135890000Y-76200000D01*
G04 #@! TO.N,/DATA3*
X156210000Y-60960000D02*
X149860000Y-60960000D01*
X157480000Y-62230000D02*
X156210000Y-60960000D01*
X157480000Y-69850000D02*
X157480000Y-62230000D01*
X154940000Y-72390000D02*
X157480000Y-69850000D01*
X148590000Y-62230000D02*
X148590000Y-63500000D01*
X149860000Y-60960000D02*
X148590000Y-62230000D01*
X135890000Y-72390000D02*
X154940000Y-72390000D01*
X133350000Y-74930000D02*
X135890000Y-72390000D01*
X133350000Y-96520000D02*
X133350000Y-81280000D01*
X133350000Y-81280000D02*
X133350000Y-74930000D01*
G04 #@! TO.N,/DATA4*
X156210000Y-68580000D02*
X156210000Y-63500000D01*
X130810000Y-96520000D02*
X130810000Y-78740000D01*
X153670000Y-71120000D02*
X156210000Y-68580000D01*
X156210000Y-63500000D02*
X154940000Y-62230000D01*
X132080000Y-71120000D02*
X153670000Y-71120000D01*
X130810000Y-72390000D02*
X132080000Y-71120000D01*
X151130000Y-63500000D02*
X152400000Y-62230000D01*
X154940000Y-62230000D02*
X152400000Y-62230000D01*
X130810000Y-78740000D02*
X130810000Y-72390000D01*
G04 #@! TO.N,/DATA5*
X154940000Y-64770000D02*
X153670000Y-63500000D01*
X154940000Y-67310000D02*
X154940000Y-64770000D01*
X152400000Y-69850000D02*
X154940000Y-67310000D01*
X129540000Y-69850000D02*
X152400000Y-69850000D01*
X128270000Y-71120000D02*
X129540000Y-69850000D01*
X128270000Y-96520000D02*
X128270000Y-76200000D01*
X128270000Y-76200000D02*
X128270000Y-71120000D01*
G04 #@! TO.N,/DATA6*
X125730000Y-96520000D02*
X125730000Y-73660000D01*
X151130000Y-68580000D02*
X153670000Y-66040000D01*
X125730000Y-71120000D02*
X128270000Y-68580000D01*
X128270000Y-68580000D02*
X151130000Y-68580000D01*
X125730000Y-73660000D02*
X125730000Y-71120000D01*
G04 #@! TO.N,/NSTROBE*
X129540000Y-64770000D02*
X123190000Y-71120000D01*
X149860000Y-64770000D02*
X129540000Y-64770000D01*
X151130000Y-66040000D02*
X149860000Y-64770000D01*
X123190000Y-71120000D02*
X123190000Y-96520000D01*
X123190000Y-91440000D02*
X123190000Y-96520000D01*
X123190000Y-71120000D02*
X123190000Y-91440000D01*
G04 #@! TO.N,/NRST*
X120650000Y-96520000D02*
X120650000Y-62230000D01*
X120650000Y-62230000D02*
X121920000Y-60960000D01*
X121920000Y-60960000D02*
X128270000Y-60960000D01*
X97865001Y-60960000D02*
X93980000Y-64845001D01*
X121920000Y-60960000D02*
X97865001Y-60960000D01*
G04 #@! TO.N,/USRINT1*
X107874999Y-76200000D02*
X109220000Y-77545001D01*
X105410000Y-76200000D02*
X107874999Y-76200000D01*
G04 #@! TD*
D22*
G04 #@! TO.N,/GND*
G36*
X169190000Y-55435270D02*
X168663232Y-55877281D01*
X168319409Y-56472800D01*
X168200000Y-57150000D01*
X168319409Y-57827200D01*
X168663232Y-58422719D01*
X169190000Y-58864730D01*
X169836177Y-59099919D01*
X170523823Y-59099919D01*
X171170000Y-58864730D01*
X171696768Y-58422719D01*
X172010000Y-57880185D01*
X172010001Y-108450424D01*
X171712089Y-107934425D01*
X171180000Y-107487949D01*
X170527296Y-107250384D01*
X169832704Y-107250384D01*
X169180000Y-107487949D01*
X168647911Y-107934425D01*
X168300615Y-108535960D01*
X168180000Y-109220000D01*
X168300615Y-109904040D01*
X168647911Y-110505575D01*
X169180000Y-110952051D01*
X169449112Y-111050000D01*
X90900888Y-111050000D01*
X91170000Y-110952051D01*
X91702089Y-110505575D01*
X92049385Y-109904040D01*
X92170000Y-109220000D01*
X94751010Y-109220000D01*
X94885666Y-109896963D01*
X95269135Y-110470865D01*
X95843037Y-110854334D01*
X96349120Y-110955000D01*
X96690880Y-110955000D01*
X97196963Y-110854334D01*
X97770865Y-110470865D01*
X98154334Y-109896963D01*
X98288990Y-109220000D01*
X98154334Y-108543037D01*
X97871670Y-108120000D01*
X104932560Y-108120000D01*
X104932560Y-110320000D01*
X104981843Y-110567765D01*
X105122191Y-110777809D01*
X105332235Y-110918157D01*
X105580000Y-110967440D01*
X107780000Y-110967440D01*
X108027765Y-110918157D01*
X108237809Y-110777809D01*
X108378157Y-110567765D01*
X108427440Y-110320000D01*
X108427440Y-108120000D01*
X108378157Y-107872235D01*
X108237809Y-107662191D01*
X108027765Y-107521843D01*
X107780000Y-107472560D01*
X105580000Y-107472560D01*
X105332235Y-107521843D01*
X105122191Y-107662191D01*
X104981843Y-107872235D01*
X104932560Y-108120000D01*
X97871670Y-108120000D01*
X97770865Y-107969135D01*
X97196963Y-107585666D01*
X96690880Y-107485000D01*
X96349120Y-107485000D01*
X95843037Y-107585666D01*
X95269135Y-107969135D01*
X94885666Y-108543037D01*
X94751010Y-109220000D01*
X92170000Y-109220000D01*
X92049385Y-108535960D01*
X91702089Y-107934425D01*
X91170000Y-107487949D01*
X90517296Y-107250384D01*
X89822704Y-107250384D01*
X89170000Y-107487949D01*
X88637911Y-107934425D01*
X88340000Y-108450423D01*
X88340000Y-90170000D01*
X88655908Y-90170000D01*
X88771161Y-90749418D01*
X89099375Y-91240625D01*
X89397761Y-91440000D01*
X89099375Y-91639375D01*
X88771161Y-92130582D01*
X88655908Y-92710000D01*
X88771161Y-93289418D01*
X89099375Y-93780625D01*
X89397761Y-93980000D01*
X89099375Y-94179375D01*
X88771161Y-94670582D01*
X88655908Y-95250000D01*
X88771161Y-95829418D01*
X89099375Y-96320625D01*
X89397761Y-96520000D01*
X89099375Y-96719375D01*
X88771161Y-97210582D01*
X88655908Y-97790000D01*
X88771161Y-98369418D01*
X89099375Y-98860625D01*
X89397761Y-99060000D01*
X89099375Y-99259375D01*
X88771161Y-99750582D01*
X88655908Y-100330000D01*
X88771161Y-100909418D01*
X89099375Y-101400625D01*
X89397761Y-101600000D01*
X89099375Y-101799375D01*
X88771161Y-102290582D01*
X88655908Y-102870000D01*
X88771161Y-103449418D01*
X89099375Y-103940625D01*
X89397761Y-104140000D01*
X89099375Y-104339375D01*
X88771161Y-104830582D01*
X88655908Y-105410000D01*
X88771161Y-105989418D01*
X89099375Y-106480625D01*
X89590582Y-106808839D01*
X90023744Y-106895000D01*
X90316256Y-106895000D01*
X90749418Y-106808839D01*
X91240625Y-106480625D01*
X91568839Y-105989418D01*
X91684092Y-105410000D01*
X91568839Y-104830582D01*
X91240625Y-104339375D01*
X90942239Y-104140000D01*
X91240625Y-103940625D01*
X91568839Y-103449418D01*
X91684092Y-102870000D01*
X91568839Y-102290582D01*
X91240625Y-101799375D01*
X90942239Y-101600000D01*
X91240625Y-101400625D01*
X91568839Y-100909418D01*
X91684092Y-100330000D01*
X91568839Y-99750582D01*
X91240625Y-99259375D01*
X90942239Y-99060000D01*
X91240625Y-98860625D01*
X91568839Y-98369418D01*
X91684092Y-97790000D01*
X91568839Y-97210582D01*
X91240625Y-96719375D01*
X90942239Y-96520000D01*
X91240625Y-96320625D01*
X91568839Y-95829418D01*
X91684092Y-95250000D01*
X91568839Y-94670582D01*
X91240625Y-94179375D01*
X90942239Y-93980000D01*
X91240625Y-93780625D01*
X91568839Y-93289418D01*
X91684092Y-92710000D01*
X91568839Y-92130582D01*
X91240625Y-91639375D01*
X90942239Y-91440000D01*
X91240625Y-91240625D01*
X91568839Y-90749418D01*
X91684092Y-90170000D01*
X91568839Y-89590582D01*
X91240625Y-89099375D01*
X91222381Y-89087184D01*
X91267765Y-89078157D01*
X91477809Y-88937809D01*
X91618157Y-88727765D01*
X91667440Y-88480000D01*
X91667440Y-86780000D01*
X91618157Y-86532235D01*
X91477809Y-86322191D01*
X91267765Y-86181843D01*
X91020000Y-86132560D01*
X89320000Y-86132560D01*
X89072235Y-86181843D01*
X88862191Y-86322191D01*
X88721843Y-86532235D01*
X88672560Y-86780000D01*
X88672560Y-88480000D01*
X88721843Y-88727765D01*
X88862191Y-88937809D01*
X89072235Y-89078157D01*
X89117619Y-89087184D01*
X89099375Y-89099375D01*
X88771161Y-89590582D01*
X88655908Y-90170000D01*
X88340000Y-90170000D01*
X88340000Y-79160000D01*
X88672560Y-79160000D01*
X88672560Y-80860000D01*
X88721843Y-81107765D01*
X88862191Y-81317809D01*
X89072235Y-81458157D01*
X89320000Y-81507440D01*
X91020000Y-81507440D01*
X91267765Y-81458157D01*
X91477809Y-81317809D01*
X91618157Y-81107765D01*
X91667440Y-80860000D01*
X91667440Y-79160000D01*
X91618157Y-78912235D01*
X91477809Y-78702191D01*
X91267765Y-78561843D01*
X91020000Y-78512560D01*
X89320000Y-78512560D01*
X89072235Y-78561843D01*
X88862191Y-78702191D01*
X88721843Y-78912235D01*
X88672560Y-79160000D01*
X88340000Y-79160000D01*
X88340000Y-75350000D01*
X88672560Y-75350000D01*
X88672560Y-77050000D01*
X88721843Y-77297765D01*
X88862191Y-77507809D01*
X89072235Y-77648157D01*
X89320000Y-77697440D01*
X91020000Y-77697440D01*
X91267765Y-77648157D01*
X91477809Y-77507809D01*
X91618157Y-77297765D01*
X91667440Y-77050000D01*
X91667440Y-75350000D01*
X91618157Y-75102235D01*
X91477809Y-74892191D01*
X91267765Y-74751843D01*
X91020000Y-74702560D01*
X89320000Y-74702560D01*
X89072235Y-74751843D01*
X88862191Y-74892191D01*
X88721843Y-75102235D01*
X88672560Y-75350000D01*
X88340000Y-75350000D01*
X88340000Y-71540000D01*
X88672560Y-71540000D01*
X88672560Y-73240000D01*
X88721843Y-73487765D01*
X88862191Y-73697809D01*
X89072235Y-73838157D01*
X89320000Y-73887440D01*
X91020000Y-73887440D01*
X91267765Y-73838157D01*
X91477809Y-73697809D01*
X91618157Y-73487765D01*
X91667440Y-73240000D01*
X91667440Y-71540000D01*
X91618157Y-71292235D01*
X91477809Y-71082191D01*
X91267765Y-70941843D01*
X91020000Y-70892560D01*
X89320000Y-70892560D01*
X89072235Y-70941843D01*
X88862191Y-71082191D01*
X88721843Y-71292235D01*
X88672560Y-71540000D01*
X88340000Y-71540000D01*
X88340000Y-57919577D01*
X88637911Y-58435575D01*
X89170000Y-58882051D01*
X89822704Y-59119616D01*
X90517296Y-59119616D01*
X91170000Y-58882051D01*
X91702089Y-58435575D01*
X92049385Y-57834040D01*
X92106389Y-57510751D01*
X92545000Y-57510751D01*
X92545000Y-58151310D01*
X92641673Y-58384699D01*
X92820301Y-58563328D01*
X93053690Y-58660001D01*
X93055604Y-58660001D01*
X92763466Y-58952139D01*
X92545000Y-59479562D01*
X92545000Y-60050440D01*
X92763466Y-60577863D01*
X93167138Y-60981535D01*
X93296216Y-61035001D01*
X93167138Y-61088467D01*
X92763466Y-61492139D01*
X92545000Y-62019562D01*
X92545000Y-62590440D01*
X92763466Y-63117863D01*
X93167138Y-63521535D01*
X93296216Y-63575001D01*
X93167138Y-63628467D01*
X92763466Y-64032139D01*
X92545000Y-64559562D01*
X92545000Y-65130440D01*
X92763466Y-65657863D01*
X93167138Y-66061535D01*
X93296216Y-66115001D01*
X93167138Y-66168467D01*
X92763466Y-66572139D01*
X92545000Y-67099562D01*
X92545000Y-67670440D01*
X92763466Y-68197863D01*
X93167138Y-68601535D01*
X93296216Y-68655001D01*
X93167138Y-68708467D01*
X92763466Y-69112139D01*
X92545000Y-69639562D01*
X92545000Y-70210440D01*
X92763466Y-70737863D01*
X93167138Y-71141535D01*
X93296216Y-71195001D01*
X93167138Y-71248467D01*
X92763466Y-71652139D01*
X92545000Y-72179562D01*
X92545000Y-72750440D01*
X92763466Y-73277863D01*
X93167138Y-73681535D01*
X93296216Y-73735001D01*
X93167138Y-73788467D01*
X92763466Y-74192139D01*
X92545000Y-74719562D01*
X92545000Y-75290440D01*
X92763466Y-75817863D01*
X93167138Y-76221535D01*
X93296216Y-76275001D01*
X93167138Y-76328467D01*
X92763466Y-76732139D01*
X92545000Y-77259562D01*
X92545000Y-77830440D01*
X92763466Y-78357863D01*
X93167138Y-78761535D01*
X93296216Y-78815001D01*
X93167138Y-78868467D01*
X92763466Y-79272139D01*
X92545000Y-79799562D01*
X92545000Y-80370440D01*
X92763466Y-80897863D01*
X93167138Y-81301535D01*
X93296216Y-81355001D01*
X93167138Y-81408467D01*
X92763466Y-81812139D01*
X92545000Y-82339562D01*
X92545000Y-82910440D01*
X92763466Y-83437863D01*
X93167138Y-83841535D01*
X93296216Y-83895001D01*
X93167138Y-83948467D01*
X92763466Y-84352139D01*
X92545000Y-84879562D01*
X92545000Y-85450440D01*
X92763466Y-85977863D01*
X93167138Y-86381535D01*
X93296216Y-86435001D01*
X93167138Y-86488467D01*
X92763466Y-86892139D01*
X92545000Y-87419562D01*
X92545000Y-87990440D01*
X92763466Y-88517863D01*
X93167138Y-88921535D01*
X93296216Y-88975001D01*
X93167138Y-89028467D01*
X92763466Y-89432139D01*
X92545000Y-89959562D01*
X92545000Y-90530440D01*
X92763466Y-91057863D01*
X93167138Y-91461535D01*
X93296216Y-91515001D01*
X93167138Y-91568467D01*
X92763466Y-91972139D01*
X92545000Y-92499562D01*
X92545000Y-93070440D01*
X92763466Y-93597863D01*
X93167138Y-94001535D01*
X93296216Y-94055001D01*
X93167138Y-94108467D01*
X92763466Y-94512139D01*
X92545000Y-95039562D01*
X92545000Y-95610440D01*
X92763466Y-96137863D01*
X93167138Y-96541535D01*
X93296216Y-96595001D01*
X93167138Y-96648467D01*
X92763466Y-97052139D01*
X92545000Y-97579562D01*
X92545000Y-98150440D01*
X92763466Y-98677863D01*
X93167138Y-99081535D01*
X93296216Y-99135001D01*
X93167138Y-99188467D01*
X92763466Y-99592139D01*
X92545000Y-100119562D01*
X92545000Y-100690440D01*
X92763466Y-101217863D01*
X93167138Y-101621535D01*
X93296216Y-101675001D01*
X93167138Y-101728467D01*
X92763466Y-102132139D01*
X92545000Y-102659562D01*
X92545000Y-103230440D01*
X92763466Y-103757863D01*
X93167138Y-104161535D01*
X93296216Y-104215001D01*
X93167138Y-104268467D01*
X92763466Y-104672139D01*
X92545000Y-105199562D01*
X92545000Y-105770440D01*
X92763466Y-106297863D01*
X93167138Y-106701535D01*
X93694561Y-106920001D01*
X94265439Y-106920001D01*
X94792862Y-106701535D01*
X95196534Y-106297863D01*
X95415000Y-105770440D01*
X95415000Y-105199562D01*
X97625000Y-105199562D01*
X97625000Y-105770440D01*
X97843466Y-106297863D01*
X98247138Y-106701535D01*
X98774561Y-106920001D01*
X99345439Y-106920001D01*
X99872862Y-106701535D01*
X100081651Y-106492746D01*
X100771861Y-106492746D01*
X100845995Y-106738865D01*
X101383223Y-106931966D01*
X101953454Y-106904779D01*
X102354005Y-106738865D01*
X102428139Y-106492746D01*
X101600000Y-105664606D01*
X100771861Y-106492746D01*
X100081651Y-106492746D01*
X100276534Y-106297863D01*
X100323525Y-106184418D01*
X100346136Y-106239006D01*
X100592255Y-106313140D01*
X101420395Y-105485001D01*
X101779605Y-105485001D01*
X102607745Y-106313140D01*
X102853864Y-106239006D01*
X102874874Y-106180553D01*
X102923466Y-106297863D01*
X103327138Y-106701535D01*
X103854561Y-106920001D01*
X104425439Y-106920001D01*
X104952862Y-106701535D01*
X105356534Y-106297863D01*
X105575000Y-105770440D01*
X105575000Y-105199562D01*
X105356534Y-104672139D01*
X104952862Y-104268467D01*
X104425439Y-104050001D01*
X103854561Y-104050001D01*
X103327138Y-104268467D01*
X102923466Y-104672139D01*
X102876475Y-104785584D01*
X102853864Y-104730996D01*
X102607745Y-104656862D01*
X101779605Y-105485001D01*
X101420395Y-105485001D01*
X100592255Y-104656862D01*
X100346136Y-104730996D01*
X100325126Y-104789449D01*
X100276534Y-104672139D01*
X100081651Y-104477256D01*
X100771861Y-104477256D01*
X101600000Y-105305396D01*
X102428139Y-104477256D01*
X102354005Y-104231137D01*
X101816777Y-104038036D01*
X101246546Y-104065223D01*
X100845995Y-104231137D01*
X100771861Y-104477256D01*
X100081651Y-104477256D01*
X99872862Y-104268467D01*
X99345439Y-104050001D01*
X98774561Y-104050001D01*
X98247138Y-104268467D01*
X97843466Y-104672139D01*
X97625000Y-105199562D01*
X95415000Y-105199562D01*
X95196534Y-104672139D01*
X94792862Y-104268467D01*
X94663784Y-104215001D01*
X94792862Y-104161535D01*
X95196534Y-103757863D01*
X95415000Y-103230440D01*
X95415000Y-102659562D01*
X95196534Y-102132139D01*
X94792862Y-101728467D01*
X94663784Y-101675001D01*
X94792862Y-101621535D01*
X95196534Y-101217863D01*
X95415000Y-100690440D01*
X95415000Y-100119562D01*
X95196534Y-99592139D01*
X94792862Y-99188467D01*
X94663784Y-99135001D01*
X94792862Y-99081535D01*
X95196534Y-98677863D01*
X95415000Y-98150440D01*
X95415000Y-97579562D01*
X97625000Y-97579562D01*
X97625000Y-98150440D01*
X97843466Y-98677863D01*
X98247138Y-99081535D01*
X98774561Y-99300001D01*
X99345439Y-99300001D01*
X99872862Y-99081535D01*
X100276534Y-98677863D01*
X100330000Y-98548785D01*
X100383466Y-98677863D01*
X100787138Y-99081535D01*
X101314561Y-99300001D01*
X101885439Y-99300001D01*
X102412862Y-99081535D01*
X102816534Y-98677863D01*
X102870000Y-98548785D01*
X102923466Y-98677863D01*
X103327138Y-99081535D01*
X103854561Y-99300001D01*
X104425439Y-99300001D01*
X104952862Y-99081535D01*
X105356534Y-98677863D01*
X105575000Y-98150440D01*
X105575000Y-97579562D01*
X105356534Y-97052139D01*
X104952862Y-96648467D01*
X104823784Y-96595001D01*
X104952862Y-96541535D01*
X105356534Y-96137863D01*
X105575000Y-95610440D01*
X105575000Y-95039562D01*
X105356534Y-94512139D01*
X104952862Y-94108467D01*
X104823784Y-94055001D01*
X104952862Y-94001535D01*
X105356534Y-93597863D01*
X105575000Y-93070440D01*
X105575000Y-92499562D01*
X105356534Y-91972139D01*
X104952862Y-91568467D01*
X104823784Y-91515001D01*
X104952862Y-91461535D01*
X105356534Y-91057863D01*
X105575000Y-90530440D01*
X105575000Y-89959562D01*
X105356534Y-89432139D01*
X104952862Y-89028467D01*
X104425439Y-88810001D01*
X103854561Y-88810001D01*
X103327138Y-89028467D01*
X102923466Y-89432139D01*
X102870000Y-89561217D01*
X102816534Y-89432139D01*
X102412862Y-89028467D01*
X101885439Y-88810001D01*
X101314561Y-88810001D01*
X100787138Y-89028467D01*
X100383466Y-89432139D01*
X100165000Y-89959562D01*
X100165000Y-90530440D01*
X100383466Y-91057863D01*
X100787138Y-91461535D01*
X100916216Y-91515001D01*
X100787138Y-91568467D01*
X100383466Y-91972139D01*
X100165000Y-92499562D01*
X100165000Y-93070440D01*
X100383466Y-93597863D01*
X100787138Y-94001535D01*
X100916216Y-94055001D01*
X100787138Y-94108467D01*
X100383466Y-94512139D01*
X100165000Y-95039562D01*
X100165000Y-95610440D01*
X100383466Y-96137863D01*
X100787138Y-96541535D01*
X100916216Y-96595001D01*
X100787138Y-96648467D01*
X100383466Y-97052139D01*
X100330000Y-97181217D01*
X100276534Y-97052139D01*
X99872862Y-96648467D01*
X99345439Y-96430001D01*
X98774561Y-96430001D01*
X98247138Y-96648467D01*
X97843466Y-97052139D01*
X97625000Y-97579562D01*
X95415000Y-97579562D01*
X95196534Y-97052139D01*
X94792862Y-96648467D01*
X94663784Y-96595001D01*
X94792862Y-96541535D01*
X95196534Y-96137863D01*
X95415000Y-95610440D01*
X95415000Y-95039562D01*
X95196534Y-94512139D01*
X94792862Y-94108467D01*
X94663784Y-94055001D01*
X94792862Y-94001535D01*
X95196534Y-93597863D01*
X95415000Y-93070440D01*
X95415000Y-92499562D01*
X95196534Y-91972139D01*
X94792862Y-91568467D01*
X94663784Y-91515001D01*
X94792862Y-91461535D01*
X95196534Y-91057863D01*
X95415000Y-90530440D01*
X95415000Y-89959562D01*
X95196534Y-89432139D01*
X94792862Y-89028467D01*
X94663784Y-88975001D01*
X94792862Y-88921535D01*
X95196534Y-88517863D01*
X95415000Y-87990440D01*
X95415000Y-87419562D01*
X95196534Y-86892139D01*
X94792862Y-86488467D01*
X94663784Y-86435001D01*
X94792862Y-86381535D01*
X95196534Y-85977863D01*
X95415000Y-85450440D01*
X95415000Y-84879562D01*
X107785000Y-84879562D01*
X107785000Y-85450440D01*
X108003466Y-85977863D01*
X108407138Y-86381535D01*
X108536216Y-86435001D01*
X108407138Y-86488467D01*
X108003466Y-86892139D01*
X107785000Y-87419562D01*
X107785000Y-87990440D01*
X108003466Y-88517863D01*
X108407138Y-88921535D01*
X108536216Y-88975001D01*
X108407138Y-89028467D01*
X108003466Y-89432139D01*
X107785000Y-89959562D01*
X107785000Y-90530440D01*
X108003466Y-91057863D01*
X108407138Y-91461535D01*
X108536216Y-91515001D01*
X108407138Y-91568467D01*
X108003466Y-91972139D01*
X107785000Y-92499562D01*
X107785000Y-93070440D01*
X108003466Y-93597863D01*
X108407138Y-94001535D01*
X108536216Y-94055001D01*
X108407138Y-94108467D01*
X108003466Y-94512139D01*
X107785000Y-95039562D01*
X107785000Y-95610440D01*
X108003466Y-96137863D01*
X108407138Y-96541535D01*
X108536216Y-96595001D01*
X108407138Y-96648467D01*
X108003466Y-97052139D01*
X107785000Y-97579562D01*
X107785000Y-98150440D01*
X108003466Y-98677863D01*
X108407138Y-99081535D01*
X108536216Y-99135001D01*
X108407138Y-99188467D01*
X108003466Y-99592139D01*
X107785000Y-100119562D01*
X107785000Y-100690440D01*
X108003466Y-101217863D01*
X108407138Y-101621535D01*
X108536216Y-101675001D01*
X108407138Y-101728467D01*
X108003466Y-102132139D01*
X107785000Y-102659562D01*
X107785000Y-103230440D01*
X108003466Y-103757863D01*
X108407138Y-104161535D01*
X108536216Y-104215001D01*
X108407138Y-104268467D01*
X108003466Y-104672139D01*
X107785000Y-105199562D01*
X107785000Y-105770440D01*
X108003466Y-106297863D01*
X108407138Y-106701535D01*
X108934561Y-106920001D01*
X109505439Y-106920001D01*
X110032862Y-106701535D01*
X110436534Y-106297863D01*
X110655000Y-105770440D01*
X110655000Y-105199562D01*
X110436534Y-104672139D01*
X110032862Y-104268467D01*
X109903784Y-104215001D01*
X110032862Y-104161535D01*
X110436534Y-103757863D01*
X110655000Y-103230440D01*
X110655000Y-102659562D01*
X110436534Y-102132139D01*
X110032862Y-101728467D01*
X109903784Y-101675001D01*
X110032862Y-101621535D01*
X110436534Y-101217863D01*
X110655000Y-100690440D01*
X110655000Y-100119562D01*
X110436534Y-99592139D01*
X110032862Y-99188467D01*
X109903784Y-99135001D01*
X110032862Y-99081535D01*
X110436534Y-98677863D01*
X110655000Y-98150440D01*
X110655000Y-97579562D01*
X110436534Y-97052139D01*
X110032862Y-96648467D01*
X109903784Y-96595001D01*
X110032862Y-96541535D01*
X110436534Y-96137863D01*
X110655000Y-95610440D01*
X110655000Y-95039562D01*
X110436534Y-94512139D01*
X110032862Y-94108467D01*
X109903784Y-94055001D01*
X110032862Y-94001535D01*
X110436534Y-93597863D01*
X110655000Y-93070440D01*
X110655000Y-92499562D01*
X110436534Y-91972139D01*
X110032862Y-91568467D01*
X109903784Y-91515001D01*
X110032862Y-91461535D01*
X110436534Y-91057863D01*
X110655000Y-90530440D01*
X110655000Y-89959562D01*
X110436534Y-89432139D01*
X110032862Y-89028467D01*
X109903784Y-88975001D01*
X110032862Y-88921535D01*
X110436534Y-88517863D01*
X110655000Y-87990440D01*
X110655000Y-87419562D01*
X110436534Y-86892139D01*
X110032862Y-86488467D01*
X109903784Y-86435001D01*
X110032862Y-86381535D01*
X110436534Y-85977863D01*
X110655000Y-85450440D01*
X110655000Y-84879562D01*
X110436534Y-84352139D01*
X110032862Y-83948467D01*
X109919417Y-83901476D01*
X109974005Y-83878865D01*
X110048139Y-83632746D01*
X109220000Y-82804606D01*
X108391861Y-83632746D01*
X108465995Y-83878865D01*
X108524448Y-83899875D01*
X108407138Y-83948467D01*
X108003466Y-84352139D01*
X107785000Y-84879562D01*
X95415000Y-84879562D01*
X95196534Y-84352139D01*
X94792862Y-83948467D01*
X94663784Y-83895001D01*
X94792862Y-83841535D01*
X95196534Y-83437863D01*
X95415000Y-82910440D01*
X95415000Y-82408224D01*
X107773035Y-82408224D01*
X107800222Y-82978455D01*
X107966136Y-83379006D01*
X108212255Y-83453140D01*
X109040395Y-82625001D01*
X109399605Y-82625001D01*
X110227745Y-83453140D01*
X110473864Y-83379006D01*
X110666965Y-82841778D01*
X110639778Y-82271547D01*
X110473864Y-81870996D01*
X110227745Y-81796862D01*
X109399605Y-82625001D01*
X109040395Y-82625001D01*
X108212255Y-81796862D01*
X107966136Y-81870996D01*
X107773035Y-82408224D01*
X95415000Y-82408224D01*
X95415000Y-82339562D01*
X95196534Y-81812139D01*
X94792862Y-81408467D01*
X94663784Y-81355001D01*
X94792862Y-81301535D01*
X95196534Y-80897863D01*
X95415000Y-80370440D01*
X95415000Y-79799562D01*
X95196534Y-79272139D01*
X94792862Y-78868467D01*
X94663784Y-78815001D01*
X94792862Y-78761535D01*
X95196534Y-78357863D01*
X95415000Y-77830440D01*
X95415000Y-77259562D01*
X95196534Y-76732139D01*
X94792862Y-76328467D01*
X94663784Y-76275001D01*
X94792862Y-76221535D01*
X95196534Y-75817863D01*
X95415000Y-75290440D01*
X95415000Y-74719562D01*
X95196534Y-74192139D01*
X94792862Y-73788467D01*
X94663784Y-73735001D01*
X94792862Y-73681535D01*
X95196534Y-73277863D01*
X95415000Y-72750440D01*
X95415000Y-72179562D01*
X95196534Y-71652139D01*
X94792862Y-71248467D01*
X94663784Y-71195001D01*
X94792862Y-71141535D01*
X95196534Y-70737863D01*
X95415000Y-70210440D01*
X95415000Y-69639562D01*
X95196534Y-69112139D01*
X94792862Y-68708467D01*
X94663784Y-68655001D01*
X94792862Y-68601535D01*
X95196534Y-68197863D01*
X95415000Y-67670440D01*
X95415000Y-67099562D01*
X95196534Y-66572139D01*
X94792862Y-66168467D01*
X94663784Y-66115001D01*
X94792862Y-66061535D01*
X95196534Y-65657863D01*
X95415000Y-65130440D01*
X95415000Y-64559562D01*
X95393103Y-64506699D01*
X98179803Y-61720000D01*
X107909083Y-61720000D01*
X107785000Y-62019562D01*
X107785000Y-62590440D01*
X108003466Y-63117863D01*
X108407138Y-63521535D01*
X108536216Y-63575001D01*
X108407138Y-63628467D01*
X108003466Y-64032139D01*
X107785000Y-64559562D01*
X107785000Y-65130440D01*
X108003466Y-65657863D01*
X108407138Y-66061535D01*
X108536216Y-66115001D01*
X108407138Y-66168467D01*
X108003466Y-66572139D01*
X107785000Y-67099562D01*
X107785000Y-67670440D01*
X108003466Y-68197863D01*
X108407138Y-68601535D01*
X108536216Y-68655001D01*
X108407138Y-68708467D01*
X108003466Y-69112139D01*
X107785000Y-69639562D01*
X107785000Y-70210440D01*
X108003466Y-70737863D01*
X108407138Y-71141535D01*
X108536216Y-71195001D01*
X108407138Y-71248467D01*
X108003466Y-71652139D01*
X107785000Y-72179562D01*
X107785000Y-72750440D01*
X108003466Y-73277863D01*
X108407138Y-73681535D01*
X108536216Y-73735001D01*
X108407138Y-73788467D01*
X108003466Y-74192139D01*
X107785000Y-74719562D01*
X107785000Y-75290440D01*
X107843388Y-75431400D01*
X107800152Y-75440000D01*
X106113711Y-75440000D01*
X105996280Y-75322569D01*
X105615874Y-75165000D01*
X105204126Y-75165000D01*
X104823720Y-75322569D01*
X104532569Y-75613720D01*
X104375000Y-75994126D01*
X104375000Y-76405874D01*
X104532569Y-76786280D01*
X104823720Y-77077431D01*
X105204126Y-77235000D01*
X105615874Y-77235000D01*
X105996280Y-77077431D01*
X106113711Y-76960000D01*
X107560198Y-76960000D01*
X107806897Y-77206699D01*
X107785000Y-77259562D01*
X107785000Y-77830440D01*
X108003466Y-78357863D01*
X108407138Y-78761535D01*
X108536216Y-78815001D01*
X108407138Y-78868467D01*
X108003466Y-79272139D01*
X107785000Y-79799562D01*
X107785000Y-80370440D01*
X108003466Y-80897863D01*
X108407138Y-81301535D01*
X108520583Y-81348526D01*
X108465995Y-81371137D01*
X108391861Y-81617256D01*
X109220000Y-82445396D01*
X110048139Y-81617256D01*
X109974005Y-81371137D01*
X109915552Y-81350127D01*
X110032862Y-81301535D01*
X110436534Y-80897863D01*
X110655000Y-80370440D01*
X110655000Y-79799562D01*
X110436534Y-79272139D01*
X110032862Y-78868467D01*
X109903784Y-78815001D01*
X110032862Y-78761535D01*
X110436534Y-78357863D01*
X110655000Y-77830440D01*
X110655000Y-77259562D01*
X110436534Y-76732139D01*
X110032862Y-76328467D01*
X109903784Y-76275001D01*
X110032862Y-76221535D01*
X110436534Y-75817863D01*
X110655000Y-75290440D01*
X110655000Y-74719562D01*
X110436534Y-74192139D01*
X110032862Y-73788467D01*
X109903784Y-73735001D01*
X110032862Y-73681535D01*
X110436534Y-73277863D01*
X110655000Y-72750440D01*
X110655000Y-72179562D01*
X110436534Y-71652139D01*
X110032862Y-71248467D01*
X109903784Y-71195001D01*
X110032862Y-71141535D01*
X110436534Y-70737863D01*
X110655000Y-70210440D01*
X110655000Y-69639562D01*
X110436534Y-69112139D01*
X110032862Y-68708467D01*
X109903784Y-68655001D01*
X110032862Y-68601535D01*
X110436534Y-68197863D01*
X110655000Y-67670440D01*
X110655000Y-67099562D01*
X110436534Y-66572139D01*
X110032862Y-66168467D01*
X109903784Y-66115001D01*
X110032862Y-66061535D01*
X110436534Y-65657863D01*
X110655000Y-65130440D01*
X110655000Y-64559562D01*
X110436534Y-64032139D01*
X110032862Y-63628467D01*
X109903784Y-63575001D01*
X110032862Y-63521535D01*
X110436534Y-63117863D01*
X110655000Y-62590440D01*
X110655000Y-62019562D01*
X110530917Y-61720000D01*
X120076729Y-61720000D01*
X120059672Y-61745527D01*
X120059671Y-61745528D01*
X119934098Y-61933462D01*
X119934097Y-61933463D01*
X119921857Y-61995000D01*
X119875112Y-62230000D01*
X119890001Y-62304852D01*
X119890000Y-95241822D01*
X119579375Y-95449375D01*
X119380000Y-95747761D01*
X119180625Y-95449375D01*
X118689418Y-95121161D01*
X118256256Y-95035000D01*
X117963744Y-95035000D01*
X117530582Y-95121161D01*
X117039375Y-95449375D01*
X116711161Y-95940582D01*
X116595908Y-96520000D01*
X116711161Y-97099418D01*
X117039375Y-97590625D01*
X117530582Y-97918839D01*
X117963744Y-98005000D01*
X118256256Y-98005000D01*
X118689418Y-97918839D01*
X119180625Y-97590625D01*
X119380000Y-97292239D01*
X119579375Y-97590625D01*
X120070582Y-97918839D01*
X120503744Y-98005000D01*
X120796256Y-98005000D01*
X121229418Y-97918839D01*
X121720625Y-97590625D01*
X121920000Y-97292239D01*
X122119375Y-97590625D01*
X122610582Y-97918839D01*
X123043744Y-98005000D01*
X123336256Y-98005000D01*
X123769418Y-97918839D01*
X124260625Y-97590625D01*
X124460000Y-97292239D01*
X124659375Y-97590625D01*
X125150582Y-97918839D01*
X125583744Y-98005000D01*
X125876256Y-98005000D01*
X126309418Y-97918839D01*
X126800625Y-97590625D01*
X127000000Y-97292239D01*
X127199375Y-97590625D01*
X127690582Y-97918839D01*
X128123744Y-98005000D01*
X128416256Y-98005000D01*
X128849418Y-97918839D01*
X129340625Y-97590625D01*
X129540000Y-97292239D01*
X129739375Y-97590625D01*
X130230582Y-97918839D01*
X130663744Y-98005000D01*
X130956256Y-98005000D01*
X131389418Y-97918839D01*
X131880625Y-97590625D01*
X132080000Y-97292239D01*
X132279375Y-97590625D01*
X132770582Y-97918839D01*
X133203744Y-98005000D01*
X133496256Y-98005000D01*
X133929418Y-97918839D01*
X134420625Y-97590625D01*
X134620000Y-97292239D01*
X134819375Y-97590625D01*
X135310582Y-97918839D01*
X135743744Y-98005000D01*
X136036256Y-98005000D01*
X136469418Y-97918839D01*
X136960625Y-97590625D01*
X137160000Y-97292239D01*
X137359375Y-97590625D01*
X137850582Y-97918839D01*
X138283744Y-98005000D01*
X138576256Y-98005000D01*
X139009418Y-97918839D01*
X139500625Y-97590625D01*
X139700000Y-97292239D01*
X139899375Y-97590625D01*
X140390582Y-97918839D01*
X140823744Y-98005000D01*
X141116256Y-98005000D01*
X141549418Y-97918839D01*
X142040625Y-97590625D01*
X142240000Y-97292239D01*
X142439375Y-97590625D01*
X142930582Y-97918839D01*
X143363744Y-98005000D01*
X143656256Y-98005000D01*
X144089418Y-97918839D01*
X144580625Y-97590625D01*
X144780000Y-97292239D01*
X144979375Y-97590625D01*
X145470582Y-97918839D01*
X145903744Y-98005000D01*
X146196256Y-98005000D01*
X146629418Y-97918839D01*
X147120625Y-97590625D01*
X147320000Y-97292239D01*
X147519375Y-97590625D01*
X148010582Y-97918839D01*
X148443744Y-98005000D01*
X148736256Y-98005000D01*
X149169418Y-97918839D01*
X149660625Y-97590625D01*
X149860000Y-97292239D01*
X150059375Y-97590625D01*
X150550582Y-97918839D01*
X150983744Y-98005000D01*
X151276256Y-98005000D01*
X151709418Y-97918839D01*
X152200625Y-97590625D01*
X152400000Y-97292239D01*
X152599375Y-97590625D01*
X153090582Y-97918839D01*
X153523744Y-98005000D01*
X153816256Y-98005000D01*
X154249418Y-97918839D01*
X154740625Y-97590625D01*
X154940000Y-97292239D01*
X155139375Y-97590625D01*
X155630582Y-97918839D01*
X156063744Y-98005000D01*
X156356256Y-98005000D01*
X156789418Y-97918839D01*
X157280625Y-97590625D01*
X157480000Y-97292239D01*
X157679375Y-97590625D01*
X158170582Y-97918839D01*
X158603744Y-98005000D01*
X158896256Y-98005000D01*
X159329418Y-97918839D01*
X159820625Y-97590625D01*
X160020000Y-97292239D01*
X160219375Y-97590625D01*
X160710582Y-97918839D01*
X161143744Y-98005000D01*
X161436256Y-98005000D01*
X161869418Y-97918839D01*
X162360625Y-97590625D01*
X162560000Y-97292239D01*
X162759375Y-97590625D01*
X163250582Y-97918839D01*
X163683744Y-98005000D01*
X163976256Y-98005000D01*
X164409418Y-97918839D01*
X164900625Y-97590625D01*
X164915096Y-97568967D01*
X164981673Y-97729698D01*
X165160301Y-97908327D01*
X165393690Y-98005000D01*
X166084250Y-98005000D01*
X166243000Y-97846250D01*
X166243000Y-96647000D01*
X166497000Y-96647000D01*
X166497000Y-97846250D01*
X166655750Y-98005000D01*
X167346310Y-98005000D01*
X167579699Y-97908327D01*
X167758327Y-97729698D01*
X167855000Y-97496309D01*
X167855000Y-96805750D01*
X167696250Y-96647000D01*
X166497000Y-96647000D01*
X166243000Y-96647000D01*
X166223000Y-96647000D01*
X166223000Y-96393000D01*
X166243000Y-96393000D01*
X166243000Y-95193750D01*
X166497000Y-95193750D01*
X166497000Y-96393000D01*
X167696250Y-96393000D01*
X167855000Y-96234250D01*
X167855000Y-95543691D01*
X167758327Y-95310302D01*
X167579699Y-95131673D01*
X167346310Y-95035000D01*
X166655750Y-95035000D01*
X166497000Y-95193750D01*
X166243000Y-95193750D01*
X166084250Y-95035000D01*
X165393690Y-95035000D01*
X165160301Y-95131673D01*
X164981673Y-95310302D01*
X164915096Y-95471033D01*
X164900625Y-95449375D01*
X164409418Y-95121161D01*
X163976256Y-95035000D01*
X163683744Y-95035000D01*
X163250582Y-95121161D01*
X162759375Y-95449375D01*
X162560000Y-95747761D01*
X162360625Y-95449375D01*
X161869418Y-95121161D01*
X161436256Y-95035000D01*
X161143744Y-95035000D01*
X160710582Y-95121161D01*
X160219375Y-95449375D01*
X160020000Y-95747761D01*
X159820625Y-95449375D01*
X159329418Y-95121161D01*
X158896256Y-95035000D01*
X158603744Y-95035000D01*
X158170582Y-95121161D01*
X157679375Y-95449375D01*
X157480000Y-95747761D01*
X157280625Y-95449375D01*
X156789418Y-95121161D01*
X156356256Y-95035000D01*
X156063744Y-95035000D01*
X155630582Y-95121161D01*
X155139375Y-95449375D01*
X154940000Y-95747761D01*
X154740625Y-95449375D01*
X154249418Y-95121161D01*
X153816256Y-95035000D01*
X153523744Y-95035000D01*
X153090582Y-95121161D01*
X152599375Y-95449375D01*
X152400000Y-95747761D01*
X152200625Y-95449375D01*
X151709418Y-95121161D01*
X151276256Y-95035000D01*
X150983744Y-95035000D01*
X150550582Y-95121161D01*
X150059375Y-95449375D01*
X149860000Y-95747761D01*
X149660625Y-95449375D01*
X149169418Y-95121161D01*
X148736256Y-95035000D01*
X148443744Y-95035000D01*
X148010582Y-95121161D01*
X147519375Y-95449375D01*
X147320000Y-95747761D01*
X147120625Y-95449375D01*
X146629418Y-95121161D01*
X146196256Y-95035000D01*
X145903744Y-95035000D01*
X145470582Y-95121161D01*
X144979375Y-95449375D01*
X144780000Y-95747761D01*
X144580625Y-95449375D01*
X144089418Y-95121161D01*
X143656256Y-95035000D01*
X143363744Y-95035000D01*
X142930582Y-95121161D01*
X142439375Y-95449375D01*
X142240000Y-95747761D01*
X142040625Y-95449375D01*
X141730000Y-95241822D01*
X141730000Y-89603711D01*
X141847431Y-89486280D01*
X142005000Y-89105874D01*
X142005000Y-88694126D01*
X141847431Y-88313720D01*
X141730000Y-88196289D01*
X141730000Y-79054801D01*
X143824803Y-76960000D01*
X158675153Y-76960000D01*
X158750000Y-76974888D01*
X158824847Y-76960000D01*
X158824852Y-76960000D01*
X159046537Y-76915904D01*
X159297929Y-76747929D01*
X159340331Y-76684470D01*
X166854476Y-69170327D01*
X166917929Y-69127929D01*
X166960327Y-69064476D01*
X166960329Y-69064474D01*
X167085903Y-68876538D01*
X167085904Y-68876537D01*
X167130000Y-68654852D01*
X167130000Y-68654848D01*
X167144888Y-68580001D01*
X167130000Y-68505154D01*
X167130000Y-62304847D01*
X167144888Y-62230000D01*
X167130000Y-62155153D01*
X167130000Y-62155148D01*
X167085904Y-61933463D01*
X166917929Y-61682071D01*
X166854473Y-61639671D01*
X161880331Y-56665530D01*
X161837929Y-56602071D01*
X161586537Y-56434096D01*
X161364852Y-56390000D01*
X161364847Y-56390000D01*
X161290000Y-56375112D01*
X161215153Y-56390000D01*
X144854848Y-56390000D01*
X144780000Y-56375112D01*
X144705152Y-56390000D01*
X144705148Y-56390000D01*
X144531605Y-56424520D01*
X144483462Y-56434096D01*
X144425538Y-56472800D01*
X144232071Y-56602071D01*
X144189671Y-56665527D01*
X140485530Y-60369669D01*
X140422071Y-60412071D01*
X140254096Y-60663464D01*
X140210000Y-60885149D01*
X140210000Y-60885153D01*
X140195112Y-60960000D01*
X140210000Y-61034847D01*
X140210001Y-62304865D01*
X140179796Y-62317376D01*
X139787376Y-62709796D01*
X139700000Y-62920740D01*
X139612624Y-62709796D01*
X139220204Y-62317376D01*
X138707483Y-62105000D01*
X138152517Y-62105000D01*
X137639796Y-62317376D01*
X137247376Y-62709796D01*
X137160000Y-62920740D01*
X137072624Y-62709796D01*
X136680204Y-62317376D01*
X136167483Y-62105000D01*
X135612517Y-62105000D01*
X135099796Y-62317376D01*
X134707376Y-62709796D01*
X134620000Y-62920740D01*
X134532624Y-62709796D01*
X134140204Y-62317376D01*
X133627483Y-62105000D01*
X133072517Y-62105000D01*
X132559796Y-62317376D01*
X132167376Y-62709796D01*
X132080000Y-62920740D01*
X131992624Y-62709796D01*
X131600204Y-62317376D01*
X131087483Y-62105000D01*
X130532517Y-62105000D01*
X130019796Y-62317376D01*
X129627376Y-62709796D01*
X129415000Y-63222517D01*
X129415000Y-63777483D01*
X129507798Y-64001517D01*
X129465152Y-64010000D01*
X129465148Y-64010000D01*
X129243463Y-64054096D01*
X128992071Y-64222071D01*
X128949671Y-64285527D01*
X122705530Y-70529669D01*
X122642071Y-70572071D01*
X122474096Y-70823464D01*
X122430000Y-71045149D01*
X122430000Y-71045153D01*
X122415112Y-71120000D01*
X122430000Y-71194847D01*
X122430001Y-90736288D01*
X122312569Y-90853720D01*
X122155000Y-91234126D01*
X122155000Y-91645874D01*
X122312569Y-92026280D01*
X122430000Y-92143711D01*
X122430001Y-94001535D01*
X122430001Y-95241821D01*
X122119375Y-95449375D01*
X121920000Y-95747761D01*
X121720625Y-95449375D01*
X121410000Y-95241822D01*
X121410000Y-63830349D01*
X122810000Y-63830349D01*
X122810000Y-64689651D01*
X123138840Y-65483542D01*
X123746458Y-66091160D01*
X124540349Y-66420000D01*
X125399651Y-66420000D01*
X126193542Y-66091160D01*
X126801160Y-65483542D01*
X127130000Y-64689651D01*
X127130000Y-63830349D01*
X126801160Y-63036458D01*
X126193542Y-62428840D01*
X125399651Y-62100000D01*
X124540349Y-62100000D01*
X123746458Y-62428840D01*
X123138840Y-63036458D01*
X122810000Y-63830349D01*
X121410000Y-63830349D01*
X121410000Y-62544801D01*
X122234802Y-61720000D01*
X127566289Y-61720000D01*
X127683720Y-61837431D01*
X128064126Y-61995000D01*
X128475874Y-61995000D01*
X128856280Y-61837431D01*
X129147431Y-61546280D01*
X129305000Y-61165874D01*
X129305000Y-60754126D01*
X129147431Y-60373720D01*
X128856280Y-60082569D01*
X128475874Y-59925000D01*
X128064126Y-59925000D01*
X127683720Y-60082569D01*
X127566289Y-60200000D01*
X121994846Y-60200000D01*
X121919999Y-60185112D01*
X121845152Y-60200000D01*
X110593050Y-60200000D01*
X110655000Y-60050440D01*
X110655000Y-59479562D01*
X110436534Y-58952139D01*
X110032862Y-58548467D01*
X109903784Y-58495001D01*
X110032862Y-58441535D01*
X110436534Y-58037863D01*
X110655000Y-57510440D01*
X110655000Y-56939562D01*
X110436534Y-56412139D01*
X110032862Y-56008467D01*
X109505439Y-55790001D01*
X108934561Y-55790001D01*
X108407138Y-56008467D01*
X108003466Y-56412139D01*
X107785000Y-56939562D01*
X107785000Y-57510440D01*
X108003466Y-58037863D01*
X108407138Y-58441535D01*
X108536216Y-58495001D01*
X108407138Y-58548467D01*
X108003466Y-58952139D01*
X107785000Y-59479562D01*
X107785000Y-60050440D01*
X107846950Y-60200000D01*
X97939847Y-60200000D01*
X97865000Y-60185112D01*
X97790153Y-60200000D01*
X97790149Y-60200000D01*
X97568464Y-60244096D01*
X97317072Y-60412071D01*
X97274672Y-60475527D01*
X95415000Y-62335199D01*
X95415000Y-62019562D01*
X95196534Y-61492139D01*
X94792862Y-61088467D01*
X94663784Y-61035001D01*
X94792862Y-60981535D01*
X95196534Y-60577863D01*
X95415000Y-60050440D01*
X95415000Y-59479562D01*
X95196534Y-58952139D01*
X94904396Y-58660001D01*
X94906310Y-58660001D01*
X95139699Y-58563328D01*
X95318327Y-58384699D01*
X95415000Y-58151310D01*
X95415000Y-57510751D01*
X95256250Y-57352001D01*
X94107000Y-57352001D01*
X94107000Y-57372001D01*
X93853000Y-57372001D01*
X93853000Y-57352001D01*
X92703750Y-57352001D01*
X92545000Y-57510751D01*
X92106389Y-57510751D01*
X92170000Y-57150000D01*
X92049385Y-56465960D01*
X91952813Y-56298692D01*
X92545000Y-56298692D01*
X92545000Y-56939251D01*
X92703750Y-57098001D01*
X93853000Y-57098001D01*
X93853000Y-55948751D01*
X94107000Y-55948751D01*
X94107000Y-57098001D01*
X95256250Y-57098001D01*
X95415000Y-56939251D01*
X95415000Y-56298692D01*
X95318327Y-56065303D01*
X95139699Y-55886674D01*
X94906310Y-55790001D01*
X94265750Y-55790001D01*
X94107000Y-55948751D01*
X93853000Y-55948751D01*
X93694250Y-55790001D01*
X93053690Y-55790001D01*
X92820301Y-55886674D01*
X92641673Y-56065303D01*
X92545000Y-56298692D01*
X91952813Y-56298692D01*
X91702089Y-55864425D01*
X91170000Y-55417949D01*
X90900888Y-55320000D01*
X169506702Y-55320000D01*
X169190000Y-55435270D01*
X169190000Y-55435270D01*
G37*
X169190000Y-55435270D02*
X168663232Y-55877281D01*
X168319409Y-56472800D01*
X168200000Y-57150000D01*
X168319409Y-57827200D01*
X168663232Y-58422719D01*
X169190000Y-58864730D01*
X169836177Y-59099919D01*
X170523823Y-59099919D01*
X171170000Y-58864730D01*
X171696768Y-58422719D01*
X172010000Y-57880185D01*
X172010001Y-108450424D01*
X171712089Y-107934425D01*
X171180000Y-107487949D01*
X170527296Y-107250384D01*
X169832704Y-107250384D01*
X169180000Y-107487949D01*
X168647911Y-107934425D01*
X168300615Y-108535960D01*
X168180000Y-109220000D01*
X168300615Y-109904040D01*
X168647911Y-110505575D01*
X169180000Y-110952051D01*
X169449112Y-111050000D01*
X90900888Y-111050000D01*
X91170000Y-110952051D01*
X91702089Y-110505575D01*
X92049385Y-109904040D01*
X92170000Y-109220000D01*
X94751010Y-109220000D01*
X94885666Y-109896963D01*
X95269135Y-110470865D01*
X95843037Y-110854334D01*
X96349120Y-110955000D01*
X96690880Y-110955000D01*
X97196963Y-110854334D01*
X97770865Y-110470865D01*
X98154334Y-109896963D01*
X98288990Y-109220000D01*
X98154334Y-108543037D01*
X97871670Y-108120000D01*
X104932560Y-108120000D01*
X104932560Y-110320000D01*
X104981843Y-110567765D01*
X105122191Y-110777809D01*
X105332235Y-110918157D01*
X105580000Y-110967440D01*
X107780000Y-110967440D01*
X108027765Y-110918157D01*
X108237809Y-110777809D01*
X108378157Y-110567765D01*
X108427440Y-110320000D01*
X108427440Y-108120000D01*
X108378157Y-107872235D01*
X108237809Y-107662191D01*
X108027765Y-107521843D01*
X107780000Y-107472560D01*
X105580000Y-107472560D01*
X105332235Y-107521843D01*
X105122191Y-107662191D01*
X104981843Y-107872235D01*
X104932560Y-108120000D01*
X97871670Y-108120000D01*
X97770865Y-107969135D01*
X97196963Y-107585666D01*
X96690880Y-107485000D01*
X96349120Y-107485000D01*
X95843037Y-107585666D01*
X95269135Y-107969135D01*
X94885666Y-108543037D01*
X94751010Y-109220000D01*
X92170000Y-109220000D01*
X92049385Y-108535960D01*
X91702089Y-107934425D01*
X91170000Y-107487949D01*
X90517296Y-107250384D01*
X89822704Y-107250384D01*
X89170000Y-107487949D01*
X88637911Y-107934425D01*
X88340000Y-108450423D01*
X88340000Y-90170000D01*
X88655908Y-90170000D01*
X88771161Y-90749418D01*
X89099375Y-91240625D01*
X89397761Y-91440000D01*
X89099375Y-91639375D01*
X88771161Y-92130582D01*
X88655908Y-92710000D01*
X88771161Y-93289418D01*
X89099375Y-93780625D01*
X89397761Y-93980000D01*
X89099375Y-94179375D01*
X88771161Y-94670582D01*
X88655908Y-95250000D01*
X88771161Y-95829418D01*
X89099375Y-96320625D01*
X89397761Y-96520000D01*
X89099375Y-96719375D01*
X88771161Y-97210582D01*
X88655908Y-97790000D01*
X88771161Y-98369418D01*
X89099375Y-98860625D01*
X89397761Y-99060000D01*
X89099375Y-99259375D01*
X88771161Y-99750582D01*
X88655908Y-100330000D01*
X88771161Y-100909418D01*
X89099375Y-101400625D01*
X89397761Y-101600000D01*
X89099375Y-101799375D01*
X88771161Y-102290582D01*
X88655908Y-102870000D01*
X88771161Y-103449418D01*
X89099375Y-103940625D01*
X89397761Y-104140000D01*
X89099375Y-104339375D01*
X88771161Y-104830582D01*
X88655908Y-105410000D01*
X88771161Y-105989418D01*
X89099375Y-106480625D01*
X89590582Y-106808839D01*
X90023744Y-106895000D01*
X90316256Y-106895000D01*
X90749418Y-106808839D01*
X91240625Y-106480625D01*
X91568839Y-105989418D01*
X91684092Y-105410000D01*
X91568839Y-104830582D01*
X91240625Y-104339375D01*
X90942239Y-104140000D01*
X91240625Y-103940625D01*
X91568839Y-103449418D01*
X91684092Y-102870000D01*
X91568839Y-102290582D01*
X91240625Y-101799375D01*
X90942239Y-101600000D01*
X91240625Y-101400625D01*
X91568839Y-100909418D01*
X91684092Y-100330000D01*
X91568839Y-99750582D01*
X91240625Y-99259375D01*
X90942239Y-99060000D01*
X91240625Y-98860625D01*
X91568839Y-98369418D01*
X91684092Y-97790000D01*
X91568839Y-97210582D01*
X91240625Y-96719375D01*
X90942239Y-96520000D01*
X91240625Y-96320625D01*
X91568839Y-95829418D01*
X91684092Y-95250000D01*
X91568839Y-94670582D01*
X91240625Y-94179375D01*
X90942239Y-93980000D01*
X91240625Y-93780625D01*
X91568839Y-93289418D01*
X91684092Y-92710000D01*
X91568839Y-92130582D01*
X91240625Y-91639375D01*
X90942239Y-91440000D01*
X91240625Y-91240625D01*
X91568839Y-90749418D01*
X91684092Y-90170000D01*
X91568839Y-89590582D01*
X91240625Y-89099375D01*
X91222381Y-89087184D01*
X91267765Y-89078157D01*
X91477809Y-88937809D01*
X91618157Y-88727765D01*
X91667440Y-88480000D01*
X91667440Y-86780000D01*
X91618157Y-86532235D01*
X91477809Y-86322191D01*
X91267765Y-86181843D01*
X91020000Y-86132560D01*
X89320000Y-86132560D01*
X89072235Y-86181843D01*
X88862191Y-86322191D01*
X88721843Y-86532235D01*
X88672560Y-86780000D01*
X88672560Y-88480000D01*
X88721843Y-88727765D01*
X88862191Y-88937809D01*
X89072235Y-89078157D01*
X89117619Y-89087184D01*
X89099375Y-89099375D01*
X88771161Y-89590582D01*
X88655908Y-90170000D01*
X88340000Y-90170000D01*
X88340000Y-79160000D01*
X88672560Y-79160000D01*
X88672560Y-80860000D01*
X88721843Y-81107765D01*
X88862191Y-81317809D01*
X89072235Y-81458157D01*
X89320000Y-81507440D01*
X91020000Y-81507440D01*
X91267765Y-81458157D01*
X91477809Y-81317809D01*
X91618157Y-81107765D01*
X91667440Y-80860000D01*
X91667440Y-79160000D01*
X91618157Y-78912235D01*
X91477809Y-78702191D01*
X91267765Y-78561843D01*
X91020000Y-78512560D01*
X89320000Y-78512560D01*
X89072235Y-78561843D01*
X88862191Y-78702191D01*
X88721843Y-78912235D01*
X88672560Y-79160000D01*
X88340000Y-79160000D01*
X88340000Y-75350000D01*
X88672560Y-75350000D01*
X88672560Y-77050000D01*
X88721843Y-77297765D01*
X88862191Y-77507809D01*
X89072235Y-77648157D01*
X89320000Y-77697440D01*
X91020000Y-77697440D01*
X91267765Y-77648157D01*
X91477809Y-77507809D01*
X91618157Y-77297765D01*
X91667440Y-77050000D01*
X91667440Y-75350000D01*
X91618157Y-75102235D01*
X91477809Y-74892191D01*
X91267765Y-74751843D01*
X91020000Y-74702560D01*
X89320000Y-74702560D01*
X89072235Y-74751843D01*
X88862191Y-74892191D01*
X88721843Y-75102235D01*
X88672560Y-75350000D01*
X88340000Y-75350000D01*
X88340000Y-71540000D01*
X88672560Y-71540000D01*
X88672560Y-73240000D01*
X88721843Y-73487765D01*
X88862191Y-73697809D01*
X89072235Y-73838157D01*
X89320000Y-73887440D01*
X91020000Y-73887440D01*
X91267765Y-73838157D01*
X91477809Y-73697809D01*
X91618157Y-73487765D01*
X91667440Y-73240000D01*
X91667440Y-71540000D01*
X91618157Y-71292235D01*
X91477809Y-71082191D01*
X91267765Y-70941843D01*
X91020000Y-70892560D01*
X89320000Y-70892560D01*
X89072235Y-70941843D01*
X88862191Y-71082191D01*
X88721843Y-71292235D01*
X88672560Y-71540000D01*
X88340000Y-71540000D01*
X88340000Y-57919577D01*
X88637911Y-58435575D01*
X89170000Y-58882051D01*
X89822704Y-59119616D01*
X90517296Y-59119616D01*
X91170000Y-58882051D01*
X91702089Y-58435575D01*
X92049385Y-57834040D01*
X92106389Y-57510751D01*
X92545000Y-57510751D01*
X92545000Y-58151310D01*
X92641673Y-58384699D01*
X92820301Y-58563328D01*
X93053690Y-58660001D01*
X93055604Y-58660001D01*
X92763466Y-58952139D01*
X92545000Y-59479562D01*
X92545000Y-60050440D01*
X92763466Y-60577863D01*
X93167138Y-60981535D01*
X93296216Y-61035001D01*
X93167138Y-61088467D01*
X92763466Y-61492139D01*
X92545000Y-62019562D01*
X92545000Y-62590440D01*
X92763466Y-63117863D01*
X93167138Y-63521535D01*
X93296216Y-63575001D01*
X93167138Y-63628467D01*
X92763466Y-64032139D01*
X92545000Y-64559562D01*
X92545000Y-65130440D01*
X92763466Y-65657863D01*
X93167138Y-66061535D01*
X93296216Y-66115001D01*
X93167138Y-66168467D01*
X92763466Y-66572139D01*
X92545000Y-67099562D01*
X92545000Y-67670440D01*
X92763466Y-68197863D01*
X93167138Y-68601535D01*
X93296216Y-68655001D01*
X93167138Y-68708467D01*
X92763466Y-69112139D01*
X92545000Y-69639562D01*
X92545000Y-70210440D01*
X92763466Y-70737863D01*
X93167138Y-71141535D01*
X93296216Y-71195001D01*
X93167138Y-71248467D01*
X92763466Y-71652139D01*
X92545000Y-72179562D01*
X92545000Y-72750440D01*
X92763466Y-73277863D01*
X93167138Y-73681535D01*
X93296216Y-73735001D01*
X93167138Y-73788467D01*
X92763466Y-74192139D01*
X92545000Y-74719562D01*
X92545000Y-75290440D01*
X92763466Y-75817863D01*
X93167138Y-76221535D01*
X93296216Y-76275001D01*
X93167138Y-76328467D01*
X92763466Y-76732139D01*
X92545000Y-77259562D01*
X92545000Y-77830440D01*
X92763466Y-78357863D01*
X93167138Y-78761535D01*
X93296216Y-78815001D01*
X93167138Y-78868467D01*
X92763466Y-79272139D01*
X92545000Y-79799562D01*
X92545000Y-80370440D01*
X92763466Y-80897863D01*
X93167138Y-81301535D01*
X93296216Y-81355001D01*
X93167138Y-81408467D01*
X92763466Y-81812139D01*
X92545000Y-82339562D01*
X92545000Y-82910440D01*
X92763466Y-83437863D01*
X93167138Y-83841535D01*
X93296216Y-83895001D01*
X93167138Y-83948467D01*
X92763466Y-84352139D01*
X92545000Y-84879562D01*
X92545000Y-85450440D01*
X92763466Y-85977863D01*
X93167138Y-86381535D01*
X93296216Y-86435001D01*
X93167138Y-86488467D01*
X92763466Y-86892139D01*
X92545000Y-87419562D01*
X92545000Y-87990440D01*
X92763466Y-88517863D01*
X93167138Y-88921535D01*
X93296216Y-88975001D01*
X93167138Y-89028467D01*
X92763466Y-89432139D01*
X92545000Y-89959562D01*
X92545000Y-90530440D01*
X92763466Y-91057863D01*
X93167138Y-91461535D01*
X93296216Y-91515001D01*
X93167138Y-91568467D01*
X92763466Y-91972139D01*
X92545000Y-92499562D01*
X92545000Y-93070440D01*
X92763466Y-93597863D01*
X93167138Y-94001535D01*
X93296216Y-94055001D01*
X93167138Y-94108467D01*
X92763466Y-94512139D01*
X92545000Y-95039562D01*
X92545000Y-95610440D01*
X92763466Y-96137863D01*
X93167138Y-96541535D01*
X93296216Y-96595001D01*
X93167138Y-96648467D01*
X92763466Y-97052139D01*
X92545000Y-97579562D01*
X92545000Y-98150440D01*
X92763466Y-98677863D01*
X93167138Y-99081535D01*
X93296216Y-99135001D01*
X93167138Y-99188467D01*
X92763466Y-99592139D01*
X92545000Y-100119562D01*
X92545000Y-100690440D01*
X92763466Y-101217863D01*
X93167138Y-101621535D01*
X93296216Y-101675001D01*
X93167138Y-101728467D01*
X92763466Y-102132139D01*
X92545000Y-102659562D01*
X92545000Y-103230440D01*
X92763466Y-103757863D01*
X93167138Y-104161535D01*
X93296216Y-104215001D01*
X93167138Y-104268467D01*
X92763466Y-104672139D01*
X92545000Y-105199562D01*
X92545000Y-105770440D01*
X92763466Y-106297863D01*
X93167138Y-106701535D01*
X93694561Y-106920001D01*
X94265439Y-106920001D01*
X94792862Y-106701535D01*
X95196534Y-106297863D01*
X95415000Y-105770440D01*
X95415000Y-105199562D01*
X97625000Y-105199562D01*
X97625000Y-105770440D01*
X97843466Y-106297863D01*
X98247138Y-106701535D01*
X98774561Y-106920001D01*
X99345439Y-106920001D01*
X99872862Y-106701535D01*
X100081651Y-106492746D01*
X100771861Y-106492746D01*
X100845995Y-106738865D01*
X101383223Y-106931966D01*
X101953454Y-106904779D01*
X102354005Y-106738865D01*
X102428139Y-106492746D01*
X101600000Y-105664606D01*
X100771861Y-106492746D01*
X100081651Y-106492746D01*
X100276534Y-106297863D01*
X100323525Y-106184418D01*
X100346136Y-106239006D01*
X100592255Y-106313140D01*
X101420395Y-105485001D01*
X101779605Y-105485001D01*
X102607745Y-106313140D01*
X102853864Y-106239006D01*
X102874874Y-106180553D01*
X102923466Y-106297863D01*
X103327138Y-106701535D01*
X103854561Y-106920001D01*
X104425439Y-106920001D01*
X104952862Y-106701535D01*
X105356534Y-106297863D01*
X105575000Y-105770440D01*
X105575000Y-105199562D01*
X105356534Y-104672139D01*
X104952862Y-104268467D01*
X104425439Y-104050001D01*
X103854561Y-104050001D01*
X103327138Y-104268467D01*
X102923466Y-104672139D01*
X102876475Y-104785584D01*
X102853864Y-104730996D01*
X102607745Y-104656862D01*
X101779605Y-105485001D01*
X101420395Y-105485001D01*
X100592255Y-104656862D01*
X100346136Y-104730996D01*
X100325126Y-104789449D01*
X100276534Y-104672139D01*
X100081651Y-104477256D01*
X100771861Y-104477256D01*
X101600000Y-105305396D01*
X102428139Y-104477256D01*
X102354005Y-104231137D01*
X101816777Y-104038036D01*
X101246546Y-104065223D01*
X100845995Y-104231137D01*
X100771861Y-104477256D01*
X100081651Y-104477256D01*
X99872862Y-104268467D01*
X99345439Y-104050001D01*
X98774561Y-104050001D01*
X98247138Y-104268467D01*
X97843466Y-104672139D01*
X97625000Y-105199562D01*
X95415000Y-105199562D01*
X95196534Y-104672139D01*
X94792862Y-104268467D01*
X94663784Y-104215001D01*
X94792862Y-104161535D01*
X95196534Y-103757863D01*
X95415000Y-103230440D01*
X95415000Y-102659562D01*
X95196534Y-102132139D01*
X94792862Y-101728467D01*
X94663784Y-101675001D01*
X94792862Y-101621535D01*
X95196534Y-101217863D01*
X95415000Y-100690440D01*
X95415000Y-100119562D01*
X95196534Y-99592139D01*
X94792862Y-99188467D01*
X94663784Y-99135001D01*
X94792862Y-99081535D01*
X95196534Y-98677863D01*
X95415000Y-98150440D01*
X95415000Y-97579562D01*
X97625000Y-97579562D01*
X97625000Y-98150440D01*
X97843466Y-98677863D01*
X98247138Y-99081535D01*
X98774561Y-99300001D01*
X99345439Y-99300001D01*
X99872862Y-99081535D01*
X100276534Y-98677863D01*
X100330000Y-98548785D01*
X100383466Y-98677863D01*
X100787138Y-99081535D01*
X101314561Y-99300001D01*
X101885439Y-99300001D01*
X102412862Y-99081535D01*
X102816534Y-98677863D01*
X102870000Y-98548785D01*
X102923466Y-98677863D01*
X103327138Y-99081535D01*
X103854561Y-99300001D01*
X104425439Y-99300001D01*
X104952862Y-99081535D01*
X105356534Y-98677863D01*
X105575000Y-98150440D01*
X105575000Y-97579562D01*
X105356534Y-97052139D01*
X104952862Y-96648467D01*
X104823784Y-96595001D01*
X104952862Y-96541535D01*
X105356534Y-96137863D01*
X105575000Y-95610440D01*
X105575000Y-95039562D01*
X105356534Y-94512139D01*
X104952862Y-94108467D01*
X104823784Y-94055001D01*
X104952862Y-94001535D01*
X105356534Y-93597863D01*
X105575000Y-93070440D01*
X105575000Y-92499562D01*
X105356534Y-91972139D01*
X104952862Y-91568467D01*
X104823784Y-91515001D01*
X104952862Y-91461535D01*
X105356534Y-91057863D01*
X105575000Y-90530440D01*
X105575000Y-89959562D01*
X105356534Y-89432139D01*
X104952862Y-89028467D01*
X104425439Y-88810001D01*
X103854561Y-88810001D01*
X103327138Y-89028467D01*
X102923466Y-89432139D01*
X102870000Y-89561217D01*
X102816534Y-89432139D01*
X102412862Y-89028467D01*
X101885439Y-88810001D01*
X101314561Y-88810001D01*
X100787138Y-89028467D01*
X100383466Y-89432139D01*
X100165000Y-89959562D01*
X100165000Y-90530440D01*
X100383466Y-91057863D01*
X100787138Y-91461535D01*
X100916216Y-91515001D01*
X100787138Y-91568467D01*
X100383466Y-91972139D01*
X100165000Y-92499562D01*
X100165000Y-93070440D01*
X100383466Y-93597863D01*
X100787138Y-94001535D01*
X100916216Y-94055001D01*
X100787138Y-94108467D01*
X100383466Y-94512139D01*
X100165000Y-95039562D01*
X100165000Y-95610440D01*
X100383466Y-96137863D01*
X100787138Y-96541535D01*
X100916216Y-96595001D01*
X100787138Y-96648467D01*
X100383466Y-97052139D01*
X100330000Y-97181217D01*
X100276534Y-97052139D01*
X99872862Y-96648467D01*
X99345439Y-96430001D01*
X98774561Y-96430001D01*
X98247138Y-96648467D01*
X97843466Y-97052139D01*
X97625000Y-97579562D01*
X95415000Y-97579562D01*
X95196534Y-97052139D01*
X94792862Y-96648467D01*
X94663784Y-96595001D01*
X94792862Y-96541535D01*
X95196534Y-96137863D01*
X95415000Y-95610440D01*
X95415000Y-95039562D01*
X95196534Y-94512139D01*
X94792862Y-94108467D01*
X94663784Y-94055001D01*
X94792862Y-94001535D01*
X95196534Y-93597863D01*
X95415000Y-93070440D01*
X95415000Y-92499562D01*
X95196534Y-91972139D01*
X94792862Y-91568467D01*
X94663784Y-91515001D01*
X94792862Y-91461535D01*
X95196534Y-91057863D01*
X95415000Y-90530440D01*
X95415000Y-89959562D01*
X95196534Y-89432139D01*
X94792862Y-89028467D01*
X94663784Y-88975001D01*
X94792862Y-88921535D01*
X95196534Y-88517863D01*
X95415000Y-87990440D01*
X95415000Y-87419562D01*
X95196534Y-86892139D01*
X94792862Y-86488467D01*
X94663784Y-86435001D01*
X94792862Y-86381535D01*
X95196534Y-85977863D01*
X95415000Y-85450440D01*
X95415000Y-84879562D01*
X107785000Y-84879562D01*
X107785000Y-85450440D01*
X108003466Y-85977863D01*
X108407138Y-86381535D01*
X108536216Y-86435001D01*
X108407138Y-86488467D01*
X108003466Y-86892139D01*
X107785000Y-87419562D01*
X107785000Y-87990440D01*
X108003466Y-88517863D01*
X108407138Y-88921535D01*
X108536216Y-88975001D01*
X108407138Y-89028467D01*
X108003466Y-89432139D01*
X107785000Y-89959562D01*
X107785000Y-90530440D01*
X108003466Y-91057863D01*
X108407138Y-91461535D01*
X108536216Y-91515001D01*
X108407138Y-91568467D01*
X108003466Y-91972139D01*
X107785000Y-92499562D01*
X107785000Y-93070440D01*
X108003466Y-93597863D01*
X108407138Y-94001535D01*
X108536216Y-94055001D01*
X108407138Y-94108467D01*
X108003466Y-94512139D01*
X107785000Y-95039562D01*
X107785000Y-95610440D01*
X108003466Y-96137863D01*
X108407138Y-96541535D01*
X108536216Y-96595001D01*
X108407138Y-96648467D01*
X108003466Y-97052139D01*
X107785000Y-97579562D01*
X107785000Y-98150440D01*
X108003466Y-98677863D01*
X108407138Y-99081535D01*
X108536216Y-99135001D01*
X108407138Y-99188467D01*
X108003466Y-99592139D01*
X107785000Y-100119562D01*
X107785000Y-100690440D01*
X108003466Y-101217863D01*
X108407138Y-101621535D01*
X108536216Y-101675001D01*
X108407138Y-101728467D01*
X108003466Y-102132139D01*
X107785000Y-102659562D01*
X107785000Y-103230440D01*
X108003466Y-103757863D01*
X108407138Y-104161535D01*
X108536216Y-104215001D01*
X108407138Y-104268467D01*
X108003466Y-104672139D01*
X107785000Y-105199562D01*
X107785000Y-105770440D01*
X108003466Y-106297863D01*
X108407138Y-106701535D01*
X108934561Y-106920001D01*
X109505439Y-106920001D01*
X110032862Y-106701535D01*
X110436534Y-106297863D01*
X110655000Y-105770440D01*
X110655000Y-105199562D01*
X110436534Y-104672139D01*
X110032862Y-104268467D01*
X109903784Y-104215001D01*
X110032862Y-104161535D01*
X110436534Y-103757863D01*
X110655000Y-103230440D01*
X110655000Y-102659562D01*
X110436534Y-102132139D01*
X110032862Y-101728467D01*
X109903784Y-101675001D01*
X110032862Y-101621535D01*
X110436534Y-101217863D01*
X110655000Y-100690440D01*
X110655000Y-100119562D01*
X110436534Y-99592139D01*
X110032862Y-99188467D01*
X109903784Y-99135001D01*
X110032862Y-99081535D01*
X110436534Y-98677863D01*
X110655000Y-98150440D01*
X110655000Y-97579562D01*
X110436534Y-97052139D01*
X110032862Y-96648467D01*
X109903784Y-96595001D01*
X110032862Y-96541535D01*
X110436534Y-96137863D01*
X110655000Y-95610440D01*
X110655000Y-95039562D01*
X110436534Y-94512139D01*
X110032862Y-94108467D01*
X109903784Y-94055001D01*
X110032862Y-94001535D01*
X110436534Y-93597863D01*
X110655000Y-93070440D01*
X110655000Y-92499562D01*
X110436534Y-91972139D01*
X110032862Y-91568467D01*
X109903784Y-91515001D01*
X110032862Y-91461535D01*
X110436534Y-91057863D01*
X110655000Y-90530440D01*
X110655000Y-89959562D01*
X110436534Y-89432139D01*
X110032862Y-89028467D01*
X109903784Y-88975001D01*
X110032862Y-88921535D01*
X110436534Y-88517863D01*
X110655000Y-87990440D01*
X110655000Y-87419562D01*
X110436534Y-86892139D01*
X110032862Y-86488467D01*
X109903784Y-86435001D01*
X110032862Y-86381535D01*
X110436534Y-85977863D01*
X110655000Y-85450440D01*
X110655000Y-84879562D01*
X110436534Y-84352139D01*
X110032862Y-83948467D01*
X109919417Y-83901476D01*
X109974005Y-83878865D01*
X110048139Y-83632746D01*
X109220000Y-82804606D01*
X108391861Y-83632746D01*
X108465995Y-83878865D01*
X108524448Y-83899875D01*
X108407138Y-83948467D01*
X108003466Y-84352139D01*
X107785000Y-84879562D01*
X95415000Y-84879562D01*
X95196534Y-84352139D01*
X94792862Y-83948467D01*
X94663784Y-83895001D01*
X94792862Y-83841535D01*
X95196534Y-83437863D01*
X95415000Y-82910440D01*
X95415000Y-82408224D01*
X107773035Y-82408224D01*
X107800222Y-82978455D01*
X107966136Y-83379006D01*
X108212255Y-83453140D01*
X109040395Y-82625001D01*
X109399605Y-82625001D01*
X110227745Y-83453140D01*
X110473864Y-83379006D01*
X110666965Y-82841778D01*
X110639778Y-82271547D01*
X110473864Y-81870996D01*
X110227745Y-81796862D01*
X109399605Y-82625001D01*
X109040395Y-82625001D01*
X108212255Y-81796862D01*
X107966136Y-81870996D01*
X107773035Y-82408224D01*
X95415000Y-82408224D01*
X95415000Y-82339562D01*
X95196534Y-81812139D01*
X94792862Y-81408467D01*
X94663784Y-81355001D01*
X94792862Y-81301535D01*
X95196534Y-80897863D01*
X95415000Y-80370440D01*
X95415000Y-79799562D01*
X95196534Y-79272139D01*
X94792862Y-78868467D01*
X94663784Y-78815001D01*
X94792862Y-78761535D01*
X95196534Y-78357863D01*
X95415000Y-77830440D01*
X95415000Y-77259562D01*
X95196534Y-76732139D01*
X94792862Y-76328467D01*
X94663784Y-76275001D01*
X94792862Y-76221535D01*
X95196534Y-75817863D01*
X95415000Y-75290440D01*
X95415000Y-74719562D01*
X95196534Y-74192139D01*
X94792862Y-73788467D01*
X94663784Y-73735001D01*
X94792862Y-73681535D01*
X95196534Y-73277863D01*
X95415000Y-72750440D01*
X95415000Y-72179562D01*
X95196534Y-71652139D01*
X94792862Y-71248467D01*
X94663784Y-71195001D01*
X94792862Y-71141535D01*
X95196534Y-70737863D01*
X95415000Y-70210440D01*
X95415000Y-69639562D01*
X95196534Y-69112139D01*
X94792862Y-68708467D01*
X94663784Y-68655001D01*
X94792862Y-68601535D01*
X95196534Y-68197863D01*
X95415000Y-67670440D01*
X95415000Y-67099562D01*
X95196534Y-66572139D01*
X94792862Y-66168467D01*
X94663784Y-66115001D01*
X94792862Y-66061535D01*
X95196534Y-65657863D01*
X95415000Y-65130440D01*
X95415000Y-64559562D01*
X95393103Y-64506699D01*
X98179803Y-61720000D01*
X107909083Y-61720000D01*
X107785000Y-62019562D01*
X107785000Y-62590440D01*
X108003466Y-63117863D01*
X108407138Y-63521535D01*
X108536216Y-63575001D01*
X108407138Y-63628467D01*
X108003466Y-64032139D01*
X107785000Y-64559562D01*
X107785000Y-65130440D01*
X108003466Y-65657863D01*
X108407138Y-66061535D01*
X108536216Y-66115001D01*
X108407138Y-66168467D01*
X108003466Y-66572139D01*
X107785000Y-67099562D01*
X107785000Y-67670440D01*
X108003466Y-68197863D01*
X108407138Y-68601535D01*
X108536216Y-68655001D01*
X108407138Y-68708467D01*
X108003466Y-69112139D01*
X107785000Y-69639562D01*
X107785000Y-70210440D01*
X108003466Y-70737863D01*
X108407138Y-71141535D01*
X108536216Y-71195001D01*
X108407138Y-71248467D01*
X108003466Y-71652139D01*
X107785000Y-72179562D01*
X107785000Y-72750440D01*
X108003466Y-73277863D01*
X108407138Y-73681535D01*
X108536216Y-73735001D01*
X108407138Y-73788467D01*
X108003466Y-74192139D01*
X107785000Y-74719562D01*
X107785000Y-75290440D01*
X107843388Y-75431400D01*
X107800152Y-75440000D01*
X106113711Y-75440000D01*
X105996280Y-75322569D01*
X105615874Y-75165000D01*
X105204126Y-75165000D01*
X104823720Y-75322569D01*
X104532569Y-75613720D01*
X104375000Y-75994126D01*
X104375000Y-76405874D01*
X104532569Y-76786280D01*
X104823720Y-77077431D01*
X105204126Y-77235000D01*
X105615874Y-77235000D01*
X105996280Y-77077431D01*
X106113711Y-76960000D01*
X107560198Y-76960000D01*
X107806897Y-77206699D01*
X107785000Y-77259562D01*
X107785000Y-77830440D01*
X108003466Y-78357863D01*
X108407138Y-78761535D01*
X108536216Y-78815001D01*
X108407138Y-78868467D01*
X108003466Y-79272139D01*
X107785000Y-79799562D01*
X107785000Y-80370440D01*
X108003466Y-80897863D01*
X108407138Y-81301535D01*
X108520583Y-81348526D01*
X108465995Y-81371137D01*
X108391861Y-81617256D01*
X109220000Y-82445396D01*
X110048139Y-81617256D01*
X109974005Y-81371137D01*
X109915552Y-81350127D01*
X110032862Y-81301535D01*
X110436534Y-80897863D01*
X110655000Y-80370440D01*
X110655000Y-79799562D01*
X110436534Y-79272139D01*
X110032862Y-78868467D01*
X109903784Y-78815001D01*
X110032862Y-78761535D01*
X110436534Y-78357863D01*
X110655000Y-77830440D01*
X110655000Y-77259562D01*
X110436534Y-76732139D01*
X110032862Y-76328467D01*
X109903784Y-76275001D01*
X110032862Y-76221535D01*
X110436534Y-75817863D01*
X110655000Y-75290440D01*
X110655000Y-74719562D01*
X110436534Y-74192139D01*
X110032862Y-73788467D01*
X109903784Y-73735001D01*
X110032862Y-73681535D01*
X110436534Y-73277863D01*
X110655000Y-72750440D01*
X110655000Y-72179562D01*
X110436534Y-71652139D01*
X110032862Y-71248467D01*
X109903784Y-71195001D01*
X110032862Y-71141535D01*
X110436534Y-70737863D01*
X110655000Y-70210440D01*
X110655000Y-69639562D01*
X110436534Y-69112139D01*
X110032862Y-68708467D01*
X109903784Y-68655001D01*
X110032862Y-68601535D01*
X110436534Y-68197863D01*
X110655000Y-67670440D01*
X110655000Y-67099562D01*
X110436534Y-66572139D01*
X110032862Y-66168467D01*
X109903784Y-66115001D01*
X110032862Y-66061535D01*
X110436534Y-65657863D01*
X110655000Y-65130440D01*
X110655000Y-64559562D01*
X110436534Y-64032139D01*
X110032862Y-63628467D01*
X109903784Y-63575001D01*
X110032862Y-63521535D01*
X110436534Y-63117863D01*
X110655000Y-62590440D01*
X110655000Y-62019562D01*
X110530917Y-61720000D01*
X120076729Y-61720000D01*
X120059672Y-61745527D01*
X120059671Y-61745528D01*
X119934098Y-61933462D01*
X119934097Y-61933463D01*
X119921857Y-61995000D01*
X119875112Y-62230000D01*
X119890001Y-62304852D01*
X119890000Y-95241822D01*
X119579375Y-95449375D01*
X119380000Y-95747761D01*
X119180625Y-95449375D01*
X118689418Y-95121161D01*
X118256256Y-95035000D01*
X117963744Y-95035000D01*
X117530582Y-95121161D01*
X117039375Y-95449375D01*
X116711161Y-95940582D01*
X116595908Y-96520000D01*
X116711161Y-97099418D01*
X117039375Y-97590625D01*
X117530582Y-97918839D01*
X117963744Y-98005000D01*
X118256256Y-98005000D01*
X118689418Y-97918839D01*
X119180625Y-97590625D01*
X119380000Y-97292239D01*
X119579375Y-97590625D01*
X120070582Y-97918839D01*
X120503744Y-98005000D01*
X120796256Y-98005000D01*
X121229418Y-97918839D01*
X121720625Y-97590625D01*
X121920000Y-97292239D01*
X122119375Y-97590625D01*
X122610582Y-97918839D01*
X123043744Y-98005000D01*
X123336256Y-98005000D01*
X123769418Y-97918839D01*
X124260625Y-97590625D01*
X124460000Y-97292239D01*
X124659375Y-97590625D01*
X125150582Y-97918839D01*
X125583744Y-98005000D01*
X125876256Y-98005000D01*
X126309418Y-97918839D01*
X126800625Y-97590625D01*
X127000000Y-97292239D01*
X127199375Y-97590625D01*
X127690582Y-97918839D01*
X128123744Y-98005000D01*
X128416256Y-98005000D01*
X128849418Y-97918839D01*
X129340625Y-97590625D01*
X129540000Y-97292239D01*
X129739375Y-97590625D01*
X130230582Y-97918839D01*
X130663744Y-98005000D01*
X130956256Y-98005000D01*
X131389418Y-97918839D01*
X131880625Y-97590625D01*
X132080000Y-97292239D01*
X132279375Y-97590625D01*
X132770582Y-97918839D01*
X133203744Y-98005000D01*
X133496256Y-98005000D01*
X133929418Y-97918839D01*
X134420625Y-97590625D01*
X134620000Y-97292239D01*
X134819375Y-97590625D01*
X135310582Y-97918839D01*
X135743744Y-98005000D01*
X136036256Y-98005000D01*
X136469418Y-97918839D01*
X136960625Y-97590625D01*
X137160000Y-97292239D01*
X137359375Y-97590625D01*
X137850582Y-97918839D01*
X138283744Y-98005000D01*
X138576256Y-98005000D01*
X139009418Y-97918839D01*
X139500625Y-97590625D01*
X139700000Y-97292239D01*
X139899375Y-97590625D01*
X140390582Y-97918839D01*
X140823744Y-98005000D01*
X141116256Y-98005000D01*
X141549418Y-97918839D01*
X142040625Y-97590625D01*
X142240000Y-97292239D01*
X142439375Y-97590625D01*
X142930582Y-97918839D01*
X143363744Y-98005000D01*
X143656256Y-98005000D01*
X144089418Y-97918839D01*
X144580625Y-97590625D01*
X144780000Y-97292239D01*
X144979375Y-97590625D01*
X145470582Y-97918839D01*
X145903744Y-98005000D01*
X146196256Y-98005000D01*
X146629418Y-97918839D01*
X147120625Y-97590625D01*
X147320000Y-97292239D01*
X147519375Y-97590625D01*
X148010582Y-97918839D01*
X148443744Y-98005000D01*
X148736256Y-98005000D01*
X149169418Y-97918839D01*
X149660625Y-97590625D01*
X149860000Y-97292239D01*
X150059375Y-97590625D01*
X150550582Y-97918839D01*
X150983744Y-98005000D01*
X151276256Y-98005000D01*
X151709418Y-97918839D01*
X152200625Y-97590625D01*
X152400000Y-97292239D01*
X152599375Y-97590625D01*
X153090582Y-97918839D01*
X153523744Y-98005000D01*
X153816256Y-98005000D01*
X154249418Y-97918839D01*
X154740625Y-97590625D01*
X154940000Y-97292239D01*
X155139375Y-97590625D01*
X155630582Y-97918839D01*
X156063744Y-98005000D01*
X156356256Y-98005000D01*
X156789418Y-97918839D01*
X157280625Y-97590625D01*
X157480000Y-97292239D01*
X157679375Y-97590625D01*
X158170582Y-97918839D01*
X158603744Y-98005000D01*
X158896256Y-98005000D01*
X159329418Y-97918839D01*
X159820625Y-97590625D01*
X160020000Y-97292239D01*
X160219375Y-97590625D01*
X160710582Y-97918839D01*
X161143744Y-98005000D01*
X161436256Y-98005000D01*
X161869418Y-97918839D01*
X162360625Y-97590625D01*
X162560000Y-97292239D01*
X162759375Y-97590625D01*
X163250582Y-97918839D01*
X163683744Y-98005000D01*
X163976256Y-98005000D01*
X164409418Y-97918839D01*
X164900625Y-97590625D01*
X164915096Y-97568967D01*
X164981673Y-97729698D01*
X165160301Y-97908327D01*
X165393690Y-98005000D01*
X166084250Y-98005000D01*
X166243000Y-97846250D01*
X166243000Y-96647000D01*
X166497000Y-96647000D01*
X166497000Y-97846250D01*
X166655750Y-98005000D01*
X167346310Y-98005000D01*
X167579699Y-97908327D01*
X167758327Y-97729698D01*
X167855000Y-97496309D01*
X167855000Y-96805750D01*
X167696250Y-96647000D01*
X166497000Y-96647000D01*
X166243000Y-96647000D01*
X166223000Y-96647000D01*
X166223000Y-96393000D01*
X166243000Y-96393000D01*
X166243000Y-95193750D01*
X166497000Y-95193750D01*
X166497000Y-96393000D01*
X167696250Y-96393000D01*
X167855000Y-96234250D01*
X167855000Y-95543691D01*
X167758327Y-95310302D01*
X167579699Y-95131673D01*
X167346310Y-95035000D01*
X166655750Y-95035000D01*
X166497000Y-95193750D01*
X166243000Y-95193750D01*
X166084250Y-95035000D01*
X165393690Y-95035000D01*
X165160301Y-95131673D01*
X164981673Y-95310302D01*
X164915096Y-95471033D01*
X164900625Y-95449375D01*
X164409418Y-95121161D01*
X163976256Y-95035000D01*
X163683744Y-95035000D01*
X163250582Y-95121161D01*
X162759375Y-95449375D01*
X162560000Y-95747761D01*
X162360625Y-95449375D01*
X161869418Y-95121161D01*
X161436256Y-95035000D01*
X161143744Y-95035000D01*
X160710582Y-95121161D01*
X160219375Y-95449375D01*
X160020000Y-95747761D01*
X159820625Y-95449375D01*
X159329418Y-95121161D01*
X158896256Y-95035000D01*
X158603744Y-95035000D01*
X158170582Y-95121161D01*
X157679375Y-95449375D01*
X157480000Y-95747761D01*
X157280625Y-95449375D01*
X156789418Y-95121161D01*
X156356256Y-95035000D01*
X156063744Y-95035000D01*
X155630582Y-95121161D01*
X155139375Y-95449375D01*
X154940000Y-95747761D01*
X154740625Y-95449375D01*
X154249418Y-95121161D01*
X153816256Y-95035000D01*
X153523744Y-95035000D01*
X153090582Y-95121161D01*
X152599375Y-95449375D01*
X152400000Y-95747761D01*
X152200625Y-95449375D01*
X151709418Y-95121161D01*
X151276256Y-95035000D01*
X150983744Y-95035000D01*
X150550582Y-95121161D01*
X150059375Y-95449375D01*
X149860000Y-95747761D01*
X149660625Y-95449375D01*
X149169418Y-95121161D01*
X148736256Y-95035000D01*
X148443744Y-95035000D01*
X148010582Y-95121161D01*
X147519375Y-95449375D01*
X147320000Y-95747761D01*
X147120625Y-95449375D01*
X146629418Y-95121161D01*
X146196256Y-95035000D01*
X145903744Y-95035000D01*
X145470582Y-95121161D01*
X144979375Y-95449375D01*
X144780000Y-95747761D01*
X144580625Y-95449375D01*
X144089418Y-95121161D01*
X143656256Y-95035000D01*
X143363744Y-95035000D01*
X142930582Y-95121161D01*
X142439375Y-95449375D01*
X142240000Y-95747761D01*
X142040625Y-95449375D01*
X141730000Y-95241822D01*
X141730000Y-89603711D01*
X141847431Y-89486280D01*
X142005000Y-89105874D01*
X142005000Y-88694126D01*
X141847431Y-88313720D01*
X141730000Y-88196289D01*
X141730000Y-79054801D01*
X143824803Y-76960000D01*
X158675153Y-76960000D01*
X158750000Y-76974888D01*
X158824847Y-76960000D01*
X158824852Y-76960000D01*
X159046537Y-76915904D01*
X159297929Y-76747929D01*
X159340331Y-76684470D01*
X166854476Y-69170327D01*
X166917929Y-69127929D01*
X166960327Y-69064476D01*
X166960329Y-69064474D01*
X167085903Y-68876538D01*
X167085904Y-68876537D01*
X167130000Y-68654852D01*
X167130000Y-68654848D01*
X167144888Y-68580001D01*
X167130000Y-68505154D01*
X167130000Y-62304847D01*
X167144888Y-62230000D01*
X167130000Y-62155153D01*
X167130000Y-62155148D01*
X167085904Y-61933463D01*
X166917929Y-61682071D01*
X166854473Y-61639671D01*
X161880331Y-56665530D01*
X161837929Y-56602071D01*
X161586537Y-56434096D01*
X161364852Y-56390000D01*
X161364847Y-56390000D01*
X161290000Y-56375112D01*
X161215153Y-56390000D01*
X144854848Y-56390000D01*
X144780000Y-56375112D01*
X144705152Y-56390000D01*
X144705148Y-56390000D01*
X144531605Y-56424520D01*
X144483462Y-56434096D01*
X144425538Y-56472800D01*
X144232071Y-56602071D01*
X144189671Y-56665527D01*
X140485530Y-60369669D01*
X140422071Y-60412071D01*
X140254096Y-60663464D01*
X140210000Y-60885149D01*
X140210000Y-60885153D01*
X140195112Y-60960000D01*
X140210000Y-61034847D01*
X140210001Y-62304865D01*
X140179796Y-62317376D01*
X139787376Y-62709796D01*
X139700000Y-62920740D01*
X139612624Y-62709796D01*
X139220204Y-62317376D01*
X138707483Y-62105000D01*
X138152517Y-62105000D01*
X137639796Y-62317376D01*
X137247376Y-62709796D01*
X137160000Y-62920740D01*
X137072624Y-62709796D01*
X136680204Y-62317376D01*
X136167483Y-62105000D01*
X135612517Y-62105000D01*
X135099796Y-62317376D01*
X134707376Y-62709796D01*
X134620000Y-62920740D01*
X134532624Y-62709796D01*
X134140204Y-62317376D01*
X133627483Y-62105000D01*
X133072517Y-62105000D01*
X132559796Y-62317376D01*
X132167376Y-62709796D01*
X132080000Y-62920740D01*
X131992624Y-62709796D01*
X131600204Y-62317376D01*
X131087483Y-62105000D01*
X130532517Y-62105000D01*
X130019796Y-62317376D01*
X129627376Y-62709796D01*
X129415000Y-63222517D01*
X129415000Y-63777483D01*
X129507798Y-64001517D01*
X129465152Y-64010000D01*
X129465148Y-64010000D01*
X129243463Y-64054096D01*
X128992071Y-64222071D01*
X128949671Y-64285527D01*
X122705530Y-70529669D01*
X122642071Y-70572071D01*
X122474096Y-70823464D01*
X122430000Y-71045149D01*
X122430000Y-71045153D01*
X122415112Y-71120000D01*
X122430000Y-71194847D01*
X122430001Y-90736288D01*
X122312569Y-90853720D01*
X122155000Y-91234126D01*
X122155000Y-91645874D01*
X122312569Y-92026280D01*
X122430000Y-92143711D01*
X122430001Y-94001535D01*
X122430001Y-95241821D01*
X122119375Y-95449375D01*
X121920000Y-95747761D01*
X121720625Y-95449375D01*
X121410000Y-95241822D01*
X121410000Y-63830349D01*
X122810000Y-63830349D01*
X122810000Y-64689651D01*
X123138840Y-65483542D01*
X123746458Y-66091160D01*
X124540349Y-66420000D01*
X125399651Y-66420000D01*
X126193542Y-66091160D01*
X126801160Y-65483542D01*
X127130000Y-64689651D01*
X127130000Y-63830349D01*
X126801160Y-63036458D01*
X126193542Y-62428840D01*
X125399651Y-62100000D01*
X124540349Y-62100000D01*
X123746458Y-62428840D01*
X123138840Y-63036458D01*
X122810000Y-63830349D01*
X121410000Y-63830349D01*
X121410000Y-62544801D01*
X122234802Y-61720000D01*
X127566289Y-61720000D01*
X127683720Y-61837431D01*
X128064126Y-61995000D01*
X128475874Y-61995000D01*
X128856280Y-61837431D01*
X129147431Y-61546280D01*
X129305000Y-61165874D01*
X129305000Y-60754126D01*
X129147431Y-60373720D01*
X128856280Y-60082569D01*
X128475874Y-59925000D01*
X128064126Y-59925000D01*
X127683720Y-60082569D01*
X127566289Y-60200000D01*
X121994846Y-60200000D01*
X121919999Y-60185112D01*
X121845152Y-60200000D01*
X110593050Y-60200000D01*
X110655000Y-60050440D01*
X110655000Y-59479562D01*
X110436534Y-58952139D01*
X110032862Y-58548467D01*
X109903784Y-58495001D01*
X110032862Y-58441535D01*
X110436534Y-58037863D01*
X110655000Y-57510440D01*
X110655000Y-56939562D01*
X110436534Y-56412139D01*
X110032862Y-56008467D01*
X109505439Y-55790001D01*
X108934561Y-55790001D01*
X108407138Y-56008467D01*
X108003466Y-56412139D01*
X107785000Y-56939562D01*
X107785000Y-57510440D01*
X108003466Y-58037863D01*
X108407138Y-58441535D01*
X108536216Y-58495001D01*
X108407138Y-58548467D01*
X108003466Y-58952139D01*
X107785000Y-59479562D01*
X107785000Y-60050440D01*
X107846950Y-60200000D01*
X97939847Y-60200000D01*
X97865000Y-60185112D01*
X97790153Y-60200000D01*
X97790149Y-60200000D01*
X97568464Y-60244096D01*
X97317072Y-60412071D01*
X97274672Y-60475527D01*
X95415000Y-62335199D01*
X95415000Y-62019562D01*
X95196534Y-61492139D01*
X94792862Y-61088467D01*
X94663784Y-61035001D01*
X94792862Y-60981535D01*
X95196534Y-60577863D01*
X95415000Y-60050440D01*
X95415000Y-59479562D01*
X95196534Y-58952139D01*
X94904396Y-58660001D01*
X94906310Y-58660001D01*
X95139699Y-58563328D01*
X95318327Y-58384699D01*
X95415000Y-58151310D01*
X95415000Y-57510751D01*
X95256250Y-57352001D01*
X94107000Y-57352001D01*
X94107000Y-57372001D01*
X93853000Y-57372001D01*
X93853000Y-57352001D01*
X92703750Y-57352001D01*
X92545000Y-57510751D01*
X92106389Y-57510751D01*
X92170000Y-57150000D01*
X92049385Y-56465960D01*
X91952813Y-56298692D01*
X92545000Y-56298692D01*
X92545000Y-56939251D01*
X92703750Y-57098001D01*
X93853000Y-57098001D01*
X93853000Y-55948751D01*
X94107000Y-55948751D01*
X94107000Y-57098001D01*
X95256250Y-57098001D01*
X95415000Y-56939251D01*
X95415000Y-56298692D01*
X95318327Y-56065303D01*
X95139699Y-55886674D01*
X94906310Y-55790001D01*
X94265750Y-55790001D01*
X94107000Y-55948751D01*
X93853000Y-55948751D01*
X93694250Y-55790001D01*
X93053690Y-55790001D01*
X92820301Y-55886674D01*
X92641673Y-56065303D01*
X92545000Y-56298692D01*
X91952813Y-56298692D01*
X91702089Y-55864425D01*
X91170000Y-55417949D01*
X90900888Y-55320000D01*
X169506702Y-55320000D01*
X169190000Y-55435270D01*
G36*
X143703748Y-66025858D02*
X143689605Y-66040000D01*
X144488764Y-66839159D01*
X144730742Y-66769941D01*
X144782406Y-66625069D01*
X144867376Y-66830204D01*
X145259796Y-67222624D01*
X145772517Y-67435000D01*
X146327483Y-67435000D01*
X146840204Y-67222624D01*
X147232624Y-66830204D01*
X147320000Y-66619260D01*
X147407376Y-66830204D01*
X147799796Y-67222624D01*
X148312517Y-67435000D01*
X148867483Y-67435000D01*
X149380204Y-67222624D01*
X149772624Y-66830204D01*
X149860000Y-66619260D01*
X149947376Y-66830204D01*
X150339796Y-67222624D01*
X150852517Y-67435000D01*
X151200199Y-67435000D01*
X150815199Y-67820000D01*
X128344846Y-67820000D01*
X128269999Y-67805112D01*
X128195152Y-67820000D01*
X128195148Y-67820000D01*
X127973463Y-67864096D01*
X127973461Y-67864097D01*
X127973462Y-67864097D01*
X127785526Y-67989671D01*
X127785524Y-67989673D01*
X127722071Y-68032071D01*
X127679673Y-68095524D01*
X125245528Y-70529671D01*
X125182072Y-70572071D01*
X125139672Y-70635527D01*
X125139671Y-70635528D01*
X125014097Y-70823463D01*
X124955112Y-71120000D01*
X124970001Y-71194852D01*
X124970000Y-72956289D01*
X124852569Y-73073720D01*
X124695000Y-73454126D01*
X124695000Y-73865874D01*
X124852569Y-74246280D01*
X124970001Y-74363712D01*
X124970000Y-95241822D01*
X124659375Y-95449375D01*
X124460000Y-95747761D01*
X124260625Y-95449375D01*
X123950000Y-95241822D01*
X123950000Y-92143711D01*
X124067431Y-92026280D01*
X124225000Y-91645874D01*
X124225000Y-91234126D01*
X124067431Y-90853720D01*
X123950000Y-90736289D01*
X123950000Y-71434801D01*
X129402560Y-65982242D01*
X129402560Y-66800000D01*
X129451843Y-67047765D01*
X129592191Y-67257809D01*
X129802235Y-67398157D01*
X130050000Y-67447440D01*
X131570000Y-67447440D01*
X131817765Y-67398157D01*
X132027809Y-67257809D01*
X132168157Y-67047765D01*
X132204123Y-66866951D01*
X132559796Y-67222624D01*
X133072517Y-67435000D01*
X133627483Y-67435000D01*
X134140204Y-67222624D01*
X134532624Y-66830204D01*
X134620000Y-66619260D01*
X134707376Y-66830204D01*
X135099796Y-67222624D01*
X135612517Y-67435000D01*
X136167483Y-67435000D01*
X136680204Y-67222624D01*
X137072624Y-66830204D01*
X137160000Y-66619260D01*
X137247376Y-66830204D01*
X137639796Y-67222624D01*
X138152517Y-67435000D01*
X138707483Y-67435000D01*
X139220204Y-67222624D01*
X139612624Y-66830204D01*
X139700000Y-66619260D01*
X139787376Y-66830204D01*
X140179796Y-67222624D01*
X140692517Y-67435000D01*
X141247483Y-67435000D01*
X141760204Y-67222624D01*
X141964064Y-67018764D01*
X142710841Y-67018764D01*
X142780059Y-67260742D01*
X143302780Y-67447155D01*
X143857049Y-67419341D01*
X144239941Y-67260742D01*
X144309159Y-67018764D01*
X143510000Y-66219605D01*
X142710841Y-67018764D01*
X141964064Y-67018764D01*
X142152624Y-66830204D01*
X142233422Y-66635141D01*
X142289258Y-66769941D01*
X142531236Y-66839159D01*
X143330395Y-66040000D01*
X143316253Y-66025858D01*
X143495858Y-65846253D01*
X143510000Y-65860395D01*
X143524143Y-65846253D01*
X143703748Y-66025858D01*
X143703748Y-66025858D01*
G37*
X143703748Y-66025858D02*
X143689605Y-66040000D01*
X144488764Y-66839159D01*
X144730742Y-66769941D01*
X144782406Y-66625069D01*
X144867376Y-66830204D01*
X145259796Y-67222624D01*
X145772517Y-67435000D01*
X146327483Y-67435000D01*
X146840204Y-67222624D01*
X147232624Y-66830204D01*
X147320000Y-66619260D01*
X147407376Y-66830204D01*
X147799796Y-67222624D01*
X148312517Y-67435000D01*
X148867483Y-67435000D01*
X149380204Y-67222624D01*
X149772624Y-66830204D01*
X149860000Y-66619260D01*
X149947376Y-66830204D01*
X150339796Y-67222624D01*
X150852517Y-67435000D01*
X151200199Y-67435000D01*
X150815199Y-67820000D01*
X128344846Y-67820000D01*
X128269999Y-67805112D01*
X128195152Y-67820000D01*
X128195148Y-67820000D01*
X127973463Y-67864096D01*
X127973461Y-67864097D01*
X127973462Y-67864097D01*
X127785526Y-67989671D01*
X127785524Y-67989673D01*
X127722071Y-68032071D01*
X127679673Y-68095524D01*
X125245528Y-70529671D01*
X125182072Y-70572071D01*
X125139672Y-70635527D01*
X125139671Y-70635528D01*
X125014097Y-70823463D01*
X124955112Y-71120000D01*
X124970001Y-71194852D01*
X124970000Y-72956289D01*
X124852569Y-73073720D01*
X124695000Y-73454126D01*
X124695000Y-73865874D01*
X124852569Y-74246280D01*
X124970001Y-74363712D01*
X124970000Y-95241822D01*
X124659375Y-95449375D01*
X124460000Y-95747761D01*
X124260625Y-95449375D01*
X123950000Y-95241822D01*
X123950000Y-92143711D01*
X124067431Y-92026280D01*
X124225000Y-91645874D01*
X124225000Y-91234126D01*
X124067431Y-90853720D01*
X123950000Y-90736289D01*
X123950000Y-71434801D01*
X129402560Y-65982242D01*
X129402560Y-66800000D01*
X129451843Y-67047765D01*
X129592191Y-67257809D01*
X129802235Y-67398157D01*
X130050000Y-67447440D01*
X131570000Y-67447440D01*
X131817765Y-67398157D01*
X132027809Y-67257809D01*
X132168157Y-67047765D01*
X132204123Y-66866951D01*
X132559796Y-67222624D01*
X133072517Y-67435000D01*
X133627483Y-67435000D01*
X134140204Y-67222624D01*
X134532624Y-66830204D01*
X134620000Y-66619260D01*
X134707376Y-66830204D01*
X135099796Y-67222624D01*
X135612517Y-67435000D01*
X136167483Y-67435000D01*
X136680204Y-67222624D01*
X137072624Y-66830204D01*
X137160000Y-66619260D01*
X137247376Y-66830204D01*
X137639796Y-67222624D01*
X138152517Y-67435000D01*
X138707483Y-67435000D01*
X139220204Y-67222624D01*
X139612624Y-66830204D01*
X139700000Y-66619260D01*
X139787376Y-66830204D01*
X140179796Y-67222624D01*
X140692517Y-67435000D01*
X141247483Y-67435000D01*
X141760204Y-67222624D01*
X141964064Y-67018764D01*
X142710841Y-67018764D01*
X142780059Y-67260742D01*
X143302780Y-67447155D01*
X143857049Y-67419341D01*
X144239941Y-67260742D01*
X144309159Y-67018764D01*
X143510000Y-66219605D01*
X142710841Y-67018764D01*
X141964064Y-67018764D01*
X142152624Y-66830204D01*
X142233422Y-66635141D01*
X142289258Y-66769941D01*
X142531236Y-66839159D01*
X143330395Y-66040000D01*
X143316253Y-66025858D01*
X143495858Y-65846253D01*
X143510000Y-65860395D01*
X143524143Y-65846253D01*
X143703748Y-66025858D01*
G04 #@! TD*
M02*
