G04 #@! TF.GenerationSoftware,KiCad,Pcbnew,(5.0.1-3-g963ef8bb5)*
G04 #@! TF.CreationDate,2020-01-16T13:34:53+00:00*
G04 #@! TF.ProjectId,SystemKeyboard,53797374656D4B6579626F6172642E6B,rev?*
G04 #@! TF.SameCoordinates,Original*
G04 #@! TF.FileFunction,Legend,Top*
G04 #@! TF.FilePolarity,Positive*
%FSLAX46Y46*%
G04 Gerber Fmt 4.6, Leading zero omitted, Abs format (unit mm)*
G04 Created by KiCad (PCBNEW (5.0.1-3-g963ef8bb5)) date Thursday, 16 January 2020 at 13:34:53*
%MOMM*%
%LPD*%
G01*
G04 APERTURE LIST*
%ADD10C,0.100000*%
%ADD11C,0.250000*%
%ADD12C,0.200000*%
%ADD13C,0.300000*%
%ADD14C,0.150000*%
%ADD15C,0.120000*%
G04 APERTURE END LIST*
D10*
X110793095Y-75382380D02*
X110793095Y-74382380D01*
X111031190Y-74382380D01*
X111174047Y-74430000D01*
X111269285Y-74525238D01*
X111316904Y-74620476D01*
X111364523Y-74810952D01*
X111364523Y-74953809D01*
X111316904Y-75144285D01*
X111269285Y-75239523D01*
X111174047Y-75334761D01*
X111031190Y-75382380D01*
X110793095Y-75382380D01*
X111745476Y-75096666D02*
X112221666Y-75096666D01*
X111650238Y-75382380D02*
X111983571Y-74382380D01*
X112316904Y-75382380D01*
X112507380Y-74382380D02*
X113078809Y-74382380D01*
X112793095Y-75382380D02*
X112793095Y-74382380D01*
X113364523Y-75096666D02*
X113840714Y-75096666D01*
X113269285Y-75382380D02*
X113602619Y-74382380D01*
X113935952Y-75382380D01*
X114459761Y-74382380D02*
X114555000Y-74382380D01*
X114650238Y-74430000D01*
X114697857Y-74477619D01*
X114745476Y-74572857D01*
X114793095Y-74763333D01*
X114793095Y-75001428D01*
X114745476Y-75191904D01*
X114697857Y-75287142D01*
X114650238Y-75334761D01*
X114555000Y-75382380D01*
X114459761Y-75382380D01*
X114364523Y-75334761D01*
X114316904Y-75287142D01*
X114269285Y-75191904D01*
X114221666Y-75001428D01*
X114221666Y-74763333D01*
X114269285Y-74572857D01*
X114316904Y-74477619D01*
X114364523Y-74430000D01*
X114459761Y-74382380D01*
X110793095Y-72842380D02*
X110793095Y-71842380D01*
X111031190Y-71842380D01*
X111174047Y-71890000D01*
X111269285Y-71985238D01*
X111316904Y-72080476D01*
X111364523Y-72270952D01*
X111364523Y-72413809D01*
X111316904Y-72604285D01*
X111269285Y-72699523D01*
X111174047Y-72794761D01*
X111031190Y-72842380D01*
X110793095Y-72842380D01*
X111745476Y-72556666D02*
X112221666Y-72556666D01*
X111650238Y-72842380D02*
X111983571Y-71842380D01*
X112316904Y-72842380D01*
X112507380Y-71842380D02*
X113078809Y-71842380D01*
X112793095Y-72842380D02*
X112793095Y-71842380D01*
X113364523Y-72556666D02*
X113840714Y-72556666D01*
X113269285Y-72842380D02*
X113602619Y-71842380D01*
X113935952Y-72842380D01*
X114793095Y-72842380D02*
X114221666Y-72842380D01*
X114507380Y-72842380D02*
X114507380Y-71842380D01*
X114412142Y-71985238D01*
X114316904Y-72080476D01*
X114221666Y-72128095D01*
X110793095Y-70302380D02*
X110793095Y-69302380D01*
X111031190Y-69302380D01*
X111174047Y-69350000D01*
X111269285Y-69445238D01*
X111316904Y-69540476D01*
X111364523Y-69730952D01*
X111364523Y-69873809D01*
X111316904Y-70064285D01*
X111269285Y-70159523D01*
X111174047Y-70254761D01*
X111031190Y-70302380D01*
X110793095Y-70302380D01*
X111745476Y-70016666D02*
X112221666Y-70016666D01*
X111650238Y-70302380D02*
X111983571Y-69302380D01*
X112316904Y-70302380D01*
X112507380Y-69302380D02*
X113078809Y-69302380D01*
X112793095Y-70302380D02*
X112793095Y-69302380D01*
X113364523Y-70016666D02*
X113840714Y-70016666D01*
X113269285Y-70302380D02*
X113602619Y-69302380D01*
X113935952Y-70302380D01*
X114221666Y-69397619D02*
X114269285Y-69350000D01*
X114364523Y-69302380D01*
X114602619Y-69302380D01*
X114697857Y-69350000D01*
X114745476Y-69397619D01*
X114793095Y-69492857D01*
X114793095Y-69588095D01*
X114745476Y-69730952D01*
X114174047Y-70302380D01*
X114793095Y-70302380D01*
X110793095Y-67762380D02*
X110793095Y-66762380D01*
X111031190Y-66762380D01*
X111174047Y-66810000D01*
X111269285Y-66905238D01*
X111316904Y-67000476D01*
X111364523Y-67190952D01*
X111364523Y-67333809D01*
X111316904Y-67524285D01*
X111269285Y-67619523D01*
X111174047Y-67714761D01*
X111031190Y-67762380D01*
X110793095Y-67762380D01*
X111745476Y-67476666D02*
X112221666Y-67476666D01*
X111650238Y-67762380D02*
X111983571Y-66762380D01*
X112316904Y-67762380D01*
X112507380Y-66762380D02*
X113078809Y-66762380D01*
X112793095Y-67762380D02*
X112793095Y-66762380D01*
X113364523Y-67476666D02*
X113840714Y-67476666D01*
X113269285Y-67762380D02*
X113602619Y-66762380D01*
X113935952Y-67762380D01*
X114174047Y-66762380D02*
X114793095Y-66762380D01*
X114459761Y-67143333D01*
X114602619Y-67143333D01*
X114697857Y-67190952D01*
X114745476Y-67238571D01*
X114793095Y-67333809D01*
X114793095Y-67571904D01*
X114745476Y-67667142D01*
X114697857Y-67714761D01*
X114602619Y-67762380D01*
X114316904Y-67762380D01*
X114221666Y-67714761D01*
X114174047Y-67667142D01*
X110793095Y-65222380D02*
X110793095Y-64222380D01*
X111031190Y-64222380D01*
X111174047Y-64270000D01*
X111269285Y-64365238D01*
X111316904Y-64460476D01*
X111364523Y-64650952D01*
X111364523Y-64793809D01*
X111316904Y-64984285D01*
X111269285Y-65079523D01*
X111174047Y-65174761D01*
X111031190Y-65222380D01*
X110793095Y-65222380D01*
X111745476Y-64936666D02*
X112221666Y-64936666D01*
X111650238Y-65222380D02*
X111983571Y-64222380D01*
X112316904Y-65222380D01*
X112507380Y-64222380D02*
X113078809Y-64222380D01*
X112793095Y-65222380D02*
X112793095Y-64222380D01*
X113364523Y-64936666D02*
X113840714Y-64936666D01*
X113269285Y-65222380D02*
X113602619Y-64222380D01*
X113935952Y-65222380D01*
X114697857Y-64555714D02*
X114697857Y-65222380D01*
X114459761Y-64174761D02*
X114221666Y-64889047D01*
X114840714Y-64889047D01*
X110793095Y-60142380D02*
X110793095Y-59142380D01*
X111031190Y-59142380D01*
X111174047Y-59190000D01*
X111269285Y-59285238D01*
X111316904Y-59380476D01*
X111364523Y-59570952D01*
X111364523Y-59713809D01*
X111316904Y-59904285D01*
X111269285Y-59999523D01*
X111174047Y-60094761D01*
X111031190Y-60142380D01*
X110793095Y-60142380D01*
X111745476Y-59856666D02*
X112221666Y-59856666D01*
X111650238Y-60142380D02*
X111983571Y-59142380D01*
X112316904Y-60142380D01*
X112507380Y-59142380D02*
X113078809Y-59142380D01*
X112793095Y-60142380D02*
X112793095Y-59142380D01*
X113364523Y-59856666D02*
X113840714Y-59856666D01*
X113269285Y-60142380D02*
X113602619Y-59142380D01*
X113935952Y-60142380D01*
X114697857Y-59142380D02*
X114507380Y-59142380D01*
X114412142Y-59190000D01*
X114364523Y-59237619D01*
X114269285Y-59380476D01*
X114221666Y-59570952D01*
X114221666Y-59951904D01*
X114269285Y-60047142D01*
X114316904Y-60094761D01*
X114412142Y-60142380D01*
X114602619Y-60142380D01*
X114697857Y-60094761D01*
X114745476Y-60047142D01*
X114793095Y-59951904D01*
X114793095Y-59713809D01*
X114745476Y-59618571D01*
X114697857Y-59570952D01*
X114602619Y-59523333D01*
X114412142Y-59523333D01*
X114316904Y-59570952D01*
X114269285Y-59618571D01*
X114221666Y-59713809D01*
X110793095Y-62682380D02*
X110793095Y-61682380D01*
X111031190Y-61682380D01*
X111174047Y-61730000D01*
X111269285Y-61825238D01*
X111316904Y-61920476D01*
X111364523Y-62110952D01*
X111364523Y-62253809D01*
X111316904Y-62444285D01*
X111269285Y-62539523D01*
X111174047Y-62634761D01*
X111031190Y-62682380D01*
X110793095Y-62682380D01*
X111745476Y-62396666D02*
X112221666Y-62396666D01*
X111650238Y-62682380D02*
X111983571Y-61682380D01*
X112316904Y-62682380D01*
X112507380Y-61682380D02*
X113078809Y-61682380D01*
X112793095Y-62682380D02*
X112793095Y-61682380D01*
X113364523Y-62396666D02*
X113840714Y-62396666D01*
X113269285Y-62682380D02*
X113602619Y-61682380D01*
X113935952Y-62682380D01*
X114745476Y-61682380D02*
X114269285Y-61682380D01*
X114221666Y-62158571D01*
X114269285Y-62110952D01*
X114364523Y-62063333D01*
X114602619Y-62063333D01*
X114697857Y-62110952D01*
X114745476Y-62158571D01*
X114793095Y-62253809D01*
X114793095Y-62491904D01*
X114745476Y-62587142D01*
X114697857Y-62634761D01*
X114602619Y-62682380D01*
X114364523Y-62682380D01*
X114269285Y-62634761D01*
X114221666Y-62587142D01*
X92741904Y-109291428D02*
X93503809Y-109291428D01*
X93122857Y-109672380D02*
X93122857Y-108910476D01*
X94456190Y-108672380D02*
X93980000Y-108672380D01*
X93932380Y-109148571D01*
X93980000Y-109100952D01*
X94075238Y-109053333D01*
X94313333Y-109053333D01*
X94408571Y-109100952D01*
X94456190Y-109148571D01*
X94503809Y-109243809D01*
X94503809Y-109481904D01*
X94456190Y-109577142D01*
X94408571Y-109624761D01*
X94313333Y-109672380D01*
X94075238Y-109672380D01*
X93980000Y-109624761D01*
X93932380Y-109577142D01*
X94837142Y-109005714D02*
X95075238Y-109672380D01*
X95313333Y-109005714D01*
D11*
X171833333Y-99381785D02*
X171785714Y-99453214D01*
X171642857Y-99596071D01*
X171547619Y-99667500D01*
X171404761Y-99738928D01*
X171166666Y-99810357D01*
X170976190Y-99810357D01*
X170738095Y-99738928D01*
X170595238Y-99667500D01*
X170500000Y-99596071D01*
X170357142Y-99453214D01*
X170309523Y-99381785D01*
X171404761Y-98167500D02*
X171452380Y-98310357D01*
X171452380Y-98596071D01*
X171404761Y-98738928D01*
X171357142Y-98810357D01*
X171261904Y-98881785D01*
X170976190Y-98881785D01*
X170880952Y-98810357D01*
X170833333Y-98738928D01*
X170785714Y-98596071D01*
X170785714Y-98310357D01*
X170833333Y-98167500D01*
X171833333Y-97667500D02*
X171785714Y-97596071D01*
X171642857Y-97453214D01*
X171547619Y-97381785D01*
X171404761Y-97310357D01*
X171166666Y-97238928D01*
X170976190Y-97238928D01*
X170738095Y-97310357D01*
X170595238Y-97381785D01*
X170500000Y-97453214D01*
X170357142Y-97596071D01*
X170309523Y-97667500D01*
X171452380Y-94738928D02*
X170928571Y-94738928D01*
X170833333Y-94810357D01*
X170785714Y-94953214D01*
X170785714Y-95238928D01*
X170833333Y-95381785D01*
X171404761Y-94738928D02*
X171452380Y-94881785D01*
X171452380Y-95238928D01*
X171404761Y-95381785D01*
X171309523Y-95453214D01*
X171214285Y-95453214D01*
X171119047Y-95381785D01*
X171071428Y-95238928D01*
X171071428Y-94881785D01*
X171023809Y-94738928D01*
X170785714Y-94024642D02*
X171452380Y-94024642D01*
X170880952Y-94024642D02*
X170833333Y-93953214D01*
X170785714Y-93810357D01*
X170785714Y-93596071D01*
X170833333Y-93453214D01*
X170928571Y-93381785D01*
X171452380Y-93381785D01*
X171452380Y-92667500D02*
X170785714Y-92667500D01*
X170452380Y-92667500D02*
X170500000Y-92738928D01*
X170547619Y-92667500D01*
X170500000Y-92596071D01*
X170452380Y-92667500D01*
X170547619Y-92667500D01*
X170785714Y-91310357D02*
X171595238Y-91310357D01*
X171690476Y-91381785D01*
X171738095Y-91453214D01*
X171785714Y-91596071D01*
X171785714Y-91810357D01*
X171738095Y-91953214D01*
X171404761Y-91310357D02*
X171452380Y-91453214D01*
X171452380Y-91738928D01*
X171404761Y-91881785D01*
X171357142Y-91953214D01*
X171261904Y-92024642D01*
X170976190Y-92024642D01*
X170880952Y-91953214D01*
X170833333Y-91881785D01*
X170785714Y-91738928D01*
X170785714Y-91453214D01*
X170833333Y-91310357D01*
X171452380Y-90596071D02*
X170452380Y-90596071D01*
X171452380Y-89953214D02*
X170928571Y-89953214D01*
X170833333Y-90024642D01*
X170785714Y-90167500D01*
X170785714Y-90381785D01*
X170833333Y-90524642D01*
X170880952Y-90596071D01*
X170785714Y-89453214D02*
X170785714Y-88881785D01*
X170452380Y-89238928D02*
X171309523Y-89238928D01*
X171404761Y-89167500D01*
X171452380Y-89024642D01*
X171452380Y-88881785D01*
X171452380Y-88381785D02*
X170785714Y-88381785D01*
X170452380Y-88381785D02*
X170500000Y-88453214D01*
X170547619Y-88381785D01*
X170500000Y-88310357D01*
X170452380Y-88381785D01*
X170547619Y-88381785D01*
X170785714Y-87667500D02*
X171452380Y-87667500D01*
X170880952Y-87667500D02*
X170833333Y-87596071D01*
X170785714Y-87453214D01*
X170785714Y-87238928D01*
X170833333Y-87096071D01*
X170928571Y-87024642D01*
X171452380Y-87024642D01*
X171404761Y-86238928D02*
X171452380Y-86238928D01*
X171547619Y-86310357D01*
X171595238Y-86381785D01*
X170452380Y-84667500D02*
X171452380Y-84167500D01*
X170452380Y-83667500D01*
X171452380Y-82381785D02*
X171452380Y-83238928D01*
X171452380Y-82810357D02*
X170452380Y-82810357D01*
X170595238Y-82953214D01*
X170690476Y-83096071D01*
X170738095Y-83238928D01*
X171357142Y-81738928D02*
X171404761Y-81667500D01*
X171452380Y-81738928D01*
X171404761Y-81810357D01*
X171357142Y-81738928D01*
X171452380Y-81738928D01*
X171452380Y-80238928D02*
X171452380Y-81096071D01*
X171452380Y-80667500D02*
X170452380Y-80667500D01*
X170595238Y-80810357D01*
X170690476Y-80953214D01*
X170738095Y-81096071D01*
X170452380Y-78024642D02*
X171166666Y-78024642D01*
X171309523Y-78096071D01*
X171404761Y-78238928D01*
X171452380Y-78453214D01*
X171452380Y-78596071D01*
X171452380Y-76667500D02*
X170928571Y-76667500D01*
X170833333Y-76738928D01*
X170785714Y-76881785D01*
X170785714Y-77167500D01*
X170833333Y-77310357D01*
X171404761Y-76667500D02*
X171452380Y-76810357D01*
X171452380Y-77167500D01*
X171404761Y-77310357D01*
X171309523Y-77381785D01*
X171214285Y-77381785D01*
X171119047Y-77310357D01*
X171071428Y-77167500D01*
X171071428Y-76810357D01*
X171023809Y-76667500D01*
X170785714Y-75953214D02*
X171452380Y-75953214D01*
X170880952Y-75953214D02*
X170833333Y-75881785D01*
X170785714Y-75738928D01*
X170785714Y-75524642D01*
X170833333Y-75381785D01*
X170928571Y-75310357D01*
X171452380Y-75310357D01*
X170547619Y-73524642D02*
X170500000Y-73453214D01*
X170452380Y-73310357D01*
X170452380Y-72953214D01*
X170500000Y-72810357D01*
X170547619Y-72738928D01*
X170642857Y-72667500D01*
X170738095Y-72667500D01*
X170880952Y-72738928D01*
X171452380Y-73596071D01*
X171452380Y-72667500D01*
X170452380Y-71738928D02*
X170452380Y-71596071D01*
X170500000Y-71453214D01*
X170547619Y-71381785D01*
X170642857Y-71310357D01*
X170833333Y-71238928D01*
X171071428Y-71238928D01*
X171261904Y-71310357D01*
X171357142Y-71381785D01*
X171404761Y-71453214D01*
X171452380Y-71596071D01*
X171452380Y-71738928D01*
X171404761Y-71881785D01*
X171357142Y-71953214D01*
X171261904Y-72024642D01*
X171071428Y-72096071D01*
X170833333Y-72096071D01*
X170642857Y-72024642D01*
X170547619Y-71953214D01*
X170500000Y-71881785D01*
X170452380Y-71738928D01*
X170547619Y-70667500D02*
X170500000Y-70596071D01*
X170452380Y-70453214D01*
X170452380Y-70096071D01*
X170500000Y-69953214D01*
X170547619Y-69881785D01*
X170642857Y-69810357D01*
X170738095Y-69810357D01*
X170880952Y-69881785D01*
X171452380Y-70738928D01*
X171452380Y-69810357D01*
X170452380Y-68881785D02*
X170452380Y-68738928D01*
X170500000Y-68596071D01*
X170547619Y-68524642D01*
X170642857Y-68453214D01*
X170833333Y-68381785D01*
X171071428Y-68381785D01*
X171261904Y-68453214D01*
X171357142Y-68524642D01*
X171404761Y-68596071D01*
X171452380Y-68738928D01*
X171452380Y-68881785D01*
X171404761Y-69024642D01*
X171357142Y-69096071D01*
X171261904Y-69167500D01*
X171071428Y-69238928D01*
X170833333Y-69238928D01*
X170642857Y-69167500D01*
X170547619Y-69096071D01*
X170500000Y-69024642D01*
X170452380Y-68881785D01*
D12*
X123190000Y-90170000D02*
X123190000Y-74930000D01*
X161290000Y-90170000D02*
X123190000Y-90170000D01*
X161290000Y-74930000D02*
X161290000Y-90170000D01*
X123190000Y-74930000D02*
X161290000Y-74930000D01*
D13*
X106135714Y-60516428D02*
X106135714Y-59302142D01*
X106064285Y-59159285D01*
X105992857Y-59087857D01*
X105850000Y-59016428D01*
X105564285Y-59016428D01*
X105421428Y-59087857D01*
X105350000Y-59159285D01*
X105278571Y-59302142D01*
X105278571Y-60516428D01*
X104635714Y-59087857D02*
X104421428Y-59016428D01*
X104064285Y-59016428D01*
X103921428Y-59087857D01*
X103850000Y-59159285D01*
X103778571Y-59302142D01*
X103778571Y-59445000D01*
X103850000Y-59587857D01*
X103921428Y-59659285D01*
X104064285Y-59730714D01*
X104350000Y-59802142D01*
X104492857Y-59873571D01*
X104564285Y-59945000D01*
X104635714Y-60087857D01*
X104635714Y-60230714D01*
X104564285Y-60373571D01*
X104492857Y-60445000D01*
X104350000Y-60516428D01*
X103992857Y-60516428D01*
X103778571Y-60445000D01*
X102635714Y-59802142D02*
X102421428Y-59730714D01*
X102350000Y-59659285D01*
X102278571Y-59516428D01*
X102278571Y-59302142D01*
X102350000Y-59159285D01*
X102421428Y-59087857D01*
X102564285Y-59016428D01*
X103135714Y-59016428D01*
X103135714Y-60516428D01*
X102635714Y-60516428D01*
X102492857Y-60445000D01*
X102421428Y-60373571D01*
X102350000Y-60230714D01*
X102350000Y-60087857D01*
X102421428Y-59945000D01*
X102492857Y-59873571D01*
X102635714Y-59802142D01*
X103135714Y-59802142D01*
X100492857Y-59016428D02*
X100492857Y-60516428D01*
X100350000Y-59587857D02*
X99921428Y-59016428D01*
X99921428Y-60016428D02*
X100492857Y-59445000D01*
X98207142Y-60587857D02*
X99492857Y-58659285D01*
X97707142Y-59016428D02*
X97707142Y-60516428D01*
X97707142Y-59945000D02*
X97564285Y-60016428D01*
X97278571Y-60016428D01*
X97135714Y-59945000D01*
X97064285Y-59873571D01*
X96992857Y-59730714D01*
X96992857Y-59302142D01*
X97064285Y-59159285D01*
X97135714Y-59087857D01*
X97278571Y-59016428D01*
X97564285Y-59016428D01*
X97707142Y-59087857D01*
X102850000Y-57966428D02*
X102564285Y-57966428D01*
X102421428Y-57895000D01*
X102278571Y-57752142D01*
X102207142Y-57466428D01*
X102207142Y-56966428D01*
X102278571Y-56680714D01*
X102421428Y-56537857D01*
X102564285Y-56466428D01*
X102850000Y-56466428D01*
X102992857Y-56537857D01*
X103135714Y-56680714D01*
X103207142Y-56966428D01*
X103207142Y-57466428D01*
X103135714Y-57752142D01*
X102992857Y-57895000D01*
X102850000Y-57966428D01*
X100921428Y-57466428D02*
X100921428Y-56466428D01*
X101564285Y-57466428D02*
X101564285Y-56680714D01*
X101492857Y-56537857D01*
X101350000Y-56466428D01*
X101135714Y-56466428D01*
X100992857Y-56537857D01*
X100921428Y-56609285D01*
X100421428Y-57466428D02*
X99850000Y-57466428D01*
X100207142Y-57966428D02*
X100207142Y-56680714D01*
X100135714Y-56537857D01*
X99992857Y-56466428D01*
X99850000Y-56466428D01*
X130918571Y-109470000D02*
X131632857Y-109470000D01*
X130775714Y-109898571D02*
X131275714Y-108398571D01*
X131775714Y-109898571D01*
X132204285Y-109827142D02*
X132418571Y-109898571D01*
X132775714Y-109898571D01*
X132918571Y-109827142D01*
X132989999Y-109755714D01*
X133061428Y-109612857D01*
X133061428Y-109470000D01*
X132989999Y-109327142D01*
X132918571Y-109255714D01*
X132775714Y-109184285D01*
X132489999Y-109112857D01*
X132347142Y-109041428D01*
X132275714Y-108970000D01*
X132204285Y-108827142D01*
X132204285Y-108684285D01*
X132275714Y-108541428D01*
X132347142Y-108470000D01*
X132489999Y-108398571D01*
X132847142Y-108398571D01*
X133061428Y-108470000D01*
X134561428Y-109755714D02*
X134490000Y-109827142D01*
X134275714Y-109898571D01*
X134132857Y-109898571D01*
X133918571Y-109827142D01*
X133775714Y-109684285D01*
X133704285Y-109541428D01*
X133632857Y-109255714D01*
X133632857Y-109041428D01*
X133704285Y-108755714D01*
X133775714Y-108612857D01*
X133918571Y-108470000D01*
X134132857Y-108398571D01*
X134275714Y-108398571D01*
X134490000Y-108470000D01*
X134561428Y-108541428D01*
X135204285Y-109898571D02*
X135204285Y-108398571D01*
X135918571Y-109898571D02*
X135918571Y-108398571D01*
X137704285Y-109827142D02*
X137918571Y-109898571D01*
X138275714Y-109898571D01*
X138418571Y-109827142D01*
X138490000Y-109755714D01*
X138561428Y-109612857D01*
X138561428Y-109470000D01*
X138490000Y-109327142D01*
X138418571Y-109255714D01*
X138275714Y-109184285D01*
X137990000Y-109112857D01*
X137847142Y-109041428D01*
X137775714Y-108970000D01*
X137704285Y-108827142D01*
X137704285Y-108684285D01*
X137775714Y-108541428D01*
X137847142Y-108470000D01*
X137990000Y-108398571D01*
X138347142Y-108398571D01*
X138561428Y-108470000D01*
X139061428Y-108898571D02*
X139418571Y-109898571D01*
X139775714Y-108898571D02*
X139418571Y-109898571D01*
X139275714Y-110255714D01*
X139204285Y-110327142D01*
X139061428Y-110398571D01*
X140275714Y-109827142D02*
X140418571Y-109898571D01*
X140704285Y-109898571D01*
X140847142Y-109827142D01*
X140918571Y-109684285D01*
X140918571Y-109612857D01*
X140847142Y-109470000D01*
X140704285Y-109398571D01*
X140490000Y-109398571D01*
X140347142Y-109327142D01*
X140275714Y-109184285D01*
X140275714Y-109112857D01*
X140347142Y-108970000D01*
X140490000Y-108898571D01*
X140704285Y-108898571D01*
X140847142Y-108970000D01*
X141347142Y-108898571D02*
X141918571Y-108898571D01*
X141561428Y-108398571D02*
X141561428Y-109684285D01*
X141632857Y-109827142D01*
X141775714Y-109898571D01*
X141918571Y-109898571D01*
X142990000Y-109827142D02*
X142847142Y-109898571D01*
X142561428Y-109898571D01*
X142418571Y-109827142D01*
X142347142Y-109684285D01*
X142347142Y-109112857D01*
X142418571Y-108970000D01*
X142561428Y-108898571D01*
X142847142Y-108898571D01*
X142990000Y-108970000D01*
X143061428Y-109112857D01*
X143061428Y-109255714D01*
X142347142Y-109398571D01*
X143704285Y-109898571D02*
X143704285Y-108898571D01*
X143704285Y-109041428D02*
X143775714Y-108970000D01*
X143918571Y-108898571D01*
X144132857Y-108898571D01*
X144275714Y-108970000D01*
X144347142Y-109112857D01*
X144347142Y-109898571D01*
X144347142Y-109112857D02*
X144418571Y-108970000D01*
X144561428Y-108898571D01*
X144775714Y-108898571D01*
X144918571Y-108970000D01*
X144990000Y-109112857D01*
X144990000Y-109898571D01*
X146847142Y-109898571D02*
X146847142Y-108398571D01*
X146990000Y-109327142D02*
X147418571Y-109898571D01*
X147418571Y-108898571D02*
X146847142Y-109470000D01*
X149132857Y-108327142D02*
X147847142Y-110255714D01*
X149632857Y-109898571D02*
X149632857Y-108398571D01*
X149632857Y-108970000D02*
X149775714Y-108898571D01*
X150061428Y-108898571D01*
X150204285Y-108970000D01*
X150275714Y-109041428D01*
X150347142Y-109184285D01*
X150347142Y-109612857D01*
X150275714Y-109755714D01*
X150204285Y-109827142D01*
X150061428Y-109898571D01*
X149775714Y-109898571D01*
X149632857Y-109827142D01*
X152132857Y-109898571D02*
X152132857Y-108398571D01*
X152847142Y-108898571D02*
X152847142Y-109898571D01*
X152847142Y-109041428D02*
X152918571Y-108970000D01*
X153061428Y-108898571D01*
X153275714Y-108898571D01*
X153418571Y-108970000D01*
X153490000Y-109112857D01*
X153490000Y-109898571D01*
X153882857Y-56542857D02*
X153668571Y-56471428D01*
X153311428Y-56471428D01*
X153168571Y-56542857D01*
X153097142Y-56614285D01*
X153025714Y-56757142D01*
X153025714Y-56900000D01*
X153097142Y-57042857D01*
X153168571Y-57114285D01*
X153311428Y-57185714D01*
X153597142Y-57257142D01*
X153740000Y-57328571D01*
X153811428Y-57400000D01*
X153882857Y-57542857D01*
X153882857Y-57685714D01*
X153811428Y-57828571D01*
X153740000Y-57900000D01*
X153597142Y-57971428D01*
X153240000Y-57971428D01*
X153025714Y-57900000D01*
X152525714Y-57471428D02*
X152168571Y-56471428D01*
X151811428Y-57471428D02*
X152168571Y-56471428D01*
X152311428Y-56114285D01*
X152382857Y-56042857D01*
X152525714Y-55971428D01*
X151311428Y-56542857D02*
X151168571Y-56471428D01*
X150882857Y-56471428D01*
X150740000Y-56542857D01*
X150668571Y-56685714D01*
X150668571Y-56757142D01*
X150740000Y-56900000D01*
X150882857Y-56971428D01*
X151097142Y-56971428D01*
X151240000Y-57042857D01*
X151311428Y-57185714D01*
X151311428Y-57257142D01*
X151240000Y-57400000D01*
X151097142Y-57471428D01*
X150882857Y-57471428D01*
X150740000Y-57400000D01*
X150240000Y-57471428D02*
X149668571Y-57471428D01*
X150025714Y-57971428D02*
X150025714Y-56685714D01*
X149954285Y-56542857D01*
X149811428Y-56471428D01*
X149668571Y-56471428D01*
X148597142Y-56542857D02*
X148740000Y-56471428D01*
X149025714Y-56471428D01*
X149168571Y-56542857D01*
X149240000Y-56685714D01*
X149240000Y-57257142D01*
X149168571Y-57400000D01*
X149025714Y-57471428D01*
X148740000Y-57471428D01*
X148597142Y-57400000D01*
X148525714Y-57257142D01*
X148525714Y-57114285D01*
X149240000Y-56971428D01*
X147882857Y-56471428D02*
X147882857Y-57471428D01*
X147882857Y-57328571D02*
X147811428Y-57400000D01*
X147668571Y-57471428D01*
X147454285Y-57471428D01*
X147311428Y-57400000D01*
X147240000Y-57257142D01*
X147240000Y-56471428D01*
X147240000Y-57257142D02*
X147168571Y-57400000D01*
X147025714Y-57471428D01*
X146811428Y-57471428D01*
X146668571Y-57400000D01*
X146597142Y-57257142D01*
X146597142Y-56471428D01*
X143882857Y-56614285D02*
X143954285Y-56542857D01*
X144168571Y-56471428D01*
X144311428Y-56471428D01*
X144525714Y-56542857D01*
X144668571Y-56685714D01*
X144740000Y-56828571D01*
X144811428Y-57114285D01*
X144811428Y-57328571D01*
X144740000Y-57614285D01*
X144668571Y-57757142D01*
X144525714Y-57900000D01*
X144311428Y-57971428D01*
X144168571Y-57971428D01*
X143954285Y-57900000D01*
X143882857Y-57828571D01*
X143240000Y-56471428D02*
X143240000Y-57971428D01*
X142668571Y-57971428D01*
X142525714Y-57900000D01*
X142454285Y-57828571D01*
X142382857Y-57685714D01*
X142382857Y-57471428D01*
X142454285Y-57328571D01*
X142525714Y-57257142D01*
X142668571Y-57185714D01*
X143240000Y-57185714D01*
X141740000Y-57971428D02*
X141740000Y-56757142D01*
X141668571Y-56614285D01*
X141597142Y-56542857D01*
X141454285Y-56471428D01*
X141168571Y-56471428D01*
X141025714Y-56542857D01*
X140954285Y-56614285D01*
X140882857Y-56757142D01*
X140882857Y-57971428D01*
X139025714Y-56471428D02*
X139025714Y-57971428D01*
X138882857Y-57042857D02*
X138454285Y-56471428D01*
X138454285Y-57471428D02*
X139025714Y-56900000D01*
X136740000Y-58042857D02*
X138025714Y-56114285D01*
X136240000Y-56471428D02*
X136240000Y-57971428D01*
X136240000Y-57400000D02*
X136097142Y-57471428D01*
X135811428Y-57471428D01*
X135668571Y-57400000D01*
X135597142Y-57328571D01*
X135525714Y-57185714D01*
X135525714Y-56757142D01*
X135597142Y-56614285D01*
X135668571Y-56542857D01*
X135811428Y-56471428D01*
X136097142Y-56471428D01*
X136240000Y-56542857D01*
X133454285Y-57971428D02*
X133168571Y-57971428D01*
X133025714Y-57900000D01*
X132882857Y-57757142D01*
X132811428Y-57471428D01*
X132811428Y-56971428D01*
X132882857Y-56685714D01*
X133025714Y-56542857D01*
X133168571Y-56471428D01*
X133454285Y-56471428D01*
X133597142Y-56542857D01*
X133740000Y-56685714D01*
X133811428Y-56971428D01*
X133811428Y-57471428D01*
X133740000Y-57757142D01*
X133597142Y-57900000D01*
X133454285Y-57971428D01*
X131525714Y-57471428D02*
X131525714Y-56471428D01*
X132168571Y-57471428D02*
X132168571Y-56685714D01*
X132097142Y-56542857D01*
X131954285Y-56471428D01*
X131740000Y-56471428D01*
X131597142Y-56542857D01*
X131525714Y-56614285D01*
X131025714Y-57471428D02*
X130454285Y-57471428D01*
X130811428Y-57971428D02*
X130811428Y-56685714D01*
X130740000Y-56542857D01*
X130597142Y-56471428D01*
X130454285Y-56471428D01*
X131867142Y-79583333D02*
X132581428Y-79583333D01*
X131724285Y-80154761D02*
X132224285Y-78154761D01*
X132724285Y-80154761D01*
X133867142Y-80059523D02*
X133724285Y-80154761D01*
X133438571Y-80154761D01*
X133295714Y-80059523D01*
X133224285Y-79964285D01*
X133152857Y-79773809D01*
X133152857Y-79202380D01*
X133224285Y-79011904D01*
X133295714Y-78916666D01*
X133438571Y-78821428D01*
X133724285Y-78821428D01*
X133867142Y-78916666D01*
X134724285Y-80154761D02*
X134581428Y-80059523D01*
X134510000Y-79964285D01*
X134438571Y-79773809D01*
X134438571Y-79202380D01*
X134510000Y-79011904D01*
X134581428Y-78916666D01*
X134724285Y-78821428D01*
X134938571Y-78821428D01*
X135081428Y-78916666D01*
X135152857Y-79011904D01*
X135224285Y-79202380D01*
X135224285Y-79773809D01*
X135152857Y-79964285D01*
X135081428Y-80059523D01*
X134938571Y-80154761D01*
X134724285Y-80154761D01*
X135867142Y-80154761D02*
X135867142Y-78821428D01*
X135867142Y-79202380D02*
X135938571Y-79011904D01*
X136010000Y-78916666D01*
X136152857Y-78821428D01*
X136295714Y-78821428D01*
X136795714Y-78821428D02*
X136795714Y-80154761D01*
X136795714Y-79011904D02*
X136867142Y-78916666D01*
X137010000Y-78821428D01*
X137224285Y-78821428D01*
X137367142Y-78916666D01*
X137438571Y-79107142D01*
X137438571Y-80154761D01*
X139224285Y-80059523D02*
X139438571Y-80154761D01*
X139795714Y-80154761D01*
X139938571Y-80059523D01*
X140010000Y-79964285D01*
X140081428Y-79773809D01*
X140081428Y-79583333D01*
X140010000Y-79392857D01*
X139938571Y-79297619D01*
X139795714Y-79202380D01*
X139510000Y-79107142D01*
X139367142Y-79011904D01*
X139295714Y-78916666D01*
X139224285Y-78726190D01*
X139224285Y-78535714D01*
X139295714Y-78345238D01*
X139367142Y-78250000D01*
X139510000Y-78154761D01*
X139867142Y-78154761D01*
X140081428Y-78250000D01*
X140581428Y-78821428D02*
X140938571Y-80154761D01*
X141295714Y-78821428D02*
X140938571Y-80154761D01*
X140795714Y-80630952D01*
X140724285Y-80726190D01*
X140581428Y-80821428D01*
X141795714Y-80059523D02*
X141938571Y-80154761D01*
X142224285Y-80154761D01*
X142367142Y-80059523D01*
X142438571Y-79869047D01*
X142438571Y-79773809D01*
X142367142Y-79583333D01*
X142224285Y-79488095D01*
X142010000Y-79488095D01*
X141867142Y-79392857D01*
X141795714Y-79202380D01*
X141795714Y-79107142D01*
X141867142Y-78916666D01*
X142010000Y-78821428D01*
X142224285Y-78821428D01*
X142367142Y-78916666D01*
X142867142Y-78821428D02*
X143438571Y-78821428D01*
X143081428Y-78154761D02*
X143081428Y-79869047D01*
X143152857Y-80059523D01*
X143295714Y-80154761D01*
X143438571Y-80154761D01*
X144510000Y-80059523D02*
X144367142Y-80154761D01*
X144081428Y-80154761D01*
X143938571Y-80059523D01*
X143867142Y-79869047D01*
X143867142Y-79107142D01*
X143938571Y-78916666D01*
X144081428Y-78821428D01*
X144367142Y-78821428D01*
X144510000Y-78916666D01*
X144581428Y-79107142D01*
X144581428Y-79297619D01*
X143867142Y-79488095D01*
X145224285Y-80154761D02*
X145224285Y-78821428D01*
X145224285Y-79011904D02*
X145295714Y-78916666D01*
X145438571Y-78821428D01*
X145652857Y-78821428D01*
X145795714Y-78916666D01*
X145867142Y-79107142D01*
X145867142Y-80154761D01*
X145867142Y-79107142D02*
X145938571Y-78916666D01*
X146081428Y-78821428D01*
X146295714Y-78821428D01*
X146438571Y-78916666D01*
X146510000Y-79107142D01*
X146510000Y-80154761D01*
X148295714Y-78345238D02*
X148367142Y-78250000D01*
X148510000Y-78154761D01*
X148867142Y-78154761D01*
X149010000Y-78250000D01*
X149081428Y-78345238D01*
X149152857Y-78535714D01*
X149152857Y-78726190D01*
X149081428Y-79011904D01*
X148224285Y-80154761D01*
X149152857Y-80154761D01*
X150867142Y-78059523D02*
X149581428Y-80630952D01*
X151224285Y-78154761D02*
X152152857Y-78154761D01*
X151652857Y-78916666D01*
X151867142Y-78916666D01*
X152010000Y-79011904D01*
X152081428Y-79107142D01*
X152152857Y-79297619D01*
X152152857Y-79773809D01*
X152081428Y-79964285D01*
X152010000Y-80059523D01*
X151867142Y-80154761D01*
X151438571Y-80154761D01*
X151295714Y-80059523D01*
X151224285Y-79964285D01*
X153867142Y-78059523D02*
X152581428Y-80630952D01*
X155081428Y-78154761D02*
X154367142Y-78154761D01*
X154295714Y-79107142D01*
X154367142Y-79011904D01*
X154510000Y-78916666D01*
X154867142Y-78916666D01*
X155010000Y-79011904D01*
X155081428Y-79107142D01*
X155152857Y-79297619D01*
X155152857Y-79773809D01*
X155081428Y-79964285D01*
X155010000Y-80059523D01*
X154867142Y-80154761D01*
X154510000Y-80154761D01*
X154367142Y-80059523D01*
X154295714Y-79964285D01*
X128295714Y-82883333D02*
X129010000Y-82883333D01*
X128152857Y-83454761D02*
X128652857Y-81454761D01*
X129152857Y-83454761D01*
X129581428Y-83359523D02*
X129795714Y-83454761D01*
X130152857Y-83454761D01*
X130295714Y-83359523D01*
X130367142Y-83264285D01*
X130438571Y-83073809D01*
X130438571Y-82883333D01*
X130367142Y-82692857D01*
X130295714Y-82597619D01*
X130152857Y-82502380D01*
X129867142Y-82407142D01*
X129724285Y-82311904D01*
X129652857Y-82216666D01*
X129581428Y-82026190D01*
X129581428Y-81835714D01*
X129652857Y-81645238D01*
X129724285Y-81550000D01*
X129867142Y-81454761D01*
X130224285Y-81454761D01*
X130438571Y-81550000D01*
X131938571Y-83264285D02*
X131867142Y-83359523D01*
X131652857Y-83454761D01*
X131510000Y-83454761D01*
X131295714Y-83359523D01*
X131152857Y-83169047D01*
X131081428Y-82978571D01*
X131010000Y-82597619D01*
X131010000Y-82311904D01*
X131081428Y-81930952D01*
X131152857Y-81740476D01*
X131295714Y-81550000D01*
X131510000Y-81454761D01*
X131652857Y-81454761D01*
X131867142Y-81550000D01*
X131938571Y-81645238D01*
X132581428Y-83454761D02*
X132581428Y-81454761D01*
X133295714Y-83454761D02*
X133295714Y-81454761D01*
X134938571Y-82121428D02*
X135510000Y-82121428D01*
X135152857Y-81454761D02*
X135152857Y-83169047D01*
X135224285Y-83359523D01*
X135367142Y-83454761D01*
X135510000Y-83454761D01*
X136224285Y-83454761D02*
X136081428Y-83359523D01*
X136010000Y-83264285D01*
X135938571Y-83073809D01*
X135938571Y-82502380D01*
X136010000Y-82311904D01*
X136081428Y-82216666D01*
X136224285Y-82121428D01*
X136438571Y-82121428D01*
X136581428Y-82216666D01*
X136652857Y-82311904D01*
X136724285Y-82502380D01*
X136724285Y-83073809D01*
X136652857Y-83264285D01*
X136581428Y-83359523D01*
X136438571Y-83454761D01*
X136224285Y-83454761D01*
X138510000Y-83454761D02*
X138510000Y-81454761D01*
X138510000Y-82407142D02*
X139367142Y-82407142D01*
X139367142Y-83454761D02*
X139367142Y-81454761D01*
X140081428Y-83454761D02*
X140081428Y-81454761D01*
X140795714Y-83454761D02*
X140795714Y-81454761D01*
X141152857Y-81454761D01*
X141367142Y-81550000D01*
X141510000Y-81740476D01*
X141581428Y-81930952D01*
X141652857Y-82311904D01*
X141652857Y-82597619D01*
X141581428Y-82978571D01*
X141510000Y-83169047D01*
X141367142Y-83359523D01*
X141152857Y-83454761D01*
X140795714Y-83454761D01*
X143438571Y-81454761D02*
X143438571Y-83073809D01*
X143510000Y-83264285D01*
X143581428Y-83359523D01*
X143724285Y-83454761D01*
X144010000Y-83454761D01*
X144152857Y-83359523D01*
X144224285Y-83264285D01*
X144295714Y-83073809D01*
X144295714Y-81454761D01*
X144938571Y-83359523D02*
X145152857Y-83454761D01*
X145510000Y-83454761D01*
X145652857Y-83359523D01*
X145724285Y-83264285D01*
X145795714Y-83073809D01*
X145795714Y-82883333D01*
X145724285Y-82692857D01*
X145652857Y-82597619D01*
X145510000Y-82502380D01*
X145224285Y-82407142D01*
X145081428Y-82311904D01*
X145010000Y-82216666D01*
X144938571Y-82026190D01*
X144938571Y-81835714D01*
X145010000Y-81645238D01*
X145081428Y-81550000D01*
X145224285Y-81454761D01*
X145581428Y-81454761D01*
X145795714Y-81550000D01*
X146938571Y-82407142D02*
X147152857Y-82502380D01*
X147224285Y-82597619D01*
X147295714Y-82788095D01*
X147295714Y-83073809D01*
X147224285Y-83264285D01*
X147152857Y-83359523D01*
X147010000Y-83454761D01*
X146438571Y-83454761D01*
X146438571Y-81454761D01*
X146938571Y-81454761D01*
X147081428Y-81550000D01*
X147152857Y-81645238D01*
X147224285Y-81835714D01*
X147224285Y-82026190D01*
X147152857Y-82216666D01*
X147081428Y-82311904D01*
X146938571Y-82407142D01*
X146438571Y-82407142D01*
X149081428Y-83454761D02*
X149081428Y-81454761D01*
X149938571Y-83454761D02*
X149295714Y-82311904D01*
X149938571Y-81454761D02*
X149081428Y-82597619D01*
X151152857Y-83359523D02*
X151010000Y-83454761D01*
X150724285Y-83454761D01*
X150581428Y-83359523D01*
X150510000Y-83169047D01*
X150510000Y-82407142D01*
X150581428Y-82216666D01*
X150724285Y-82121428D01*
X151010000Y-82121428D01*
X151152857Y-82216666D01*
X151224285Y-82407142D01*
X151224285Y-82597619D01*
X150510000Y-82788095D01*
X151724285Y-82121428D02*
X152081428Y-83454761D01*
X152438571Y-82121428D02*
X152081428Y-83454761D01*
X151938571Y-83930952D01*
X151867142Y-84026190D01*
X151724285Y-84121428D01*
X153010000Y-83454761D02*
X153010000Y-81454761D01*
X153010000Y-82216666D02*
X153152857Y-82121428D01*
X153438571Y-82121428D01*
X153581428Y-82216666D01*
X153652857Y-82311904D01*
X153724285Y-82502380D01*
X153724285Y-83073809D01*
X153652857Y-83264285D01*
X153581428Y-83359523D01*
X153438571Y-83454761D01*
X153152857Y-83454761D01*
X153010000Y-83359523D01*
X154581428Y-83454761D02*
X154438571Y-83359523D01*
X154367142Y-83264285D01*
X154295714Y-83073809D01*
X154295714Y-82502380D01*
X154367142Y-82311904D01*
X154438571Y-82216666D01*
X154581428Y-82121428D01*
X154795714Y-82121428D01*
X154938571Y-82216666D01*
X155010000Y-82311904D01*
X155081428Y-82502380D01*
X155081428Y-83073809D01*
X155010000Y-83264285D01*
X154938571Y-83359523D01*
X154795714Y-83454761D01*
X154581428Y-83454761D01*
X156367142Y-83454761D02*
X156367142Y-82407142D01*
X156295714Y-82216666D01*
X156152857Y-82121428D01*
X155867142Y-82121428D01*
X155724285Y-82216666D01*
X156367142Y-83359523D02*
X156224285Y-83454761D01*
X155867142Y-83454761D01*
X155724285Y-83359523D01*
X155652857Y-83169047D01*
X155652857Y-82978571D01*
X155724285Y-82788095D01*
X155867142Y-82692857D01*
X156224285Y-82692857D01*
X156367142Y-82597619D01*
X157081428Y-83454761D02*
X157081428Y-82121428D01*
X157081428Y-82502380D02*
X157152857Y-82311904D01*
X157224285Y-82216666D01*
X157367142Y-82121428D01*
X157510000Y-82121428D01*
X158652857Y-83454761D02*
X158652857Y-81454761D01*
X158652857Y-83359523D02*
X158510000Y-83454761D01*
X158224285Y-83454761D01*
X158081428Y-83359523D01*
X158010000Y-83264285D01*
X157938571Y-83073809D01*
X157938571Y-82502380D01*
X158010000Y-82311904D01*
X158081428Y-82216666D01*
X158224285Y-82121428D01*
X158510000Y-82121428D01*
X158652857Y-82216666D01*
X138902857Y-86754761D02*
X138902857Y-84754761D01*
X139617142Y-85421428D02*
X139617142Y-86754761D01*
X139617142Y-85611904D02*
X139688571Y-85516666D01*
X139831428Y-85421428D01*
X140045714Y-85421428D01*
X140188571Y-85516666D01*
X140260000Y-85707142D01*
X140260000Y-86754761D01*
X140760000Y-85421428D02*
X141331428Y-85421428D01*
X140974285Y-84754761D02*
X140974285Y-86469047D01*
X141045714Y-86659523D01*
X141188571Y-86754761D01*
X141331428Y-86754761D01*
X142402857Y-86659523D02*
X142260000Y-86754761D01*
X141974285Y-86754761D01*
X141831428Y-86659523D01*
X141760000Y-86469047D01*
X141760000Y-85707142D01*
X141831428Y-85516666D01*
X141974285Y-85421428D01*
X142260000Y-85421428D01*
X142402857Y-85516666D01*
X142474285Y-85707142D01*
X142474285Y-85897619D01*
X141760000Y-86088095D01*
X143117142Y-86754761D02*
X143117142Y-85421428D01*
X143117142Y-85802380D02*
X143188571Y-85611904D01*
X143260000Y-85516666D01*
X143402857Y-85421428D01*
X143545714Y-85421428D01*
X143831428Y-85421428D02*
X144402857Y-85421428D01*
X144045714Y-86754761D02*
X144045714Y-85040476D01*
X144117142Y-84850000D01*
X144260000Y-84754761D01*
X144402857Y-84754761D01*
X145545714Y-86754761D02*
X145545714Y-85707142D01*
X145474285Y-85516666D01*
X145331428Y-85421428D01*
X145045714Y-85421428D01*
X144902857Y-85516666D01*
X145545714Y-86659523D02*
X145402857Y-86754761D01*
X145045714Y-86754761D01*
X144902857Y-86659523D01*
X144831428Y-86469047D01*
X144831428Y-86278571D01*
X144902857Y-86088095D01*
X145045714Y-85992857D01*
X145402857Y-85992857D01*
X145545714Y-85897619D01*
X146902857Y-86659523D02*
X146760000Y-86754761D01*
X146474285Y-86754761D01*
X146331428Y-86659523D01*
X146260000Y-86564285D01*
X146188571Y-86373809D01*
X146188571Y-85802380D01*
X146260000Y-85611904D01*
X146331428Y-85516666D01*
X146474285Y-85421428D01*
X146760000Y-85421428D01*
X146902857Y-85516666D01*
X148117142Y-86659523D02*
X147974285Y-86754761D01*
X147688571Y-86754761D01*
X147545714Y-86659523D01*
X147474285Y-86469047D01*
X147474285Y-85707142D01*
X147545714Y-85516666D01*
X147688571Y-85421428D01*
X147974285Y-85421428D01*
X148117142Y-85516666D01*
X148188571Y-85707142D01*
X148188571Y-85897619D01*
X147474285Y-86088095D01*
D10*
G04 #@! TO.C,U1*
G36*
X102870000Y-79577001D02*
X102870000Y-83387001D01*
X102616000Y-83260001D01*
X102616000Y-79577001D01*
X102870000Y-79577001D01*
G37*
X102870000Y-79577001D02*
X102870000Y-83387001D01*
X102616000Y-83260001D01*
X102616000Y-79577001D01*
X102870000Y-79577001D01*
G36*
X104013000Y-81990001D02*
X104013000Y-82625001D01*
X103759000Y-82625001D01*
X103759000Y-82244001D01*
X103632000Y-82244001D01*
X103632000Y-82625001D01*
X103378000Y-82625001D01*
X103378000Y-82244001D01*
X103251000Y-82244001D01*
X103251000Y-82625001D01*
X102997000Y-82625001D01*
X102997000Y-81990001D01*
X104013000Y-81990001D01*
G37*
X104013000Y-81990001D02*
X104013000Y-82625001D01*
X103759000Y-82625001D01*
X103759000Y-82244001D01*
X103632000Y-82244001D01*
X103632000Y-82625001D01*
X103378000Y-82625001D01*
X103378000Y-82244001D01*
X103251000Y-82244001D01*
X103251000Y-82625001D01*
X102997000Y-82625001D01*
X102997000Y-81990001D01*
X104013000Y-81990001D01*
G36*
X104013000Y-82752001D02*
X102997000Y-82752001D01*
X102997000Y-83387001D01*
X103251000Y-83514001D01*
X103251000Y-83006001D01*
X104013000Y-83006001D01*
X104013000Y-82752001D01*
G37*
X104013000Y-82752001D02*
X102997000Y-82752001D01*
X102997000Y-83387001D01*
X103251000Y-83514001D01*
X103251000Y-83006001D01*
X104013000Y-83006001D01*
X104013000Y-82752001D01*
G36*
X104140000Y-83006001D02*
X104140000Y-80720001D01*
X102997000Y-80720001D01*
X102997000Y-80466001D01*
X104140000Y-80466001D01*
X104140000Y-79958001D01*
X104394000Y-80085001D01*
X104394000Y-83006001D01*
X104140000Y-83006001D01*
G37*
X104140000Y-83006001D02*
X104140000Y-80720001D01*
X102997000Y-80720001D01*
X102997000Y-80466001D01*
X104140000Y-80466001D01*
X104140000Y-79958001D01*
X104394000Y-80085001D01*
X104394000Y-83006001D01*
X104140000Y-83006001D01*
G36*
X102997000Y-81863001D02*
X104013000Y-81863001D01*
X104013000Y-80847001D01*
X102997000Y-80847001D01*
X102997000Y-81101001D01*
X103759000Y-81101001D01*
X103759000Y-81228001D01*
X102997000Y-81228001D01*
X102997000Y-81482001D01*
X103759000Y-81482001D01*
X103759000Y-81609001D01*
X102997000Y-81609001D01*
X102997000Y-81863001D01*
G37*
X102997000Y-81863001D02*
X104013000Y-81863001D01*
X104013000Y-80847001D01*
X102997000Y-80847001D01*
X102997000Y-81101001D01*
X103759000Y-81101001D01*
X103759000Y-81228001D01*
X102997000Y-81228001D01*
X102997000Y-81482001D01*
X103759000Y-81482001D01*
X103759000Y-81609001D01*
X102997000Y-81609001D01*
X102997000Y-81863001D01*
G36*
X102997000Y-80339001D02*
X104013000Y-80339001D01*
X104013000Y-79958001D01*
X102997000Y-79577001D01*
X102997000Y-79831001D01*
X103759000Y-80085001D01*
X102997000Y-80085001D01*
X102997000Y-80339001D01*
G37*
X102997000Y-80339001D02*
X104013000Y-80339001D01*
X104013000Y-79958001D01*
X102997000Y-79577001D01*
X102997000Y-79831001D01*
X103759000Y-80085001D01*
X102997000Y-80085001D01*
X102997000Y-80339001D01*
D14*
X92710000Y-55955001D02*
X110490000Y-55955001D01*
X92710000Y-106755001D02*
X92710000Y-55955001D01*
X110490000Y-106755001D02*
X92710000Y-106755001D01*
X110490000Y-55955001D02*
X110490000Y-106755001D01*
X101600000Y-87705001D02*
X95250000Y-81355001D01*
X107950000Y-81355001D02*
X101600000Y-87705001D01*
X101600000Y-75005001D02*
X107950000Y-81355001D01*
X95250000Y-81355001D02*
X101600000Y-75005001D01*
X104140000Y-104215001D02*
X99060000Y-104215001D01*
X104140000Y-100405001D02*
X104140000Y-104215001D01*
X99060000Y-100405001D02*
X104140000Y-100405001D01*
X99060000Y-104215001D02*
X99060000Y-100405001D01*
X99060000Y-67385001D02*
X96520000Y-67385001D01*
X99060000Y-71195001D02*
X99060000Y-67385001D01*
X97790000Y-71195001D02*
X99060000Y-71195001D01*
X96520000Y-71195001D02*
X97790000Y-71195001D01*
X96520000Y-67385001D02*
X96520000Y-71195001D01*
X97790000Y-63575001D02*
X97790000Y-54685001D01*
X105410000Y-63575001D02*
X105410000Y-54685001D01*
X105410000Y-54685001D02*
X97790000Y-54685001D01*
X97790000Y-63575001D02*
X105410000Y-63575001D01*
D15*
G04 #@! TO.C,J2*
X131064000Y-68580000D02*
X130810000Y-68072000D01*
X130556000Y-68580000D02*
X131064000Y-68580000D01*
X130810000Y-68072000D02*
X130556000Y-68580000D01*
X163960000Y-67440000D02*
X163960000Y-60290000D01*
X163960000Y-60290000D02*
X160760000Y-50040000D01*
X160760000Y-50040000D02*
X156760000Y-50040000D01*
X156760000Y-50040000D02*
X154860000Y-54490000D01*
X154860000Y-54490000D02*
X129760000Y-54490000D01*
X129760000Y-54490000D02*
X127710000Y-50040000D01*
X127710000Y-50040000D02*
X123760000Y-50040000D01*
X123760000Y-50040000D02*
X120510000Y-60290000D01*
X120510000Y-60290000D02*
X120510000Y-67440000D01*
X163950000Y-67430000D02*
X120530000Y-67430000D01*
G04 #@! TO.C,J1*
X167700000Y-97960000D02*
X116780000Y-97960000D01*
X116780000Y-97960000D02*
X116780000Y-100620000D01*
X116780000Y-100620000D02*
X167700000Y-100620000D01*
X167700000Y-100620000D02*
X167700000Y-97960000D01*
X166750000Y-100620000D02*
X166750000Y-106620000D01*
X166750000Y-106620000D02*
X165990000Y-106620000D01*
X165990000Y-106620000D02*
X165990000Y-100620000D01*
X166690000Y-100620000D02*
X166690000Y-106620000D01*
X166570000Y-100620000D02*
X166570000Y-106620000D01*
X166450000Y-100620000D02*
X166450000Y-106620000D01*
X166330000Y-100620000D02*
X166330000Y-106620000D01*
X166210000Y-100620000D02*
X166210000Y-106620000D01*
X166090000Y-100620000D02*
X166090000Y-106620000D01*
X166750000Y-97630000D02*
X166750000Y-97960000D01*
X165990000Y-97630000D02*
X165990000Y-97960000D01*
X165100000Y-97960000D02*
X165100000Y-100620000D01*
X164210000Y-100620000D02*
X164210000Y-106620000D01*
X164210000Y-106620000D02*
X163450000Y-106620000D01*
X163450000Y-106620000D02*
X163450000Y-100620000D01*
X164210000Y-97562929D02*
X164210000Y-97960000D01*
X163450000Y-97562929D02*
X163450000Y-97960000D01*
X162560000Y-97960000D02*
X162560000Y-100620000D01*
X161670000Y-100620000D02*
X161670000Y-106620000D01*
X161670000Y-106620000D02*
X160910000Y-106620000D01*
X160910000Y-106620000D02*
X160910000Y-100620000D01*
X161670000Y-97562929D02*
X161670000Y-97960000D01*
X160910000Y-97562929D02*
X160910000Y-97960000D01*
X160020000Y-97960000D02*
X160020000Y-100620000D01*
X159130000Y-100620000D02*
X159130000Y-106620000D01*
X159130000Y-106620000D02*
X158370000Y-106620000D01*
X158370000Y-106620000D02*
X158370000Y-100620000D01*
X159130000Y-97562929D02*
X159130000Y-97960000D01*
X158370000Y-97562929D02*
X158370000Y-97960000D01*
X157480000Y-97960000D02*
X157480000Y-100620000D01*
X156590000Y-100620000D02*
X156590000Y-106620000D01*
X156590000Y-106620000D02*
X155830000Y-106620000D01*
X155830000Y-106620000D02*
X155830000Y-100620000D01*
X156590000Y-97562929D02*
X156590000Y-97960000D01*
X155830000Y-97562929D02*
X155830000Y-97960000D01*
X154940000Y-97960000D02*
X154940000Y-100620000D01*
X154050000Y-100620000D02*
X154050000Y-106620000D01*
X154050000Y-106620000D02*
X153290000Y-106620000D01*
X153290000Y-106620000D02*
X153290000Y-100620000D01*
X154050000Y-97562929D02*
X154050000Y-97960000D01*
X153290000Y-97562929D02*
X153290000Y-97960000D01*
X152400000Y-97960000D02*
X152400000Y-100620000D01*
X151510000Y-100620000D02*
X151510000Y-106620000D01*
X151510000Y-106620000D02*
X150750000Y-106620000D01*
X150750000Y-106620000D02*
X150750000Y-100620000D01*
X151510000Y-97562929D02*
X151510000Y-97960000D01*
X150750000Y-97562929D02*
X150750000Y-97960000D01*
X149860000Y-97960000D02*
X149860000Y-100620000D01*
X148970000Y-100620000D02*
X148970000Y-106620000D01*
X148970000Y-106620000D02*
X148210000Y-106620000D01*
X148210000Y-106620000D02*
X148210000Y-100620000D01*
X148970000Y-97562929D02*
X148970000Y-97960000D01*
X148210000Y-97562929D02*
X148210000Y-97960000D01*
X147320000Y-97960000D02*
X147320000Y-100620000D01*
X146430000Y-100620000D02*
X146430000Y-106620000D01*
X146430000Y-106620000D02*
X145670000Y-106620000D01*
X145670000Y-106620000D02*
X145670000Y-100620000D01*
X146430000Y-97562929D02*
X146430000Y-97960000D01*
X145670000Y-97562929D02*
X145670000Y-97960000D01*
X144780000Y-97960000D02*
X144780000Y-100620000D01*
X143890000Y-100620000D02*
X143890000Y-106620000D01*
X143890000Y-106620000D02*
X143130000Y-106620000D01*
X143130000Y-106620000D02*
X143130000Y-100620000D01*
X143890000Y-97562929D02*
X143890000Y-97960000D01*
X143130000Y-97562929D02*
X143130000Y-97960000D01*
X142240000Y-97960000D02*
X142240000Y-100620000D01*
X141350000Y-100620000D02*
X141350000Y-106620000D01*
X141350000Y-106620000D02*
X140590000Y-106620000D01*
X140590000Y-106620000D02*
X140590000Y-100620000D01*
X141350000Y-97562929D02*
X141350000Y-97960000D01*
X140590000Y-97562929D02*
X140590000Y-97960000D01*
X139700000Y-97960000D02*
X139700000Y-100620000D01*
X138810000Y-100620000D02*
X138810000Y-106620000D01*
X138810000Y-106620000D02*
X138050000Y-106620000D01*
X138050000Y-106620000D02*
X138050000Y-100620000D01*
X138810000Y-97562929D02*
X138810000Y-97960000D01*
X138050000Y-97562929D02*
X138050000Y-97960000D01*
X137160000Y-97960000D02*
X137160000Y-100620000D01*
X136270000Y-100620000D02*
X136270000Y-106620000D01*
X136270000Y-106620000D02*
X135510000Y-106620000D01*
X135510000Y-106620000D02*
X135510000Y-100620000D01*
X136270000Y-97562929D02*
X136270000Y-97960000D01*
X135510000Y-97562929D02*
X135510000Y-97960000D01*
X134620000Y-97960000D02*
X134620000Y-100620000D01*
X133730000Y-100620000D02*
X133730000Y-106620000D01*
X133730000Y-106620000D02*
X132970000Y-106620000D01*
X132970000Y-106620000D02*
X132970000Y-100620000D01*
X133730000Y-97562929D02*
X133730000Y-97960000D01*
X132970000Y-97562929D02*
X132970000Y-97960000D01*
X132080000Y-97960000D02*
X132080000Y-100620000D01*
X131190000Y-100620000D02*
X131190000Y-106620000D01*
X131190000Y-106620000D02*
X130430000Y-106620000D01*
X130430000Y-106620000D02*
X130430000Y-100620000D01*
X131190000Y-97562929D02*
X131190000Y-97960000D01*
X130430000Y-97562929D02*
X130430000Y-97960000D01*
X129540000Y-97960000D02*
X129540000Y-100620000D01*
X128650000Y-100620000D02*
X128650000Y-106620000D01*
X128650000Y-106620000D02*
X127890000Y-106620000D01*
X127890000Y-106620000D02*
X127890000Y-100620000D01*
X128650000Y-97562929D02*
X128650000Y-97960000D01*
X127890000Y-97562929D02*
X127890000Y-97960000D01*
X127000000Y-97960000D02*
X127000000Y-100620000D01*
X126110000Y-100620000D02*
X126110000Y-106620000D01*
X126110000Y-106620000D02*
X125350000Y-106620000D01*
X125350000Y-106620000D02*
X125350000Y-100620000D01*
X126110000Y-97562929D02*
X126110000Y-97960000D01*
X125350000Y-97562929D02*
X125350000Y-97960000D01*
X124460000Y-97960000D02*
X124460000Y-100620000D01*
X123570000Y-100620000D02*
X123570000Y-106620000D01*
X123570000Y-106620000D02*
X122810000Y-106620000D01*
X122810000Y-106620000D02*
X122810000Y-100620000D01*
X123570000Y-97562929D02*
X123570000Y-97960000D01*
X122810000Y-97562929D02*
X122810000Y-97960000D01*
X121920000Y-97960000D02*
X121920000Y-100620000D01*
X121030000Y-100620000D02*
X121030000Y-106620000D01*
X121030000Y-106620000D02*
X120270000Y-106620000D01*
X120270000Y-106620000D02*
X120270000Y-100620000D01*
X121030000Y-97562929D02*
X121030000Y-97960000D01*
X120270000Y-97562929D02*
X120270000Y-97960000D01*
X119380000Y-97960000D02*
X119380000Y-100620000D01*
X118490000Y-100620000D02*
X118490000Y-106620000D01*
X118490000Y-106620000D02*
X117730000Y-106620000D01*
X117730000Y-106620000D02*
X117730000Y-100620000D01*
X118490000Y-97562929D02*
X118490000Y-97960000D01*
X117730000Y-97562929D02*
X117730000Y-97960000D01*
X166370000Y-95250000D02*
X167640000Y-95250000D01*
X167640000Y-95250000D02*
X167640000Y-96520000D01*
G04 #@! TO.C,D1*
X104320000Y-110690000D02*
X104320000Y-107750000D01*
X104320000Y-107750000D02*
X98880000Y-107750000D01*
X98880000Y-107750000D02*
X98880000Y-110690000D01*
X98880000Y-110690000D02*
X104320000Y-110690000D01*
X105340000Y-109220000D02*
X104320000Y-109220000D01*
X97860000Y-109220000D02*
X98880000Y-109220000D01*
X103420000Y-110690000D02*
X103420000Y-107750000D01*
X103300000Y-110690000D02*
X103300000Y-107750000D01*
X103540000Y-110690000D02*
X103540000Y-107750000D01*
G04 #@! TO.C,J3*
X88840000Y-73720000D02*
X91500000Y-73720000D01*
X88840000Y-73660000D02*
X88840000Y-73720000D01*
X91500000Y-73660000D02*
X91500000Y-73720000D01*
X88840000Y-73660000D02*
X91500000Y-73660000D01*
X88840000Y-72390000D02*
X88840000Y-71060000D01*
X88840000Y-71060000D02*
X90170000Y-71060000D01*
G04 #@! TO.C,J4*
X88840000Y-74870000D02*
X90170000Y-74870000D01*
X88840000Y-76200000D02*
X88840000Y-74870000D01*
X88840000Y-77470000D02*
X91500000Y-77470000D01*
X91500000Y-77470000D02*
X91500000Y-77530000D01*
X88840000Y-77470000D02*
X88840000Y-77530000D01*
X88840000Y-77530000D02*
X91500000Y-77530000D01*
G04 #@! TO.C,J5*
X88840000Y-81340000D02*
X91500000Y-81340000D01*
X88840000Y-81280000D02*
X88840000Y-81340000D01*
X91500000Y-81280000D02*
X91500000Y-81340000D01*
X88840000Y-81280000D02*
X91500000Y-81280000D01*
X88840000Y-80010000D02*
X88840000Y-78680000D01*
X88840000Y-78680000D02*
X90170000Y-78680000D01*
G04 #@! TO.C,J6*
X88840000Y-106740000D02*
X91500000Y-106740000D01*
X88840000Y-88900000D02*
X88840000Y-106740000D01*
X91500000Y-88900000D02*
X91500000Y-106740000D01*
X88840000Y-88900000D02*
X91500000Y-88900000D01*
X88840000Y-87630000D02*
X88840000Y-86300000D01*
X88840000Y-86300000D02*
X90170000Y-86300000D01*
G04 #@! TO.C,U1*
D14*
X100773666Y-84205001D02*
X100773666Y-84071667D01*
X100740333Y-84005001D01*
X100707000Y-83971667D01*
X100607000Y-83905001D01*
X100473666Y-83871667D01*
X100207000Y-83871667D01*
X100140333Y-83905001D01*
X100107000Y-83938334D01*
X100073666Y-84005001D01*
X100073666Y-84138334D01*
X100107000Y-84205001D01*
X100140333Y-84238334D01*
X100207000Y-84271667D01*
X100373666Y-84271667D01*
X100440333Y-84238334D01*
X100473666Y-84205001D01*
X100507000Y-84138334D01*
X100507000Y-84005001D01*
X100473666Y-83938334D01*
X100440333Y-83905001D01*
X100373666Y-83871667D01*
X100073666Y-83438334D02*
X100073666Y-83371667D01*
X100107000Y-83305001D01*
X100140333Y-83271667D01*
X100207000Y-83238334D01*
X100340333Y-83205001D01*
X100507000Y-83205001D01*
X100640333Y-83238334D01*
X100707000Y-83271667D01*
X100740333Y-83305001D01*
X100773666Y-83371667D01*
X100773666Y-83438334D01*
X100740333Y-83505001D01*
X100707000Y-83538334D01*
X100640333Y-83571667D01*
X100507000Y-83605001D01*
X100340333Y-83605001D01*
X100207000Y-83571667D01*
X100140333Y-83538334D01*
X100107000Y-83505001D01*
X100073666Y-83438334D01*
X100073666Y-82905001D02*
X100640333Y-82905001D01*
X100707000Y-82871667D01*
X100740333Y-82838334D01*
X100773666Y-82771667D01*
X100773666Y-82638334D01*
X100740333Y-82571667D01*
X100707000Y-82538334D01*
X100640333Y-82505001D01*
X100073666Y-82505001D01*
X100740333Y-82205001D02*
X100773666Y-82105001D01*
X100773666Y-81938334D01*
X100740333Y-81871667D01*
X100707000Y-81838334D01*
X100640333Y-81805001D01*
X100573666Y-81805001D01*
X100507000Y-81838334D01*
X100473666Y-81871667D01*
X100440333Y-81938334D01*
X100407000Y-82071667D01*
X100373666Y-82138334D01*
X100340333Y-82171667D01*
X100273666Y-82205001D01*
X100207000Y-82205001D01*
X100140333Y-82171667D01*
X100107000Y-82138334D01*
X100073666Y-82071667D01*
X100073666Y-81905001D01*
X100107000Y-81805001D01*
X100407000Y-81271667D02*
X100440333Y-81171667D01*
X100473666Y-81138334D01*
X100540333Y-81105001D01*
X100640333Y-81105001D01*
X100707000Y-81138334D01*
X100740333Y-81171667D01*
X100773666Y-81238334D01*
X100773666Y-81505001D01*
X100073666Y-81505001D01*
X100073666Y-81271667D01*
X100107000Y-81205001D01*
X100140333Y-81171667D01*
X100207000Y-81138334D01*
X100273666Y-81138334D01*
X100340333Y-81171667D01*
X100373666Y-81205001D01*
X100407000Y-81271667D01*
X100407000Y-81505001D01*
X100773666Y-80438334D02*
X100773666Y-80838334D01*
X100773666Y-80638334D02*
X100073666Y-80638334D01*
X100173666Y-80705001D01*
X100240333Y-80771667D01*
X100273666Y-80838334D01*
X100140333Y-80171667D02*
X100107000Y-80138334D01*
X100073666Y-80071667D01*
X100073666Y-79905001D01*
X100107000Y-79838334D01*
X100140333Y-79805001D01*
X100207000Y-79771667D01*
X100273666Y-79771667D01*
X100373666Y-79805001D01*
X100773666Y-80205001D01*
X100773666Y-79771667D01*
X100373666Y-79371667D02*
X100340333Y-79438334D01*
X100307000Y-79471667D01*
X100240333Y-79505001D01*
X100207000Y-79505001D01*
X100140333Y-79471667D01*
X100107000Y-79438334D01*
X100073666Y-79371667D01*
X100073666Y-79238334D01*
X100107000Y-79171667D01*
X100140333Y-79138334D01*
X100207000Y-79105001D01*
X100240333Y-79105001D01*
X100307000Y-79138334D01*
X100340333Y-79171667D01*
X100373666Y-79238334D01*
X100373666Y-79371667D01*
X100407000Y-79438334D01*
X100440333Y-79471667D01*
X100507000Y-79505001D01*
X100640333Y-79505001D01*
X100707000Y-79471667D01*
X100740333Y-79438334D01*
X100773666Y-79371667D01*
X100773666Y-79238334D01*
X100740333Y-79171667D01*
X100707000Y-79138334D01*
X100640333Y-79105001D01*
X100507000Y-79105001D01*
X100440333Y-79138334D01*
X100407000Y-79171667D01*
X100373666Y-79238334D01*
X100073666Y-78505001D02*
X100073666Y-78638334D01*
X100107000Y-78705001D01*
X100140333Y-78738334D01*
X100240333Y-78805001D01*
X100373666Y-78838334D01*
X100640333Y-78838334D01*
X100707000Y-78805001D01*
X100740333Y-78771667D01*
X100773666Y-78705001D01*
X100773666Y-78571667D01*
X100740333Y-78505001D01*
X100707000Y-78471667D01*
X100640333Y-78438334D01*
X100473666Y-78438334D01*
X100407000Y-78471667D01*
X100373666Y-78505001D01*
X100340333Y-78571667D01*
X100340333Y-78705001D01*
X100373666Y-78771667D01*
X100407000Y-78805001D01*
X100473666Y-78838334D01*
G04 #@! TO.C,D1*
X100861904Y-109672380D02*
X100861904Y-108672380D01*
X101100000Y-108672380D01*
X101242857Y-108720000D01*
X101338095Y-108815238D01*
X101385714Y-108910476D01*
X101433333Y-109100952D01*
X101433333Y-109243809D01*
X101385714Y-109434285D01*
X101338095Y-109529523D01*
X101242857Y-109624761D01*
X101100000Y-109672380D01*
X100861904Y-109672380D01*
X102385714Y-109672380D02*
X101814285Y-109672380D01*
X102100000Y-109672380D02*
X102100000Y-108672380D01*
X102004761Y-108815238D01*
X101909523Y-108910476D01*
X101814285Y-108958095D01*
G04 #@! TD*
M02*
