G04 #@! TF.GenerationSoftware,KiCad,Pcbnew,(5.0.1-3-g963ef8bb5)*
G04 #@! TF.CreationDate,2020-01-16T13:34:53+00:00*
G04 #@! TF.ProjectId,SystemKeyboard,53797374656D4B6579626F6172642E6B,rev?*
G04 #@! TF.SameCoordinates,Original*
G04 #@! TF.FileFunction,Legend,Bot*
G04 #@! TF.FilePolarity,Positive*
%FSLAX46Y46*%
G04 Gerber Fmt 4.6, Leading zero omitted, Abs format (unit mm)*
G04 Created by KiCad (PCBNEW (5.0.1-3-g963ef8bb5)) date Thursday, 16 January 2020 at 13:34:53*
%MOMM*%
%LPD*%
G01*
G04 APERTURE LIST*
%ADD10C,0.100000*%
G04 APERTURE END LIST*
D10*
X89281146Y-86975258D02*
X89328765Y-86927639D01*
X89376384Y-86784782D01*
X89376384Y-86689544D01*
X89328765Y-86546686D01*
X89233527Y-86451448D01*
X89138289Y-86403829D01*
X88947813Y-86356210D01*
X88804956Y-86356210D01*
X88614480Y-86403829D01*
X88519242Y-86451448D01*
X88424004Y-86546686D01*
X88376384Y-86689544D01*
X88376384Y-86784782D01*
X88424004Y-86927639D01*
X88471623Y-86975258D01*
X88376384Y-87594305D02*
X88376384Y-87689544D01*
X88424004Y-87784782D01*
X88471623Y-87832401D01*
X88566861Y-87880020D01*
X88757337Y-87927639D01*
X88995432Y-87927639D01*
X89185908Y-87880020D01*
X89281146Y-87832401D01*
X89328765Y-87784782D01*
X89376384Y-87689544D01*
X89376384Y-87594305D01*
X89328765Y-87499067D01*
X89281146Y-87451448D01*
X89185908Y-87403829D01*
X88995432Y-87356210D01*
X88757337Y-87356210D01*
X88566861Y-87403829D01*
X88471623Y-87451448D01*
X88424004Y-87499067D01*
X88376384Y-87594305D01*
X89257142Y-90003333D02*
X89304761Y-89955714D01*
X89352380Y-89812857D01*
X89352380Y-89717619D01*
X89304761Y-89574761D01*
X89209523Y-89479523D01*
X89114285Y-89431904D01*
X88923809Y-89384285D01*
X88780952Y-89384285D01*
X88590476Y-89431904D01*
X88495238Y-89479523D01*
X88400000Y-89574761D01*
X88352380Y-89717619D01*
X88352380Y-89812857D01*
X88400000Y-89955714D01*
X88447619Y-90003333D01*
X89352380Y-90955714D02*
X89352380Y-90384285D01*
X89352380Y-90670000D02*
X88352380Y-90670000D01*
X88495238Y-90574761D01*
X88590476Y-90479523D01*
X88638095Y-90384285D01*
X89257142Y-92543333D02*
X89304761Y-92495714D01*
X89352380Y-92352857D01*
X89352380Y-92257619D01*
X89304761Y-92114761D01*
X89209523Y-92019523D01*
X89114285Y-91971904D01*
X88923809Y-91924285D01*
X88780952Y-91924285D01*
X88590476Y-91971904D01*
X88495238Y-92019523D01*
X88400000Y-92114761D01*
X88352380Y-92257619D01*
X88352380Y-92352857D01*
X88400000Y-92495714D01*
X88447619Y-92543333D01*
X88447619Y-92924285D02*
X88400000Y-92971904D01*
X88352380Y-93067142D01*
X88352380Y-93305238D01*
X88400000Y-93400476D01*
X88447619Y-93448095D01*
X88542857Y-93495714D01*
X88638095Y-93495714D01*
X88780952Y-93448095D01*
X89352380Y-92876666D01*
X89352380Y-93495714D01*
X89257142Y-95083333D02*
X89304761Y-95035714D01*
X89352380Y-94892857D01*
X89352380Y-94797619D01*
X89304761Y-94654761D01*
X89209523Y-94559523D01*
X89114285Y-94511904D01*
X88923809Y-94464285D01*
X88780952Y-94464285D01*
X88590476Y-94511904D01*
X88495238Y-94559523D01*
X88400000Y-94654761D01*
X88352380Y-94797619D01*
X88352380Y-94892857D01*
X88400000Y-95035714D01*
X88447619Y-95083333D01*
X88352380Y-95416666D02*
X88352380Y-96035714D01*
X88733333Y-95702380D01*
X88733333Y-95845238D01*
X88780952Y-95940476D01*
X88828571Y-95988095D01*
X88923809Y-96035714D01*
X89161904Y-96035714D01*
X89257142Y-95988095D01*
X89304761Y-95940476D01*
X89352380Y-95845238D01*
X89352380Y-95559523D01*
X89304761Y-95464285D01*
X89257142Y-95416666D01*
X89257142Y-97623333D02*
X89304761Y-97575714D01*
X89352380Y-97432857D01*
X89352380Y-97337619D01*
X89304761Y-97194761D01*
X89209523Y-97099523D01*
X89114285Y-97051904D01*
X88923809Y-97004285D01*
X88780952Y-97004285D01*
X88590476Y-97051904D01*
X88495238Y-97099523D01*
X88400000Y-97194761D01*
X88352380Y-97337619D01*
X88352380Y-97432857D01*
X88400000Y-97575714D01*
X88447619Y-97623333D01*
X88685714Y-98480476D02*
X89352380Y-98480476D01*
X88304761Y-98242380D02*
X89019047Y-98004285D01*
X89019047Y-98623333D01*
X89257142Y-100163333D02*
X89304761Y-100115714D01*
X89352380Y-99972857D01*
X89352380Y-99877619D01*
X89304761Y-99734761D01*
X89209523Y-99639523D01*
X89114285Y-99591904D01*
X88923809Y-99544285D01*
X88780952Y-99544285D01*
X88590476Y-99591904D01*
X88495238Y-99639523D01*
X88400000Y-99734761D01*
X88352380Y-99877619D01*
X88352380Y-99972857D01*
X88400000Y-100115714D01*
X88447619Y-100163333D01*
X88352380Y-101068095D02*
X88352380Y-100591904D01*
X88828571Y-100544285D01*
X88780952Y-100591904D01*
X88733333Y-100687142D01*
X88733333Y-100925238D01*
X88780952Y-101020476D01*
X88828571Y-101068095D01*
X88923809Y-101115714D01*
X89161904Y-101115714D01*
X89257142Y-101068095D01*
X89304761Y-101020476D01*
X89352380Y-100925238D01*
X89352380Y-100687142D01*
X89304761Y-100591904D01*
X89257142Y-100544285D01*
X89257142Y-102703333D02*
X89304761Y-102655714D01*
X89352380Y-102512857D01*
X89352380Y-102417619D01*
X89304761Y-102274761D01*
X89209523Y-102179523D01*
X89114285Y-102131904D01*
X88923809Y-102084285D01*
X88780952Y-102084285D01*
X88590476Y-102131904D01*
X88495238Y-102179523D01*
X88400000Y-102274761D01*
X88352380Y-102417619D01*
X88352380Y-102512857D01*
X88400000Y-102655714D01*
X88447619Y-102703333D01*
X88352380Y-103560476D02*
X88352380Y-103370000D01*
X88400000Y-103274761D01*
X88447619Y-103227142D01*
X88590476Y-103131904D01*
X88780952Y-103084285D01*
X89161904Y-103084285D01*
X89257142Y-103131904D01*
X89304761Y-103179523D01*
X89352380Y-103274761D01*
X89352380Y-103465238D01*
X89304761Y-103560476D01*
X89257142Y-103608095D01*
X89161904Y-103655714D01*
X88923809Y-103655714D01*
X88828571Y-103608095D01*
X88780952Y-103560476D01*
X88733333Y-103465238D01*
X88733333Y-103274761D01*
X88780952Y-103179523D01*
X88828571Y-103131904D01*
X88923809Y-103084285D01*
X89257142Y-105243333D02*
X89304761Y-105195714D01*
X89352380Y-105052857D01*
X89352380Y-104957619D01*
X89304761Y-104814761D01*
X89209523Y-104719523D01*
X89114285Y-104671904D01*
X88923809Y-104624285D01*
X88780952Y-104624285D01*
X88590476Y-104671904D01*
X88495238Y-104719523D01*
X88400000Y-104814761D01*
X88352380Y-104957619D01*
X88352380Y-105052857D01*
X88400000Y-105195714D01*
X88447619Y-105243333D01*
X88352380Y-105576666D02*
X88352380Y-106243333D01*
X89352380Y-105814761D01*
X89352380Y-71009047D02*
X88352380Y-71009047D01*
X89352380Y-71485238D02*
X88352380Y-71485238D01*
X89352380Y-72056666D01*
X88352380Y-72056666D01*
X88352380Y-72390000D02*
X88352380Y-72961428D01*
X89352380Y-72675714D02*
X88352380Y-72675714D01*
X88352380Y-73199523D02*
X88352380Y-73818571D01*
X88733333Y-73485238D01*
X88733333Y-73628095D01*
X88780952Y-73723333D01*
X88828571Y-73770952D01*
X88923809Y-73818571D01*
X89161904Y-73818571D01*
X89257142Y-73770952D01*
X89304761Y-73723333D01*
X89352380Y-73628095D01*
X89352380Y-73342380D01*
X89304761Y-73247142D01*
X89257142Y-73199523D01*
X89352380Y-74819047D02*
X88352380Y-74819047D01*
X89352380Y-75295238D02*
X88352380Y-75295238D01*
X89352380Y-75866666D01*
X88352380Y-75866666D01*
X88352380Y-76200000D02*
X88352380Y-76771428D01*
X89352380Y-76485714D02*
X88352380Y-76485714D01*
X88352380Y-77533333D02*
X88352380Y-77342857D01*
X88400000Y-77247619D01*
X88447619Y-77200000D01*
X88590476Y-77104761D01*
X88780952Y-77057142D01*
X89161904Y-77057142D01*
X89257142Y-77104761D01*
X89304761Y-77152380D01*
X89352380Y-77247619D01*
X89352380Y-77438095D01*
X89304761Y-77533333D01*
X89257142Y-77580952D01*
X89161904Y-77628571D01*
X88923809Y-77628571D01*
X88828571Y-77580952D01*
X88780952Y-77533333D01*
X88733333Y-77438095D01*
X88733333Y-77247619D01*
X88780952Y-77152380D01*
X88828571Y-77104761D01*
X88923809Y-77057142D01*
X89352380Y-78629047D02*
X88352380Y-78629047D01*
X89352380Y-79105238D02*
X88352380Y-79105238D01*
X89352380Y-79676666D01*
X88352380Y-79676666D01*
X88352380Y-80010000D02*
X88352380Y-80581428D01*
X89352380Y-80295714D02*
X88352380Y-80295714D01*
X88352380Y-80819523D02*
X88352380Y-81486190D01*
X89352380Y-81057619D01*
X101296904Y-67762380D02*
X101296904Y-66762380D01*
X100725476Y-67762380D01*
X100725476Y-66762380D01*
X100296904Y-67714761D02*
X100154047Y-67762380D01*
X99915952Y-67762380D01*
X99820714Y-67714761D01*
X99773095Y-67667142D01*
X99725476Y-67571904D01*
X99725476Y-67476666D01*
X99773095Y-67381428D01*
X99820714Y-67333809D01*
X99915952Y-67286190D01*
X100106428Y-67238571D01*
X100201666Y-67190952D01*
X100249285Y-67143333D01*
X100296904Y-67048095D01*
X100296904Y-66952857D01*
X100249285Y-66857619D01*
X100201666Y-66810000D01*
X100106428Y-66762380D01*
X99868333Y-66762380D01*
X99725476Y-66810000D01*
X99439761Y-66762380D02*
X98868333Y-66762380D01*
X99154047Y-67762380D02*
X99154047Y-66762380D01*
X97963571Y-67762380D02*
X98296904Y-67286190D01*
X98535000Y-67762380D02*
X98535000Y-66762380D01*
X98154047Y-66762380D01*
X98058809Y-66810000D01*
X98011190Y-66857619D01*
X97963571Y-66952857D01*
X97963571Y-67095714D01*
X98011190Y-67190952D01*
X98058809Y-67238571D01*
X98154047Y-67286190D01*
X98535000Y-67286190D01*
X97344523Y-66762380D02*
X97154047Y-66762380D01*
X97058809Y-66810000D01*
X96963571Y-66905238D01*
X96915952Y-67095714D01*
X96915952Y-67429047D01*
X96963571Y-67619523D01*
X97058809Y-67714761D01*
X97154047Y-67762380D01*
X97344523Y-67762380D01*
X97439761Y-67714761D01*
X97535000Y-67619523D01*
X97582619Y-67429047D01*
X97582619Y-67095714D01*
X97535000Y-66905238D01*
X97439761Y-66810000D01*
X97344523Y-66762380D01*
X96154047Y-67238571D02*
X96011190Y-67286190D01*
X95963571Y-67333809D01*
X95915952Y-67429047D01*
X95915952Y-67571904D01*
X95963571Y-67667142D01*
X96011190Y-67714761D01*
X96106428Y-67762380D01*
X96487380Y-67762380D01*
X96487380Y-66762380D01*
X96154047Y-66762380D01*
X96058809Y-66810000D01*
X96011190Y-66857619D01*
X95963571Y-66952857D01*
X95963571Y-67048095D01*
X96011190Y-67143333D01*
X96058809Y-67190952D01*
X96154047Y-67238571D01*
X96487380Y-67238571D01*
X95487380Y-67238571D02*
X95154047Y-67238571D01*
X95011190Y-67762380D02*
X95487380Y-67762380D01*
X95487380Y-66762380D01*
X95011190Y-66762380D01*
X98756904Y-65222380D02*
X98756904Y-64222380D01*
X98185476Y-65222380D01*
X98185476Y-64222380D01*
X97137857Y-65222380D02*
X97471190Y-64746190D01*
X97709285Y-65222380D02*
X97709285Y-64222380D01*
X97328333Y-64222380D01*
X97233095Y-64270000D01*
X97185476Y-64317619D01*
X97137857Y-64412857D01*
X97137857Y-64555714D01*
X97185476Y-64650952D01*
X97233095Y-64698571D01*
X97328333Y-64746190D01*
X97709285Y-64746190D01*
X96756904Y-65174761D02*
X96614047Y-65222380D01*
X96375952Y-65222380D01*
X96280714Y-65174761D01*
X96233095Y-65127142D01*
X96185476Y-65031904D01*
X96185476Y-64936666D01*
X96233095Y-64841428D01*
X96280714Y-64793809D01*
X96375952Y-64746190D01*
X96566428Y-64698571D01*
X96661666Y-64650952D01*
X96709285Y-64603333D01*
X96756904Y-64508095D01*
X96756904Y-64412857D01*
X96709285Y-64317619D01*
X96661666Y-64270000D01*
X96566428Y-64222380D01*
X96328333Y-64222380D01*
X96185476Y-64270000D01*
X95899761Y-64222380D02*
X95328333Y-64222380D01*
X95614047Y-65222380D02*
X95614047Y-64222380D01*
X99575714Y-62158571D02*
X99432857Y-62206190D01*
X99385238Y-62253809D01*
X99337619Y-62349047D01*
X99337619Y-62491904D01*
X99385238Y-62587142D01*
X99432857Y-62634761D01*
X99528095Y-62682380D01*
X99909047Y-62682380D01*
X99909047Y-61682380D01*
X99575714Y-61682380D01*
X99480476Y-61730000D01*
X99432857Y-61777619D01*
X99385238Y-61872857D01*
X99385238Y-61968095D01*
X99432857Y-62063333D01*
X99480476Y-62110952D01*
X99575714Y-62158571D01*
X99909047Y-62158571D01*
X98432857Y-62682380D02*
X98909047Y-62682380D01*
X98909047Y-61682380D01*
X98147142Y-62396666D02*
X97670952Y-62396666D01*
X98242380Y-62682380D02*
X97909047Y-61682380D01*
X97575714Y-62682380D01*
X97242380Y-62682380D02*
X97242380Y-61682380D01*
X96670952Y-62682380D01*
X96670952Y-61682380D01*
X96194761Y-62682380D02*
X96194761Y-61682380D01*
X95623333Y-62682380D02*
X96051904Y-62110952D01*
X95623333Y-61682380D02*
X96194761Y-62253809D01*
X99131428Y-106711904D02*
X99131428Y-107473809D01*
X99512380Y-107092857D02*
X98750476Y-107092857D01*
X98512380Y-108426190D02*
X98512380Y-107950000D01*
X98988571Y-107902380D01*
X98940952Y-107950000D01*
X98893333Y-108045238D01*
X98893333Y-108283333D01*
X98940952Y-108378571D01*
X98988571Y-108426190D01*
X99083809Y-108473809D01*
X99321904Y-108473809D01*
X99417142Y-108426190D01*
X99464761Y-108378571D01*
X99512380Y-108283333D01*
X99512380Y-108045238D01*
X99464761Y-107950000D01*
X99417142Y-107902380D01*
X98845714Y-108807142D02*
X99512380Y-109045238D01*
X98845714Y-109283333D01*
X101100000Y-107188095D02*
X101052380Y-107092857D01*
X101052380Y-106950000D01*
X101100000Y-106807142D01*
X101195238Y-106711904D01*
X101290476Y-106664285D01*
X101480952Y-106616666D01*
X101623809Y-106616666D01*
X101814285Y-106664285D01*
X101909523Y-106711904D01*
X102004761Y-106807142D01*
X102052380Y-106950000D01*
X102052380Y-107045238D01*
X102004761Y-107188095D01*
X101957142Y-107235714D01*
X101623809Y-107235714D01*
X101623809Y-107045238D01*
X102052380Y-107664285D02*
X101052380Y-107664285D01*
X102052380Y-108235714D01*
X101052380Y-108235714D01*
X102052380Y-108711904D02*
X101052380Y-108711904D01*
X101052380Y-108950000D01*
X101100000Y-109092857D01*
X101195238Y-109188095D01*
X101290476Y-109235714D01*
X101480952Y-109283333D01*
X101623809Y-109283333D01*
X101814285Y-109235714D01*
X101909523Y-109188095D01*
X102004761Y-109092857D01*
X102052380Y-108950000D01*
X102052380Y-108711904D01*
M02*
