G04 #@! TF.GenerationSoftware,KiCad,Pcbnew,(5.0.1-3-g963ef8bb5)*
G04 #@! TF.CreationDate,2020-01-16T13:34:53+00:00*
G04 #@! TF.ProjectId,SystemKeyboard,53797374656D4B6579626F6172642E6B,rev?*
G04 #@! TF.SameCoordinates,Original*
G04 #@! TF.FileFunction,Soldermask,Bot*
G04 #@! TF.FilePolarity,Negative*
%FSLAX46Y46*%
G04 Gerber Fmt 4.6, Leading zero omitted, Abs format (unit mm)*
G04 Created by KiCad (PCBNEW (5.0.1-3-g963ef8bb5)) date Thursday, 16 January 2020 at 13:34:53*
%MOMM*%
%LPD*%
G01*
G04 APERTURE LIST*
%ADD10C,0.100000*%
G04 APERTURE END LIST*
D10*
G36*
X107831000Y-110371000D02*
X105529000Y-110371000D01*
X105529000Y-108069000D01*
X107831000Y-108069000D01*
X107831000Y-110371000D01*
X107831000Y-110371000D01*
G37*
G36*
X96644180Y-108075662D02*
X96745635Y-108085654D01*
X96962600Y-108151470D01*
X96962602Y-108151471D01*
X96962605Y-108151472D01*
X97162556Y-108258347D01*
X97337818Y-108402182D01*
X97481653Y-108577444D01*
X97588528Y-108777395D01*
X97588529Y-108777398D01*
X97588530Y-108777400D01*
X97654346Y-108994365D01*
X97676569Y-109220000D01*
X97654346Y-109445635D01*
X97588530Y-109662600D01*
X97588528Y-109662605D01*
X97481653Y-109862556D01*
X97337818Y-110037818D01*
X97162556Y-110181653D01*
X96962605Y-110288528D01*
X96962602Y-110288529D01*
X96962600Y-110288530D01*
X96745635Y-110354346D01*
X96644180Y-110364338D01*
X96576545Y-110371000D01*
X96463455Y-110371000D01*
X96395820Y-110364338D01*
X96294365Y-110354346D01*
X96077400Y-110288530D01*
X96077398Y-110288529D01*
X96077395Y-110288528D01*
X95877444Y-110181653D01*
X95702182Y-110037818D01*
X95558347Y-109862556D01*
X95451472Y-109662605D01*
X95451470Y-109662600D01*
X95385654Y-109445635D01*
X95363431Y-109220000D01*
X95385654Y-108994365D01*
X95451470Y-108777400D01*
X95451471Y-108777398D01*
X95451472Y-108777395D01*
X95558347Y-108577444D01*
X95702182Y-108402182D01*
X95877444Y-108258347D01*
X96077395Y-108151472D01*
X96077398Y-108151471D01*
X96077400Y-108151470D01*
X96294365Y-108085654D01*
X96395820Y-108075662D01*
X96463455Y-108069000D01*
X96576545Y-108069000D01*
X96644180Y-108075662D01*
X96644180Y-108075662D01*
G37*
G36*
X109468228Y-104666704D02*
X109623100Y-104730854D01*
X109762481Y-104823986D01*
X109881015Y-104942520D01*
X109974147Y-105081901D01*
X110038297Y-105236773D01*
X110071000Y-105401185D01*
X110071000Y-105568817D01*
X110038297Y-105733229D01*
X109974147Y-105888101D01*
X109881015Y-106027482D01*
X109762481Y-106146016D01*
X109623100Y-106239148D01*
X109468228Y-106303298D01*
X109303816Y-106336001D01*
X109136184Y-106336001D01*
X108971772Y-106303298D01*
X108816900Y-106239148D01*
X108677519Y-106146016D01*
X108558985Y-106027482D01*
X108465853Y-105888101D01*
X108401703Y-105733229D01*
X108369000Y-105568817D01*
X108369000Y-105401185D01*
X108401703Y-105236773D01*
X108465853Y-105081901D01*
X108558985Y-104942520D01*
X108677519Y-104823986D01*
X108816900Y-104730854D01*
X108971772Y-104666704D01*
X109136184Y-104634001D01*
X109303816Y-104634001D01*
X109468228Y-104666704D01*
X109468228Y-104666704D01*
G37*
G36*
X104388228Y-104666704D02*
X104543100Y-104730854D01*
X104682481Y-104823986D01*
X104801015Y-104942520D01*
X104894147Y-105081901D01*
X104958297Y-105236773D01*
X104991000Y-105401185D01*
X104991000Y-105568817D01*
X104958297Y-105733229D01*
X104894147Y-105888101D01*
X104801015Y-106027482D01*
X104682481Y-106146016D01*
X104543100Y-106239148D01*
X104388228Y-106303298D01*
X104223816Y-106336001D01*
X104056184Y-106336001D01*
X103891772Y-106303298D01*
X103736900Y-106239148D01*
X103597519Y-106146016D01*
X103478985Y-106027482D01*
X103385853Y-105888101D01*
X103321703Y-105733229D01*
X103289000Y-105568817D01*
X103289000Y-105401185D01*
X103321703Y-105236773D01*
X103385853Y-105081901D01*
X103478985Y-104942520D01*
X103597519Y-104823986D01*
X103736900Y-104730854D01*
X103891772Y-104666704D01*
X104056184Y-104634001D01*
X104223816Y-104634001D01*
X104388228Y-104666704D01*
X104388228Y-104666704D01*
G37*
G36*
X101848228Y-104666704D02*
X102003100Y-104730854D01*
X102142481Y-104823986D01*
X102261015Y-104942520D01*
X102354147Y-105081901D01*
X102418297Y-105236773D01*
X102451000Y-105401185D01*
X102451000Y-105568817D01*
X102418297Y-105733229D01*
X102354147Y-105888101D01*
X102261015Y-106027482D01*
X102142481Y-106146016D01*
X102003100Y-106239148D01*
X101848228Y-106303298D01*
X101683816Y-106336001D01*
X101516184Y-106336001D01*
X101351772Y-106303298D01*
X101196900Y-106239148D01*
X101057519Y-106146016D01*
X100938985Y-106027482D01*
X100845853Y-105888101D01*
X100781703Y-105733229D01*
X100749000Y-105568817D01*
X100749000Y-105401185D01*
X100781703Y-105236773D01*
X100845853Y-105081901D01*
X100938985Y-104942520D01*
X101057519Y-104823986D01*
X101196900Y-104730854D01*
X101351772Y-104666704D01*
X101516184Y-104634001D01*
X101683816Y-104634001D01*
X101848228Y-104666704D01*
X101848228Y-104666704D01*
G37*
G36*
X99308228Y-104666704D02*
X99463100Y-104730854D01*
X99602481Y-104823986D01*
X99721015Y-104942520D01*
X99814147Y-105081901D01*
X99878297Y-105236773D01*
X99911000Y-105401185D01*
X99911000Y-105568817D01*
X99878297Y-105733229D01*
X99814147Y-105888101D01*
X99721015Y-106027482D01*
X99602481Y-106146016D01*
X99463100Y-106239148D01*
X99308228Y-106303298D01*
X99143816Y-106336001D01*
X98976184Y-106336001D01*
X98811772Y-106303298D01*
X98656900Y-106239148D01*
X98517519Y-106146016D01*
X98398985Y-106027482D01*
X98305853Y-105888101D01*
X98241703Y-105733229D01*
X98209000Y-105568817D01*
X98209000Y-105401185D01*
X98241703Y-105236773D01*
X98305853Y-105081901D01*
X98398985Y-104942520D01*
X98517519Y-104823986D01*
X98656900Y-104730854D01*
X98811772Y-104666704D01*
X98976184Y-104634001D01*
X99143816Y-104634001D01*
X99308228Y-104666704D01*
X99308228Y-104666704D01*
G37*
G36*
X94228228Y-104666704D02*
X94383100Y-104730854D01*
X94522481Y-104823986D01*
X94641015Y-104942520D01*
X94734147Y-105081901D01*
X94798297Y-105236773D01*
X94831000Y-105401185D01*
X94831000Y-105568817D01*
X94798297Y-105733229D01*
X94734147Y-105888101D01*
X94641015Y-106027482D01*
X94522481Y-106146016D01*
X94383100Y-106239148D01*
X94228228Y-106303298D01*
X94063816Y-106336001D01*
X93896184Y-106336001D01*
X93731772Y-106303298D01*
X93576900Y-106239148D01*
X93437519Y-106146016D01*
X93318985Y-106027482D01*
X93225853Y-105888101D01*
X93161703Y-105733229D01*
X93129000Y-105568817D01*
X93129000Y-105401185D01*
X93161703Y-105236773D01*
X93225853Y-105081901D01*
X93318985Y-104942520D01*
X93437519Y-104823986D01*
X93576900Y-104730854D01*
X93731772Y-104666704D01*
X93896184Y-104634001D01*
X94063816Y-104634001D01*
X94228228Y-104666704D01*
X94228228Y-104666704D01*
G37*
G36*
X90280443Y-104515519D02*
X90346627Y-104522037D01*
X90459853Y-104556384D01*
X90516467Y-104573557D01*
X90629548Y-104634001D01*
X90672991Y-104657222D01*
X90708729Y-104686552D01*
X90810186Y-104769814D01*
X90893448Y-104871271D01*
X90922778Y-104907009D01*
X90922779Y-104907011D01*
X91006443Y-105063533D01*
X91006443Y-105063534D01*
X91057963Y-105233373D01*
X91075359Y-105410000D01*
X91057963Y-105586627D01*
X91023616Y-105699853D01*
X91006443Y-105756467D01*
X90936082Y-105888101D01*
X90922778Y-105912991D01*
X90893448Y-105948729D01*
X90810186Y-106050186D01*
X90708729Y-106133448D01*
X90672991Y-106162778D01*
X90672989Y-106162779D01*
X90516467Y-106246443D01*
X90459853Y-106263616D01*
X90346627Y-106297963D01*
X90292469Y-106303297D01*
X90214260Y-106311000D01*
X90125740Y-106311000D01*
X90047531Y-106303297D01*
X89993373Y-106297963D01*
X89880147Y-106263616D01*
X89823533Y-106246443D01*
X89667011Y-106162779D01*
X89667009Y-106162778D01*
X89631271Y-106133448D01*
X89529814Y-106050186D01*
X89446552Y-105948729D01*
X89417222Y-105912991D01*
X89403918Y-105888101D01*
X89333557Y-105756467D01*
X89316384Y-105699853D01*
X89282037Y-105586627D01*
X89264641Y-105410000D01*
X89282037Y-105233373D01*
X89333557Y-105063534D01*
X89333557Y-105063533D01*
X89417221Y-104907011D01*
X89417222Y-104907009D01*
X89446552Y-104871271D01*
X89529814Y-104769814D01*
X89631271Y-104686552D01*
X89667009Y-104657222D01*
X89710452Y-104634001D01*
X89823533Y-104573557D01*
X89880147Y-104556384D01*
X89993373Y-104522037D01*
X90059557Y-104515519D01*
X90125740Y-104509000D01*
X90214260Y-104509000D01*
X90280443Y-104515519D01*
X90280443Y-104515519D01*
G37*
G36*
X109468228Y-102126704D02*
X109623100Y-102190854D01*
X109762481Y-102283986D01*
X109881015Y-102402520D01*
X109974147Y-102541901D01*
X110038297Y-102696773D01*
X110071000Y-102861185D01*
X110071000Y-103028817D01*
X110038297Y-103193229D01*
X109974147Y-103348101D01*
X109881015Y-103487482D01*
X109762481Y-103606016D01*
X109623100Y-103699148D01*
X109468228Y-103763298D01*
X109303816Y-103796001D01*
X109136184Y-103796001D01*
X108971772Y-103763298D01*
X108816900Y-103699148D01*
X108677519Y-103606016D01*
X108558985Y-103487482D01*
X108465853Y-103348101D01*
X108401703Y-103193229D01*
X108369000Y-103028817D01*
X108369000Y-102861185D01*
X108401703Y-102696773D01*
X108465853Y-102541901D01*
X108558985Y-102402520D01*
X108677519Y-102283986D01*
X108816900Y-102190854D01*
X108971772Y-102126704D01*
X109136184Y-102094001D01*
X109303816Y-102094001D01*
X109468228Y-102126704D01*
X109468228Y-102126704D01*
G37*
G36*
X94228228Y-102126704D02*
X94383100Y-102190854D01*
X94522481Y-102283986D01*
X94641015Y-102402520D01*
X94734147Y-102541901D01*
X94798297Y-102696773D01*
X94831000Y-102861185D01*
X94831000Y-103028817D01*
X94798297Y-103193229D01*
X94734147Y-103348101D01*
X94641015Y-103487482D01*
X94522481Y-103606016D01*
X94383100Y-103699148D01*
X94228228Y-103763298D01*
X94063816Y-103796001D01*
X93896184Y-103796001D01*
X93731772Y-103763298D01*
X93576900Y-103699148D01*
X93437519Y-103606016D01*
X93318985Y-103487482D01*
X93225853Y-103348101D01*
X93161703Y-103193229D01*
X93129000Y-103028817D01*
X93129000Y-102861185D01*
X93161703Y-102696773D01*
X93225853Y-102541901D01*
X93318985Y-102402520D01*
X93437519Y-102283986D01*
X93576900Y-102190854D01*
X93731772Y-102126704D01*
X93896184Y-102094001D01*
X94063816Y-102094001D01*
X94228228Y-102126704D01*
X94228228Y-102126704D01*
G37*
G36*
X90280442Y-101975518D02*
X90346627Y-101982037D01*
X90459853Y-102016384D01*
X90516467Y-102033557D01*
X90629548Y-102094001D01*
X90672991Y-102117222D01*
X90708729Y-102146552D01*
X90810186Y-102229814D01*
X90893448Y-102331271D01*
X90922778Y-102367009D01*
X90922779Y-102367011D01*
X91006443Y-102523533D01*
X91006443Y-102523534D01*
X91057963Y-102693373D01*
X91075359Y-102870000D01*
X91057963Y-103046627D01*
X91023616Y-103159853D01*
X91006443Y-103216467D01*
X90936082Y-103348101D01*
X90922778Y-103372991D01*
X90893448Y-103408729D01*
X90810186Y-103510186D01*
X90708729Y-103593448D01*
X90672991Y-103622778D01*
X90672989Y-103622779D01*
X90516467Y-103706443D01*
X90459853Y-103723616D01*
X90346627Y-103757963D01*
X90292469Y-103763297D01*
X90214260Y-103771000D01*
X90125740Y-103771000D01*
X90047531Y-103763297D01*
X89993373Y-103757963D01*
X89880147Y-103723616D01*
X89823533Y-103706443D01*
X89667011Y-103622779D01*
X89667009Y-103622778D01*
X89631271Y-103593448D01*
X89529814Y-103510186D01*
X89446552Y-103408729D01*
X89417222Y-103372991D01*
X89403918Y-103348101D01*
X89333557Y-103216467D01*
X89316384Y-103159853D01*
X89282037Y-103046627D01*
X89264641Y-102870000D01*
X89282037Y-102693373D01*
X89333557Y-102523534D01*
X89333557Y-102523533D01*
X89417221Y-102367011D01*
X89417222Y-102367009D01*
X89446552Y-102331271D01*
X89529814Y-102229814D01*
X89631271Y-102146552D01*
X89667009Y-102117222D01*
X89710452Y-102094001D01*
X89823533Y-102033557D01*
X89880147Y-102016384D01*
X89993373Y-101982037D01*
X90059558Y-101975518D01*
X90125740Y-101969000D01*
X90214260Y-101969000D01*
X90280442Y-101975518D01*
X90280442Y-101975518D01*
G37*
G36*
X94228228Y-99586704D02*
X94383100Y-99650854D01*
X94522481Y-99743986D01*
X94641015Y-99862520D01*
X94734147Y-100001901D01*
X94798297Y-100156773D01*
X94831000Y-100321185D01*
X94831000Y-100488817D01*
X94798297Y-100653229D01*
X94734147Y-100808101D01*
X94641015Y-100947482D01*
X94522481Y-101066016D01*
X94383100Y-101159148D01*
X94228228Y-101223298D01*
X94063816Y-101256001D01*
X93896184Y-101256001D01*
X93731772Y-101223298D01*
X93576900Y-101159148D01*
X93437519Y-101066016D01*
X93318985Y-100947482D01*
X93225853Y-100808101D01*
X93161703Y-100653229D01*
X93129000Y-100488817D01*
X93129000Y-100321185D01*
X93161703Y-100156773D01*
X93225853Y-100001901D01*
X93318985Y-99862520D01*
X93437519Y-99743986D01*
X93576900Y-99650854D01*
X93731772Y-99586704D01*
X93896184Y-99554001D01*
X94063816Y-99554001D01*
X94228228Y-99586704D01*
X94228228Y-99586704D01*
G37*
G36*
X109468228Y-99586704D02*
X109623100Y-99650854D01*
X109762481Y-99743986D01*
X109881015Y-99862520D01*
X109974147Y-100001901D01*
X110038297Y-100156773D01*
X110071000Y-100321185D01*
X110071000Y-100488817D01*
X110038297Y-100653229D01*
X109974147Y-100808101D01*
X109881015Y-100947482D01*
X109762481Y-101066016D01*
X109623100Y-101159148D01*
X109468228Y-101223298D01*
X109303816Y-101256001D01*
X109136184Y-101256001D01*
X108971772Y-101223298D01*
X108816900Y-101159148D01*
X108677519Y-101066016D01*
X108558985Y-100947482D01*
X108465853Y-100808101D01*
X108401703Y-100653229D01*
X108369000Y-100488817D01*
X108369000Y-100321185D01*
X108401703Y-100156773D01*
X108465853Y-100001901D01*
X108558985Y-99862520D01*
X108677519Y-99743986D01*
X108816900Y-99650854D01*
X108971772Y-99586704D01*
X109136184Y-99554001D01*
X109303816Y-99554001D01*
X109468228Y-99586704D01*
X109468228Y-99586704D01*
G37*
G36*
X90280443Y-99435519D02*
X90346627Y-99442037D01*
X90459853Y-99476384D01*
X90516467Y-99493557D01*
X90629548Y-99554001D01*
X90672991Y-99577222D01*
X90708729Y-99606552D01*
X90810186Y-99689814D01*
X90893448Y-99791271D01*
X90922778Y-99827009D01*
X90922779Y-99827011D01*
X91006443Y-99983533D01*
X91006443Y-99983534D01*
X91057963Y-100153373D01*
X91075359Y-100330000D01*
X91057963Y-100506627D01*
X91023616Y-100619853D01*
X91006443Y-100676467D01*
X90936082Y-100808101D01*
X90922778Y-100832991D01*
X90893448Y-100868729D01*
X90810186Y-100970186D01*
X90708729Y-101053448D01*
X90672991Y-101082778D01*
X90672989Y-101082779D01*
X90516467Y-101166443D01*
X90459853Y-101183616D01*
X90346627Y-101217963D01*
X90292469Y-101223297D01*
X90214260Y-101231000D01*
X90125740Y-101231000D01*
X90047531Y-101223297D01*
X89993373Y-101217963D01*
X89880147Y-101183616D01*
X89823533Y-101166443D01*
X89667011Y-101082779D01*
X89667009Y-101082778D01*
X89631271Y-101053448D01*
X89529814Y-100970186D01*
X89446552Y-100868729D01*
X89417222Y-100832991D01*
X89403918Y-100808101D01*
X89333557Y-100676467D01*
X89316384Y-100619853D01*
X89282037Y-100506627D01*
X89264641Y-100330000D01*
X89282037Y-100153373D01*
X89333557Y-99983534D01*
X89333557Y-99983533D01*
X89417221Y-99827011D01*
X89417222Y-99827009D01*
X89446552Y-99791271D01*
X89529814Y-99689814D01*
X89631271Y-99606552D01*
X89667009Y-99577222D01*
X89710452Y-99554001D01*
X89823533Y-99493557D01*
X89880147Y-99476384D01*
X89993373Y-99442037D01*
X90059558Y-99435518D01*
X90125740Y-99429000D01*
X90214260Y-99429000D01*
X90280443Y-99435519D01*
X90280443Y-99435519D01*
G37*
G36*
X99308228Y-97046704D02*
X99463100Y-97110854D01*
X99602481Y-97203986D01*
X99721015Y-97322520D01*
X99814147Y-97461901D01*
X99878297Y-97616773D01*
X99911000Y-97781185D01*
X99911000Y-97948817D01*
X99878297Y-98113229D01*
X99814147Y-98268101D01*
X99721015Y-98407482D01*
X99602481Y-98526016D01*
X99463100Y-98619148D01*
X99308228Y-98683298D01*
X99143816Y-98716001D01*
X98976184Y-98716001D01*
X98811772Y-98683298D01*
X98656900Y-98619148D01*
X98517519Y-98526016D01*
X98398985Y-98407482D01*
X98305853Y-98268101D01*
X98241703Y-98113229D01*
X98209000Y-97948817D01*
X98209000Y-97781185D01*
X98241703Y-97616773D01*
X98305853Y-97461901D01*
X98398985Y-97322520D01*
X98517519Y-97203986D01*
X98656900Y-97110854D01*
X98811772Y-97046704D01*
X98976184Y-97014001D01*
X99143816Y-97014001D01*
X99308228Y-97046704D01*
X99308228Y-97046704D01*
G37*
G36*
X109468228Y-97046704D02*
X109623100Y-97110854D01*
X109762481Y-97203986D01*
X109881015Y-97322520D01*
X109974147Y-97461901D01*
X110038297Y-97616773D01*
X110071000Y-97781185D01*
X110071000Y-97948817D01*
X110038297Y-98113229D01*
X109974147Y-98268101D01*
X109881015Y-98407482D01*
X109762481Y-98526016D01*
X109623100Y-98619148D01*
X109468228Y-98683298D01*
X109303816Y-98716001D01*
X109136184Y-98716001D01*
X108971772Y-98683298D01*
X108816900Y-98619148D01*
X108677519Y-98526016D01*
X108558985Y-98407482D01*
X108465853Y-98268101D01*
X108401703Y-98113229D01*
X108369000Y-97948817D01*
X108369000Y-97781185D01*
X108401703Y-97616773D01*
X108465853Y-97461901D01*
X108558985Y-97322520D01*
X108677519Y-97203986D01*
X108816900Y-97110854D01*
X108971772Y-97046704D01*
X109136184Y-97014001D01*
X109303816Y-97014001D01*
X109468228Y-97046704D01*
X109468228Y-97046704D01*
G37*
G36*
X101848228Y-97046704D02*
X102003100Y-97110854D01*
X102142481Y-97203986D01*
X102261015Y-97322520D01*
X102354147Y-97461901D01*
X102418297Y-97616773D01*
X102451000Y-97781185D01*
X102451000Y-97948817D01*
X102418297Y-98113229D01*
X102354147Y-98268101D01*
X102261015Y-98407482D01*
X102142481Y-98526016D01*
X102003100Y-98619148D01*
X101848228Y-98683298D01*
X101683816Y-98716001D01*
X101516184Y-98716001D01*
X101351772Y-98683298D01*
X101196900Y-98619148D01*
X101057519Y-98526016D01*
X100938985Y-98407482D01*
X100845853Y-98268101D01*
X100781703Y-98113229D01*
X100749000Y-97948817D01*
X100749000Y-97781185D01*
X100781703Y-97616773D01*
X100845853Y-97461901D01*
X100938985Y-97322520D01*
X101057519Y-97203986D01*
X101196900Y-97110854D01*
X101351772Y-97046704D01*
X101516184Y-97014001D01*
X101683816Y-97014001D01*
X101848228Y-97046704D01*
X101848228Y-97046704D01*
G37*
G36*
X104388228Y-97046704D02*
X104543100Y-97110854D01*
X104682481Y-97203986D01*
X104801015Y-97322520D01*
X104894147Y-97461901D01*
X104958297Y-97616773D01*
X104991000Y-97781185D01*
X104991000Y-97948817D01*
X104958297Y-98113229D01*
X104894147Y-98268101D01*
X104801015Y-98407482D01*
X104682481Y-98526016D01*
X104543100Y-98619148D01*
X104388228Y-98683298D01*
X104223816Y-98716001D01*
X104056184Y-98716001D01*
X103891772Y-98683298D01*
X103736900Y-98619148D01*
X103597519Y-98526016D01*
X103478985Y-98407482D01*
X103385853Y-98268101D01*
X103321703Y-98113229D01*
X103289000Y-97948817D01*
X103289000Y-97781185D01*
X103321703Y-97616773D01*
X103385853Y-97461901D01*
X103478985Y-97322520D01*
X103597519Y-97203986D01*
X103736900Y-97110854D01*
X103891772Y-97046704D01*
X104056184Y-97014001D01*
X104223816Y-97014001D01*
X104388228Y-97046704D01*
X104388228Y-97046704D01*
G37*
G36*
X94228228Y-97046704D02*
X94383100Y-97110854D01*
X94522481Y-97203986D01*
X94641015Y-97322520D01*
X94734147Y-97461901D01*
X94798297Y-97616773D01*
X94831000Y-97781185D01*
X94831000Y-97948817D01*
X94798297Y-98113229D01*
X94734147Y-98268101D01*
X94641015Y-98407482D01*
X94522481Y-98526016D01*
X94383100Y-98619148D01*
X94228228Y-98683298D01*
X94063816Y-98716001D01*
X93896184Y-98716001D01*
X93731772Y-98683298D01*
X93576900Y-98619148D01*
X93437519Y-98526016D01*
X93318985Y-98407482D01*
X93225853Y-98268101D01*
X93161703Y-98113229D01*
X93129000Y-97948817D01*
X93129000Y-97781185D01*
X93161703Y-97616773D01*
X93225853Y-97461901D01*
X93318985Y-97322520D01*
X93437519Y-97203986D01*
X93576900Y-97110854D01*
X93731772Y-97046704D01*
X93896184Y-97014001D01*
X94063816Y-97014001D01*
X94228228Y-97046704D01*
X94228228Y-97046704D01*
G37*
G36*
X90280442Y-96895518D02*
X90346627Y-96902037D01*
X90459853Y-96936384D01*
X90516467Y-96953557D01*
X90629548Y-97014001D01*
X90672991Y-97037222D01*
X90708729Y-97066552D01*
X90810186Y-97149814D01*
X90893448Y-97251271D01*
X90922778Y-97287009D01*
X90922779Y-97287011D01*
X91006443Y-97443533D01*
X91006443Y-97443534D01*
X91057963Y-97613373D01*
X91075359Y-97790000D01*
X91057963Y-97966627D01*
X91023616Y-98079853D01*
X91006443Y-98136467D01*
X90936082Y-98268101D01*
X90922778Y-98292991D01*
X90893448Y-98328729D01*
X90810186Y-98430186D01*
X90708729Y-98513448D01*
X90672991Y-98542778D01*
X90672989Y-98542779D01*
X90516467Y-98626443D01*
X90459853Y-98643616D01*
X90346627Y-98677963D01*
X90292469Y-98683297D01*
X90214260Y-98691000D01*
X90125740Y-98691000D01*
X90047531Y-98683297D01*
X89993373Y-98677963D01*
X89880147Y-98643616D01*
X89823533Y-98626443D01*
X89667011Y-98542779D01*
X89667009Y-98542778D01*
X89631271Y-98513448D01*
X89529814Y-98430186D01*
X89446552Y-98328729D01*
X89417222Y-98292991D01*
X89403918Y-98268101D01*
X89333557Y-98136467D01*
X89316384Y-98079853D01*
X89282037Y-97966627D01*
X89264641Y-97790000D01*
X89282037Y-97613373D01*
X89333557Y-97443534D01*
X89333557Y-97443533D01*
X89417221Y-97287011D01*
X89417222Y-97287009D01*
X89446552Y-97251271D01*
X89529814Y-97149814D01*
X89631271Y-97066552D01*
X89667009Y-97037222D01*
X89710452Y-97014001D01*
X89823533Y-96953557D01*
X89880147Y-96936384D01*
X89993373Y-96902037D01*
X90059558Y-96895518D01*
X90125740Y-96889000D01*
X90214260Y-96889000D01*
X90280442Y-96895518D01*
X90280442Y-96895518D01*
G37*
G36*
X143620442Y-95625518D02*
X143686627Y-95632037D01*
X143799853Y-95666384D01*
X143856467Y-95683557D01*
X143986363Y-95752989D01*
X144012991Y-95767222D01*
X144048729Y-95796552D01*
X144150186Y-95879814D01*
X144233448Y-95981271D01*
X144262778Y-96017009D01*
X144262779Y-96017011D01*
X144346443Y-96173533D01*
X144363616Y-96230147D01*
X144397963Y-96343373D01*
X144415359Y-96520000D01*
X144397963Y-96696627D01*
X144363616Y-96809853D01*
X144346443Y-96866467D01*
X144327430Y-96902037D01*
X144262778Y-97022991D01*
X144243317Y-97046704D01*
X144150186Y-97160186D01*
X144048729Y-97243448D01*
X144012991Y-97272778D01*
X144012989Y-97272779D01*
X143856467Y-97356443D01*
X143799853Y-97373616D01*
X143686627Y-97407963D01*
X143620442Y-97414482D01*
X143554260Y-97421000D01*
X143465740Y-97421000D01*
X143399558Y-97414482D01*
X143333373Y-97407963D01*
X143220147Y-97373616D01*
X143163533Y-97356443D01*
X143007011Y-97272779D01*
X143007009Y-97272778D01*
X142971271Y-97243448D01*
X142869814Y-97160186D01*
X142776683Y-97046704D01*
X142757222Y-97022991D01*
X142692570Y-96902037D01*
X142673557Y-96866467D01*
X142656384Y-96809853D01*
X142622037Y-96696627D01*
X142604641Y-96520000D01*
X142622037Y-96343373D01*
X142656384Y-96230147D01*
X142673557Y-96173533D01*
X142757221Y-96017011D01*
X142757222Y-96017009D01*
X142786552Y-95981271D01*
X142869814Y-95879814D01*
X142971271Y-95796552D01*
X143007009Y-95767222D01*
X143033637Y-95752989D01*
X143163533Y-95683557D01*
X143220147Y-95666384D01*
X143333373Y-95632037D01*
X143399558Y-95625518D01*
X143465740Y-95619000D01*
X143554260Y-95619000D01*
X143620442Y-95625518D01*
X143620442Y-95625518D01*
G37*
G36*
X153780442Y-95625518D02*
X153846627Y-95632037D01*
X153959853Y-95666384D01*
X154016467Y-95683557D01*
X154146363Y-95752989D01*
X154172991Y-95767222D01*
X154208729Y-95796552D01*
X154310186Y-95879814D01*
X154393448Y-95981271D01*
X154422778Y-96017009D01*
X154422779Y-96017011D01*
X154506443Y-96173533D01*
X154523616Y-96230147D01*
X154557963Y-96343373D01*
X154575359Y-96520000D01*
X154557963Y-96696627D01*
X154523616Y-96809853D01*
X154506443Y-96866467D01*
X154487430Y-96902037D01*
X154422778Y-97022991D01*
X154403317Y-97046704D01*
X154310186Y-97160186D01*
X154208729Y-97243448D01*
X154172991Y-97272778D01*
X154172989Y-97272779D01*
X154016467Y-97356443D01*
X153959853Y-97373616D01*
X153846627Y-97407963D01*
X153780442Y-97414482D01*
X153714260Y-97421000D01*
X153625740Y-97421000D01*
X153559558Y-97414482D01*
X153493373Y-97407963D01*
X153380147Y-97373616D01*
X153323533Y-97356443D01*
X153167011Y-97272779D01*
X153167009Y-97272778D01*
X153131271Y-97243448D01*
X153029814Y-97160186D01*
X152936683Y-97046704D01*
X152917222Y-97022991D01*
X152852570Y-96902037D01*
X152833557Y-96866467D01*
X152816384Y-96809853D01*
X152782037Y-96696627D01*
X152764641Y-96520000D01*
X152782037Y-96343373D01*
X152816384Y-96230147D01*
X152833557Y-96173533D01*
X152917221Y-96017011D01*
X152917222Y-96017009D01*
X152946552Y-95981271D01*
X153029814Y-95879814D01*
X153131271Y-95796552D01*
X153167009Y-95767222D01*
X153193637Y-95752989D01*
X153323533Y-95683557D01*
X153380147Y-95666384D01*
X153493373Y-95632037D01*
X153559558Y-95625518D01*
X153625740Y-95619000D01*
X153714260Y-95619000D01*
X153780442Y-95625518D01*
X153780442Y-95625518D01*
G37*
G36*
X141080442Y-95625518D02*
X141146627Y-95632037D01*
X141259853Y-95666384D01*
X141316467Y-95683557D01*
X141446363Y-95752989D01*
X141472991Y-95767222D01*
X141508729Y-95796552D01*
X141610186Y-95879814D01*
X141693448Y-95981271D01*
X141722778Y-96017009D01*
X141722779Y-96017011D01*
X141806443Y-96173533D01*
X141823616Y-96230147D01*
X141857963Y-96343373D01*
X141875359Y-96520000D01*
X141857963Y-96696627D01*
X141823616Y-96809853D01*
X141806443Y-96866467D01*
X141787430Y-96902037D01*
X141722778Y-97022991D01*
X141703317Y-97046704D01*
X141610186Y-97160186D01*
X141508729Y-97243448D01*
X141472991Y-97272778D01*
X141472989Y-97272779D01*
X141316467Y-97356443D01*
X141259853Y-97373616D01*
X141146627Y-97407963D01*
X141080442Y-97414482D01*
X141014260Y-97421000D01*
X140925740Y-97421000D01*
X140859558Y-97414482D01*
X140793373Y-97407963D01*
X140680147Y-97373616D01*
X140623533Y-97356443D01*
X140467011Y-97272779D01*
X140467009Y-97272778D01*
X140431271Y-97243448D01*
X140329814Y-97160186D01*
X140236683Y-97046704D01*
X140217222Y-97022991D01*
X140152570Y-96902037D01*
X140133557Y-96866467D01*
X140116384Y-96809853D01*
X140082037Y-96696627D01*
X140064641Y-96520000D01*
X140082037Y-96343373D01*
X140116384Y-96230147D01*
X140133557Y-96173533D01*
X140217221Y-96017011D01*
X140217222Y-96017009D01*
X140246552Y-95981271D01*
X140329814Y-95879814D01*
X140431271Y-95796552D01*
X140467009Y-95767222D01*
X140493637Y-95752989D01*
X140623533Y-95683557D01*
X140680147Y-95666384D01*
X140793373Y-95632037D01*
X140859558Y-95625518D01*
X140925740Y-95619000D01*
X141014260Y-95619000D01*
X141080442Y-95625518D01*
X141080442Y-95625518D01*
G37*
G36*
X138540442Y-95625518D02*
X138606627Y-95632037D01*
X138719853Y-95666384D01*
X138776467Y-95683557D01*
X138906363Y-95752989D01*
X138932991Y-95767222D01*
X138968729Y-95796552D01*
X139070186Y-95879814D01*
X139153448Y-95981271D01*
X139182778Y-96017009D01*
X139182779Y-96017011D01*
X139266443Y-96173533D01*
X139283616Y-96230147D01*
X139317963Y-96343373D01*
X139335359Y-96520000D01*
X139317963Y-96696627D01*
X139283616Y-96809853D01*
X139266443Y-96866467D01*
X139247430Y-96902037D01*
X139182778Y-97022991D01*
X139163317Y-97046704D01*
X139070186Y-97160186D01*
X138968729Y-97243448D01*
X138932991Y-97272778D01*
X138932989Y-97272779D01*
X138776467Y-97356443D01*
X138719853Y-97373616D01*
X138606627Y-97407963D01*
X138540442Y-97414482D01*
X138474260Y-97421000D01*
X138385740Y-97421000D01*
X138319558Y-97414482D01*
X138253373Y-97407963D01*
X138140147Y-97373616D01*
X138083533Y-97356443D01*
X137927011Y-97272779D01*
X137927009Y-97272778D01*
X137891271Y-97243448D01*
X137789814Y-97160186D01*
X137696683Y-97046704D01*
X137677222Y-97022991D01*
X137612570Y-96902037D01*
X137593557Y-96866467D01*
X137576384Y-96809853D01*
X137542037Y-96696627D01*
X137524641Y-96520000D01*
X137542037Y-96343373D01*
X137576384Y-96230147D01*
X137593557Y-96173533D01*
X137677221Y-96017011D01*
X137677222Y-96017009D01*
X137706552Y-95981271D01*
X137789814Y-95879814D01*
X137891271Y-95796552D01*
X137927009Y-95767222D01*
X137953637Y-95752989D01*
X138083533Y-95683557D01*
X138140147Y-95666384D01*
X138253373Y-95632037D01*
X138319558Y-95625518D01*
X138385740Y-95619000D01*
X138474260Y-95619000D01*
X138540442Y-95625518D01*
X138540442Y-95625518D01*
G37*
G36*
X146160442Y-95625518D02*
X146226627Y-95632037D01*
X146339853Y-95666384D01*
X146396467Y-95683557D01*
X146526363Y-95752989D01*
X146552991Y-95767222D01*
X146588729Y-95796552D01*
X146690186Y-95879814D01*
X146773448Y-95981271D01*
X146802778Y-96017009D01*
X146802779Y-96017011D01*
X146886443Y-96173533D01*
X146903616Y-96230147D01*
X146937963Y-96343373D01*
X146955359Y-96520000D01*
X146937963Y-96696627D01*
X146903616Y-96809853D01*
X146886443Y-96866467D01*
X146867430Y-96902037D01*
X146802778Y-97022991D01*
X146783317Y-97046704D01*
X146690186Y-97160186D01*
X146588729Y-97243448D01*
X146552991Y-97272778D01*
X146552989Y-97272779D01*
X146396467Y-97356443D01*
X146339853Y-97373616D01*
X146226627Y-97407963D01*
X146160442Y-97414482D01*
X146094260Y-97421000D01*
X146005740Y-97421000D01*
X145939558Y-97414482D01*
X145873373Y-97407963D01*
X145760147Y-97373616D01*
X145703533Y-97356443D01*
X145547011Y-97272779D01*
X145547009Y-97272778D01*
X145511271Y-97243448D01*
X145409814Y-97160186D01*
X145316683Y-97046704D01*
X145297222Y-97022991D01*
X145232570Y-96902037D01*
X145213557Y-96866467D01*
X145196384Y-96809853D01*
X145162037Y-96696627D01*
X145144641Y-96520000D01*
X145162037Y-96343373D01*
X145196384Y-96230147D01*
X145213557Y-96173533D01*
X145297221Y-96017011D01*
X145297222Y-96017009D01*
X145326552Y-95981271D01*
X145409814Y-95879814D01*
X145511271Y-95796552D01*
X145547009Y-95767222D01*
X145573637Y-95752989D01*
X145703533Y-95683557D01*
X145760147Y-95666384D01*
X145873373Y-95632037D01*
X145939558Y-95625518D01*
X146005740Y-95619000D01*
X146094260Y-95619000D01*
X146160442Y-95625518D01*
X146160442Y-95625518D01*
G37*
G36*
X118220442Y-95625518D02*
X118286627Y-95632037D01*
X118399853Y-95666384D01*
X118456467Y-95683557D01*
X118586363Y-95752989D01*
X118612991Y-95767222D01*
X118648729Y-95796552D01*
X118750186Y-95879814D01*
X118833448Y-95981271D01*
X118862778Y-96017009D01*
X118862779Y-96017011D01*
X118946443Y-96173533D01*
X118963616Y-96230147D01*
X118997963Y-96343373D01*
X119015359Y-96520000D01*
X118997963Y-96696627D01*
X118963616Y-96809853D01*
X118946443Y-96866467D01*
X118927430Y-96902037D01*
X118862778Y-97022991D01*
X118843317Y-97046704D01*
X118750186Y-97160186D01*
X118648729Y-97243448D01*
X118612991Y-97272778D01*
X118612989Y-97272779D01*
X118456467Y-97356443D01*
X118399853Y-97373616D01*
X118286627Y-97407963D01*
X118220442Y-97414482D01*
X118154260Y-97421000D01*
X118065740Y-97421000D01*
X117999558Y-97414482D01*
X117933373Y-97407963D01*
X117820147Y-97373616D01*
X117763533Y-97356443D01*
X117607011Y-97272779D01*
X117607009Y-97272778D01*
X117571271Y-97243448D01*
X117469814Y-97160186D01*
X117376683Y-97046704D01*
X117357222Y-97022991D01*
X117292570Y-96902037D01*
X117273557Y-96866467D01*
X117256384Y-96809853D01*
X117222037Y-96696627D01*
X117204641Y-96520000D01*
X117222037Y-96343373D01*
X117256384Y-96230147D01*
X117273557Y-96173533D01*
X117357221Y-96017011D01*
X117357222Y-96017009D01*
X117386552Y-95981271D01*
X117469814Y-95879814D01*
X117571271Y-95796552D01*
X117607009Y-95767222D01*
X117633637Y-95752989D01*
X117763533Y-95683557D01*
X117820147Y-95666384D01*
X117933373Y-95632037D01*
X117999558Y-95625518D01*
X118065740Y-95619000D01*
X118154260Y-95619000D01*
X118220442Y-95625518D01*
X118220442Y-95625518D01*
G37*
G36*
X120760442Y-95625518D02*
X120826627Y-95632037D01*
X120939853Y-95666384D01*
X120996467Y-95683557D01*
X121126363Y-95752989D01*
X121152991Y-95767222D01*
X121188729Y-95796552D01*
X121290186Y-95879814D01*
X121373448Y-95981271D01*
X121402778Y-96017009D01*
X121402779Y-96017011D01*
X121486443Y-96173533D01*
X121503616Y-96230147D01*
X121537963Y-96343373D01*
X121555359Y-96520000D01*
X121537963Y-96696627D01*
X121503616Y-96809853D01*
X121486443Y-96866467D01*
X121467430Y-96902037D01*
X121402778Y-97022991D01*
X121383317Y-97046704D01*
X121290186Y-97160186D01*
X121188729Y-97243448D01*
X121152991Y-97272778D01*
X121152989Y-97272779D01*
X120996467Y-97356443D01*
X120939853Y-97373616D01*
X120826627Y-97407963D01*
X120760442Y-97414482D01*
X120694260Y-97421000D01*
X120605740Y-97421000D01*
X120539558Y-97414482D01*
X120473373Y-97407963D01*
X120360147Y-97373616D01*
X120303533Y-97356443D01*
X120147011Y-97272779D01*
X120147009Y-97272778D01*
X120111271Y-97243448D01*
X120009814Y-97160186D01*
X119916683Y-97046704D01*
X119897222Y-97022991D01*
X119832570Y-96902037D01*
X119813557Y-96866467D01*
X119796384Y-96809853D01*
X119762037Y-96696627D01*
X119744641Y-96520000D01*
X119762037Y-96343373D01*
X119796384Y-96230147D01*
X119813557Y-96173533D01*
X119897221Y-96017011D01*
X119897222Y-96017009D01*
X119926552Y-95981271D01*
X120009814Y-95879814D01*
X120111271Y-95796552D01*
X120147009Y-95767222D01*
X120173637Y-95752989D01*
X120303533Y-95683557D01*
X120360147Y-95666384D01*
X120473373Y-95632037D01*
X120539558Y-95625518D01*
X120605740Y-95619000D01*
X120694260Y-95619000D01*
X120760442Y-95625518D01*
X120760442Y-95625518D01*
G37*
G36*
X123300442Y-95625518D02*
X123366627Y-95632037D01*
X123479853Y-95666384D01*
X123536467Y-95683557D01*
X123666363Y-95752989D01*
X123692991Y-95767222D01*
X123728729Y-95796552D01*
X123830186Y-95879814D01*
X123913448Y-95981271D01*
X123942778Y-96017009D01*
X123942779Y-96017011D01*
X124026443Y-96173533D01*
X124043616Y-96230147D01*
X124077963Y-96343373D01*
X124095359Y-96520000D01*
X124077963Y-96696627D01*
X124043616Y-96809853D01*
X124026443Y-96866467D01*
X124007430Y-96902037D01*
X123942778Y-97022991D01*
X123923317Y-97046704D01*
X123830186Y-97160186D01*
X123728729Y-97243448D01*
X123692991Y-97272778D01*
X123692989Y-97272779D01*
X123536467Y-97356443D01*
X123479853Y-97373616D01*
X123366627Y-97407963D01*
X123300442Y-97414482D01*
X123234260Y-97421000D01*
X123145740Y-97421000D01*
X123079558Y-97414482D01*
X123013373Y-97407963D01*
X122900147Y-97373616D01*
X122843533Y-97356443D01*
X122687011Y-97272779D01*
X122687009Y-97272778D01*
X122651271Y-97243448D01*
X122549814Y-97160186D01*
X122456683Y-97046704D01*
X122437222Y-97022991D01*
X122372570Y-96902037D01*
X122353557Y-96866467D01*
X122336384Y-96809853D01*
X122302037Y-96696627D01*
X122284641Y-96520000D01*
X122302037Y-96343373D01*
X122336384Y-96230147D01*
X122353557Y-96173533D01*
X122437221Y-96017011D01*
X122437222Y-96017009D01*
X122466552Y-95981271D01*
X122549814Y-95879814D01*
X122651271Y-95796552D01*
X122687009Y-95767222D01*
X122713637Y-95752989D01*
X122843533Y-95683557D01*
X122900147Y-95666384D01*
X123013373Y-95632037D01*
X123079558Y-95625518D01*
X123145740Y-95619000D01*
X123234260Y-95619000D01*
X123300442Y-95625518D01*
X123300442Y-95625518D01*
G37*
G36*
X136000442Y-95625518D02*
X136066627Y-95632037D01*
X136179853Y-95666384D01*
X136236467Y-95683557D01*
X136366363Y-95752989D01*
X136392991Y-95767222D01*
X136428729Y-95796552D01*
X136530186Y-95879814D01*
X136613448Y-95981271D01*
X136642778Y-96017009D01*
X136642779Y-96017011D01*
X136726443Y-96173533D01*
X136743616Y-96230147D01*
X136777963Y-96343373D01*
X136795359Y-96520000D01*
X136777963Y-96696627D01*
X136743616Y-96809853D01*
X136726443Y-96866467D01*
X136707430Y-96902037D01*
X136642778Y-97022991D01*
X136623317Y-97046704D01*
X136530186Y-97160186D01*
X136428729Y-97243448D01*
X136392991Y-97272778D01*
X136392989Y-97272779D01*
X136236467Y-97356443D01*
X136179853Y-97373616D01*
X136066627Y-97407963D01*
X136000442Y-97414482D01*
X135934260Y-97421000D01*
X135845740Y-97421000D01*
X135779558Y-97414482D01*
X135713373Y-97407963D01*
X135600147Y-97373616D01*
X135543533Y-97356443D01*
X135387011Y-97272779D01*
X135387009Y-97272778D01*
X135351271Y-97243448D01*
X135249814Y-97160186D01*
X135156683Y-97046704D01*
X135137222Y-97022991D01*
X135072570Y-96902037D01*
X135053557Y-96866467D01*
X135036384Y-96809853D01*
X135002037Y-96696627D01*
X134984641Y-96520000D01*
X135002037Y-96343373D01*
X135036384Y-96230147D01*
X135053557Y-96173533D01*
X135137221Y-96017011D01*
X135137222Y-96017009D01*
X135166552Y-95981271D01*
X135249814Y-95879814D01*
X135351271Y-95796552D01*
X135387009Y-95767222D01*
X135413637Y-95752989D01*
X135543533Y-95683557D01*
X135600147Y-95666384D01*
X135713373Y-95632037D01*
X135779558Y-95625518D01*
X135845740Y-95619000D01*
X135934260Y-95619000D01*
X136000442Y-95625518D01*
X136000442Y-95625518D01*
G37*
G36*
X125840442Y-95625518D02*
X125906627Y-95632037D01*
X126019853Y-95666384D01*
X126076467Y-95683557D01*
X126206363Y-95752989D01*
X126232991Y-95767222D01*
X126268729Y-95796552D01*
X126370186Y-95879814D01*
X126453448Y-95981271D01*
X126482778Y-96017009D01*
X126482779Y-96017011D01*
X126566443Y-96173533D01*
X126583616Y-96230147D01*
X126617963Y-96343373D01*
X126635359Y-96520000D01*
X126617963Y-96696627D01*
X126583616Y-96809853D01*
X126566443Y-96866467D01*
X126547430Y-96902037D01*
X126482778Y-97022991D01*
X126463317Y-97046704D01*
X126370186Y-97160186D01*
X126268729Y-97243448D01*
X126232991Y-97272778D01*
X126232989Y-97272779D01*
X126076467Y-97356443D01*
X126019853Y-97373616D01*
X125906627Y-97407963D01*
X125840442Y-97414482D01*
X125774260Y-97421000D01*
X125685740Y-97421000D01*
X125619558Y-97414482D01*
X125553373Y-97407963D01*
X125440147Y-97373616D01*
X125383533Y-97356443D01*
X125227011Y-97272779D01*
X125227009Y-97272778D01*
X125191271Y-97243448D01*
X125089814Y-97160186D01*
X124996683Y-97046704D01*
X124977222Y-97022991D01*
X124912570Y-96902037D01*
X124893557Y-96866467D01*
X124876384Y-96809853D01*
X124842037Y-96696627D01*
X124824641Y-96520000D01*
X124842037Y-96343373D01*
X124876384Y-96230147D01*
X124893557Y-96173533D01*
X124977221Y-96017011D01*
X124977222Y-96017009D01*
X125006552Y-95981271D01*
X125089814Y-95879814D01*
X125191271Y-95796552D01*
X125227009Y-95767222D01*
X125253637Y-95752989D01*
X125383533Y-95683557D01*
X125440147Y-95666384D01*
X125553373Y-95632037D01*
X125619558Y-95625518D01*
X125685740Y-95619000D01*
X125774260Y-95619000D01*
X125840442Y-95625518D01*
X125840442Y-95625518D01*
G37*
G36*
X128380442Y-95625518D02*
X128446627Y-95632037D01*
X128559853Y-95666384D01*
X128616467Y-95683557D01*
X128746363Y-95752989D01*
X128772991Y-95767222D01*
X128808729Y-95796552D01*
X128910186Y-95879814D01*
X128993448Y-95981271D01*
X129022778Y-96017009D01*
X129022779Y-96017011D01*
X129106443Y-96173533D01*
X129123616Y-96230147D01*
X129157963Y-96343373D01*
X129175359Y-96520000D01*
X129157963Y-96696627D01*
X129123616Y-96809853D01*
X129106443Y-96866467D01*
X129087430Y-96902037D01*
X129022778Y-97022991D01*
X129003317Y-97046704D01*
X128910186Y-97160186D01*
X128808729Y-97243448D01*
X128772991Y-97272778D01*
X128772989Y-97272779D01*
X128616467Y-97356443D01*
X128559853Y-97373616D01*
X128446627Y-97407963D01*
X128380442Y-97414482D01*
X128314260Y-97421000D01*
X128225740Y-97421000D01*
X128159558Y-97414482D01*
X128093373Y-97407963D01*
X127980147Y-97373616D01*
X127923533Y-97356443D01*
X127767011Y-97272779D01*
X127767009Y-97272778D01*
X127731271Y-97243448D01*
X127629814Y-97160186D01*
X127536683Y-97046704D01*
X127517222Y-97022991D01*
X127452570Y-96902037D01*
X127433557Y-96866467D01*
X127416384Y-96809853D01*
X127382037Y-96696627D01*
X127364641Y-96520000D01*
X127382037Y-96343373D01*
X127416384Y-96230147D01*
X127433557Y-96173533D01*
X127517221Y-96017011D01*
X127517222Y-96017009D01*
X127546552Y-95981271D01*
X127629814Y-95879814D01*
X127731271Y-95796552D01*
X127767009Y-95767222D01*
X127793637Y-95752989D01*
X127923533Y-95683557D01*
X127980147Y-95666384D01*
X128093373Y-95632037D01*
X128159558Y-95625518D01*
X128225740Y-95619000D01*
X128314260Y-95619000D01*
X128380442Y-95625518D01*
X128380442Y-95625518D01*
G37*
G36*
X130920442Y-95625518D02*
X130986627Y-95632037D01*
X131099853Y-95666384D01*
X131156467Y-95683557D01*
X131286363Y-95752989D01*
X131312991Y-95767222D01*
X131348729Y-95796552D01*
X131450186Y-95879814D01*
X131533448Y-95981271D01*
X131562778Y-96017009D01*
X131562779Y-96017011D01*
X131646443Y-96173533D01*
X131663616Y-96230147D01*
X131697963Y-96343373D01*
X131715359Y-96520000D01*
X131697963Y-96696627D01*
X131663616Y-96809853D01*
X131646443Y-96866467D01*
X131627430Y-96902037D01*
X131562778Y-97022991D01*
X131543317Y-97046704D01*
X131450186Y-97160186D01*
X131348729Y-97243448D01*
X131312991Y-97272778D01*
X131312989Y-97272779D01*
X131156467Y-97356443D01*
X131099853Y-97373616D01*
X130986627Y-97407963D01*
X130920442Y-97414482D01*
X130854260Y-97421000D01*
X130765740Y-97421000D01*
X130699558Y-97414482D01*
X130633373Y-97407963D01*
X130520147Y-97373616D01*
X130463533Y-97356443D01*
X130307011Y-97272779D01*
X130307009Y-97272778D01*
X130271271Y-97243448D01*
X130169814Y-97160186D01*
X130076683Y-97046704D01*
X130057222Y-97022991D01*
X129992570Y-96902037D01*
X129973557Y-96866467D01*
X129956384Y-96809853D01*
X129922037Y-96696627D01*
X129904641Y-96520000D01*
X129922037Y-96343373D01*
X129956384Y-96230147D01*
X129973557Y-96173533D01*
X130057221Y-96017011D01*
X130057222Y-96017009D01*
X130086552Y-95981271D01*
X130169814Y-95879814D01*
X130271271Y-95796552D01*
X130307009Y-95767222D01*
X130333637Y-95752989D01*
X130463533Y-95683557D01*
X130520147Y-95666384D01*
X130633373Y-95632037D01*
X130699558Y-95625518D01*
X130765740Y-95619000D01*
X130854260Y-95619000D01*
X130920442Y-95625518D01*
X130920442Y-95625518D01*
G37*
G36*
X133460442Y-95625518D02*
X133526627Y-95632037D01*
X133639853Y-95666384D01*
X133696467Y-95683557D01*
X133826363Y-95752989D01*
X133852991Y-95767222D01*
X133888729Y-95796552D01*
X133990186Y-95879814D01*
X134073448Y-95981271D01*
X134102778Y-96017009D01*
X134102779Y-96017011D01*
X134186443Y-96173533D01*
X134203616Y-96230147D01*
X134237963Y-96343373D01*
X134255359Y-96520000D01*
X134237963Y-96696627D01*
X134203616Y-96809853D01*
X134186443Y-96866467D01*
X134167430Y-96902037D01*
X134102778Y-97022991D01*
X134083317Y-97046704D01*
X133990186Y-97160186D01*
X133888729Y-97243448D01*
X133852991Y-97272778D01*
X133852989Y-97272779D01*
X133696467Y-97356443D01*
X133639853Y-97373616D01*
X133526627Y-97407963D01*
X133460442Y-97414482D01*
X133394260Y-97421000D01*
X133305740Y-97421000D01*
X133239558Y-97414482D01*
X133173373Y-97407963D01*
X133060147Y-97373616D01*
X133003533Y-97356443D01*
X132847011Y-97272779D01*
X132847009Y-97272778D01*
X132811271Y-97243448D01*
X132709814Y-97160186D01*
X132616683Y-97046704D01*
X132597222Y-97022991D01*
X132532570Y-96902037D01*
X132513557Y-96866467D01*
X132496384Y-96809853D01*
X132462037Y-96696627D01*
X132444641Y-96520000D01*
X132462037Y-96343373D01*
X132496384Y-96230147D01*
X132513557Y-96173533D01*
X132597221Y-96017011D01*
X132597222Y-96017009D01*
X132626552Y-95981271D01*
X132709814Y-95879814D01*
X132811271Y-95796552D01*
X132847009Y-95767222D01*
X132873637Y-95752989D01*
X133003533Y-95683557D01*
X133060147Y-95666384D01*
X133173373Y-95632037D01*
X133239558Y-95625518D01*
X133305740Y-95619000D01*
X133394260Y-95619000D01*
X133460442Y-95625518D01*
X133460442Y-95625518D01*
G37*
G36*
X148700442Y-95625518D02*
X148766627Y-95632037D01*
X148879853Y-95666384D01*
X148936467Y-95683557D01*
X149066363Y-95752989D01*
X149092991Y-95767222D01*
X149128729Y-95796552D01*
X149230186Y-95879814D01*
X149313448Y-95981271D01*
X149342778Y-96017009D01*
X149342779Y-96017011D01*
X149426443Y-96173533D01*
X149443616Y-96230147D01*
X149477963Y-96343373D01*
X149495359Y-96520000D01*
X149477963Y-96696627D01*
X149443616Y-96809853D01*
X149426443Y-96866467D01*
X149407430Y-96902037D01*
X149342778Y-97022991D01*
X149323317Y-97046704D01*
X149230186Y-97160186D01*
X149128729Y-97243448D01*
X149092991Y-97272778D01*
X149092989Y-97272779D01*
X148936467Y-97356443D01*
X148879853Y-97373616D01*
X148766627Y-97407963D01*
X148700442Y-97414482D01*
X148634260Y-97421000D01*
X148545740Y-97421000D01*
X148479558Y-97414482D01*
X148413373Y-97407963D01*
X148300147Y-97373616D01*
X148243533Y-97356443D01*
X148087011Y-97272779D01*
X148087009Y-97272778D01*
X148051271Y-97243448D01*
X147949814Y-97160186D01*
X147856683Y-97046704D01*
X147837222Y-97022991D01*
X147772570Y-96902037D01*
X147753557Y-96866467D01*
X147736384Y-96809853D01*
X147702037Y-96696627D01*
X147684641Y-96520000D01*
X147702037Y-96343373D01*
X147736384Y-96230147D01*
X147753557Y-96173533D01*
X147837221Y-96017011D01*
X147837222Y-96017009D01*
X147866552Y-95981271D01*
X147949814Y-95879814D01*
X148051271Y-95796552D01*
X148087009Y-95767222D01*
X148113637Y-95752989D01*
X148243533Y-95683557D01*
X148300147Y-95666384D01*
X148413373Y-95632037D01*
X148479558Y-95625518D01*
X148545740Y-95619000D01*
X148634260Y-95619000D01*
X148700442Y-95625518D01*
X148700442Y-95625518D01*
G37*
G36*
X151240442Y-95625518D02*
X151306627Y-95632037D01*
X151419853Y-95666384D01*
X151476467Y-95683557D01*
X151606363Y-95752989D01*
X151632991Y-95767222D01*
X151668729Y-95796552D01*
X151770186Y-95879814D01*
X151853448Y-95981271D01*
X151882778Y-96017009D01*
X151882779Y-96017011D01*
X151966443Y-96173533D01*
X151983616Y-96230147D01*
X152017963Y-96343373D01*
X152035359Y-96520000D01*
X152017963Y-96696627D01*
X151983616Y-96809853D01*
X151966443Y-96866467D01*
X151947430Y-96902037D01*
X151882778Y-97022991D01*
X151863317Y-97046704D01*
X151770186Y-97160186D01*
X151668729Y-97243448D01*
X151632991Y-97272778D01*
X151632989Y-97272779D01*
X151476467Y-97356443D01*
X151419853Y-97373616D01*
X151306627Y-97407963D01*
X151240442Y-97414482D01*
X151174260Y-97421000D01*
X151085740Y-97421000D01*
X151019558Y-97414482D01*
X150953373Y-97407963D01*
X150840147Y-97373616D01*
X150783533Y-97356443D01*
X150627011Y-97272779D01*
X150627009Y-97272778D01*
X150591271Y-97243448D01*
X150489814Y-97160186D01*
X150396683Y-97046704D01*
X150377222Y-97022991D01*
X150312570Y-96902037D01*
X150293557Y-96866467D01*
X150276384Y-96809853D01*
X150242037Y-96696627D01*
X150224641Y-96520000D01*
X150242037Y-96343373D01*
X150276384Y-96230147D01*
X150293557Y-96173533D01*
X150377221Y-96017011D01*
X150377222Y-96017009D01*
X150406552Y-95981271D01*
X150489814Y-95879814D01*
X150591271Y-95796552D01*
X150627009Y-95767222D01*
X150653637Y-95752989D01*
X150783533Y-95683557D01*
X150840147Y-95666384D01*
X150953373Y-95632037D01*
X151019558Y-95625518D01*
X151085740Y-95619000D01*
X151174260Y-95619000D01*
X151240442Y-95625518D01*
X151240442Y-95625518D01*
G37*
G36*
X156320442Y-95625518D02*
X156386627Y-95632037D01*
X156499853Y-95666384D01*
X156556467Y-95683557D01*
X156686363Y-95752989D01*
X156712991Y-95767222D01*
X156748729Y-95796552D01*
X156850186Y-95879814D01*
X156933448Y-95981271D01*
X156962778Y-96017009D01*
X156962779Y-96017011D01*
X157046443Y-96173533D01*
X157063616Y-96230147D01*
X157097963Y-96343373D01*
X157115359Y-96520000D01*
X157097963Y-96696627D01*
X157063616Y-96809853D01*
X157046443Y-96866467D01*
X157027430Y-96902037D01*
X156962778Y-97022991D01*
X156943317Y-97046704D01*
X156850186Y-97160186D01*
X156748729Y-97243448D01*
X156712991Y-97272778D01*
X156712989Y-97272779D01*
X156556467Y-97356443D01*
X156499853Y-97373616D01*
X156386627Y-97407963D01*
X156320442Y-97414482D01*
X156254260Y-97421000D01*
X156165740Y-97421000D01*
X156099558Y-97414482D01*
X156033373Y-97407963D01*
X155920147Y-97373616D01*
X155863533Y-97356443D01*
X155707011Y-97272779D01*
X155707009Y-97272778D01*
X155671271Y-97243448D01*
X155569814Y-97160186D01*
X155476683Y-97046704D01*
X155457222Y-97022991D01*
X155392570Y-96902037D01*
X155373557Y-96866467D01*
X155356384Y-96809853D01*
X155322037Y-96696627D01*
X155304641Y-96520000D01*
X155322037Y-96343373D01*
X155356384Y-96230147D01*
X155373557Y-96173533D01*
X155457221Y-96017011D01*
X155457222Y-96017009D01*
X155486552Y-95981271D01*
X155569814Y-95879814D01*
X155671271Y-95796552D01*
X155707009Y-95767222D01*
X155733637Y-95752989D01*
X155863533Y-95683557D01*
X155920147Y-95666384D01*
X156033373Y-95632037D01*
X156099558Y-95625518D01*
X156165740Y-95619000D01*
X156254260Y-95619000D01*
X156320442Y-95625518D01*
X156320442Y-95625518D01*
G37*
G36*
X158860442Y-95625518D02*
X158926627Y-95632037D01*
X159039853Y-95666384D01*
X159096467Y-95683557D01*
X159226363Y-95752989D01*
X159252991Y-95767222D01*
X159288729Y-95796552D01*
X159390186Y-95879814D01*
X159473448Y-95981271D01*
X159502778Y-96017009D01*
X159502779Y-96017011D01*
X159586443Y-96173533D01*
X159603616Y-96230147D01*
X159637963Y-96343373D01*
X159655359Y-96520000D01*
X159637963Y-96696627D01*
X159603616Y-96809853D01*
X159586443Y-96866467D01*
X159567430Y-96902037D01*
X159502778Y-97022991D01*
X159483317Y-97046704D01*
X159390186Y-97160186D01*
X159288729Y-97243448D01*
X159252991Y-97272778D01*
X159252989Y-97272779D01*
X159096467Y-97356443D01*
X159039853Y-97373616D01*
X158926627Y-97407963D01*
X158860442Y-97414482D01*
X158794260Y-97421000D01*
X158705740Y-97421000D01*
X158639558Y-97414482D01*
X158573373Y-97407963D01*
X158460147Y-97373616D01*
X158403533Y-97356443D01*
X158247011Y-97272779D01*
X158247009Y-97272778D01*
X158211271Y-97243448D01*
X158109814Y-97160186D01*
X158016683Y-97046704D01*
X157997222Y-97022991D01*
X157932570Y-96902037D01*
X157913557Y-96866467D01*
X157896384Y-96809853D01*
X157862037Y-96696627D01*
X157844641Y-96520000D01*
X157862037Y-96343373D01*
X157896384Y-96230147D01*
X157913557Y-96173533D01*
X157997221Y-96017011D01*
X157997222Y-96017009D01*
X158026552Y-95981271D01*
X158109814Y-95879814D01*
X158211271Y-95796552D01*
X158247009Y-95767222D01*
X158273637Y-95752989D01*
X158403533Y-95683557D01*
X158460147Y-95666384D01*
X158573373Y-95632037D01*
X158639558Y-95625518D01*
X158705740Y-95619000D01*
X158794260Y-95619000D01*
X158860442Y-95625518D01*
X158860442Y-95625518D01*
G37*
G36*
X161400442Y-95625518D02*
X161466627Y-95632037D01*
X161579853Y-95666384D01*
X161636467Y-95683557D01*
X161766363Y-95752989D01*
X161792991Y-95767222D01*
X161828729Y-95796552D01*
X161930186Y-95879814D01*
X162013448Y-95981271D01*
X162042778Y-96017009D01*
X162042779Y-96017011D01*
X162126443Y-96173533D01*
X162143616Y-96230147D01*
X162177963Y-96343373D01*
X162195359Y-96520000D01*
X162177963Y-96696627D01*
X162143616Y-96809853D01*
X162126443Y-96866467D01*
X162107430Y-96902037D01*
X162042778Y-97022991D01*
X162023317Y-97046704D01*
X161930186Y-97160186D01*
X161828729Y-97243448D01*
X161792991Y-97272778D01*
X161792989Y-97272779D01*
X161636467Y-97356443D01*
X161579853Y-97373616D01*
X161466627Y-97407963D01*
X161400442Y-97414482D01*
X161334260Y-97421000D01*
X161245740Y-97421000D01*
X161179558Y-97414482D01*
X161113373Y-97407963D01*
X161000147Y-97373616D01*
X160943533Y-97356443D01*
X160787011Y-97272779D01*
X160787009Y-97272778D01*
X160751271Y-97243448D01*
X160649814Y-97160186D01*
X160556683Y-97046704D01*
X160537222Y-97022991D01*
X160472570Y-96902037D01*
X160453557Y-96866467D01*
X160436384Y-96809853D01*
X160402037Y-96696627D01*
X160384641Y-96520000D01*
X160402037Y-96343373D01*
X160436384Y-96230147D01*
X160453557Y-96173533D01*
X160537221Y-96017011D01*
X160537222Y-96017009D01*
X160566552Y-95981271D01*
X160649814Y-95879814D01*
X160751271Y-95796552D01*
X160787009Y-95767222D01*
X160813637Y-95752989D01*
X160943533Y-95683557D01*
X161000147Y-95666384D01*
X161113373Y-95632037D01*
X161179558Y-95625518D01*
X161245740Y-95619000D01*
X161334260Y-95619000D01*
X161400442Y-95625518D01*
X161400442Y-95625518D01*
G37*
G36*
X163940442Y-95625518D02*
X164006627Y-95632037D01*
X164119853Y-95666384D01*
X164176467Y-95683557D01*
X164306363Y-95752989D01*
X164332991Y-95767222D01*
X164368729Y-95796552D01*
X164470186Y-95879814D01*
X164553448Y-95981271D01*
X164582778Y-96017009D01*
X164582779Y-96017011D01*
X164666443Y-96173533D01*
X164683616Y-96230147D01*
X164717963Y-96343373D01*
X164735359Y-96520000D01*
X164717963Y-96696627D01*
X164683616Y-96809853D01*
X164666443Y-96866467D01*
X164647430Y-96902037D01*
X164582778Y-97022991D01*
X164563317Y-97046704D01*
X164470186Y-97160186D01*
X164368729Y-97243448D01*
X164332991Y-97272778D01*
X164332989Y-97272779D01*
X164176467Y-97356443D01*
X164119853Y-97373616D01*
X164006627Y-97407963D01*
X163940442Y-97414482D01*
X163874260Y-97421000D01*
X163785740Y-97421000D01*
X163719558Y-97414482D01*
X163653373Y-97407963D01*
X163540147Y-97373616D01*
X163483533Y-97356443D01*
X163327011Y-97272779D01*
X163327009Y-97272778D01*
X163291271Y-97243448D01*
X163189814Y-97160186D01*
X163096683Y-97046704D01*
X163077222Y-97022991D01*
X163012570Y-96902037D01*
X162993557Y-96866467D01*
X162976384Y-96809853D01*
X162942037Y-96696627D01*
X162924641Y-96520000D01*
X162942037Y-96343373D01*
X162976384Y-96230147D01*
X162993557Y-96173533D01*
X163077221Y-96017011D01*
X163077222Y-96017009D01*
X163106552Y-95981271D01*
X163189814Y-95879814D01*
X163291271Y-95796552D01*
X163327009Y-95767222D01*
X163353637Y-95752989D01*
X163483533Y-95683557D01*
X163540147Y-95666384D01*
X163653373Y-95632037D01*
X163719558Y-95625518D01*
X163785740Y-95619000D01*
X163874260Y-95619000D01*
X163940442Y-95625518D01*
X163940442Y-95625518D01*
G37*
G36*
X167271000Y-97421000D02*
X165469000Y-97421000D01*
X165469000Y-95619000D01*
X167271000Y-95619000D01*
X167271000Y-97421000D01*
X167271000Y-97421000D01*
G37*
G36*
X94228228Y-94506704D02*
X94383100Y-94570854D01*
X94522481Y-94663986D01*
X94641015Y-94782520D01*
X94734147Y-94921901D01*
X94798297Y-95076773D01*
X94831000Y-95241185D01*
X94831000Y-95408817D01*
X94798297Y-95573229D01*
X94734147Y-95728101D01*
X94641015Y-95867482D01*
X94522481Y-95986016D01*
X94383100Y-96079148D01*
X94228228Y-96143298D01*
X94063816Y-96176001D01*
X93896184Y-96176001D01*
X93731772Y-96143298D01*
X93576900Y-96079148D01*
X93437519Y-95986016D01*
X93318985Y-95867482D01*
X93225853Y-95728101D01*
X93161703Y-95573229D01*
X93129000Y-95408817D01*
X93129000Y-95241185D01*
X93161703Y-95076773D01*
X93225853Y-94921901D01*
X93318985Y-94782520D01*
X93437519Y-94663986D01*
X93576900Y-94570854D01*
X93731772Y-94506704D01*
X93896184Y-94474001D01*
X94063816Y-94474001D01*
X94228228Y-94506704D01*
X94228228Y-94506704D01*
G37*
G36*
X109468228Y-94506704D02*
X109623100Y-94570854D01*
X109762481Y-94663986D01*
X109881015Y-94782520D01*
X109974147Y-94921901D01*
X110038297Y-95076773D01*
X110071000Y-95241185D01*
X110071000Y-95408817D01*
X110038297Y-95573229D01*
X109974147Y-95728101D01*
X109881015Y-95867482D01*
X109762481Y-95986016D01*
X109623100Y-96079148D01*
X109468228Y-96143298D01*
X109303816Y-96176001D01*
X109136184Y-96176001D01*
X108971772Y-96143298D01*
X108816900Y-96079148D01*
X108677519Y-95986016D01*
X108558985Y-95867482D01*
X108465853Y-95728101D01*
X108401703Y-95573229D01*
X108369000Y-95408817D01*
X108369000Y-95241185D01*
X108401703Y-95076773D01*
X108465853Y-94921901D01*
X108558985Y-94782520D01*
X108677519Y-94663986D01*
X108816900Y-94570854D01*
X108971772Y-94506704D01*
X109136184Y-94474001D01*
X109303816Y-94474001D01*
X109468228Y-94506704D01*
X109468228Y-94506704D01*
G37*
G36*
X104388228Y-94506704D02*
X104543100Y-94570854D01*
X104682481Y-94663986D01*
X104801015Y-94782520D01*
X104894147Y-94921901D01*
X104958297Y-95076773D01*
X104991000Y-95241185D01*
X104991000Y-95408817D01*
X104958297Y-95573229D01*
X104894147Y-95728101D01*
X104801015Y-95867482D01*
X104682481Y-95986016D01*
X104543100Y-96079148D01*
X104388228Y-96143298D01*
X104223816Y-96176001D01*
X104056184Y-96176001D01*
X103891772Y-96143298D01*
X103736900Y-96079148D01*
X103597519Y-95986016D01*
X103478985Y-95867482D01*
X103385853Y-95728101D01*
X103321703Y-95573229D01*
X103289000Y-95408817D01*
X103289000Y-95241185D01*
X103321703Y-95076773D01*
X103385853Y-94921901D01*
X103478985Y-94782520D01*
X103597519Y-94663986D01*
X103736900Y-94570854D01*
X103891772Y-94506704D01*
X104056184Y-94474001D01*
X104223816Y-94474001D01*
X104388228Y-94506704D01*
X104388228Y-94506704D01*
G37*
G36*
X101848228Y-94506704D02*
X102003100Y-94570854D01*
X102142481Y-94663986D01*
X102261015Y-94782520D01*
X102354147Y-94921901D01*
X102418297Y-95076773D01*
X102451000Y-95241185D01*
X102451000Y-95408817D01*
X102418297Y-95573229D01*
X102354147Y-95728101D01*
X102261015Y-95867482D01*
X102142481Y-95986016D01*
X102003100Y-96079148D01*
X101848228Y-96143298D01*
X101683816Y-96176001D01*
X101516184Y-96176001D01*
X101351772Y-96143298D01*
X101196900Y-96079148D01*
X101057519Y-95986016D01*
X100938985Y-95867482D01*
X100845853Y-95728101D01*
X100781703Y-95573229D01*
X100749000Y-95408817D01*
X100749000Y-95241185D01*
X100781703Y-95076773D01*
X100845853Y-94921901D01*
X100938985Y-94782520D01*
X101057519Y-94663986D01*
X101196900Y-94570854D01*
X101351772Y-94506704D01*
X101516184Y-94474001D01*
X101683816Y-94474001D01*
X101848228Y-94506704D01*
X101848228Y-94506704D01*
G37*
G36*
X90280442Y-94355518D02*
X90346627Y-94362037D01*
X90459853Y-94396384D01*
X90516467Y-94413557D01*
X90629548Y-94474001D01*
X90672991Y-94497222D01*
X90708729Y-94526552D01*
X90810186Y-94609814D01*
X90893448Y-94711271D01*
X90922778Y-94747009D01*
X90922779Y-94747011D01*
X91006443Y-94903533D01*
X91006443Y-94903534D01*
X91057963Y-95073373D01*
X91075359Y-95250000D01*
X91057963Y-95426627D01*
X91023616Y-95539853D01*
X91006443Y-95596467D01*
X90987430Y-95632037D01*
X90922778Y-95752991D01*
X90893448Y-95788729D01*
X90810186Y-95890186D01*
X90708729Y-95973448D01*
X90672991Y-96002778D01*
X90672989Y-96002779D01*
X90516467Y-96086443D01*
X90459853Y-96103616D01*
X90346627Y-96137963D01*
X90292469Y-96143297D01*
X90214260Y-96151000D01*
X90125740Y-96151000D01*
X90047531Y-96143297D01*
X89993373Y-96137963D01*
X89880147Y-96103616D01*
X89823533Y-96086443D01*
X89667011Y-96002779D01*
X89667009Y-96002778D01*
X89631271Y-95973448D01*
X89529814Y-95890186D01*
X89446552Y-95788729D01*
X89417222Y-95752991D01*
X89352570Y-95632037D01*
X89333557Y-95596467D01*
X89316384Y-95539853D01*
X89282037Y-95426627D01*
X89264641Y-95250000D01*
X89282037Y-95073373D01*
X89333557Y-94903534D01*
X89333557Y-94903533D01*
X89417221Y-94747011D01*
X89417222Y-94747009D01*
X89446552Y-94711271D01*
X89529814Y-94609814D01*
X89631271Y-94526552D01*
X89667009Y-94497222D01*
X89710452Y-94474001D01*
X89823533Y-94413557D01*
X89880147Y-94396384D01*
X89993373Y-94362037D01*
X90059558Y-94355518D01*
X90125740Y-94349000D01*
X90214260Y-94349000D01*
X90280442Y-94355518D01*
X90280442Y-94355518D01*
G37*
G36*
X104388228Y-91966704D02*
X104543100Y-92030854D01*
X104682481Y-92123986D01*
X104801015Y-92242520D01*
X104894147Y-92381901D01*
X104958297Y-92536773D01*
X104991000Y-92701185D01*
X104991000Y-92868817D01*
X104958297Y-93033229D01*
X104894147Y-93188101D01*
X104801015Y-93327482D01*
X104682481Y-93446016D01*
X104543100Y-93539148D01*
X104388228Y-93603298D01*
X104223816Y-93636001D01*
X104056184Y-93636001D01*
X103891772Y-93603298D01*
X103736900Y-93539148D01*
X103597519Y-93446016D01*
X103478985Y-93327482D01*
X103385853Y-93188101D01*
X103321703Y-93033229D01*
X103289000Y-92868817D01*
X103289000Y-92701185D01*
X103321703Y-92536773D01*
X103385853Y-92381901D01*
X103478985Y-92242520D01*
X103597519Y-92123986D01*
X103736900Y-92030854D01*
X103891772Y-91966704D01*
X104056184Y-91934001D01*
X104223816Y-91934001D01*
X104388228Y-91966704D01*
X104388228Y-91966704D01*
G37*
G36*
X109468228Y-91966704D02*
X109623100Y-92030854D01*
X109762481Y-92123986D01*
X109881015Y-92242520D01*
X109974147Y-92381901D01*
X110038297Y-92536773D01*
X110071000Y-92701185D01*
X110071000Y-92868817D01*
X110038297Y-93033229D01*
X109974147Y-93188101D01*
X109881015Y-93327482D01*
X109762481Y-93446016D01*
X109623100Y-93539148D01*
X109468228Y-93603298D01*
X109303816Y-93636001D01*
X109136184Y-93636001D01*
X108971772Y-93603298D01*
X108816900Y-93539148D01*
X108677519Y-93446016D01*
X108558985Y-93327482D01*
X108465853Y-93188101D01*
X108401703Y-93033229D01*
X108369000Y-92868817D01*
X108369000Y-92701185D01*
X108401703Y-92536773D01*
X108465853Y-92381901D01*
X108558985Y-92242520D01*
X108677519Y-92123986D01*
X108816900Y-92030854D01*
X108971772Y-91966704D01*
X109136184Y-91934001D01*
X109303816Y-91934001D01*
X109468228Y-91966704D01*
X109468228Y-91966704D01*
G37*
G36*
X101848228Y-91966704D02*
X102003100Y-92030854D01*
X102142481Y-92123986D01*
X102261015Y-92242520D01*
X102354147Y-92381901D01*
X102418297Y-92536773D01*
X102451000Y-92701185D01*
X102451000Y-92868817D01*
X102418297Y-93033229D01*
X102354147Y-93188101D01*
X102261015Y-93327482D01*
X102142481Y-93446016D01*
X102003100Y-93539148D01*
X101848228Y-93603298D01*
X101683816Y-93636001D01*
X101516184Y-93636001D01*
X101351772Y-93603298D01*
X101196900Y-93539148D01*
X101057519Y-93446016D01*
X100938985Y-93327482D01*
X100845853Y-93188101D01*
X100781703Y-93033229D01*
X100749000Y-92868817D01*
X100749000Y-92701185D01*
X100781703Y-92536773D01*
X100845853Y-92381901D01*
X100938985Y-92242520D01*
X101057519Y-92123986D01*
X101196900Y-92030854D01*
X101351772Y-91966704D01*
X101516184Y-91934001D01*
X101683816Y-91934001D01*
X101848228Y-91966704D01*
X101848228Y-91966704D01*
G37*
G36*
X94228228Y-91966704D02*
X94383100Y-92030854D01*
X94522481Y-92123986D01*
X94641015Y-92242520D01*
X94734147Y-92381901D01*
X94798297Y-92536773D01*
X94831000Y-92701185D01*
X94831000Y-92868817D01*
X94798297Y-93033229D01*
X94734147Y-93188101D01*
X94641015Y-93327482D01*
X94522481Y-93446016D01*
X94383100Y-93539148D01*
X94228228Y-93603298D01*
X94063816Y-93636001D01*
X93896184Y-93636001D01*
X93731772Y-93603298D01*
X93576900Y-93539148D01*
X93437519Y-93446016D01*
X93318985Y-93327482D01*
X93225853Y-93188101D01*
X93161703Y-93033229D01*
X93129000Y-92868817D01*
X93129000Y-92701185D01*
X93161703Y-92536773D01*
X93225853Y-92381901D01*
X93318985Y-92242520D01*
X93437519Y-92123986D01*
X93576900Y-92030854D01*
X93731772Y-91966704D01*
X93896184Y-91934001D01*
X94063816Y-91934001D01*
X94228228Y-91966704D01*
X94228228Y-91966704D01*
G37*
G36*
X90280442Y-91815518D02*
X90346627Y-91822037D01*
X90459853Y-91856384D01*
X90516467Y-91873557D01*
X90629548Y-91934001D01*
X90672991Y-91957222D01*
X90708729Y-91986552D01*
X90810186Y-92069814D01*
X90893448Y-92171271D01*
X90922778Y-92207009D01*
X90922779Y-92207011D01*
X91006443Y-92363533D01*
X91006443Y-92363534D01*
X91057963Y-92533373D01*
X91075359Y-92710000D01*
X91057963Y-92886627D01*
X91023616Y-92999853D01*
X91006443Y-93056467D01*
X90936082Y-93188101D01*
X90922778Y-93212991D01*
X90893448Y-93248729D01*
X90810186Y-93350186D01*
X90708729Y-93433448D01*
X90672991Y-93462778D01*
X90672989Y-93462779D01*
X90516467Y-93546443D01*
X90459853Y-93563616D01*
X90346627Y-93597963D01*
X90292469Y-93603297D01*
X90214260Y-93611000D01*
X90125740Y-93611000D01*
X90047531Y-93603297D01*
X89993373Y-93597963D01*
X89880147Y-93563616D01*
X89823533Y-93546443D01*
X89667011Y-93462779D01*
X89667009Y-93462778D01*
X89631271Y-93433448D01*
X89529814Y-93350186D01*
X89446552Y-93248729D01*
X89417222Y-93212991D01*
X89403918Y-93188101D01*
X89333557Y-93056467D01*
X89316384Y-92999853D01*
X89282037Y-92886627D01*
X89264641Y-92710000D01*
X89282037Y-92533373D01*
X89333557Y-92363534D01*
X89333557Y-92363533D01*
X89417221Y-92207011D01*
X89417222Y-92207009D01*
X89446552Y-92171271D01*
X89529814Y-92069814D01*
X89631271Y-91986552D01*
X89667009Y-91957222D01*
X89710452Y-91934001D01*
X89823533Y-91873557D01*
X89880147Y-91856384D01*
X89993373Y-91822037D01*
X90059558Y-91815518D01*
X90125740Y-91809000D01*
X90214260Y-91809000D01*
X90280442Y-91815518D01*
X90280442Y-91815518D01*
G37*
G36*
X94228228Y-89426704D02*
X94383100Y-89490854D01*
X94522481Y-89583986D01*
X94641015Y-89702520D01*
X94734147Y-89841901D01*
X94798297Y-89996773D01*
X94831000Y-90161185D01*
X94831000Y-90328817D01*
X94798297Y-90493229D01*
X94734147Y-90648101D01*
X94641015Y-90787482D01*
X94522481Y-90906016D01*
X94383100Y-90999148D01*
X94228228Y-91063298D01*
X94063816Y-91096001D01*
X93896184Y-91096001D01*
X93731772Y-91063298D01*
X93576900Y-90999148D01*
X93437519Y-90906016D01*
X93318985Y-90787482D01*
X93225853Y-90648101D01*
X93161703Y-90493229D01*
X93129000Y-90328817D01*
X93129000Y-90161185D01*
X93161703Y-89996773D01*
X93225853Y-89841901D01*
X93318985Y-89702520D01*
X93437519Y-89583986D01*
X93576900Y-89490854D01*
X93731772Y-89426704D01*
X93896184Y-89394001D01*
X94063816Y-89394001D01*
X94228228Y-89426704D01*
X94228228Y-89426704D01*
G37*
G36*
X109468228Y-89426704D02*
X109623100Y-89490854D01*
X109762481Y-89583986D01*
X109881015Y-89702520D01*
X109974147Y-89841901D01*
X110038297Y-89996773D01*
X110071000Y-90161185D01*
X110071000Y-90328817D01*
X110038297Y-90493229D01*
X109974147Y-90648101D01*
X109881015Y-90787482D01*
X109762481Y-90906016D01*
X109623100Y-90999148D01*
X109468228Y-91063298D01*
X109303816Y-91096001D01*
X109136184Y-91096001D01*
X108971772Y-91063298D01*
X108816900Y-90999148D01*
X108677519Y-90906016D01*
X108558985Y-90787482D01*
X108465853Y-90648101D01*
X108401703Y-90493229D01*
X108369000Y-90328817D01*
X108369000Y-90161185D01*
X108401703Y-89996773D01*
X108465853Y-89841901D01*
X108558985Y-89702520D01*
X108677519Y-89583986D01*
X108816900Y-89490854D01*
X108971772Y-89426704D01*
X109136184Y-89394001D01*
X109303816Y-89394001D01*
X109468228Y-89426704D01*
X109468228Y-89426704D01*
G37*
G36*
X104388228Y-89426704D02*
X104543100Y-89490854D01*
X104682481Y-89583986D01*
X104801015Y-89702520D01*
X104894147Y-89841901D01*
X104958297Y-89996773D01*
X104991000Y-90161185D01*
X104991000Y-90328817D01*
X104958297Y-90493229D01*
X104894147Y-90648101D01*
X104801015Y-90787482D01*
X104682481Y-90906016D01*
X104543100Y-90999148D01*
X104388228Y-91063298D01*
X104223816Y-91096001D01*
X104056184Y-91096001D01*
X103891772Y-91063298D01*
X103736900Y-90999148D01*
X103597519Y-90906016D01*
X103478985Y-90787482D01*
X103385853Y-90648101D01*
X103321703Y-90493229D01*
X103289000Y-90328817D01*
X103289000Y-90161185D01*
X103321703Y-89996773D01*
X103385853Y-89841901D01*
X103478985Y-89702520D01*
X103597519Y-89583986D01*
X103736900Y-89490854D01*
X103891772Y-89426704D01*
X104056184Y-89394001D01*
X104223816Y-89394001D01*
X104388228Y-89426704D01*
X104388228Y-89426704D01*
G37*
G36*
X101848228Y-89426704D02*
X102003100Y-89490854D01*
X102142481Y-89583986D01*
X102261015Y-89702520D01*
X102354147Y-89841901D01*
X102418297Y-89996773D01*
X102451000Y-90161185D01*
X102451000Y-90328817D01*
X102418297Y-90493229D01*
X102354147Y-90648101D01*
X102261015Y-90787482D01*
X102142481Y-90906016D01*
X102003100Y-90999148D01*
X101848228Y-91063298D01*
X101683816Y-91096001D01*
X101516184Y-91096001D01*
X101351772Y-91063298D01*
X101196900Y-90999148D01*
X101057519Y-90906016D01*
X100938985Y-90787482D01*
X100845853Y-90648101D01*
X100781703Y-90493229D01*
X100749000Y-90328817D01*
X100749000Y-90161185D01*
X100781703Y-89996773D01*
X100845853Y-89841901D01*
X100938985Y-89702520D01*
X101057519Y-89583986D01*
X101196900Y-89490854D01*
X101351772Y-89426704D01*
X101516184Y-89394001D01*
X101683816Y-89394001D01*
X101848228Y-89426704D01*
X101848228Y-89426704D01*
G37*
G36*
X90280443Y-89275519D02*
X90346627Y-89282037D01*
X90459853Y-89316384D01*
X90516467Y-89333557D01*
X90629548Y-89394001D01*
X90672991Y-89417222D01*
X90708729Y-89446552D01*
X90810186Y-89529814D01*
X90893448Y-89631271D01*
X90922778Y-89667009D01*
X90922779Y-89667011D01*
X91006443Y-89823533D01*
X91006443Y-89823534D01*
X91057963Y-89993373D01*
X91075359Y-90170000D01*
X91057963Y-90346627D01*
X91023616Y-90459853D01*
X91006443Y-90516467D01*
X90936082Y-90648101D01*
X90922778Y-90672991D01*
X90893448Y-90708729D01*
X90810186Y-90810186D01*
X90708729Y-90893448D01*
X90672991Y-90922778D01*
X90672989Y-90922779D01*
X90516467Y-91006443D01*
X90459853Y-91023616D01*
X90346627Y-91057963D01*
X90292469Y-91063297D01*
X90214260Y-91071000D01*
X90125740Y-91071000D01*
X90047531Y-91063297D01*
X89993373Y-91057963D01*
X89880147Y-91023616D01*
X89823533Y-91006443D01*
X89667011Y-90922779D01*
X89667009Y-90922778D01*
X89631271Y-90893448D01*
X89529814Y-90810186D01*
X89446552Y-90708729D01*
X89417222Y-90672991D01*
X89403918Y-90648101D01*
X89333557Y-90516467D01*
X89316384Y-90459853D01*
X89282037Y-90346627D01*
X89264641Y-90170000D01*
X89282037Y-89993373D01*
X89333557Y-89823534D01*
X89333557Y-89823533D01*
X89417221Y-89667011D01*
X89417222Y-89667009D01*
X89446552Y-89631271D01*
X89529814Y-89529814D01*
X89631271Y-89446552D01*
X89667009Y-89417222D01*
X89710452Y-89394001D01*
X89823533Y-89333557D01*
X89880147Y-89316384D01*
X89993373Y-89282037D01*
X90059557Y-89275519D01*
X90125740Y-89269000D01*
X90214260Y-89269000D01*
X90280443Y-89275519D01*
X90280443Y-89275519D01*
G37*
G36*
X94228228Y-86886704D02*
X94383100Y-86950854D01*
X94522481Y-87043986D01*
X94641015Y-87162520D01*
X94734147Y-87301901D01*
X94798297Y-87456773D01*
X94831000Y-87621185D01*
X94831000Y-87788817D01*
X94798297Y-87953229D01*
X94734147Y-88108101D01*
X94641015Y-88247482D01*
X94522481Y-88366016D01*
X94383100Y-88459148D01*
X94228228Y-88523298D01*
X94063816Y-88556001D01*
X93896184Y-88556001D01*
X93731772Y-88523298D01*
X93576900Y-88459148D01*
X93437519Y-88366016D01*
X93318985Y-88247482D01*
X93225853Y-88108101D01*
X93161703Y-87953229D01*
X93129000Y-87788817D01*
X93129000Y-87621185D01*
X93161703Y-87456773D01*
X93225853Y-87301901D01*
X93318985Y-87162520D01*
X93437519Y-87043986D01*
X93576900Y-86950854D01*
X93731772Y-86886704D01*
X93896184Y-86854001D01*
X94063816Y-86854001D01*
X94228228Y-86886704D01*
X94228228Y-86886704D01*
G37*
G36*
X109468228Y-86886704D02*
X109623100Y-86950854D01*
X109762481Y-87043986D01*
X109881015Y-87162520D01*
X109974147Y-87301901D01*
X110038297Y-87456773D01*
X110071000Y-87621185D01*
X110071000Y-87788817D01*
X110038297Y-87953229D01*
X109974147Y-88108101D01*
X109881015Y-88247482D01*
X109762481Y-88366016D01*
X109623100Y-88459148D01*
X109468228Y-88523298D01*
X109303816Y-88556001D01*
X109136184Y-88556001D01*
X108971772Y-88523298D01*
X108816900Y-88459148D01*
X108677519Y-88366016D01*
X108558985Y-88247482D01*
X108465853Y-88108101D01*
X108401703Y-87953229D01*
X108369000Y-87788817D01*
X108369000Y-87621185D01*
X108401703Y-87456773D01*
X108465853Y-87301901D01*
X108558985Y-87162520D01*
X108677519Y-87043986D01*
X108816900Y-86950854D01*
X108971772Y-86886704D01*
X109136184Y-86854001D01*
X109303816Y-86854001D01*
X109468228Y-86886704D01*
X109468228Y-86886704D01*
G37*
G36*
X91071000Y-88531000D02*
X89269000Y-88531000D01*
X89269000Y-86729000D01*
X91071000Y-86729000D01*
X91071000Y-88531000D01*
X91071000Y-88531000D01*
G37*
G36*
X94228228Y-84346704D02*
X94383100Y-84410854D01*
X94522481Y-84503986D01*
X94641015Y-84622520D01*
X94734147Y-84761901D01*
X94798297Y-84916773D01*
X94831000Y-85081185D01*
X94831000Y-85248817D01*
X94798297Y-85413229D01*
X94734147Y-85568101D01*
X94641015Y-85707482D01*
X94522481Y-85826016D01*
X94383100Y-85919148D01*
X94228228Y-85983298D01*
X94063816Y-86016001D01*
X93896184Y-86016001D01*
X93731772Y-85983298D01*
X93576900Y-85919148D01*
X93437519Y-85826016D01*
X93318985Y-85707482D01*
X93225853Y-85568101D01*
X93161703Y-85413229D01*
X93129000Y-85248817D01*
X93129000Y-85081185D01*
X93161703Y-84916773D01*
X93225853Y-84761901D01*
X93318985Y-84622520D01*
X93437519Y-84503986D01*
X93576900Y-84410854D01*
X93731772Y-84346704D01*
X93896184Y-84314001D01*
X94063816Y-84314001D01*
X94228228Y-84346704D01*
X94228228Y-84346704D01*
G37*
G36*
X109468228Y-84346704D02*
X109623100Y-84410854D01*
X109762481Y-84503986D01*
X109881015Y-84622520D01*
X109974147Y-84761901D01*
X110038297Y-84916773D01*
X110071000Y-85081185D01*
X110071000Y-85248817D01*
X110038297Y-85413229D01*
X109974147Y-85568101D01*
X109881015Y-85707482D01*
X109762481Y-85826016D01*
X109623100Y-85919148D01*
X109468228Y-85983298D01*
X109303816Y-86016001D01*
X109136184Y-86016001D01*
X108971772Y-85983298D01*
X108816900Y-85919148D01*
X108677519Y-85826016D01*
X108558985Y-85707482D01*
X108465853Y-85568101D01*
X108401703Y-85413229D01*
X108369000Y-85248817D01*
X108369000Y-85081185D01*
X108401703Y-84916773D01*
X108465853Y-84761901D01*
X108558985Y-84622520D01*
X108677519Y-84503986D01*
X108816900Y-84410854D01*
X108971772Y-84346704D01*
X109136184Y-84314001D01*
X109303816Y-84314001D01*
X109468228Y-84346704D01*
X109468228Y-84346704D01*
G37*
G36*
X109468228Y-81806704D02*
X109623100Y-81870854D01*
X109762481Y-81963986D01*
X109881015Y-82082520D01*
X109974147Y-82221901D01*
X110038297Y-82376773D01*
X110071000Y-82541185D01*
X110071000Y-82708817D01*
X110038297Y-82873229D01*
X109974147Y-83028101D01*
X109881015Y-83167482D01*
X109762481Y-83286016D01*
X109623100Y-83379148D01*
X109468228Y-83443298D01*
X109303816Y-83476001D01*
X109136184Y-83476001D01*
X108971772Y-83443298D01*
X108816900Y-83379148D01*
X108677519Y-83286016D01*
X108558985Y-83167482D01*
X108465853Y-83028101D01*
X108401703Y-82873229D01*
X108369000Y-82708817D01*
X108369000Y-82541185D01*
X108401703Y-82376773D01*
X108465853Y-82221901D01*
X108558985Y-82082520D01*
X108677519Y-81963986D01*
X108816900Y-81870854D01*
X108971772Y-81806704D01*
X109136184Y-81774001D01*
X109303816Y-81774001D01*
X109468228Y-81806704D01*
X109468228Y-81806704D01*
G37*
G36*
X94228228Y-81806704D02*
X94383100Y-81870854D01*
X94522481Y-81963986D01*
X94641015Y-82082520D01*
X94734147Y-82221901D01*
X94798297Y-82376773D01*
X94831000Y-82541185D01*
X94831000Y-82708817D01*
X94798297Y-82873229D01*
X94734147Y-83028101D01*
X94641015Y-83167482D01*
X94522481Y-83286016D01*
X94383100Y-83379148D01*
X94228228Y-83443298D01*
X94063816Y-83476001D01*
X93896184Y-83476001D01*
X93731772Y-83443298D01*
X93576900Y-83379148D01*
X93437519Y-83286016D01*
X93318985Y-83167482D01*
X93225853Y-83028101D01*
X93161703Y-82873229D01*
X93129000Y-82708817D01*
X93129000Y-82541185D01*
X93161703Y-82376773D01*
X93225853Y-82221901D01*
X93318985Y-82082520D01*
X93437519Y-81963986D01*
X93576900Y-81870854D01*
X93731772Y-81806704D01*
X93896184Y-81774001D01*
X94063816Y-81774001D01*
X94228228Y-81806704D01*
X94228228Y-81806704D01*
G37*
G36*
X109468228Y-79266704D02*
X109623100Y-79330854D01*
X109762481Y-79423986D01*
X109881015Y-79542520D01*
X109974147Y-79681901D01*
X110038297Y-79836773D01*
X110071000Y-80001185D01*
X110071000Y-80168817D01*
X110038297Y-80333229D01*
X109974147Y-80488101D01*
X109881015Y-80627482D01*
X109762481Y-80746016D01*
X109623100Y-80839148D01*
X109468228Y-80903298D01*
X109303816Y-80936001D01*
X109136184Y-80936001D01*
X108971772Y-80903298D01*
X108816900Y-80839148D01*
X108677519Y-80746016D01*
X108558985Y-80627482D01*
X108465853Y-80488101D01*
X108401703Y-80333229D01*
X108369000Y-80168817D01*
X108369000Y-80001185D01*
X108401703Y-79836773D01*
X108465853Y-79681901D01*
X108558985Y-79542520D01*
X108677519Y-79423986D01*
X108816900Y-79330854D01*
X108971772Y-79266704D01*
X109136184Y-79234001D01*
X109303816Y-79234001D01*
X109468228Y-79266704D01*
X109468228Y-79266704D01*
G37*
G36*
X94228228Y-79266704D02*
X94383100Y-79330854D01*
X94522481Y-79423986D01*
X94641015Y-79542520D01*
X94734147Y-79681901D01*
X94798297Y-79836773D01*
X94831000Y-80001185D01*
X94831000Y-80168817D01*
X94798297Y-80333229D01*
X94734147Y-80488101D01*
X94641015Y-80627482D01*
X94522481Y-80746016D01*
X94383100Y-80839148D01*
X94228228Y-80903298D01*
X94063816Y-80936001D01*
X93896184Y-80936001D01*
X93731772Y-80903298D01*
X93576900Y-80839148D01*
X93437519Y-80746016D01*
X93318985Y-80627482D01*
X93225853Y-80488101D01*
X93161703Y-80333229D01*
X93129000Y-80168817D01*
X93129000Y-80001185D01*
X93161703Y-79836773D01*
X93225853Y-79681901D01*
X93318985Y-79542520D01*
X93437519Y-79423986D01*
X93576900Y-79330854D01*
X93731772Y-79266704D01*
X93896184Y-79234001D01*
X94063816Y-79234001D01*
X94228228Y-79266704D01*
X94228228Y-79266704D01*
G37*
G36*
X91071000Y-80911000D02*
X89269000Y-80911000D01*
X89269000Y-79109000D01*
X91071000Y-79109000D01*
X91071000Y-80911000D01*
X91071000Y-80911000D01*
G37*
G36*
X109468228Y-76726704D02*
X109623100Y-76790854D01*
X109762481Y-76883986D01*
X109881015Y-77002520D01*
X109974147Y-77141901D01*
X110038297Y-77296773D01*
X110071000Y-77461185D01*
X110071000Y-77628817D01*
X110038297Y-77793229D01*
X109974147Y-77948101D01*
X109881015Y-78087482D01*
X109762481Y-78206016D01*
X109623100Y-78299148D01*
X109468228Y-78363298D01*
X109303816Y-78396001D01*
X109136184Y-78396001D01*
X108971772Y-78363298D01*
X108816900Y-78299148D01*
X108677519Y-78206016D01*
X108558985Y-78087482D01*
X108465853Y-77948101D01*
X108401703Y-77793229D01*
X108369000Y-77628817D01*
X108369000Y-77461185D01*
X108401703Y-77296773D01*
X108465853Y-77141901D01*
X108558985Y-77002520D01*
X108677519Y-76883986D01*
X108816900Y-76790854D01*
X108971772Y-76726704D01*
X109136184Y-76694001D01*
X109303816Y-76694001D01*
X109468228Y-76726704D01*
X109468228Y-76726704D01*
G37*
G36*
X94228228Y-76726704D02*
X94383100Y-76790854D01*
X94522481Y-76883986D01*
X94641015Y-77002520D01*
X94734147Y-77141901D01*
X94798297Y-77296773D01*
X94831000Y-77461185D01*
X94831000Y-77628817D01*
X94798297Y-77793229D01*
X94734147Y-77948101D01*
X94641015Y-78087482D01*
X94522481Y-78206016D01*
X94383100Y-78299148D01*
X94228228Y-78363298D01*
X94063816Y-78396001D01*
X93896184Y-78396001D01*
X93731772Y-78363298D01*
X93576900Y-78299148D01*
X93437519Y-78206016D01*
X93318985Y-78087482D01*
X93225853Y-77948101D01*
X93161703Y-77793229D01*
X93129000Y-77628817D01*
X93129000Y-77461185D01*
X93161703Y-77296773D01*
X93225853Y-77141901D01*
X93318985Y-77002520D01*
X93437519Y-76883986D01*
X93576900Y-76790854D01*
X93731772Y-76726704D01*
X93896184Y-76694001D01*
X94063816Y-76694001D01*
X94228228Y-76726704D01*
X94228228Y-76726704D01*
G37*
G36*
X91071000Y-77101000D02*
X89269000Y-77101000D01*
X89269000Y-75299000D01*
X91071000Y-75299000D01*
X91071000Y-77101000D01*
X91071000Y-77101000D01*
G37*
G36*
X109468228Y-74186704D02*
X109623100Y-74250854D01*
X109762481Y-74343986D01*
X109881015Y-74462520D01*
X109974147Y-74601901D01*
X110038297Y-74756773D01*
X110071000Y-74921185D01*
X110071000Y-75088817D01*
X110038297Y-75253229D01*
X109974147Y-75408101D01*
X109881015Y-75547482D01*
X109762481Y-75666016D01*
X109623100Y-75759148D01*
X109468228Y-75823298D01*
X109303816Y-75856001D01*
X109136184Y-75856001D01*
X108971772Y-75823298D01*
X108816900Y-75759148D01*
X108677519Y-75666016D01*
X108558985Y-75547482D01*
X108465853Y-75408101D01*
X108401703Y-75253229D01*
X108369000Y-75088817D01*
X108369000Y-74921185D01*
X108401703Y-74756773D01*
X108465853Y-74601901D01*
X108558985Y-74462520D01*
X108677519Y-74343986D01*
X108816900Y-74250854D01*
X108971772Y-74186704D01*
X109136184Y-74154001D01*
X109303816Y-74154001D01*
X109468228Y-74186704D01*
X109468228Y-74186704D01*
G37*
G36*
X94228228Y-74186704D02*
X94383100Y-74250854D01*
X94522481Y-74343986D01*
X94641015Y-74462520D01*
X94734147Y-74601901D01*
X94798297Y-74756773D01*
X94831000Y-74921185D01*
X94831000Y-75088817D01*
X94798297Y-75253229D01*
X94734147Y-75408101D01*
X94641015Y-75547482D01*
X94522481Y-75666016D01*
X94383100Y-75759148D01*
X94228228Y-75823298D01*
X94063816Y-75856001D01*
X93896184Y-75856001D01*
X93731772Y-75823298D01*
X93576900Y-75759148D01*
X93437519Y-75666016D01*
X93318985Y-75547482D01*
X93225853Y-75408101D01*
X93161703Y-75253229D01*
X93129000Y-75088817D01*
X93129000Y-74921185D01*
X93161703Y-74756773D01*
X93225853Y-74601901D01*
X93318985Y-74462520D01*
X93437519Y-74343986D01*
X93576900Y-74250854D01*
X93731772Y-74186704D01*
X93896184Y-74154001D01*
X94063816Y-74154001D01*
X94228228Y-74186704D01*
X94228228Y-74186704D01*
G37*
G36*
X109468228Y-71646704D02*
X109623100Y-71710854D01*
X109762481Y-71803986D01*
X109881015Y-71922520D01*
X109974147Y-72061901D01*
X110038297Y-72216773D01*
X110071000Y-72381185D01*
X110071000Y-72548817D01*
X110038297Y-72713229D01*
X109974147Y-72868101D01*
X109881015Y-73007482D01*
X109762481Y-73126016D01*
X109623100Y-73219148D01*
X109468228Y-73283298D01*
X109303816Y-73316001D01*
X109136184Y-73316001D01*
X108971772Y-73283298D01*
X108816900Y-73219148D01*
X108677519Y-73126016D01*
X108558985Y-73007482D01*
X108465853Y-72868101D01*
X108401703Y-72713229D01*
X108369000Y-72548817D01*
X108369000Y-72381185D01*
X108401703Y-72216773D01*
X108465853Y-72061901D01*
X108558985Y-71922520D01*
X108677519Y-71803986D01*
X108816900Y-71710854D01*
X108971772Y-71646704D01*
X109136184Y-71614001D01*
X109303816Y-71614001D01*
X109468228Y-71646704D01*
X109468228Y-71646704D01*
G37*
G36*
X94228228Y-71646704D02*
X94383100Y-71710854D01*
X94522481Y-71803986D01*
X94641015Y-71922520D01*
X94734147Y-72061901D01*
X94798297Y-72216773D01*
X94831000Y-72381185D01*
X94831000Y-72548817D01*
X94798297Y-72713229D01*
X94734147Y-72868101D01*
X94641015Y-73007482D01*
X94522481Y-73126016D01*
X94383100Y-73219148D01*
X94228228Y-73283298D01*
X94063816Y-73316001D01*
X93896184Y-73316001D01*
X93731772Y-73283298D01*
X93576900Y-73219148D01*
X93437519Y-73126016D01*
X93318985Y-73007482D01*
X93225853Y-72868101D01*
X93161703Y-72713229D01*
X93129000Y-72548817D01*
X93129000Y-72381185D01*
X93161703Y-72216773D01*
X93225853Y-72061901D01*
X93318985Y-71922520D01*
X93437519Y-71803986D01*
X93576900Y-71710854D01*
X93731772Y-71646704D01*
X93896184Y-71614001D01*
X94063816Y-71614001D01*
X94228228Y-71646704D01*
X94228228Y-71646704D01*
G37*
G36*
X91071000Y-73291000D02*
X89269000Y-73291000D01*
X89269000Y-71489000D01*
X91071000Y-71489000D01*
X91071000Y-73291000D01*
X91071000Y-73291000D01*
G37*
G36*
X109468228Y-69106704D02*
X109623100Y-69170854D01*
X109762481Y-69263986D01*
X109881015Y-69382520D01*
X109974147Y-69521901D01*
X110038297Y-69676773D01*
X110071000Y-69841185D01*
X110071000Y-70008817D01*
X110038297Y-70173229D01*
X109974147Y-70328101D01*
X109881015Y-70467482D01*
X109762481Y-70586016D01*
X109623100Y-70679148D01*
X109468228Y-70743298D01*
X109303816Y-70776001D01*
X109136184Y-70776001D01*
X108971772Y-70743298D01*
X108816900Y-70679148D01*
X108677519Y-70586016D01*
X108558985Y-70467482D01*
X108465853Y-70328101D01*
X108401703Y-70173229D01*
X108369000Y-70008817D01*
X108369000Y-69841185D01*
X108401703Y-69676773D01*
X108465853Y-69521901D01*
X108558985Y-69382520D01*
X108677519Y-69263986D01*
X108816900Y-69170854D01*
X108971772Y-69106704D01*
X109136184Y-69074001D01*
X109303816Y-69074001D01*
X109468228Y-69106704D01*
X109468228Y-69106704D01*
G37*
G36*
X94228228Y-69106704D02*
X94383100Y-69170854D01*
X94522481Y-69263986D01*
X94641015Y-69382520D01*
X94734147Y-69521901D01*
X94798297Y-69676773D01*
X94831000Y-69841185D01*
X94831000Y-70008817D01*
X94798297Y-70173229D01*
X94734147Y-70328101D01*
X94641015Y-70467482D01*
X94522481Y-70586016D01*
X94383100Y-70679148D01*
X94228228Y-70743298D01*
X94063816Y-70776001D01*
X93896184Y-70776001D01*
X93731772Y-70743298D01*
X93576900Y-70679148D01*
X93437519Y-70586016D01*
X93318985Y-70467482D01*
X93225853Y-70328101D01*
X93161703Y-70173229D01*
X93129000Y-70008817D01*
X93129000Y-69841185D01*
X93161703Y-69676773D01*
X93225853Y-69521901D01*
X93318985Y-69382520D01*
X93437519Y-69263986D01*
X93576900Y-69170854D01*
X93731772Y-69106704D01*
X93896184Y-69074001D01*
X94063816Y-69074001D01*
X94228228Y-69106704D01*
X94228228Y-69106704D01*
G37*
G36*
X94228228Y-66566704D02*
X94383100Y-66630854D01*
X94522481Y-66723986D01*
X94641015Y-66842520D01*
X94734147Y-66981901D01*
X94798297Y-67136773D01*
X94831000Y-67301185D01*
X94831000Y-67468817D01*
X94798297Y-67633229D01*
X94734147Y-67788101D01*
X94641015Y-67927482D01*
X94522481Y-68046016D01*
X94383100Y-68139148D01*
X94228228Y-68203298D01*
X94063816Y-68236001D01*
X93896184Y-68236001D01*
X93731772Y-68203298D01*
X93576900Y-68139148D01*
X93437519Y-68046016D01*
X93318985Y-67927482D01*
X93225853Y-67788101D01*
X93161703Y-67633229D01*
X93129000Y-67468817D01*
X93129000Y-67301185D01*
X93161703Y-67136773D01*
X93225853Y-66981901D01*
X93318985Y-66842520D01*
X93437519Y-66723986D01*
X93576900Y-66630854D01*
X93731772Y-66566704D01*
X93896184Y-66534001D01*
X94063816Y-66534001D01*
X94228228Y-66566704D01*
X94228228Y-66566704D01*
G37*
G36*
X109468228Y-66566704D02*
X109623100Y-66630854D01*
X109762481Y-66723986D01*
X109881015Y-66842520D01*
X109974147Y-66981901D01*
X110038297Y-67136773D01*
X110071000Y-67301185D01*
X110071000Y-67468817D01*
X110038297Y-67633229D01*
X109974147Y-67788101D01*
X109881015Y-67927482D01*
X109762481Y-68046016D01*
X109623100Y-68139148D01*
X109468228Y-68203298D01*
X109303816Y-68236001D01*
X109136184Y-68236001D01*
X108971772Y-68203298D01*
X108816900Y-68139148D01*
X108677519Y-68046016D01*
X108558985Y-67927482D01*
X108465853Y-67788101D01*
X108401703Y-67633229D01*
X108369000Y-67468817D01*
X108369000Y-67301185D01*
X108401703Y-67136773D01*
X108465853Y-66981901D01*
X108558985Y-66842520D01*
X108677519Y-66723986D01*
X108816900Y-66630854D01*
X108971772Y-66566704D01*
X109136184Y-66534001D01*
X109303816Y-66534001D01*
X109468228Y-66566704D01*
X109468228Y-66566704D01*
G37*
G36*
X146225905Y-65248101D02*
X146286560Y-65260166D01*
X146434153Y-65321301D01*
X146533199Y-65387482D01*
X146566985Y-65410057D01*
X146679943Y-65523015D01*
X146768700Y-65655849D01*
X146829834Y-65803440D01*
X146861000Y-65960122D01*
X146861000Y-66119878D01*
X146829834Y-66276560D01*
X146768700Y-66424151D01*
X146679943Y-66556985D01*
X146566985Y-66669943D01*
X146566982Y-66669945D01*
X146434153Y-66758699D01*
X146434152Y-66758700D01*
X146434151Y-66758700D01*
X146286560Y-66819834D01*
X146129878Y-66851000D01*
X145970122Y-66851000D01*
X145813440Y-66819834D01*
X145665849Y-66758700D01*
X145665848Y-66758700D01*
X145665847Y-66758699D01*
X145533018Y-66669945D01*
X145533015Y-66669943D01*
X145420057Y-66556985D01*
X145331300Y-66424151D01*
X145270166Y-66276560D01*
X145239000Y-66119878D01*
X145239000Y-65960122D01*
X145270166Y-65803440D01*
X145331300Y-65655849D01*
X145420057Y-65523015D01*
X145533015Y-65410057D01*
X145566801Y-65387482D01*
X145665847Y-65321301D01*
X145813440Y-65260166D01*
X145874095Y-65248101D01*
X145970122Y-65229000D01*
X146129878Y-65229000D01*
X146225905Y-65248101D01*
X146225905Y-65248101D01*
G37*
G36*
X131621000Y-66851000D02*
X129999000Y-66851000D01*
X129999000Y-65229000D01*
X131621000Y-65229000D01*
X131621000Y-66851000D01*
X131621000Y-66851000D01*
G37*
G36*
X153845905Y-65248101D02*
X153906560Y-65260166D01*
X154054153Y-65321301D01*
X154153199Y-65387482D01*
X154186985Y-65410057D01*
X154299943Y-65523015D01*
X154388700Y-65655849D01*
X154449834Y-65803440D01*
X154481000Y-65960122D01*
X154481000Y-66119878D01*
X154449834Y-66276560D01*
X154388700Y-66424151D01*
X154299943Y-66556985D01*
X154186985Y-66669943D01*
X154186982Y-66669945D01*
X154054153Y-66758699D01*
X154054152Y-66758700D01*
X154054151Y-66758700D01*
X153906560Y-66819834D01*
X153749878Y-66851000D01*
X153590122Y-66851000D01*
X153433440Y-66819834D01*
X153285849Y-66758700D01*
X153285848Y-66758700D01*
X153285847Y-66758699D01*
X153153018Y-66669945D01*
X153153015Y-66669943D01*
X153040057Y-66556985D01*
X152951300Y-66424151D01*
X152890166Y-66276560D01*
X152859000Y-66119878D01*
X152859000Y-65960122D01*
X152890166Y-65803440D01*
X152951300Y-65655849D01*
X153040057Y-65523015D01*
X153153015Y-65410057D01*
X153186801Y-65387482D01*
X153285847Y-65321301D01*
X153433440Y-65260166D01*
X153494095Y-65248101D01*
X153590122Y-65229000D01*
X153749878Y-65229000D01*
X153845905Y-65248101D01*
X153845905Y-65248101D01*
G37*
G36*
X151305905Y-65248101D02*
X151366560Y-65260166D01*
X151514153Y-65321301D01*
X151613199Y-65387482D01*
X151646985Y-65410057D01*
X151759943Y-65523015D01*
X151848700Y-65655849D01*
X151909834Y-65803440D01*
X151941000Y-65960122D01*
X151941000Y-66119878D01*
X151909834Y-66276560D01*
X151848700Y-66424151D01*
X151759943Y-66556985D01*
X151646985Y-66669943D01*
X151646982Y-66669945D01*
X151514153Y-66758699D01*
X151514152Y-66758700D01*
X151514151Y-66758700D01*
X151366560Y-66819834D01*
X151209878Y-66851000D01*
X151050122Y-66851000D01*
X150893440Y-66819834D01*
X150745849Y-66758700D01*
X150745848Y-66758700D01*
X150745847Y-66758699D01*
X150613018Y-66669945D01*
X150613015Y-66669943D01*
X150500057Y-66556985D01*
X150411300Y-66424151D01*
X150350166Y-66276560D01*
X150319000Y-66119878D01*
X150319000Y-65960122D01*
X150350166Y-65803440D01*
X150411300Y-65655849D01*
X150500057Y-65523015D01*
X150613015Y-65410057D01*
X150646801Y-65387482D01*
X150745847Y-65321301D01*
X150893440Y-65260166D01*
X150954095Y-65248101D01*
X151050122Y-65229000D01*
X151209878Y-65229000D01*
X151305905Y-65248101D01*
X151305905Y-65248101D01*
G37*
G36*
X133525905Y-65248101D02*
X133586560Y-65260166D01*
X133734153Y-65321301D01*
X133833199Y-65387482D01*
X133866985Y-65410057D01*
X133979943Y-65523015D01*
X134068700Y-65655849D01*
X134129834Y-65803440D01*
X134161000Y-65960122D01*
X134161000Y-66119878D01*
X134129834Y-66276560D01*
X134068700Y-66424151D01*
X133979943Y-66556985D01*
X133866985Y-66669943D01*
X133866982Y-66669945D01*
X133734153Y-66758699D01*
X133734152Y-66758700D01*
X133734151Y-66758700D01*
X133586560Y-66819834D01*
X133429878Y-66851000D01*
X133270122Y-66851000D01*
X133113440Y-66819834D01*
X132965849Y-66758700D01*
X132965848Y-66758700D01*
X132965847Y-66758699D01*
X132833018Y-66669945D01*
X132833015Y-66669943D01*
X132720057Y-66556985D01*
X132631300Y-66424151D01*
X132570166Y-66276560D01*
X132539000Y-66119878D01*
X132539000Y-65960122D01*
X132570166Y-65803440D01*
X132631300Y-65655849D01*
X132720057Y-65523015D01*
X132833015Y-65410057D01*
X132866801Y-65387482D01*
X132965847Y-65321301D01*
X133113440Y-65260166D01*
X133174095Y-65248101D01*
X133270122Y-65229000D01*
X133429878Y-65229000D01*
X133525905Y-65248101D01*
X133525905Y-65248101D01*
G37*
G36*
X136065905Y-65248101D02*
X136126560Y-65260166D01*
X136274153Y-65321301D01*
X136373199Y-65387482D01*
X136406985Y-65410057D01*
X136519943Y-65523015D01*
X136608700Y-65655849D01*
X136669834Y-65803440D01*
X136701000Y-65960122D01*
X136701000Y-66119878D01*
X136669834Y-66276560D01*
X136608700Y-66424151D01*
X136519943Y-66556985D01*
X136406985Y-66669943D01*
X136406982Y-66669945D01*
X136274153Y-66758699D01*
X136274152Y-66758700D01*
X136274151Y-66758700D01*
X136126560Y-66819834D01*
X135969878Y-66851000D01*
X135810122Y-66851000D01*
X135653440Y-66819834D01*
X135505849Y-66758700D01*
X135505848Y-66758700D01*
X135505847Y-66758699D01*
X135373018Y-66669945D01*
X135373015Y-66669943D01*
X135260057Y-66556985D01*
X135171300Y-66424151D01*
X135110166Y-66276560D01*
X135079000Y-66119878D01*
X135079000Y-65960122D01*
X135110166Y-65803440D01*
X135171300Y-65655849D01*
X135260057Y-65523015D01*
X135373015Y-65410057D01*
X135406801Y-65387482D01*
X135505847Y-65321301D01*
X135653440Y-65260166D01*
X135714095Y-65248101D01*
X135810122Y-65229000D01*
X135969878Y-65229000D01*
X136065905Y-65248101D01*
X136065905Y-65248101D01*
G37*
G36*
X138605905Y-65248101D02*
X138666560Y-65260166D01*
X138814153Y-65321301D01*
X138913199Y-65387482D01*
X138946985Y-65410057D01*
X139059943Y-65523015D01*
X139148700Y-65655849D01*
X139209834Y-65803440D01*
X139241000Y-65960122D01*
X139241000Y-66119878D01*
X139209834Y-66276560D01*
X139148700Y-66424151D01*
X139059943Y-66556985D01*
X138946985Y-66669943D01*
X138946982Y-66669945D01*
X138814153Y-66758699D01*
X138814152Y-66758700D01*
X138814151Y-66758700D01*
X138666560Y-66819834D01*
X138509878Y-66851000D01*
X138350122Y-66851000D01*
X138193440Y-66819834D01*
X138045849Y-66758700D01*
X138045848Y-66758700D01*
X138045847Y-66758699D01*
X137913018Y-66669945D01*
X137913015Y-66669943D01*
X137800057Y-66556985D01*
X137711300Y-66424151D01*
X137650166Y-66276560D01*
X137619000Y-66119878D01*
X137619000Y-65960122D01*
X137650166Y-65803440D01*
X137711300Y-65655849D01*
X137800057Y-65523015D01*
X137913015Y-65410057D01*
X137946801Y-65387482D01*
X138045847Y-65321301D01*
X138193440Y-65260166D01*
X138254095Y-65248101D01*
X138350122Y-65229000D01*
X138509878Y-65229000D01*
X138605905Y-65248101D01*
X138605905Y-65248101D01*
G37*
G36*
X141145905Y-65248101D02*
X141206560Y-65260166D01*
X141354153Y-65321301D01*
X141453199Y-65387482D01*
X141486985Y-65410057D01*
X141599943Y-65523015D01*
X141688700Y-65655849D01*
X141749834Y-65803440D01*
X141781000Y-65960122D01*
X141781000Y-66119878D01*
X141749834Y-66276560D01*
X141688700Y-66424151D01*
X141599943Y-66556985D01*
X141486985Y-66669943D01*
X141486982Y-66669945D01*
X141354153Y-66758699D01*
X141354152Y-66758700D01*
X141354151Y-66758700D01*
X141206560Y-66819834D01*
X141049878Y-66851000D01*
X140890122Y-66851000D01*
X140733440Y-66819834D01*
X140585849Y-66758700D01*
X140585848Y-66758700D01*
X140585847Y-66758699D01*
X140453018Y-66669945D01*
X140453015Y-66669943D01*
X140340057Y-66556985D01*
X140251300Y-66424151D01*
X140190166Y-66276560D01*
X140159000Y-66119878D01*
X140159000Y-65960122D01*
X140190166Y-65803440D01*
X140251300Y-65655849D01*
X140340057Y-65523015D01*
X140453015Y-65410057D01*
X140486801Y-65387482D01*
X140585847Y-65321301D01*
X140733440Y-65260166D01*
X140794095Y-65248101D01*
X140890122Y-65229000D01*
X141049878Y-65229000D01*
X141145905Y-65248101D01*
X141145905Y-65248101D01*
G37*
G36*
X143685905Y-65248101D02*
X143746560Y-65260166D01*
X143894153Y-65321301D01*
X143993199Y-65387482D01*
X144026985Y-65410057D01*
X144139943Y-65523015D01*
X144228700Y-65655849D01*
X144289834Y-65803440D01*
X144321000Y-65960122D01*
X144321000Y-66119878D01*
X144289834Y-66276560D01*
X144228700Y-66424151D01*
X144139943Y-66556985D01*
X144026985Y-66669943D01*
X144026982Y-66669945D01*
X143894153Y-66758699D01*
X143894152Y-66758700D01*
X143894151Y-66758700D01*
X143746560Y-66819834D01*
X143589878Y-66851000D01*
X143430122Y-66851000D01*
X143273440Y-66819834D01*
X143125849Y-66758700D01*
X143125848Y-66758700D01*
X143125847Y-66758699D01*
X142993018Y-66669945D01*
X142993015Y-66669943D01*
X142880057Y-66556985D01*
X142791300Y-66424151D01*
X142730166Y-66276560D01*
X142699000Y-66119878D01*
X142699000Y-65960122D01*
X142730166Y-65803440D01*
X142791300Y-65655849D01*
X142880057Y-65523015D01*
X142993015Y-65410057D01*
X143026801Y-65387482D01*
X143125847Y-65321301D01*
X143273440Y-65260166D01*
X143334095Y-65248101D01*
X143430122Y-65229000D01*
X143589878Y-65229000D01*
X143685905Y-65248101D01*
X143685905Y-65248101D01*
G37*
G36*
X148765905Y-65248101D02*
X148826560Y-65260166D01*
X148974153Y-65321301D01*
X149073199Y-65387482D01*
X149106985Y-65410057D01*
X149219943Y-65523015D01*
X149308700Y-65655849D01*
X149369834Y-65803440D01*
X149401000Y-65960122D01*
X149401000Y-66119878D01*
X149369834Y-66276560D01*
X149308700Y-66424151D01*
X149219943Y-66556985D01*
X149106985Y-66669943D01*
X149106982Y-66669945D01*
X148974153Y-66758699D01*
X148974152Y-66758700D01*
X148974151Y-66758700D01*
X148826560Y-66819834D01*
X148669878Y-66851000D01*
X148510122Y-66851000D01*
X148353440Y-66819834D01*
X148205849Y-66758700D01*
X148205848Y-66758700D01*
X148205847Y-66758699D01*
X148073018Y-66669945D01*
X148073015Y-66669943D01*
X147960057Y-66556985D01*
X147871300Y-66424151D01*
X147810166Y-66276560D01*
X147779000Y-66119878D01*
X147779000Y-65960122D01*
X147810166Y-65803440D01*
X147871300Y-65655849D01*
X147960057Y-65523015D01*
X148073015Y-65410057D01*
X148106801Y-65387482D01*
X148205847Y-65321301D01*
X148353440Y-65260166D01*
X148414095Y-65248101D01*
X148510122Y-65229000D01*
X148669878Y-65229000D01*
X148765905Y-65248101D01*
X148765905Y-65248101D01*
G37*
G36*
X125175739Y-62694048D02*
X125429702Y-62744564D01*
X125716516Y-62863367D01*
X125974642Y-63035841D01*
X126194159Y-63255358D01*
X126366633Y-63513484D01*
X126485436Y-63800298D01*
X126535952Y-64054261D01*
X126543231Y-64090854D01*
X126546000Y-64104778D01*
X126546000Y-64415222D01*
X126485436Y-64719702D01*
X126366633Y-65006516D01*
X126194159Y-65264642D01*
X125974642Y-65484159D01*
X125716516Y-65656633D01*
X125429702Y-65775436D01*
X125175739Y-65825952D01*
X125125223Y-65836000D01*
X124814777Y-65836000D01*
X124764261Y-65825952D01*
X124510298Y-65775436D01*
X124223484Y-65656633D01*
X123965358Y-65484159D01*
X123745841Y-65264642D01*
X123573367Y-65006516D01*
X123454564Y-64719702D01*
X123394000Y-64415222D01*
X123394000Y-64104778D01*
X123396770Y-64090854D01*
X123404048Y-64054261D01*
X123454564Y-63800298D01*
X123573367Y-63513484D01*
X123745841Y-63255358D01*
X123965358Y-63035841D01*
X124223484Y-62863367D01*
X124510298Y-62744564D01*
X124764261Y-62694048D01*
X124814777Y-62684000D01*
X125125223Y-62684000D01*
X125175739Y-62694048D01*
X125175739Y-62694048D01*
G37*
G36*
X159715739Y-62694048D02*
X159969702Y-62744564D01*
X160256516Y-62863367D01*
X160514642Y-63035841D01*
X160734159Y-63255358D01*
X160906633Y-63513484D01*
X161025436Y-63800298D01*
X161075952Y-64054261D01*
X161083231Y-64090854D01*
X161086000Y-64104778D01*
X161086000Y-64415222D01*
X161025436Y-64719702D01*
X160906633Y-65006516D01*
X160734159Y-65264642D01*
X160514642Y-65484159D01*
X160256516Y-65656633D01*
X159969702Y-65775436D01*
X159715739Y-65825952D01*
X159665223Y-65836000D01*
X159354777Y-65836000D01*
X159304261Y-65825952D01*
X159050298Y-65775436D01*
X158763484Y-65656633D01*
X158505358Y-65484159D01*
X158285841Y-65264642D01*
X158113367Y-65006516D01*
X157994564Y-64719702D01*
X157934000Y-64415222D01*
X157934000Y-64104778D01*
X157936770Y-64090854D01*
X157944048Y-64054261D01*
X157994564Y-63800298D01*
X158113367Y-63513484D01*
X158285841Y-63255358D01*
X158505358Y-63035841D01*
X158763484Y-62863367D01*
X159050298Y-62744564D01*
X159304261Y-62694048D01*
X159354777Y-62684000D01*
X159665223Y-62684000D01*
X159715739Y-62694048D01*
X159715739Y-62694048D01*
G37*
G36*
X94228228Y-64026704D02*
X94383100Y-64090854D01*
X94522481Y-64183986D01*
X94641015Y-64302520D01*
X94734147Y-64441901D01*
X94798297Y-64596773D01*
X94831000Y-64761185D01*
X94831000Y-64928817D01*
X94798297Y-65093229D01*
X94734147Y-65248101D01*
X94641015Y-65387482D01*
X94522481Y-65506016D01*
X94383100Y-65599148D01*
X94228228Y-65663298D01*
X94063816Y-65696001D01*
X93896184Y-65696001D01*
X93731772Y-65663298D01*
X93576900Y-65599148D01*
X93437519Y-65506016D01*
X93318985Y-65387482D01*
X93225853Y-65248101D01*
X93161703Y-65093229D01*
X93129000Y-64928817D01*
X93129000Y-64761185D01*
X93161703Y-64596773D01*
X93225853Y-64441901D01*
X93318985Y-64302520D01*
X93437519Y-64183986D01*
X93576900Y-64090854D01*
X93731772Y-64026704D01*
X93896184Y-63994001D01*
X94063816Y-63994001D01*
X94228228Y-64026704D01*
X94228228Y-64026704D01*
G37*
G36*
X109468228Y-64026704D02*
X109623100Y-64090854D01*
X109762481Y-64183986D01*
X109881015Y-64302520D01*
X109974147Y-64441901D01*
X110038297Y-64596773D01*
X110071000Y-64761185D01*
X110071000Y-64928817D01*
X110038297Y-65093229D01*
X109974147Y-65248101D01*
X109881015Y-65387482D01*
X109762481Y-65506016D01*
X109623100Y-65599148D01*
X109468228Y-65663298D01*
X109303816Y-65696001D01*
X109136184Y-65696001D01*
X108971772Y-65663298D01*
X108816900Y-65599148D01*
X108677519Y-65506016D01*
X108558985Y-65387482D01*
X108465853Y-65248101D01*
X108401703Y-65093229D01*
X108369000Y-64928817D01*
X108369000Y-64761185D01*
X108401703Y-64596773D01*
X108465853Y-64441901D01*
X108558985Y-64302520D01*
X108677519Y-64183986D01*
X108816900Y-64090854D01*
X108971772Y-64026704D01*
X109136184Y-63994001D01*
X109303816Y-63994001D01*
X109468228Y-64026704D01*
X109468228Y-64026704D01*
G37*
G36*
X151366560Y-62720166D02*
X151425465Y-62744565D01*
X151514153Y-62781301D01*
X151613199Y-62847482D01*
X151646985Y-62870057D01*
X151759943Y-62983015D01*
X151848700Y-63115849D01*
X151909834Y-63263440D01*
X151941000Y-63420122D01*
X151941000Y-63579878D01*
X151909834Y-63736560D01*
X151848700Y-63884151D01*
X151759943Y-64016985D01*
X151646985Y-64129943D01*
X151646982Y-64129945D01*
X151514153Y-64218699D01*
X151514152Y-64218700D01*
X151514151Y-64218700D01*
X151366560Y-64279834D01*
X151209878Y-64311000D01*
X151050122Y-64311000D01*
X150893440Y-64279834D01*
X150745849Y-64218700D01*
X150745848Y-64218700D01*
X150745847Y-64218699D01*
X150613018Y-64129945D01*
X150613015Y-64129943D01*
X150500057Y-64016985D01*
X150411300Y-63884151D01*
X150350166Y-63736560D01*
X150319000Y-63579878D01*
X150319000Y-63420122D01*
X150350166Y-63263440D01*
X150411300Y-63115849D01*
X150500057Y-62983015D01*
X150613015Y-62870057D01*
X150646801Y-62847482D01*
X150745847Y-62781301D01*
X150834536Y-62744565D01*
X150893440Y-62720166D01*
X151050122Y-62689000D01*
X151209878Y-62689000D01*
X151366560Y-62720166D01*
X151366560Y-62720166D01*
G37*
G36*
X143746560Y-62720166D02*
X143805465Y-62744565D01*
X143894153Y-62781301D01*
X143993199Y-62847482D01*
X144026985Y-62870057D01*
X144139943Y-62983015D01*
X144228700Y-63115849D01*
X144289834Y-63263440D01*
X144321000Y-63420122D01*
X144321000Y-63579878D01*
X144289834Y-63736560D01*
X144228700Y-63884151D01*
X144139943Y-64016985D01*
X144026985Y-64129943D01*
X144026982Y-64129945D01*
X143894153Y-64218699D01*
X143894152Y-64218700D01*
X143894151Y-64218700D01*
X143746560Y-64279834D01*
X143589878Y-64311000D01*
X143430122Y-64311000D01*
X143273440Y-64279834D01*
X143125849Y-64218700D01*
X143125848Y-64218700D01*
X143125847Y-64218699D01*
X142993018Y-64129945D01*
X142993015Y-64129943D01*
X142880057Y-64016985D01*
X142791300Y-63884151D01*
X142730166Y-63736560D01*
X142699000Y-63579878D01*
X142699000Y-63420122D01*
X142730166Y-63263440D01*
X142791300Y-63115849D01*
X142880057Y-62983015D01*
X142993015Y-62870057D01*
X143026801Y-62847482D01*
X143125847Y-62781301D01*
X143214536Y-62744565D01*
X143273440Y-62720166D01*
X143430122Y-62689000D01*
X143589878Y-62689000D01*
X143746560Y-62720166D01*
X143746560Y-62720166D01*
G37*
G36*
X141206560Y-62720166D02*
X141265465Y-62744565D01*
X141354153Y-62781301D01*
X141453199Y-62847482D01*
X141486985Y-62870057D01*
X141599943Y-62983015D01*
X141688700Y-63115849D01*
X141749834Y-63263440D01*
X141781000Y-63420122D01*
X141781000Y-63579878D01*
X141749834Y-63736560D01*
X141688700Y-63884151D01*
X141599943Y-64016985D01*
X141486985Y-64129943D01*
X141486982Y-64129945D01*
X141354153Y-64218699D01*
X141354152Y-64218700D01*
X141354151Y-64218700D01*
X141206560Y-64279834D01*
X141049878Y-64311000D01*
X140890122Y-64311000D01*
X140733440Y-64279834D01*
X140585849Y-64218700D01*
X140585848Y-64218700D01*
X140585847Y-64218699D01*
X140453018Y-64129945D01*
X140453015Y-64129943D01*
X140340057Y-64016985D01*
X140251300Y-63884151D01*
X140190166Y-63736560D01*
X140159000Y-63579878D01*
X140159000Y-63420122D01*
X140190166Y-63263440D01*
X140251300Y-63115849D01*
X140340057Y-62983015D01*
X140453015Y-62870057D01*
X140486801Y-62847482D01*
X140585847Y-62781301D01*
X140674536Y-62744565D01*
X140733440Y-62720166D01*
X140890122Y-62689000D01*
X141049878Y-62689000D01*
X141206560Y-62720166D01*
X141206560Y-62720166D01*
G37*
G36*
X138666560Y-62720166D02*
X138725465Y-62744565D01*
X138814153Y-62781301D01*
X138913199Y-62847482D01*
X138946985Y-62870057D01*
X139059943Y-62983015D01*
X139148700Y-63115849D01*
X139209834Y-63263440D01*
X139241000Y-63420122D01*
X139241000Y-63579878D01*
X139209834Y-63736560D01*
X139148700Y-63884151D01*
X139059943Y-64016985D01*
X138946985Y-64129943D01*
X138946982Y-64129945D01*
X138814153Y-64218699D01*
X138814152Y-64218700D01*
X138814151Y-64218700D01*
X138666560Y-64279834D01*
X138509878Y-64311000D01*
X138350122Y-64311000D01*
X138193440Y-64279834D01*
X138045849Y-64218700D01*
X138045848Y-64218700D01*
X138045847Y-64218699D01*
X137913018Y-64129945D01*
X137913015Y-64129943D01*
X137800057Y-64016985D01*
X137711300Y-63884151D01*
X137650166Y-63736560D01*
X137619000Y-63579878D01*
X137619000Y-63420122D01*
X137650166Y-63263440D01*
X137711300Y-63115849D01*
X137800057Y-62983015D01*
X137913015Y-62870057D01*
X137946801Y-62847482D01*
X138045847Y-62781301D01*
X138134536Y-62744565D01*
X138193440Y-62720166D01*
X138350122Y-62689000D01*
X138509878Y-62689000D01*
X138666560Y-62720166D01*
X138666560Y-62720166D01*
G37*
G36*
X146286560Y-62720166D02*
X146345465Y-62744565D01*
X146434153Y-62781301D01*
X146533199Y-62847482D01*
X146566985Y-62870057D01*
X146679943Y-62983015D01*
X146768700Y-63115849D01*
X146829834Y-63263440D01*
X146861000Y-63420122D01*
X146861000Y-63579878D01*
X146829834Y-63736560D01*
X146768700Y-63884151D01*
X146679943Y-64016985D01*
X146566985Y-64129943D01*
X146566982Y-64129945D01*
X146434153Y-64218699D01*
X146434152Y-64218700D01*
X146434151Y-64218700D01*
X146286560Y-64279834D01*
X146129878Y-64311000D01*
X145970122Y-64311000D01*
X145813440Y-64279834D01*
X145665849Y-64218700D01*
X145665848Y-64218700D01*
X145665847Y-64218699D01*
X145533018Y-64129945D01*
X145533015Y-64129943D01*
X145420057Y-64016985D01*
X145331300Y-63884151D01*
X145270166Y-63736560D01*
X145239000Y-63579878D01*
X145239000Y-63420122D01*
X145270166Y-63263440D01*
X145331300Y-63115849D01*
X145420057Y-62983015D01*
X145533015Y-62870057D01*
X145566801Y-62847482D01*
X145665847Y-62781301D01*
X145754536Y-62744565D01*
X145813440Y-62720166D01*
X145970122Y-62689000D01*
X146129878Y-62689000D01*
X146286560Y-62720166D01*
X146286560Y-62720166D01*
G37*
G36*
X136126560Y-62720166D02*
X136185465Y-62744565D01*
X136274153Y-62781301D01*
X136373199Y-62847482D01*
X136406985Y-62870057D01*
X136519943Y-62983015D01*
X136608700Y-63115849D01*
X136669834Y-63263440D01*
X136701000Y-63420122D01*
X136701000Y-63579878D01*
X136669834Y-63736560D01*
X136608700Y-63884151D01*
X136519943Y-64016985D01*
X136406985Y-64129943D01*
X136406982Y-64129945D01*
X136274153Y-64218699D01*
X136274152Y-64218700D01*
X136274151Y-64218700D01*
X136126560Y-64279834D01*
X135969878Y-64311000D01*
X135810122Y-64311000D01*
X135653440Y-64279834D01*
X135505849Y-64218700D01*
X135505848Y-64218700D01*
X135505847Y-64218699D01*
X135373018Y-64129945D01*
X135373015Y-64129943D01*
X135260057Y-64016985D01*
X135171300Y-63884151D01*
X135110166Y-63736560D01*
X135079000Y-63579878D01*
X135079000Y-63420122D01*
X135110166Y-63263440D01*
X135171300Y-63115849D01*
X135260057Y-62983015D01*
X135373015Y-62870057D01*
X135406801Y-62847482D01*
X135505847Y-62781301D01*
X135594536Y-62744565D01*
X135653440Y-62720166D01*
X135810122Y-62689000D01*
X135969878Y-62689000D01*
X136126560Y-62720166D01*
X136126560Y-62720166D01*
G37*
G36*
X153906560Y-62720166D02*
X153965465Y-62744565D01*
X154054153Y-62781301D01*
X154153199Y-62847482D01*
X154186985Y-62870057D01*
X154299943Y-62983015D01*
X154388700Y-63115849D01*
X154449834Y-63263440D01*
X154481000Y-63420122D01*
X154481000Y-63579878D01*
X154449834Y-63736560D01*
X154388700Y-63884151D01*
X154299943Y-64016985D01*
X154186985Y-64129943D01*
X154186982Y-64129945D01*
X154054153Y-64218699D01*
X154054152Y-64218700D01*
X154054151Y-64218700D01*
X153906560Y-64279834D01*
X153749878Y-64311000D01*
X153590122Y-64311000D01*
X153433440Y-64279834D01*
X153285849Y-64218700D01*
X153285848Y-64218700D01*
X153285847Y-64218699D01*
X153153018Y-64129945D01*
X153153015Y-64129943D01*
X153040057Y-64016985D01*
X152951300Y-63884151D01*
X152890166Y-63736560D01*
X152859000Y-63579878D01*
X152859000Y-63420122D01*
X152890166Y-63263440D01*
X152951300Y-63115849D01*
X153040057Y-62983015D01*
X153153015Y-62870057D01*
X153186801Y-62847482D01*
X153285847Y-62781301D01*
X153374536Y-62744565D01*
X153433440Y-62720166D01*
X153590122Y-62689000D01*
X153749878Y-62689000D01*
X153906560Y-62720166D01*
X153906560Y-62720166D01*
G37*
G36*
X148826560Y-62720166D02*
X148885465Y-62744565D01*
X148974153Y-62781301D01*
X149073199Y-62847482D01*
X149106985Y-62870057D01*
X149219943Y-62983015D01*
X149308700Y-63115849D01*
X149369834Y-63263440D01*
X149401000Y-63420122D01*
X149401000Y-63579878D01*
X149369834Y-63736560D01*
X149308700Y-63884151D01*
X149219943Y-64016985D01*
X149106985Y-64129943D01*
X149106982Y-64129945D01*
X148974153Y-64218699D01*
X148974152Y-64218700D01*
X148974151Y-64218700D01*
X148826560Y-64279834D01*
X148669878Y-64311000D01*
X148510122Y-64311000D01*
X148353440Y-64279834D01*
X148205849Y-64218700D01*
X148205848Y-64218700D01*
X148205847Y-64218699D01*
X148073018Y-64129945D01*
X148073015Y-64129943D01*
X147960057Y-64016985D01*
X147871300Y-63884151D01*
X147810166Y-63736560D01*
X147779000Y-63579878D01*
X147779000Y-63420122D01*
X147810166Y-63263440D01*
X147871300Y-63115849D01*
X147960057Y-62983015D01*
X148073015Y-62870057D01*
X148106801Y-62847482D01*
X148205847Y-62781301D01*
X148294536Y-62744565D01*
X148353440Y-62720166D01*
X148510122Y-62689000D01*
X148669878Y-62689000D01*
X148826560Y-62720166D01*
X148826560Y-62720166D01*
G37*
G36*
X133586560Y-62720166D02*
X133645465Y-62744565D01*
X133734153Y-62781301D01*
X133833199Y-62847482D01*
X133866985Y-62870057D01*
X133979943Y-62983015D01*
X134068700Y-63115849D01*
X134129834Y-63263440D01*
X134161000Y-63420122D01*
X134161000Y-63579878D01*
X134129834Y-63736560D01*
X134068700Y-63884151D01*
X133979943Y-64016985D01*
X133866985Y-64129943D01*
X133866982Y-64129945D01*
X133734153Y-64218699D01*
X133734152Y-64218700D01*
X133734151Y-64218700D01*
X133586560Y-64279834D01*
X133429878Y-64311000D01*
X133270122Y-64311000D01*
X133113440Y-64279834D01*
X132965849Y-64218700D01*
X132965848Y-64218700D01*
X132965847Y-64218699D01*
X132833018Y-64129945D01*
X132833015Y-64129943D01*
X132720057Y-64016985D01*
X132631300Y-63884151D01*
X132570166Y-63736560D01*
X132539000Y-63579878D01*
X132539000Y-63420122D01*
X132570166Y-63263440D01*
X132631300Y-63115849D01*
X132720057Y-62983015D01*
X132833015Y-62870057D01*
X132866801Y-62847482D01*
X132965847Y-62781301D01*
X133054536Y-62744565D01*
X133113440Y-62720166D01*
X133270122Y-62689000D01*
X133429878Y-62689000D01*
X133586560Y-62720166D01*
X133586560Y-62720166D01*
G37*
G36*
X131046560Y-62720166D02*
X131105465Y-62744565D01*
X131194153Y-62781301D01*
X131293199Y-62847482D01*
X131326985Y-62870057D01*
X131439943Y-62983015D01*
X131528700Y-63115849D01*
X131589834Y-63263440D01*
X131621000Y-63420122D01*
X131621000Y-63579878D01*
X131589834Y-63736560D01*
X131528700Y-63884151D01*
X131439943Y-64016985D01*
X131326985Y-64129943D01*
X131326982Y-64129945D01*
X131194153Y-64218699D01*
X131194152Y-64218700D01*
X131194151Y-64218700D01*
X131046560Y-64279834D01*
X130889878Y-64311000D01*
X130730122Y-64311000D01*
X130573440Y-64279834D01*
X130425849Y-64218700D01*
X130425848Y-64218700D01*
X130425847Y-64218699D01*
X130293018Y-64129945D01*
X130293015Y-64129943D01*
X130180057Y-64016985D01*
X130091300Y-63884151D01*
X130030166Y-63736560D01*
X129999000Y-63579878D01*
X129999000Y-63420122D01*
X130030166Y-63263440D01*
X130091300Y-63115849D01*
X130180057Y-62983015D01*
X130293015Y-62870057D01*
X130326801Y-62847482D01*
X130425847Y-62781301D01*
X130514536Y-62744565D01*
X130573440Y-62720166D01*
X130730122Y-62689000D01*
X130889878Y-62689000D01*
X131046560Y-62720166D01*
X131046560Y-62720166D01*
G37*
G36*
X94228228Y-61486704D02*
X94383100Y-61550854D01*
X94522481Y-61643986D01*
X94641015Y-61762520D01*
X94734147Y-61901901D01*
X94798297Y-62056773D01*
X94831000Y-62221185D01*
X94831000Y-62388817D01*
X94798297Y-62553229D01*
X94734147Y-62708101D01*
X94641015Y-62847482D01*
X94522481Y-62966016D01*
X94383100Y-63059148D01*
X94228228Y-63123298D01*
X94063816Y-63156001D01*
X93896184Y-63156001D01*
X93731772Y-63123298D01*
X93576900Y-63059148D01*
X93437519Y-62966016D01*
X93318985Y-62847482D01*
X93225853Y-62708101D01*
X93161703Y-62553229D01*
X93129000Y-62388817D01*
X93129000Y-62221185D01*
X93161703Y-62056773D01*
X93225853Y-61901901D01*
X93318985Y-61762520D01*
X93437519Y-61643986D01*
X93576900Y-61550854D01*
X93731772Y-61486704D01*
X93896184Y-61454001D01*
X94063816Y-61454001D01*
X94228228Y-61486704D01*
X94228228Y-61486704D01*
G37*
G36*
X109468228Y-61486704D02*
X109623100Y-61550854D01*
X109762481Y-61643986D01*
X109881015Y-61762520D01*
X109974147Y-61901901D01*
X110038297Y-62056773D01*
X110071000Y-62221185D01*
X110071000Y-62388817D01*
X110038297Y-62553229D01*
X109974147Y-62708101D01*
X109881015Y-62847482D01*
X109762481Y-62966016D01*
X109623100Y-63059148D01*
X109468228Y-63123298D01*
X109303816Y-63156001D01*
X109136184Y-63156001D01*
X108971772Y-63123298D01*
X108816900Y-63059148D01*
X108677519Y-62966016D01*
X108558985Y-62847482D01*
X108465853Y-62708101D01*
X108401703Y-62553229D01*
X108369000Y-62388817D01*
X108369000Y-62221185D01*
X108401703Y-62056773D01*
X108465853Y-61901901D01*
X108558985Y-61762520D01*
X108677519Y-61643986D01*
X108816900Y-61550854D01*
X108971772Y-61486704D01*
X109136184Y-61454001D01*
X109303816Y-61454001D01*
X109468228Y-61486704D01*
X109468228Y-61486704D01*
G37*
G36*
X109468228Y-58946704D02*
X109623100Y-59010854D01*
X109762481Y-59103986D01*
X109881015Y-59222520D01*
X109974147Y-59361901D01*
X110038297Y-59516773D01*
X110071000Y-59681185D01*
X110071000Y-59848817D01*
X110038297Y-60013229D01*
X109974147Y-60168101D01*
X109881015Y-60307482D01*
X109762481Y-60426016D01*
X109623100Y-60519148D01*
X109468228Y-60583298D01*
X109303816Y-60616001D01*
X109136184Y-60616001D01*
X108971772Y-60583298D01*
X108816900Y-60519148D01*
X108677519Y-60426016D01*
X108558985Y-60307482D01*
X108465853Y-60168101D01*
X108401703Y-60013229D01*
X108369000Y-59848817D01*
X108369000Y-59681185D01*
X108401703Y-59516773D01*
X108465853Y-59361901D01*
X108558985Y-59222520D01*
X108677519Y-59103986D01*
X108816900Y-59010854D01*
X108971772Y-58946704D01*
X109136184Y-58914001D01*
X109303816Y-58914001D01*
X109468228Y-58946704D01*
X109468228Y-58946704D01*
G37*
G36*
X94228228Y-58946704D02*
X94383100Y-59010854D01*
X94522481Y-59103986D01*
X94641015Y-59222520D01*
X94734147Y-59361901D01*
X94798297Y-59516773D01*
X94831000Y-59681185D01*
X94831000Y-59848817D01*
X94798297Y-60013229D01*
X94734147Y-60168101D01*
X94641015Y-60307482D01*
X94522481Y-60426016D01*
X94383100Y-60519148D01*
X94228228Y-60583298D01*
X94063816Y-60616001D01*
X93896184Y-60616001D01*
X93731772Y-60583298D01*
X93576900Y-60519148D01*
X93437519Y-60426016D01*
X93318985Y-60307482D01*
X93225853Y-60168101D01*
X93161703Y-60013229D01*
X93129000Y-59848817D01*
X93129000Y-59681185D01*
X93161703Y-59516773D01*
X93225853Y-59361901D01*
X93318985Y-59222520D01*
X93437519Y-59103986D01*
X93576900Y-59010854D01*
X93731772Y-58946704D01*
X93896184Y-58914001D01*
X94063816Y-58914001D01*
X94228228Y-58946704D01*
X94228228Y-58946704D01*
G37*
G36*
X109468228Y-56406704D02*
X109623100Y-56470854D01*
X109762481Y-56563986D01*
X109881015Y-56682520D01*
X109974147Y-56821901D01*
X110038297Y-56976773D01*
X110071000Y-57141185D01*
X110071000Y-57308817D01*
X110038297Y-57473229D01*
X109974147Y-57628101D01*
X109881015Y-57767482D01*
X109762481Y-57886016D01*
X109623100Y-57979148D01*
X109468228Y-58043298D01*
X109303816Y-58076001D01*
X109136184Y-58076001D01*
X108971772Y-58043298D01*
X108816900Y-57979148D01*
X108677519Y-57886016D01*
X108558985Y-57767482D01*
X108465853Y-57628101D01*
X108401703Y-57473229D01*
X108369000Y-57308817D01*
X108369000Y-57141185D01*
X108401703Y-56976773D01*
X108465853Y-56821901D01*
X108558985Y-56682520D01*
X108677519Y-56563986D01*
X108816900Y-56470854D01*
X108971772Y-56406704D01*
X109136184Y-56374001D01*
X109303816Y-56374001D01*
X109468228Y-56406704D01*
X109468228Y-56406704D01*
G37*
G36*
X94831000Y-58076001D02*
X93129000Y-58076001D01*
X93129000Y-56374001D01*
X94831000Y-56374001D01*
X94831000Y-58076001D01*
X94831000Y-58076001D01*
G37*
M02*
