M48
;DRILL file {KiCad (5.0.1-3-g963ef8bb5)} date Thursday, 16 January 2020 at 13:34:56
;FORMAT={-:-/ absolute / inch / decimal}
FMAT,2
INCH,TZ
T1C0.0157
T2C0.0319
T3C0.0394
T4C0.0433
T5C0.1000
%
G90
G05
M72
T1
X4.15Y-3.
X4.85Y-3.6
X4.95Y-2.9
X5.05Y-2.4
X5.05Y-3.
X5.15Y-3.1
X5.25Y-3.2
X5.35Y-3.3
X5.45Y-3.4
X5.55Y-3.5
T2
X5.15Y-2.5
X5.15Y-2.6
X5.25Y-2.5
X5.25Y-2.6
X5.35Y-2.5
X5.35Y-2.6
X5.45Y-2.5
X5.45Y-2.6
X5.55Y-2.5
X5.55Y-2.6
X5.65Y-2.5
X5.65Y-2.6
X5.75Y-2.5
X5.75Y-2.6
X5.85Y-2.5
X5.85Y-2.6
X5.95Y-2.5
X5.95Y-2.6
X6.05Y-2.5
X6.05Y-2.6
T3
X3.55Y-3.
X3.55Y-3.15
X4.65Y-3.8
X4.75Y-3.8
X4.85Y-3.8
X4.95Y-3.8
X5.05Y-3.8
X5.15Y-3.8
X5.25Y-3.8
X5.35Y-3.8
X5.45Y-3.8
X5.55Y-3.8
X5.65Y-3.8
X5.75Y-3.8
X5.85Y-3.8
X5.95Y-3.8
X6.05Y-3.8
X6.15Y-3.8
X6.25Y-3.8
X6.35Y-3.8
X6.45Y-3.8
X6.55Y-3.8
X3.55Y-2.85
X3.55Y-3.45
X3.55Y-3.55
X3.55Y-3.65
X3.55Y-3.75
X3.55Y-3.85
X3.55Y-3.95
X3.55Y-4.05
X3.55Y-4.15
T4
X3.7Y-2.253
X3.7Y-2.353
X3.7Y-2.453
X3.7Y-2.553
X3.7Y-2.653
X3.7Y-2.753
X3.7Y-2.853
X3.7Y-2.953
X3.7Y-3.053
X3.7Y-3.153
X3.7Y-3.253
X3.7Y-3.353
X3.7Y-3.453
X3.7Y-3.553
X3.7Y-3.653
X3.7Y-3.753
X3.7Y-3.853
X3.7Y-3.953
X3.7Y-4.053
X3.7Y-4.153
X3.9Y-3.853
X3.9Y-4.153
X4.Y-3.553
X4.Y-3.653
X4.Y-3.753
X4.Y-3.853
X4.Y-4.153
X4.1Y-3.553
X4.1Y-3.653
X4.1Y-3.753
X4.1Y-3.853
X4.1Y-4.153
X4.3Y-2.253
X4.3Y-2.353
X4.3Y-2.453
X4.3Y-2.553
X4.3Y-2.653
X4.3Y-2.753
X4.3Y-2.853
X4.3Y-2.953
X4.3Y-3.053
X4.3Y-3.153
X4.3Y-3.253
X4.3Y-3.353
X4.3Y-3.453
X4.3Y-3.553
X4.3Y-3.653
X4.3Y-3.753
X4.3Y-3.853
X4.3Y-3.953
X4.3Y-4.053
X4.3Y-4.153
X3.8Y-4.3
X4.2Y-4.3
T5
X4.9201Y-2.5299
X6.2799Y-2.5299
T0
M30
